<svg width="20" height="20" viewBox="0 0 20 20" fill="none" xmlns="http://www.w3.org/2000/svg">
<path d="M14.375 8.96792V6.25C14.375 5.08968 13.9141 3.97688 13.0936 3.15641C12.2731 2.33594 11.1603 1.875 10 1.875C8.83968 1.875 7.72688 2.33594 6.90641 3.15641C6.08594 3.97688 5.625 5.08968 5.625 6.25V8.96792C4.95754 9.79385 4.53752 10.7919 4.4135 11.8465C4.28948 12.9012 4.46653 13.9694 4.92418 14.9276C5.38183 15.8859 6.10138 16.695 6.99962 17.2614C7.89785 17.8279 8.93808 18.1285 10 18.1285C11.0619 18.1285 12.1022 17.8279 13.0004 17.2614C13.8986 16.695 14.6182 15.8859 15.0758 14.9276C15.5335 13.9694 15.7105 12.9012 15.5865 11.8465C15.4625 10.7919 15.0425 9.79385 14.375 8.96792Z" stroke="#545454" stroke-linecap="round" stroke-linejoin="round"/>
<path d="M10 6.875C10.868 6.87555 11.7239 7.07812 12.5 7.46667V6.25C12.5 5.58696 12.2366 4.95107 11.7678 4.48223C11.2989 4.01339 10.663 3.75 10 3.75C9.33696 3.75 8.70107 4.01339 8.23223 4.48223C7.76339 4.95107 7.5 5.58696 7.5 6.25V7.46667C8.27612 7.0781 9.13204 6.87553 10 6.875ZM11.4583 11.6667C11.4592 11.4055 11.39 11.1488 11.2578 10.9235C11.1256 10.6983 10.9354 10.5126 10.7069 10.386C10.4785 10.2594 10.2202 10.1965 9.95909 10.2038C9.69799 10.2111 9.44366 10.2884 9.22266 10.4277C9.00167 10.5669 8.82212 10.7629 8.70278 10.9953C8.58345 11.2276 8.5287 11.4877 8.54427 11.7485C8.55983 12.0092 8.64514 12.261 8.79128 12.4775C8.93741 12.694 9.13901 12.8672 9.375 12.9792V15H10.625V12.9792C10.8738 12.8616 11.0842 12.6759 11.2317 12.4436C11.3792 12.2113 11.4578 11.9419 11.4583 11.6667Z" stroke="#545454" stroke-linecap="round" stroke-linejoin="round"/>
</svg>
