<svg width="75" height="73" viewBox="0 0 75 73" fill="none" xmlns="http://www.w3.org/2000/svg">
<rect x="1.5" y="1.5" width="52" height="55" rx="4.5" stroke="#4692B6" stroke-width="3"/>
<circle cx="53.335" cy="51.335" r="18.335" fill="white"/>
<path fill-rule="evenodd" clip-rule="evenodd" d="M53.0001 32.6666C42.8819 32.6666 34.6667 40.8818 34.6667 51C34.6667 61.1181 42.8819 69.3333 53.0001 69.3333C63.1182 69.3333 71.3334 61.1181 71.3334 51C71.3334 40.8818 63.1182 32.6666 53.0001 32.6666ZM53.0001 36.3333C61.0942 36.3333 67.6667 42.9058 67.6667 51C67.6667 59.0941 61.0942 65.6666 53.0001 65.6666C44.9059 65.6666 38.3334 59.0941 38.3334 51C38.3334 42.9058 44.9059 36.3333 53.0001 36.3333ZM51.1667 46.259V60.1666C51.1667 61.1786 51.9881 62 53.0001 62C54.0121 62 54.8334 61.1786 54.8334 60.1666V46.2003L57.2167 48.5396C57.9372 49.2473 59.0996 49.2363 59.8091 48.514C60.5168 47.7935 60.5058 46.6311 59.7834 45.9216L54.2834 40.5243C53.5666 39.8203 52.4152 39.8258 51.7039 40.5371L46.2039 46.0371C45.4889 46.7521 45.4889 47.9145 46.2039 48.6295C46.9189 49.3445 48.0812 49.3445 48.7962 48.6295L51.1667 46.259Z" fill="#4692B6"/>
<path d="M14.75 36.4375C15.4746 36.4375 16.0625 35.85 16.0625 35.125V22.875C16.0625 22.15 15.4746 21.5625 14.75 21.5625C14.0254 21.5625 13.4375 22.15 13.4375 22.875V35.125C13.4375 35.85 14.0254 36.4375 14.75 36.4375ZM20.9622 39.858V18.142C20.9622 17.4169 20.3743 16.8295 19.6497 16.8295C18.9251 16.8295 18.3372 17.4169 18.3372 18.142V39.858C18.3372 40.5831 18.9251 41.1705 19.6497 41.1705C20.3743 41.1705 20.9622 40.5831 20.9622 39.858ZM25.8627 35.125V22.875C25.8627 22.15 25.2748 21.5625 24.5502 21.5625C23.8256 21.5625 23.2377 22.15 23.2377 22.875V35.125C23.2377 35.85 23.8256 36.4375 24.5502 36.4375C25.2748 36.4375 25.8627 35.85 25.8627 35.125ZM30.7623 39.858V18.142C30.7623 17.4169 30.1744 16.8295 29.4498 16.8295C28.7252 16.8295 28.1373 17.4169 28.1373 18.142V39.858C28.1373 40.5831 28.7252 41.1705 29.4498 41.1705C30.1744 41.1705 30.7623 40.5831 30.7623 39.858ZM35.6628 35.125V22.875C35.6628 22.15 35.0749 21.5625 34.3503 21.5625C33.6257 21.5625 33.0378 22.15 33.0378 22.875V35.125C33.0378 35.85 33.6257 36.4375 34.3503 36.4375C35.0749 36.4375 35.6628 35.85 35.6628 35.125ZM39.25 16.8295C38.5254 16.8295 37.9375 17.4169 37.9375 18.142V39.858C37.9375 40.5831 38.5254 41.1705 39.25 41.1705C39.9746 41.1705 40.5625 40.5831 40.5625 39.858V18.142C40.5625 17.4169 39.9746 16.8295 39.25 16.8295Z" fill="#4692B6"/>
</svg>
