<svg width="73" height="73" viewBox="0 0 73 73" fill="none" xmlns="http://www.w3.org/2000/svg">
<circle cx="36.5" cy="36.5" r="35" stroke="#4692B6" stroke-width="3"/>
<path d="M41.6528 15.7812C39.6717 15.7855 37.7729 16.5743 36.3721 17.9752C34.9712 19.3761 34.1824 21.2748 34.1781 23.2559V26.2203C31.7191 26.5963 29.4761 27.8406 27.8554 29.7278C26.2348 31.615 25.3438 34.0204 25.3438 36.508C25.3438 38.9956 26.2348 41.4009 27.8554 43.2881C29.4761 45.1754 31.7191 46.4197 34.1781 46.7956V49.6166H29.3969C28.3189 49.6291 27.2893 50.0662 26.5315 50.833C25.7737 51.5998 25.3487 52.6344 25.3488 53.7125V57.2188H46.195V53.7125C46.193 53.1685 46.083 52.6302 45.8714 52.129C45.6599 51.6278 45.351 51.1735 44.9626 50.7925C44.5742 50.4116 44.114 50.1114 43.6088 49.9096C43.1036 49.7077 42.5634 49.6081 42.0194 49.6166H37.2381V43.7356H35.6444C33.8188 43.8032 32.0352 43.1778 30.6517 41.9848C29.2681 40.7918 28.3871 39.1197 28.1853 37.304C27.9836 35.4883 28.4761 33.6635 29.564 32.196C30.652 30.7284 32.2547 29.7267 34.0506 29.3919V34.97C34.0506 36.9524 34.8382 38.8536 36.2399 40.2554C37.6417 41.6572 39.5429 42.4447 41.5253 42.4447C43.5077 42.4447 45.409 41.6572 46.8107 40.2554C48.2125 38.8536 49 36.9524 49 34.97V23.2559C48.9962 21.2967 48.2249 19.4169 46.8514 18.0196C45.478 16.6223 43.6117 15.8188 41.6528 15.7812ZM43.1191 26.0769H45.94V29.2644H43.1191C42.6964 29.2644 42.291 29.0965 41.9921 28.7976C41.6932 28.4987 41.5253 28.0933 41.5253 27.6706C41.5253 27.2479 41.6932 26.8426 41.9921 26.5437C42.291 26.2448 42.6964 26.0769 43.1191 26.0769ZM43.1191 33.6791C42.6964 33.6791 42.291 33.5112 41.9921 33.2123C41.6932 32.9134 41.5253 32.508 41.5253 32.0853C41.5253 31.6626 41.6932 31.2572 41.9921 30.9584C42.291 30.6595 42.6964 30.4916 43.1191 30.4916H45.94V33.6791H43.1191Z" fill="#4692B6"/>
</svg>
