<svg width="160" height="131" viewBox="0 0 160 131" fill="none" xmlns="http://www.w3.org/2000/svg">
<circle cx="80" cy="69" r="47.5" stroke="#4692B6" stroke-width="5"/>
<circle cx="38.5" cy="3.5" r="3.5" fill="#4692B6"/>
<circle cx="29.5" cy="122.5" r="3.5" fill="#4692B6"/>
<circle cx="106.5" cy="3.5" r="3.5" fill="#4692B6"/>
<circle cx="129.5" cy="127.5" r="3.5" fill="#4692B6"/>
<circle cx="3.5" cy="55.5" r="3.5" fill="#4692B6"/>
<circle cx="156.5" cy="55.5" r="3.5" fill="#4692B6"/>
<path d="M100.408 59.7209L75.4084 84.7209C75.1906 84.9394 74.9319 85.1127 74.647 85.231C74.3621 85.3493 74.0567 85.4102 73.7482 85.4102C73.4397 85.4102 73.1343 85.3493 72.8494 85.231C72.5645 85.1127 72.3058 84.9394 72.088 84.7209L61.1505 73.7834C60.9325 73.5653 60.7596 73.3065 60.6416 73.0217C60.5236 72.7368 60.4629 72.4315 60.4629 72.1232C60.4629 71.8149 60.5236 71.5096 60.6416 71.2247C60.7596 70.9399 60.9325 70.6811 61.1505 70.4631C61.3686 70.245 61.6274 70.0721 61.9122 69.9541C62.1971 69.8361 62.5024 69.7754 62.8107 69.7754C63.119 69.7754 63.4243 69.8361 63.7092 69.9541C63.994 70.0721 64.2528 70.245 64.4709 70.4631L73.7502 79.7423L97.092 56.4045C97.5323 55.9642 98.1294 55.7168 98.7521 55.7168C99.3748 55.7168 99.972 55.9642 100.412 56.4045C100.853 56.8448 101.1 57.4419 101.1 58.0646C101.1 58.6873 100.853 59.2845 100.412 59.7248L100.408 59.7209Z" fill="#4692B6"/>
</svg>
