<svg width="20" height="20" viewBox="0 0 20 20" fill="none" xmlns="http://www.w3.org/2000/svg">
<path fill-rule="evenodd" clip-rule="evenodd" d="M9.99984 19.1667C15.0589 19.1667 19.1665 15.0591 19.1665 10C19.1665 4.94094 15.0589 0.833353 9.99984 0.833353C4.94075 0.833353 0.83317 4.94094 0.83317 10C0.83317 15.0591 4.94075 19.1667 9.99984 19.1667ZM9.99984 17.3334C5.95275 17.3334 2.6665 14.0471 2.6665 10C2.6665 5.95294 5.95275 2.66669 9.99984 2.66669C14.0469 2.66669 17.3332 5.95294 17.3332 10C17.3332 14.0471 14.0469 17.3334 9.99984 17.3334ZM10.9165 12.3705L10.9165 5.41669C10.9165 4.91069 10.5058 4.50002 9.99984 4.50002C9.49384 4.50002 9.08317 4.91069 9.08317 5.41669L9.08317 12.3998L7.8915 11.2302C7.53125 10.8764 6.95009 10.8819 6.59534 11.243C6.2415 11.6033 6.247 12.1844 6.60817 12.5392L9.35817 15.2379C9.71659 15.5899 10.2923 15.5871 10.6479 15.2314L13.3979 12.4814C13.7554 12.1239 13.7554 11.5428 13.3979 11.1853C13.0404 10.8278 12.4593 10.8278 12.1018 11.1853L10.9165 12.3705Z" fill="#4692B6"/>
</svg>
