<svg width="342" height="342" viewBox="0 0 342 342" fill="none" xmlns="http://www.w3.org/2000/svg">
<path d="M169.371 326.36C255.606 325.664 325.201 286.394 324.816 238.647C324.43 190.9 254.211 152.757 167.976 153.453C81.7404 154.149 12.1453 193.419 12.5305 241.166C12.9157 288.913 83.1354 327.056 169.371 326.36Z" fill="#F5F5F5"/>
<path d="M182.961 291.367C211.808 291.134 235.089 277.998 234.96 262.026C234.831 246.054 211.342 233.294 182.494 233.527C153.647 233.76 130.366 246.896 130.495 262.868C130.624 278.84 154.114 291.6 182.961 291.367Z" fill="#E0E0E0"/>
<path d="M276.645 258.813C291.158 258.696 302.87 252.087 302.806 244.052C302.741 236.016 290.923 229.597 276.411 229.714C261.898 229.831 250.185 236.44 250.25 244.476C250.315 252.511 262.133 258.93 276.645 258.813Z" fill="#E0E0E0"/>
<path d="M72.2271 278.575C99.7024 278.354 121.876 265.841 121.753 250.629C121.631 235.416 99.2579 223.263 71.7826 223.485C44.3073 223.707 22.1337 236.219 22.2564 251.431C22.3791 266.644 44.7518 278.797 72.2271 278.575Z" fill="#E0E0E0"/>
<path d="M263.317 247.66C256.221 240.536 251.852 211.346 258.67 205.596L293.594 205.314C300.502 210.952 296.609 240.198 289.633 247.44C289.574 247.508 289.505 247.573 289.442 247.64C289.362 247.72 289.283 247.801 289.202 247.878C289.005 248.072 288.795 248.263 288.57 248.449C288.515 248.495 288.459 248.537 288.403 248.582C288.232 248.719 288.063 248.856 287.875 248.988C287.576 249.203 287.276 249.404 286.97 249.577C281.208 252.965 271.823 253.041 266.008 249.746L266.007 249.746C265.697 249.577 265.39 249.38 265.087 249.168C264.911 249.048 264.752 248.922 264.589 248.798C264.52 248.744 264.45 248.693 264.38 248.637C264.16 248.46 263.955 248.28 263.762 248.096C263.667 248.008 263.574 247.916 263.48 247.824C263.426 247.769 263.367 247.715 263.317 247.66Z" fill="#37474F"/>
<path d="M290.543 203.044C298.549 207.58 298.609 215.04 290.677 219.704C282.746 224.369 269.827 224.473 261.821 219.937C253.816 215.401 253.755 207.942 261.687 203.277C269.618 198.612 282.537 198.508 290.543 203.044Z" fill="#455A64"/>
<path d="M286.728 205.288C292.608 208.62 292.651 214.097 286.827 217.523C281.002 220.95 271.515 221.026 265.635 217.694C259.756 214.363 259.712 208.885 265.536 205.459C271.361 202.033 280.849 201.957 286.728 205.288Z" fill="#263238"/>
<path d="M265.583 211.266C271.408 207.84 280.896 207.763 286.775 211.095C288.409 212.02 289.574 213.114 290.306 214.28C289.593 215.459 288.445 216.571 286.827 217.523C281.002 220.949 271.515 221.025 265.635 217.694C264.002 216.768 262.836 215.674 262.104 214.508C262.817 213.33 263.965 212.218 265.583 211.266Z" fill="#F5F5F5"/>
<path d="M279.51 201.921L274.467 198.397C274.467 198.397 270.193 176.909 273.659 167.599C277.126 158.289 283.656 158.293 286.789 160.751C289.923 163.21 288.28 170.991 287.04 175.497C285.549 180.923 280.856 205.203 284.371 213.771L279.51 201.921Z" fill="#4692B6"/>
<g opacity="0.2">
<path d="M279.51 201.921L274.467 198.397C274.467 198.397 270.193 176.909 273.659 167.599C277.126 158.289 283.656 158.293 286.789 160.751C289.923 163.21 288.28 170.991 287.04 175.497C285.549 180.923 280.856 205.203 284.371 213.771L279.51 201.921Z" fill="black"/>
</g>
<path d="M278.487 199.428C278.674 199.351 278.782 199.15 278.736 198.948C274.523 180.575 282.773 163.396 282.857 163.225C282.959 163.017 282.872 162.766 282.665 162.665C282.458 162.562 282.207 162.65 282.106 162.856C282.021 163.03 273.639 180.465 277.921 199.133C277.972 199.359 278.197 199.5 278.422 199.448C278.444 199.444 278.467 199.436 278.487 199.428Z" fill="white"/>
<path d="M277.313 196.34C277.313 196.34 276.742 194.649 279.228 194.2C281.714 193.751 282.654 191.671 282.859 188.196C283.065 184.72 284.093 182.219 287.212 181.681C290.331 181.142 292.858 182.695 294.875 181.115C296.891 179.535 302.104 175.713 306.487 177.398C310.869 179.084 309.467 182.825 307.215 185.263C304.963 187.7 304.31 188.52 306.081 192.44C307.851 196.359 306.615 200.044 302.603 200.996C298.591 201.947 296.342 201.495 296.315 205.906C296.29 209.843 295.519 213.539 291.417 215.063C288.19 216.262 284.661 216.639 281.254 216.148C280.169 215.992 278.926 215.671 278.122 214.874C277.28 214.04 277.449 213.105 277.44 212.007C277.421 209.648 277.402 207.289 277.383 204.931C277.36 202.067 277.337 199.204 277.313 196.34Z" fill="#4692B6"/>
<g opacity="0.1">
<path d="M277.313 196.34C277.313 196.34 276.742 194.649 279.228 194.2C281.714 193.751 282.654 191.671 282.859 188.196C283.065 184.72 284.093 182.219 287.212 181.681C290.331 181.142 292.858 182.695 294.875 181.115C296.891 179.535 302.104 175.713 306.487 177.398C310.869 179.084 309.467 182.825 307.215 185.263C304.963 187.7 304.31 188.52 306.081 192.44C307.851 196.359 306.615 200.044 302.603 200.996C298.591 201.947 296.342 201.495 296.315 205.906C296.29 209.843 295.519 213.539 291.417 215.063C288.19 216.262 284.661 216.639 281.254 216.148C280.169 215.992 278.926 215.671 278.122 214.874C277.28 214.04 277.449 213.105 277.44 212.007C277.421 209.648 277.402 207.289 277.383 204.931C277.36 202.067 277.337 199.204 277.313 196.34Z" fill="black"/>
</g>
<path d="M277.459 214.504C277.603 214.502 277.737 214.41 277.784 214.266C284.924 192.486 301.409 183.58 301.574 183.492C301.743 183.404 301.808 183.194 301.718 183.025C301.63 182.857 301.422 182.791 301.252 182.881C301.084 182.969 284.358 191.993 277.128 214.051C277.068 214.232 277.167 214.427 277.348 214.486C277.386 214.498 277.423 214.504 277.459 214.504Z" fill="white"/>
<path d="M287.801 195.485C287.827 195.485 287.852 195.482 287.878 195.475C292.645 194.345 300.294 194.874 300.371 194.878C300.563 194.892 300.726 194.749 300.74 194.558C300.753 194.368 300.61 194.202 300.419 194.19C300.102 194.166 292.588 193.649 287.718 194.804C287.533 194.848 287.418 195.033 287.462 195.219C287.5 195.379 287.643 195.486 287.801 195.485Z" fill="white"/>
<path d="M283.991 205.956C286.174 205.938 288.489 205.778 288.634 205.767C288.824 205.753 288.968 205.588 288.954 205.398C288.941 205.208 288.777 205.055 288.585 205.077C288.532 205.08 283.198 205.452 281.114 205.141C280.924 205.115 280.749 205.243 280.722 205.431C280.693 205.619 280.823 205.796 281.012 205.824C281.752 205.935 282.854 205.965 283.991 205.956Z" fill="white"/>
<path d="M290.023 192.915C290.029 192.915 290.036 192.915 290.042 192.914C290.233 192.902 290.378 192.738 290.365 192.548C290.122 188.719 288.825 185.426 288.77 185.287C288.699 185.11 288.497 185.022 288.321 185.094C288.144 185.164 288.057 185.365 288.128 185.543C288.141 185.575 289.44 188.876 289.677 192.591C289.687 192.775 289.841 192.916 290.023 192.915Z" fill="white"/>
<path d="M277.348 216.858C277.348 216.858 272.839 218.587 266.741 217.332C260.642 216.077 259.138 212.369 259.138 212.369C259.138 212.369 263.436 207.824 267.275 207.54C267.275 207.54 261.308 206.584 255.743 207.877C255.743 207.877 252.209 206.607 252.829 200.717C252.829 200.717 256.126 198.273 263.769 199.159C263.769 199.159 259.921 196.489 253.208 195.746C252.68 195.755 253.332 188.083 253.944 184.661C254.556 181.238 255.829 181.756 258.575 182.029C261.32 182.301 269.971 185.08 271.016 187.039C272.062 188.999 271.089 193.989 271.089 193.989C271.089 193.989 273.582 191.896 274.116 189.392C274.116 189.392 276.941 189.485 279.376 191.517C281.81 193.548 281.118 194.847 280.351 196.886C279.53 199.066 278.77 200.433 277.226 202.642C277.226 202.642 279.791 201.696 282.183 195.549C282.183 195.549 284.75 200.216 285.222 203.574C285.694 206.933 282.566 214.076 277.348 216.858Z" fill="#4692B6"/>
<path d="M277.227 217.182C277.107 217.137 277.016 217.026 277.004 216.889C275.991 205.492 262.944 187.78 257.211 184.25C257.049 184.15 256.998 183.936 257.098 183.773C257.198 183.61 257.412 183.563 257.574 183.66C263.4 187.249 276.664 205.248 277.692 216.827C277.709 217.018 277.568 217.186 277.378 217.202C277.325 217.207 277.274 217.2 277.227 217.182Z" fill="white"/>
<path d="M72.6374 275.404C72.0594 275.409 71.5878 274.945 71.5831 274.367L71.0407 207.13C71.036 206.552 71.5001 206.08 72.078 206.076C72.656 206.071 73.1276 206.535 73.1323 207.113L73.6747 274.35C73.6794 274.928 73.2153 275.4 72.6374 275.404Z" fill="#4692B6"/>
<path d="M114.04 250.595C113.624 250.599 113.229 250.352 113.062 249.941L92.0236 197.921C91.8066 197.386 92.0657 196.776 92.6009 196.56C93.1341 196.341 93.7449 196.601 93.962 197.138L115.001 249.157C115.218 249.693 114.959 250.302 114.424 250.518C114.299 250.57 114.168 250.594 114.04 250.595Z" fill="#4692B6"/>
<path d="M111.512 244.347C111.235 244.349 110.957 244.242 110.75 244.026L72.0573 203.738L34.0882 244.473C33.6942 244.896 33.0329 244.92 32.6104 244.524C32.1873 244.13 32.1648 243.469 32.5588 243.046L71.2813 201.502C71.4766 201.292 71.7506 201.172 72.0372 201.169L72.0386 201.169C72.3259 201.167 72.6011 201.283 72.7998 201.491L112.257 242.576C112.658 242.993 112.644 243.655 112.228 244.055C112.027 244.248 111.771 244.345 111.512 244.347Z" fill="#4692B6"/>
<path d="M30.8406 251.266C30.7127 251.267 30.5819 251.245 30.4556 251.196C29.917 250.989 29.6481 250.383 29.8564 249.844L50.0532 197.492C50.2616 196.952 50.8669 196.683 51.4048 196.893C51.9435 197.1 52.2124 197.706 52.004 198.245L31.8072 250.597C31.6484 251.01 31.2571 251.263 30.8406 251.266Z" fill="#4692B6"/>
<path d="M112.556 242.727L115.339 249.898C115.356 249.96 115.365 250.02 115.365 250.082C115.37 250.123 115.37 250.167 115.366 250.213C115.343 250.36 115.158 250.549 114.96 250.669C114.504 250.939 113.76 250.945 113.3 250.683C113.132 250.586 113.025 250.468 112.975 250.346C112.975 250.342 112.975 250.338 112.971 250.334L112.949 250.236L110.368 243.513L112.556 242.727Z" fill="#27DEBF"/>
<path d="M32.1977 243.375L29.5301 250.59C29.5142 250.652 29.5064 250.713 29.5069 250.775C29.5032 250.816 29.5035 250.86 29.508 250.905C29.5338 251.052 29.7214 251.239 29.9227 251.355C30.3824 251.618 31.1259 251.612 31.582 251.342C31.7488 251.243 31.8539 251.123 31.9021 251C31.9021 250.996 31.9021 250.992 31.9062 250.988L31.9259 250.89L34.3988 244.125L32.1977 243.375Z" fill="#27DEBF"/>
<path d="M73.7924 269.143L73.8404 275.094C73.8418 275.271 73.7256 275.451 73.4914 275.588C73.023 275.864 72.259 275.87 71.7863 275.602C71.5499 275.469 71.4308 275.291 71.4294 275.113L71.3813 269.162C72.1818 268.753 72.9854 268.747 73.7924 269.143Z" fill="#27DEBF"/>
<path d="M114.881 196.97C114.864 195.254 113.347 193.436 110.149 191.398C104.24 187.632 91.0472 180.084 82.787 175.593C82.7694 175.532 82.7173 175.527 82.7173 175.527C76.3575 171.737 70.3079 153.495 65.8156 139.631C64.2842 134.906 62.4343 132.239 60.2567 130.998C59.7399 130.704 57.8355 129.674 57.4094 129.423C53.0912 126.883 47.4754 130.022 40.4799 133.924C34.036 137.519 29.0159 142.095 28.0959 154.136C27.536 161.467 28.2379 175.464 29.8118 186.062C29.8111 186.061 29.8076 186.053 29.8076 186.053C32.1052 203.763 34.7504 203.772 38.6135 206.707C45.2626 211.759 60.2031 218.816 66.4938 221.231C77.9065 225.615 87.1474 218.64 94.0485 215.162C100.95 211.684 109.423 206.278 112.323 204.136C114.047 202.862 114.934 201.582 114.905 200.24C114.893 199.707 114.887 197.525 114.881 196.97Z" fill="#263238"/>
<path d="M94.0217 211.864C100.923 208.386 109.397 202.979 112.296 200.838C116.215 197.944 115.828 195.017 110.149 191.397C105.916 188.699 106.132 188.457 74.2563 171.269C74.2563 171.269 33.9964 195.468 35.772 199.862C37.5476 204.256 58.5542 214.894 66.4669 217.933C77.8796 222.317 87.1206 215.343 94.0217 211.864Z" fill="#4692B6"/>
<path d="M60.0033 130.855C55.7275 128.655 50.218 131.738 43.403 135.544C39.0374 137.982 35.3245 140.861 33.0974 146.209L30.1934 144.561C32.4207 139.234 36.1268 136.356 40.478 133.924C47.4749 130.019 53.09 126.885 57.411 129.424C57.7869 129.639 59.2881 130.46 60.0033 130.855Z" fill="#4692B6"/>
<path d="M43.4017 135.546C53.8715 129.705 61.2548 125.555 65.8159 139.631C70.3082 153.495 76.3585 171.737 82.7177 175.527C82.7177 175.527 80.6545 173.808 65.0107 185.829C60.0332 189.654 53.9811 192.803 50.0079 195.215C42.2228 199.94 37.4966 201.846 36.7419 201.23C32.5796 197.835 30.0978 167.799 31.0185 155.758C31.9385 143.716 36.9578 139.141 43.4017 135.546Z" fill="#4692B6"/>
<g opacity="0.5">
<path d="M43.4017 135.546C53.8715 129.705 61.2548 125.555 65.8159 139.631C70.3082 153.495 76.3585 171.737 82.7177 175.527C82.7177 175.527 71.8649 175.606 56.2061 184.226C39.9248 193.189 37.4966 201.845 36.7419 201.229C32.5796 197.834 30.0978 167.799 31.0185 155.757C31.9385 143.716 36.9578 139.141 43.4017 135.546Z" fill="#4692B6"/>
</g>
<path d="M244.468 100.205C247.248 99.5598 249.703 98.9559 251.585 98.4592C261.607 95.8132 264.598 92.4641 264.874 88.0212C265.315 80.9304 262.661 80.8971 258.109 84.1009C254.75 86.4646 251.95 87.3456 251.95 87.3456C252.991 85.9459 253.475 85.3155 253.817 84.4255C254.497 82.656 253.55 81.5302 252.935 81.2355C252.458 81.0061 251.984 82.2364 250.334 83.602C248.219 85.3524 246.496 85.6981 244.747 88.1138C244.091 89.0192 243.108 89.6257 242.02 89.8821C241.025 90.1124 224.663 94.7364 216.996 96.1136C212.438 90.4142 208.204 84.3243 203.392 78.2678C195.976 68.9326 192.476 67.6441 188.362 68.4283L184.883 80.2469C184.883 80.2469 209.285 108.518 209.572 108.871C211.455 111.186 214.063 112.006 216.918 111.144C227.314 108.004 238.291 103.117 244.468 100.205Z" fill="#FFA8A7"/>
<path d="M187.392 66.0564C195.975 66.3634 198.56 71.1553 203.003 76.4555C207.447 81.7557 217.155 95.3701 217.155 95.3701L240.53 90.2792C240.53 90.2792 239.613 97.0139 242.679 101.039C242.679 101.039 230.309 107.401 222.811 110.346C213.331 114.069 212.701 113.243 210.969 111.681C209.32 110.192 188.183 86.6863 188.183 86.6863L187.392 66.0564Z" fill="#576EA3"/>
<path d="M90.7384 82.7042C92.911 75.9402 95.3594 75.64 98.4312 80.2823C100.698 83.7074 102.985 85.5474 102.985 85.5474C102.525 83.8643 102.304 83.1014 102.31 82.1471C102.321 80.2516 103.614 79.5483 104.293 79.4976C104.822 79.4578 104.815 80.776 105.854 82.6493C107.186 85.0504 108.664 85.9996 109.413 88.8862C109.694 89.9682 110.424 92.1265 111.344 92.7621C116.016 95.9899 124.506 99.9544 132.934 103.131C135.868 96.8134 139.736 88.9221 142.692 83.3925C148.312 72.8775 152.074 71.6563 156.234 72.1419L160.555 83.6793C160.555 83.6793 138.25 113.633 137.989 114.006C136.279 116.45 132.754 118.156 129.985 117.046C122.088 113.881 116.192 108.239 109.477 103.759C105.484 101.096 101.722 99.0281 99.3111 97.2656C90.942 91.151 89.3765 86.9425 90.7384 82.7042Z" fill="#FFA8A7"/>
<path d="M151.902 212.371C152.015 203.475 154.64 196.858 154.829 194.387C154.829 194.387 153.747 141.497 153.678 132.916L198.768 130.713C198.768 130.713 198.566 183.747 198.625 191.097C198.684 198.448 197.835 229.711 196.786 244.105L196.784 244.105L196.692 248.838L186.652 252.049C186.652 252.049 186.828 250.664 186.587 243.951C186.345 237.237 181.63 214.02 181.162 208.118C180.558 200.487 181.746 197.391 181.561 192.287C181.377 187.182 178.085 153.818 178.085 153.818C178.085 153.818 172.7 186.669 171.385 197.822C169.878 210.6 164.98 244.093 165.029 251.871C165.041 253.264 165.057 254.878 165.081 256.626C165.137 260.834 165.006 261.947 165.693 263.568C166.898 266.406 156.828 268.275 156.343 266.256L155.192 257.905L155.19 257.664L155.19 257.663L155.148 252.362C155.085 244.437 151.738 225.27 151.902 212.371Z" fill="#FFA8A7"/>
<path d="M216.496 261.881C216.794 262.491 216.718 263.641 216.376 264.372C216.034 265.104 212.245 267.281 207.109 266.976C201.972 266.671 198.43 264.631 196.462 263.351C194.494 262.071 192.455 261.845 189.911 261.72C187.368 261.595 184.019 260.354 183.452 259.17C182.885 257.986 183.51 255.933 183.51 255.933L216.496 261.881Z" fill="#576EA3"/>
<path d="M195.648 246.024C195.781 245.995 195.917 245.965 196.054 245.937C196.277 245.891 196.509 245.844 196.731 245.895C196.983 245.953 197.192 246.129 197.368 246.318C197.925 246.913 198.264 247.674 198.696 248.366C199.786 250.113 202.057 251.548 204.536 252.854C206.22 253.742 207.868 254.428 209.607 255.193C211.379 255.973 213.728 256.44 215.117 257.36C217.143 258.702 217.431 262.111 215.146 263.477C213.176 264.655 207.976 265.957 202.499 264.453C199.516 263.634 196.186 260.48 192.276 260.206C189.79 260.032 185.086 259.371 183.471 257.498C182.873 256.666 183.641 254.007 184.271 251.711C184.958 249.207 185.771 245.283 186.601 245.497C186.639 245.988 186.545 246.113 186.87 246.443C187.179 246.758 187.593 246.956 187.929 247.239C188.548 247.758 188.931 248.497 189.319 249.205C189.487 249.511 189.686 249.838 190.031 249.964C190.451 250.118 190.762 249.851 191.128 249.679C191.586 249.464 192.124 249.421 192.611 249.561C192.559 249.067 192.468 248.577 192.337 248.097C192.295 247.942 192.249 247.778 192.297 247.624C192.345 247.469 192.48 247.359 192.612 247.264C193.564 246.586 194.551 246.271 195.648 246.024Z" fill="#4692B6"/>
<path d="M175.582 276.759C175.889 277.041 175.813 278.997 175.481 279.526C175.126 280.093 173.076 281.871 169.345 282.168C165.78 282.452 162.59 281.996 160.485 280.684C158.38 279.371 157.354 277.912 157.14 275.881C156.927 273.851 157.137 271.888 156.156 270.332C155.249 268.894 153.811 267.279 153.494 266.497C152.805 264.799 153.437 262.359 153.437 262.359L175.582 276.759Z" fill="#576EA3"/>
<path d="M165.675 259.096C165.706 259.886 165.851 260.604 166.105 261.355C166.634 262.927 167.432 264.404 168.325 265.808C168.785 266.531 169.271 267.24 169.83 267.894C170.92 269.169 172.268 270.213 173.42 271.435C174.572 272.658 175.555 274.143 175.658 275.797C175.832 278.594 172.803 279.569 170.469 280.004C167.976 280.469 165.31 280.357 162.867 279.684C160.15 278.935 158.177 276.851 157.705 274.149C157.569 273.374 157.611 272.579 157.513 271.798C157.288 270.016 156.352 268.394 155.297 266.92C154.685 266.064 154.02 265.23 153.606 264.269C152.862 262.543 153.431 260.59 153.884 258.86C154.275 257.368 154.717 255.677 155.243 255.814C155.255 256.586 155.247 256.666 155.805 257.186C156.512 257.842 156.55 258.838 157.295 259.418C156.941 258.513 156.915 258.128 156.759 257.432C156.713 257.223 156.766 256.8 156.911 256.64C157.106 256.423 157.44 256.287 157.766 256.174C158.864 255.793 160.003 255.525 161.158 255.373C162.213 255.235 163.425 255.097 164.474 255.323C164.797 255.392 165.111 255.544 165.312 255.798C165.522 256.067 165.563 256.305 165.617 256.752C165.67 257.198 165.645 258.353 165.675 259.096Z" fill="#4692B6"/>
<path d="M168.708 266.391C167.66 265.619 165.325 265.628 164.05 265.775C162.452 265.959 161.162 266.53 160.431 267.078C160.108 267.32 159.651 267.282 159.362 267.002C159.015 266.664 159.042 266.104 159.431 265.813C160.206 265.233 161.609 264.415 163.502 264.267C166.642 264.02 167.568 264.551 167.568 264.551C167.568 264.551 169.008 265.461 168.708 266.391Z" fill="#F5F5F5"/>
<path d="M171.126 269.239C169.81 268.475 167.243 268.607 165.968 268.755C164.371 268.939 163.181 269.577 162.45 270.125C162.126 270.368 161.67 270.33 161.381 270.049C161.033 269.711 161.06 269.151 161.45 268.859C162.224 268.28 163.715 267.341 165.608 267.192C168.748 266.946 169.572 267.581 169.572 267.581C169.572 267.581 170.9 268.083 171.126 269.239Z" fill="#F5F5F5"/>
<path d="M162.228 261.269C164.397 261.028 165.32 261.263 166.18 261.569C166.736 261.874 167.107 262.746 166.753 262.97C166.051 262.588 164.79 262.437 163.248 262.518C162.214 262.572 160.913 263.002 159.858 263.479C159.591 263.6 159.274 263.77 158.997 263.926C158.623 264.137 158.144 263.993 157.961 263.613C157.806 263.291 157.916 262.904 158.226 262.714C158.981 262.249 160.475 261.465 162.228 261.269Z" fill="#F5F5F5"/>
<path d="M202.203 251.522C202.203 251.522 201.838 250.572 200.358 250.309C199.226 250.107 197.236 250.957 196.003 251.99C195.498 252.412 195.571 253.207 196.149 253.52C196.494 253.707 196.914 253.653 197.207 253.394C198.015 252.679 199.829 251.378 202.203 251.522Z" fill="#F5F5F5"/>
<path d="M205.723 253.456C205.723 253.456 204.983 252.32 203.539 252.354C203.539 252.354 200.588 252.462 198.774 254.18C198.312 254.618 198.35 255.358 198.91 255.66C199.244 255.84 199.649 255.788 199.929 255.533C200.747 254.792 202.385 253.234 205.723 253.456Z" fill="#F5F5F5"/>
<path d="M209.605 255.194C209.605 255.194 208.783 254.167 207.339 254.201C207.339 254.201 204.589 254.325 202.776 256.044C202.314 256.482 202.352 257.221 202.912 257.524C203.246 257.704 203.651 257.652 203.931 257.397C204.749 256.655 206.268 254.971 209.605 255.194Z" fill="#F5F5F5"/>
<path d="M198.768 130.713C198.768 130.713 199.672 168.07 199.79 174.633C199.907 181.198 199.944 193.785 199.996 200.207C199.996 200.207 198.356 203.024 188.878 203.092C179.4 203.159 178.009 200.553 178.009 200.553L176.364 170.358L174.004 201.753C174.004 201.753 168.596 206.02 160.776 204.4C152.955 202.78 151.79 200.464 151.79 200.464L152.766 131.225L198.768 130.713Z" fill="#576EA3"/>
<path d="M176.364 170.359L177.654 157.664C177.654 157.664 184.147 156.027 188.472 152.718C188.472 152.718 186.193 155.588 183.565 157.088C180.936 158.588 179.674 159.211 179.674 159.211L177.872 171.499L177.73 195.421L176.364 170.359Z" fill="#263238"/>
<path d="M152.24 137.564C158.467 142.023 186.565 146.793 199.512 137.183C199.512 137.183 198.917 100.808 197.741 81.5626C197.686 80.6881 197.621 79.8432 197.527 79.0177C197.495 78.7457 197.454 78.4738 197.423 78.2018C197.258 77.0075 197.035 75.8724 196.735 74.7961C196.685 74.6118 196.625 74.4276 196.565 74.2434C196.435 73.8265 196.296 73.4193 196.128 73.0226C196.039 72.8092 195.949 72.5965 195.851 72.3928C195.762 72.1992 195.672 72.0057 195.564 71.8219C195.554 71.783 195.534 71.7544 195.515 71.7156C195.416 71.5317 195.308 71.3479 195.199 71.1736C195.081 70.9803 194.963 70.787 194.825 70.5932C194.697 70.4191 194.569 70.2354 194.442 70.0716C194.295 69.8881 194.137 69.7047 193.971 69.5309C193.824 69.357 193.658 69.1935 193.491 69.0389C193.383 68.933 193.266 68.8266 193.149 68.7208C193.041 68.6246 192.923 68.5284 192.806 68.4418C192.66 68.3164 192.493 68.2015 192.337 68.0858C191.829 67.7301 191.282 67.4137 190.687 67.1271C190.53 67.0511 190.365 66.9744 190.199 66.9074C190.16 66.8885 190.111 66.8787 190.081 66.8597C189.887 66.7833 189.692 66.7076 189.497 66.6408C189.175 66.5168 188.834 66.4129 188.483 66.3186C188.132 66.2243 187.772 66.1396 187.392 66.0551C186.974 66.0394 186.508 66.0329 186.002 66.0369C185.681 66.0395 185.332 66.0519 184.972 66.0644C184.612 66.0769 184.243 66.0901 183.864 66.1123C178.997 66.3657 172.016 67.2093 166.414 67.9734C166.045 68.025 165.676 68.0765 165.316 68.128C164.986 68.1696 164.666 68.2112 164.355 68.252C160.51 68.7885 157.657 69.2295 157.219 69.3007C157.181 69.3106 157.161 69.3108 157.161 69.3108C155.901 69.6418 154.737 69.9528 153.797 70.2415C151.227 71.0202 153.137 70.3536 152.593 72.8464C150.99 80.1681 153.139 106.724 153.139 106.724L152.24 137.564Z" fill="#4692B6"/>
<path d="M162.714 46.2725C162.714 46.2725 164.79 55.6576 165.606 57.1962C166.421 58.7342 168.083 59.1599 168.083 59.1599L167.889 52.5477L162.714 46.2725Z" fill="#263238"/>
<path d="M165.116 32.7839C165.116 32.7839 162.958 32.432 161.292 34.1637C159.658 35.8616 160.621 41.1256 162.714 46.2731L166.486 46.6756L165.116 32.7839Z" fill="#263238"/>
<path d="M167.617 46.6687C166.865 47.1262 165.775 45.6828 164.835 44.715C163.895 43.7472 160.842 42.4393 159.349 45.6499C157.829 48.9222 160.75 53.2052 163.152 53.9376C167.291 55.2004 167.889 52.547 167.889 52.547L168.288 67.7264C172.677 75.5176 187.273 71.3921 181.747 66.2504L181.704 62.3943C181.704 62.3943 186.109 62.6405 187.931 62.344C190.964 61.8503 192.195 59.7384 193.09 56.4444C194.527 51.1542 195.054 46.8872 193.715 36.5159C192.248 25.1483 179.012 25.1368 171.902 29.6929C164.792 34.2491 167.617 46.6687 167.617 46.6687Z" fill="#FFA8A7"/>
<path d="M165.687 26.5582C168.127 25.3901 170.82 24.7459 173.474 24.1472C179.236 22.8476 185.107 21.6456 190.356 18.9389C191.004 18.6054 191.695 18.238 192.418 18.3272C193.809 18.4986 194.432 20.1777 194.498 21.578C194.56 22.8744 194.4 24.1815 194.027 25.4246C194.768 24.5288 196.297 24.6402 197.132 25.4482C197.968 26.2561 198.2 27.5285 198.057 28.6823C197.738 31.2691 195.775 33.4369 193.445 34.6034C191.114 35.7707 188.452 36.0795 185.848 36.1757C182.21 36.3104 178.558 36.0642 174.971 35.4434C174.099 35.2924 173.208 35.1197 172.338 35.2738C171.467 35.4285 170.606 35.9943 170.385 36.8504C170.014 38.2899 169.694 48.0678 167.685 48.1244C167.311 48.1349 165.867 45.6855 164.934 44.814C163.76 43.7195 162.52 35.3571 162.3 33.8116C162.281 33.6852 162.212 33.5873 162.136 33.4839C160.808 31.6553 162.325 28.5424 163.938 27.5218C164.502 27.1643 165.087 26.8449 165.687 26.5582Z" fill="#263238"/>
<path d="M162.864 33.6115C161.887 34.7768 160.15 34.9296 158.985 33.9527C157.82 32.9757 157.667 31.2395 158.644 30.0743L162.864 33.6115Z" fill="#263238"/>
<path d="M181.704 62.395C181.704 62.395 174.921 61.7985 172.542 60.5578C170.949 59.7279 169.632 58.2775 169.24 57.3435C169.24 57.3435 169.7 59.3508 171.132 61.1506C172.883 63.352 181.725 64.912 181.725 64.912L181.704 62.395Z" fill="#F28F8F"/>
<path d="M179.935 44.8749C179.941 45.654 179.338 46.2895 178.587 46.2935C177.837 46.2975 177.225 45.6691 177.218 44.8893C177.212 44.1103 177.815 43.4754 178.565 43.4707C179.315 43.4674 179.928 44.0959 179.935 44.8749Z" fill="#263238"/>
<path d="M178.453 39.7595L175.56 41.3862C175.125 40.5552 175.42 39.5165 176.219 39.0675C177.017 38.6178 178.018 38.9278 178.453 39.7595Z" fill="#263238"/>
<path d="M181.025 54.249L184.135 55.3874C183.835 56.2784 182.896 56.7463 182.037 56.4317C181.178 56.1172 180.725 55.1399 181.025 54.249Z" fill="#F28F8F"/>
<path d="M192.014 40.7807L189.347 38.7611C189.882 37.9982 190.912 37.8319 191.647 38.3889C192.384 38.9466 192.548 40.0172 192.014 40.7807Z" fill="#263238"/>
<path d="M191.226 44.3974C191.232 45.1764 190.63 45.8113 189.879 45.8153C189.13 45.8193 188.516 45.1908 188.509 44.4118C188.503 43.6327 189.106 42.9972 189.856 42.9932C190.607 42.9892 191.22 43.6183 191.226 44.3974Z" fill="#263238"/>
<path d="M185.424 43.4744L185.936 51.6388L190.189 50.1503L185.424 43.4744Z" fill="#F28F8F"/>
<path d="M157.684 69.2996C147.665 69.5385 145.113 75.4642 142.215 81.743C139.356 87.9366 131.927 102.214 131.927 102.214L112.992 93.8342C112.992 93.8342 111.673 98.9456 106.72 101.979C106.72 101.979 115.69 109.384 123.388 114.796C129.918 119.387 133.711 121.76 136.185 120.078C138.022 118.83 156.245 94.618 156.245 94.618C160.872 87.2425 161.774 74.8113 157.684 69.2996Z" fill="#576EA3"/>
<path d="M189.422 48.1043C189.395 48.1046 188.343 47.5658 188.343 47.5658L187.282 46.0709C187.282 46.0709 187.863 45.8063 188.344 46.141C188.826 46.4757 189.422 48.1043 189.422 48.1043Z" fill="#4692B6"/>
<path opacity="0.65" d="M189.422 48.1043C189.395 48.1046 188.343 47.5658 188.343 47.5658L187.282 46.0709C187.282 46.0709 187.863 45.8063 188.344 46.141C188.826 46.4757 189.422 48.1043 189.422 48.1043Z" fill="black"/>
<path d="M199.386 43.3302C199.353 45.5419 197.532 47.6654 195.397 48.0637L193.708 48.3701C192.918 48.5153 192.143 48.5804 191.469 48.5639C191.396 48.5645 191.322 48.5651 191.242 48.5582C191.117 48.5592 190.993 48.5459 190.876 48.5393C190.648 48.5192 190.443 48.484 190.252 48.4417C190.143 48.4207 190.032 48.3922 189.936 48.3567C189.833 48.3281 189.746 48.2926 189.664 48.2488C189.627 48.2347 189.583 48.2125 189.555 48.1908C189.503 48.1618 189.459 48.1328 189.422 48.1044C189.348 48.0393 189.289 47.9741 189.252 47.9012L188.664 46.7192C188.434 46.26 187.816 45.9715 187.282 46.0716L186.076 46.2934C185.543 46.3928 184.931 46.91 184.708 47.4467C184.708 47.4467 184.457 48.0787 184.141 48.8501C183.825 49.6215 181.841 50.5678 179.706 50.9578L178.017 51.2717C177.659 51.3334 177.314 51.3506 176.985 51.3163C176.787 51.3035 176.604 51.2681 176.42 51.2183C176.332 51.1971 176.244 51.1684 176.156 51.1397C176.105 51.1182 176.046 51.0968 175.995 51.0753C175.848 51.0177 175.701 50.9457 175.568 50.866C175.106 50.6864 167.715 47.7514 166.685 45.3431C165.043 41.4683 171.637 37.417 174.018 36.6358L174.018 36.6433C174.296 36.531 174.573 36.4412 174.866 36.3875L192.245 33.1788C193.181 33.003 194.062 33.186 194.761 33.627C195.21 33.9093 196.858 34.8626 197.542 35.2668C197.601 35.2957 197.667 35.3314 197.719 35.368C197.814 35.426 197.911 35.4909 198.006 35.5558C198.036 35.5774 198.072 35.599 198.095 35.6283C198.191 35.7007 198.28 35.7807 198.368 35.8675C198.478 35.9768 198.575 36.0854 198.663 36.2092C198.737 36.2968 198.797 36.3914 198.849 36.4861C198.938 36.6174 199.005 36.7632 199.072 36.9091C199.124 37.0332 199.169 37.1648 199.207 37.2958C199.207 37.3034 199.207 37.3034 199.207 37.3102C199.244 37.4269 199.275 37.5511 199.291 37.683C199.299 37.7123 199.306 37.7417 199.306 37.7704C199.329 37.9091 199.345 38.056 199.346 38.2024C199.403 39.9106 199.416 41.6165 199.386 43.3302Z" fill="#4692B6"/>
<g opacity="0.2">
<path d="M199.386 43.3302C199.353 45.5419 197.532 47.6654 195.397 48.0637L193.708 48.3701C192.918 48.5153 192.143 48.5804 191.469 48.5639C191.396 48.5645 191.322 48.5651 191.242 48.5582C191.117 48.5592 190.993 48.5459 190.876 48.5393C190.648 48.5192 190.443 48.484 190.252 48.4417C190.143 48.4207 190.032 48.3922 189.936 48.3567C189.833 48.3281 189.746 48.2926 189.664 48.2488C189.627 48.2347 189.583 48.2125 189.555 48.1908C189.503 48.1618 189.459 48.1328 189.422 48.1044C189.348 48.0393 189.289 47.9741 189.252 47.9012L188.664 46.7192C188.434 46.26 187.816 45.9715 187.282 46.0716L186.076 46.2934C185.543 46.3928 184.931 46.91 184.708 47.4467C184.708 47.4467 184.457 48.0787 184.141 48.8501C183.825 49.6215 181.841 50.5678 179.706 50.9578L178.017 51.2717C177.659 51.3334 177.314 51.3506 176.985 51.3163C176.787 51.3035 176.604 51.2681 176.42 51.2183C176.332 51.1971 176.244 51.1684 176.156 51.1397C176.105 51.1182 176.046 51.0968 175.995 51.0753C175.848 51.0177 175.701 50.9457 175.568 50.866C175.106 50.6864 167.715 47.7514 166.685 45.3431C165.043 41.4683 171.637 37.417 174.018 36.6358L174.018 36.6433C174.296 36.531 174.573 36.4412 174.866 36.3875L192.245 33.1788C193.181 33.003 194.062 33.186 194.761 33.627C195.21 33.9093 196.858 34.8626 197.542 35.2668C197.601 35.2957 197.667 35.3314 197.719 35.368C197.814 35.426 197.911 35.4909 198.006 35.5558C198.036 35.5774 198.072 35.599 198.095 35.6283C198.191 35.7007 198.28 35.7807 198.368 35.8675C198.478 35.9768 198.575 36.0854 198.663 36.2092C198.737 36.2968 198.797 36.3914 198.849 36.4861C198.938 36.6174 199.005 36.7632 199.072 36.9091C199.124 37.0332 199.169 37.1648 199.207 37.2958C199.207 37.3034 199.207 37.3034 199.207 37.3102C199.244 37.4269 199.275 37.5511 199.291 37.683C199.299 37.7123 199.306 37.7417 199.306 37.7704C199.329 37.9091 199.345 38.056 199.346 38.2024C199.403 39.9106 199.416 41.6165 199.386 43.3302Z" fill="black"/>
</g>
<path d="M197.542 35.2681C196.887 34.9368 196.11 34.8111 195.292 34.9641L177.912 38.1721C175.872 38.5545 174.116 40.5093 173.935 42.612L168.918 39.7673C170.649 38.2081 172.843 37.0262 174.019 36.6364L174.019 36.6439C174.297 36.5316 174.574 36.4418 174.867 36.3881L192.246 33.1794C193.182 33.0036 194.063 33.1866 194.762 33.6276C195.209 33.9106 196.857 34.8639 197.542 35.2681Z" fill="#4692B6"/>
<path opacity="0.35" d="M197.542 35.2681C196.887 34.9368 196.11 34.8111 195.292 34.9641L177.912 38.1721C175.872 38.5545 174.116 40.5093 173.935 42.612L168.918 39.7673C170.649 38.2081 172.843 37.0262 174.019 36.6364L174.019 36.6439C174.297 36.5316 174.574 36.4418 174.867 36.3881L192.246 33.1794C193.182 33.0036 194.063 33.1866 194.762 33.6276C195.209 33.9106 196.857 34.8639 197.542 35.2681Z" fill="white"/>
<path d="M199.349 38.2086C199.402 39.9094 199.416 41.6186 199.39 43.3344C199.357 45.5454 197.53 47.6676 195.397 48.0617L193.707 48.3736C191.574 48.7677 189.58 48.5553 189.253 47.902L188.666 46.7199C188.437 46.2621 187.816 45.9709 187.283 46.0696L186.076 46.2928C185.543 46.3915 184.931 46.9094 184.711 47.4502C184.711 47.4502 184.455 48.0761 184.14 48.8482C183.825 49.6202 181.84 50.5652 179.707 50.9593L178.018 51.2711C175.885 51.6652 174.029 50.2232 173.96 48.0308C173.907 46.3294 173.893 44.6201 173.919 42.9044C173.952 40.6934 175.78 38.5705 177.913 38.1764L195.29 34.9676C197.424 34.5729 199.28 36.0155 199.349 38.2086Z" fill="#4692B6"/>
<path opacity="0.5" d="M199.387 43.3301C199.353 45.5418 197.532 47.6653 195.397 48.0636L193.708 48.37C192.919 48.5152 192.143 48.5803 191.469 48.5638C191.396 48.5644 191.323 48.565 191.242 48.5581C191.117 48.5591 190.993 48.5458 190.876 48.5392C190.648 48.5191 190.443 48.4839 190.252 48.4416C190.143 48.4206 190.033 48.3921 189.936 48.3566C189.834 48.328 189.746 48.2925 189.665 48.2487C189.628 48.2346 189.584 48.2124 189.555 48.1907C189.503 48.1617 189.459 48.1327 189.422 48.1042C189.348 48.0392 189.289 47.974 189.252 47.9011L188.665 46.7191C188.434 46.2599 187.817 45.9714 187.282 46.0715L186.076 46.2933C185.543 46.3927 184.931 46.9099 184.709 47.4466C184.709 47.4466 184.457 48.0786 184.141 48.85C183.825 49.6214 181.841 50.5677 179.706 50.9577L178.017 51.2716C177.659 51.3333 177.314 51.3505 176.985 51.3162C176.787 51.3034 176.604 51.268 176.421 51.2182C176.332 51.197 176.244 51.1683 176.157 51.1396C176.105 51.1181 176.046 51.0967 175.995 51.0752C175.848 51.0176 175.701 50.9456 175.568 50.8659C174.627 50.3024 173.996 49.2896 173.956 48.0307C173.906 46.3251 173.892 44.6186 173.915 42.9049C173.949 40.6932 175.777 38.5696 177.911 38.1714L195.291 34.9633C196.11 34.8104 196.887 34.9361 197.541 35.2674C197.6 35.2963 197.666 35.332 197.718 35.3685C197.813 35.4266 197.91 35.4915 198.005 35.5564C198.035 35.578 198.071 35.5996 198.094 35.6289C198.19 35.7013 198.279 35.7813 198.367 35.8681C198.477 35.9774 198.574 36.086 198.662 36.2098C198.736 36.2974 198.796 36.392 198.848 36.4867C198.937 36.618 199.004 36.7638 199.071 36.9097C199.123 37.0337 199.168 37.1654 199.206 37.2964C199.206 37.304 199.206 37.3039 199.206 37.3108C199.243 37.4275 199.274 37.5517 199.29 37.6836C199.298 37.7129 199.305 37.7423 199.305 37.771C199.328 37.9097 199.344 38.0566 199.345 38.203C199.403 39.9105 199.417 41.6164 199.387 43.3301Z" fill="white"/>
<g opacity="0.7">
<path d="M199.345 38.2045C199.344 38.0581 199.328 37.9119 199.305 37.7725C199.305 37.7431 199.297 37.7138 199.29 37.6851C199.274 37.5532 199.244 37.429 199.206 37.3123C199.206 37.3048 199.206 37.3048 199.206 37.2979C199.168 37.1662 199.123 37.0353 199.071 36.9112C199.004 36.7653 198.937 36.6195 198.848 36.4882C198.796 36.3935 198.736 36.2989 198.662 36.2113C198.574 36.0875 198.477 35.9782 198.367 35.8696C198.279 35.7828 198.19 35.7028 198.094 35.6304C198.073 35.6032 198.039 35.5829 198.011 35.562L187.678 46.063C188.093 46.1191 188.489 46.3704 188.664 46.7192L189.252 47.9012C189.289 47.9741 189.348 48.0393 189.421 48.1044C189.459 48.1335 189.503 48.1626 189.554 48.1909C189.584 48.2125 189.628 48.2341 189.664 48.2488C189.745 48.2919 189.833 48.3282 189.936 48.3568C190.031 48.3922 190.142 48.4208 190.252 48.4418C190.442 48.484 190.648 48.5193 190.875 48.5393C190.992 48.5459 191.117 48.5593 191.241 48.5583C191.322 48.5651 191.395 48.5646 191.468 48.564C191.884 48.5743 192.344 48.5425 192.817 48.4908L199.393 41.8076C199.397 40.605 199.386 39.4046 199.345 38.2045Z" fill="#4692B6"/>
<path d="M191.064 35.7445L175.984 51.07C175.988 51.0713 175.991 51.074 175.995 51.0753C176.047 51.0968 176.105 51.1182 176.157 51.1397C176.245 51.1684 176.333 51.1971 176.421 51.2183C176.605 51.2681 176.788 51.3029 176.986 51.3163C177.316 51.3506 177.66 51.3328 178.017 51.2717L179.123 51.0665L194.895 35.0378L191.064 35.7445Z" fill="#4692B6"/>
<path d="M180.257 37.7401L173.913 44.1875C173.909 45.4708 173.92 46.7519 173.957 48.0314C173.977 48.6605 174.144 49.2276 174.424 49.7083L187.52 36.3989L180.257 37.7401Z" fill="#4692B6"/>
</g>
<path d="M169.899 44.5381C169.902 44.9683 169.593 45.2697 169.208 45.2126C168.823 45.1548 168.508 44.76 168.504 44.3304C168.501 43.9009 168.81 43.5988 169.195 43.6559C169.58 43.713 169.895 44.1085 169.899 44.5381Z" fill="#263238"/>
<g opacity="0.5">
<path d="M195.955 35.2658C196.46 35.2617 196.939 35.3721 197.382 35.597C197.424 35.6178 197.472 35.6428 197.531 35.6833C197.621 35.738 197.711 35.7988 197.79 35.8529L197.823 35.8766L197.836 35.8929L197.875 35.922C197.95 35.9789 198.025 36.0453 198.112 36.1308C198.213 36.2305 198.295 36.3242 198.385 36.448C198.434 36.5051 198.479 36.5738 198.529 36.6637L198.537 36.6794L198.547 36.6936C198.619 36.8004 198.678 36.9279 198.735 37.0526C198.773 37.1439 198.81 37.2449 198.842 37.352L198.842 37.3712L198.859 37.4244C198.893 37.5329 198.916 37.6326 198.928 37.7296L198.934 37.7528L198.94 37.7767L198.941 37.8054L198.946 37.8341C198.968 37.9687 198.98 38.0951 198.981 38.2182C199.038 39.9087 199.052 41.6268 199.022 43.3255C198.992 45.332 197.302 47.3368 195.334 47.7043L193.644 48.0114C192.995 48.1308 192.34 48.1963 191.75 48.2011C191.658 48.2018 191.569 48.2012 191.468 48.1985C191.462 48.1986 191.456 48.1986 191.449 48.1987C191.393 48.1992 191.333 48.1996 191.241 48.1929C191.166 48.1935 191.09 48.1879 191.017 48.1823L190.91 48.1757C190.719 48.1588 190.531 48.1295 190.324 48.0833C190.226 48.0642 190.137 48.041 190.037 48.0049C189.964 47.9849 189.901 47.9601 189.84 47.9271L189.796 47.9063L189.775 47.8982L189.756 47.884L189.735 47.8726C189.702 47.8544 189.674 47.8361 189.667 47.8314C189.607 47.7785 189.587 47.7486 189.582 47.7391L188.993 46.5563C188.734 46.0393 188.115 45.6824 187.488 45.6868C187.396 45.6875 187.305 45.6965 187.218 45.7122L186.011 45.9347C185.362 46.0555 184.642 46.6585 184.371 47.3125C184.371 47.3125 184.12 47.9432 183.805 48.7118C183.57 49.2869 181.803 50.2034 179.642 50.5984L177.958 50.9116C177.748 50.9475 177.545 50.9669 177.354 50.9685C177.242 50.9694 177.134 50.9648 177.012 50.9521C176.854 50.9417 176.697 50.9143 176.51 50.8638C176.431 50.8446 176.352 50.8192 176.3 50.8039L176.213 50.7691L176.13 50.7362C176.003 50.6859 175.874 50.6233 175.759 50.5538C174.882 50.0287 174.358 49.1061 174.325 48.0215C174.275 46.3303 174.261 44.6108 174.284 42.9122C174.314 40.9064 176.007 38.9016 177.981 38.5334L195.361 35.3246C195.558 35.2868 195.758 35.2674 195.955 35.2658ZM195.952 34.8999C195.737 34.9016 195.516 34.9225 195.292 34.9647L177.913 38.1727C175.778 38.571 173.949 40.6946 173.917 42.9063C173.894 44.6199 173.908 46.3258 173.958 48.032C173.997 49.291 174.628 50.3037 175.57 50.8673C175.702 50.9469 175.849 51.0189 175.996 51.0766C176.048 51.098 176.107 51.1194 176.158 51.1409C176.246 51.1696 176.334 51.1983 176.422 51.2195C176.606 51.2693 176.789 51.3041 176.987 51.3176C177.108 51.3303 177.23 51.3354 177.355 51.3344C177.571 51.3327 177.792 51.3111 178.018 51.2723L179.707 50.9584C181.843 50.5677 183.827 49.6214 184.143 48.85C184.459 48.0786 184.71 47.4466 184.71 47.4466C184.933 46.9099 185.544 46.3926 186.078 46.2933L187.284 46.0708C187.352 46.0579 187.421 46.0519 187.49 46.0513C187.968 46.0475 188.464 46.3178 188.665 46.719L189.254 47.9011C189.29 47.974 189.35 48.0392 189.424 48.1042C189.46 48.1333 189.505 48.1624 189.556 48.1907C189.586 48.2124 189.63 48.2339 189.666 48.2487C189.747 48.2918 189.835 48.328 189.938 48.3566C190.033 48.3921 190.144 48.4206 190.253 48.4416C190.444 48.4838 190.649 48.5191 190.876 48.5392C190.993 48.5458 191.118 48.5591 191.243 48.5581C191.323 48.565 191.397 48.5644 191.469 48.5638C191.561 48.5658 191.655 48.5671 191.751 48.5663C192.356 48.5614 193.027 48.4958 193.708 48.3706L195.397 48.0642C197.532 47.666 199.353 45.5425 199.387 43.3308C199.417 41.6171 199.403 39.9112 199.345 38.2057C199.344 38.0594 199.328 37.9131 199.305 37.7737C199.305 37.7443 199.298 37.715 199.29 37.6863C199.275 37.5544 199.244 37.4302 199.206 37.3135C199.206 37.306 199.206 37.306 199.206 37.2992C199.168 37.1674 199.123 37.0365 199.071 36.9124C199.004 36.7666 198.937 36.6207 198.848 36.4894C198.796 36.3948 198.737 36.3002 198.662 36.2125C198.574 36.0887 198.477 35.9794 198.367 35.8708C198.279 35.784 198.19 35.704 198.094 35.6316C198.071 35.6024 198.035 35.5808 198.005 35.5591C197.91 35.4942 197.814 35.4286 197.718 35.3713C197.666 35.3348 197.6 35.299 197.541 35.2701C197.067 35.027 196.526 34.8952 195.952 34.8999Z" fill="black"/>
</g>
<path d="M173.956 48.0315L173.838 44.349C173.836 43.7306 173.781 43.1305 173.826 42.496C173.888 41.8676 174.088 41.2579 174.382 40.7015C174.97 39.59 175.951 38.673 177.143 38.2188C177.75 37.9902 178.366 37.9264 178.963 37.8012L180.772 37.4589L188.023 36.1631C190.441 35.7413 192.864 35.3435 195.291 34.9648C192.889 35.4774 190.484 35.9701 188.074 36.4404L180.839 37.8189L179.027 38.1447C178.424 38.2645 177.806 38.3276 177.26 38.5311C176.145 38.9389 175.221 39.8062 174.628 40.8363C174.336 41.3558 174.13 41.9293 174.056 42.5222C173.995 43.1124 174.034 43.742 174.016 44.3503L173.956 48.0315Z" fill="white"/>
<g opacity="0.3">
<path d="M297.047 17.4772L297.762 106.023C296.321 115.305 291.628 124.445 283.59 132.872C280.845 135.749 277.748 138.55 274.255 141.221C271.155 143.545 267.798 145.821 264.132 147.974C250.802 155.836 234.987 161.426 218.157 164.769C215.481 165.303 212.776 165.779 210.048 166.197L209.33 77.2481C228.248 74.0345 246.053 68.2456 260.939 59.8947C279.417 49.5236 290.635 36.7355 294.628 23.4641C294.628 23.4566 294.628 23.4497 294.636 23.4497C295.403 21.4516 296.024 19.4403 296.483 17.4154C296.561 17.085 297.045 17.1475 297.047 17.4772Z" fill="#7799E3"/>
</g>
<path d="M209.685 166.622L208.962 76.9391L209.269 76.8874C228.627 73.5991 246.432 67.6132 260.759 59.576C278.542 49.5949 290.126 37.0912 294.261 23.4116L294.259 23.1011L294.378 23.0953C295.108 21.1653 295.696 19.2282 296.125 17.3348C296.204 17.0065 296.5 16.7989 296.833 16.8345C297.167 16.8722 297.411 17.1411 297.414 17.4735L298.128 106.019C296.636 115.657 291.835 124.757 283.854 133.123C281.01 136.106 277.855 138.928 274.476 141.511C271.116 144.031 267.793 146.246 264.316 148.289C251.284 155.976 235.777 161.641 218.227 165.127C215.557 165.66 212.823 166.141 210.101 166.557L209.685 166.622ZM209.699 77.5563L210.41 165.77C212.982 165.371 215.562 164.914 218.085 164.411C235.554 160.94 250.983 155.304 263.945 147.659C267.399 145.63 270.7 143.429 274.035 140.928C277.38 138.371 280.506 135.574 283.324 132.619C291.2 124.362 295.936 115.396 297.4 105.967L296.687 18.1463C296.249 19.9378 295.675 21.7633 294.977 23.5816L294.969 23.6022C290.783 37.4738 279.078 50.1337 261.117 60.2147C246.794 68.2492 229.02 74.2437 209.699 77.5563Z" fill="#7799E3"/>
<path d="M230.428 143.952C230.268 143.953 230.111 143.903 229.981 143.804C229.799 143.667 229.692 143.453 229.69 143.225L229.268 90.9284C229.265 90.5973 229.485 90.3055 229.805 90.2168C234.125 89.0218 238.107 87.7475 241.979 86.3229C242.201 86.2418 242.453 86.2726 242.649 86.4078C242.845 86.5437 242.962 86.7658 242.964 87.0045L243.386 139.302C243.389 139.611 243.197 139.888 242.907 139.995C238.987 141.437 234.967 142.722 230.618 143.926C230.555 143.943 230.491 143.951 230.428 143.952ZM230.737 91.4788L231.147 142.257C234.93 141.189 238.467 140.053 241.917 138.798L241.508 88.0539C238.068 89.291 234.529 90.4167 230.737 91.4788Z" fill="white"/>
<path d="M253.888 135.357C253.748 135.358 253.609 135.319 253.488 135.242C253.279 135.109 253.152 134.878 253.15 134.631L252.728 82.3332C252.726 82.0439 252.894 81.7799 253.158 81.6601C256.325 80.2227 259.606 78.506 263.188 76.4134C263.931 76.0121 264.615 75.5763 265.276 75.1551C265.502 75.0123 265.786 75.0018 266.019 75.1292C266.253 75.2559 266.4 75.5003 266.402 75.7671L266.824 128.064C266.826 128.316 266.698 128.552 266.485 128.687C265.798 129.125 265.088 129.577 264.327 129.988C260.722 132.094 257.398 133.833 254.185 135.292C254.09 135.335 253.988 135.356 253.888 135.357ZM254.195 82.7961L254.604 133.485C257.455 132.147 260.412 130.579 263.609 128.712C264.22 128.381 264.797 128.024 265.355 127.67L264.947 77.0901C264.61 77.2946 264.264 77.4964 263.904 77.6909C260.461 79.7016 257.274 81.3779 254.195 82.7961Z" fill="white"/>
<path d="M277.256 120.782C277.15 120.783 277.044 120.762 276.944 120.715C276.687 120.596 276.521 120.34 276.519 120.056L276.097 67.7581C276.095 67.5399 276.19 67.3319 276.358 67.1917C278.569 65.3338 280.634 63.4094 282.494 61.4751C284.646 59.2476 286.627 56.828 288.383 54.2829C288.564 54.0195 288.896 53.904 289.2 53.9993C289.506 54.0933 289.715 54.3741 289.718 54.6935L290.14 106.99C290.141 107.141 290.096 107.288 290.01 107.412C288.209 110.023 286.177 112.504 283.97 114.79C282.075 116.76 279.972 118.719 277.722 120.612C277.588 120.722 277.423 120.781 277.256 120.782ZM277.563 68.091L277.97 118.47C279.734 116.931 281.393 115.355 282.915 113.773C285.014 111.6 286.95 109.245 288.673 106.769L288.271 56.9461C286.815 58.8895 285.232 60.7484 283.547 62.4919C281.727 64.3856 279.715 66.2679 277.563 68.091Z" fill="white"/>
<g opacity="0.3">
<path d="M218.805 153.112L248.105 97.9212L272.148 128.639C272.148 128.639 262.237 143.072 218.805 153.112Z" fill="#7799E3"/>
</g>
<g opacity="0.3">
<path d="M163.577 156.861C136.408 155.63 109.916 149.393 89.0214 138.109C65.5089 125.404 53.4672 108.674 52.9356 91.7847L52.922 90.1083L52.2509 33.201C52.2037 29.1376 59.4648 40.5993 74.548 52.2887C74.9019 52.571 75.2625 52.8397 75.6238 53.1145C76.4642 53.7521 77.3256 54.3751 78.2164 54.9972C81.3464 57.1834 84.7684 59.2865 88.4748 61.2847C109.288 72.5325 135.663 78.7639 162.729 80.0168L163.577 156.861Z" fill="#7799E3"/>
</g>
<path d="M52.9834 33.2765C53.8047 33.839 55.5001 35.5915 57.279 37.4302C60.979 41.2541 66.5703 47.0334 74.0903 52.8615C74.3546 53.0728 74.6237 53.2765 74.8935 53.4809L75.1805 53.6988C75.9837 54.3087 76.8396 54.9304 77.7965 55.5985C80.9711 57.8158 84.4468 59.9465 88.1257 61.9306C108.016 72.6789 134.229 79.3418 162.005 80.717L162.836 156.094C135.192 154.742 109.13 148.137 89.3692 137.465C66.892 125.319 54.2127 109.088 53.6674 91.7795L53.6539 90.1004L52.9834 33.2765ZM52.6621 32.3653C52.381 32.3675 52.2442 32.6327 52.2509 33.2011L52.9227 90.1083L52.9363 91.7848C53.4679 108.674 65.5096 125.404 89.0221 138.109C109.916 149.393 136.408 155.63 163.577 156.861L162.73 80.0182C135.664 78.7646 109.289 72.5339 88.4748 61.2861C84.7684 59.2879 81.3464 57.1848 78.2164 54.9986C77.3256 54.3758 76.4635 53.7535 75.6238 53.1159C75.2625 52.8404 74.9019 52.5724 74.5481 52.2901C61.5752 42.2356 54.3891 32.3507 52.6621 32.3653Z" fill="#7799E3"/>
<path d="M137.228 146.159C137.195 146.159 137.16 146.157 137.128 146.153C136.908 146.124 114.875 143.142 93.3812 132.452C68.7547 120.201 58.9631 100.979 58.8672 100.787C58.8178 100.687 58.7916 100.577 58.7907 100.466L58.6717 85.7116C58.6705 85.5598 58.7158 85.4116 58.8023 85.2878L74.7034 62.4288C74.8556 62.2121 75.1166 62.0923 75.3753 62.1183C75.6396 62.1442 75.8687 62.3099 75.9753 62.5533L96.2989 108.925L94.4969 100.323C94.4378 100.039 94.5518 99.7462 94.7878 99.5774L110.779 88.1272C110.945 88.0082 111.152 87.9641 111.353 88.0049C111.552 88.0457 111.727 88.1681 111.832 88.3423L137.734 131.067C137.803 131.18 137.839 131.309 137.84 131.441L137.955 145.422C137.957 145.633 137.867 145.836 137.708 145.977C137.574 146.094 137.404 146.158 137.228 146.159ZM60.253 100.279C61.197 102.058 70.9941 119.68 94.0328 131.142C112.955 140.553 132.284 143.927 136.483 144.579L136.377 131.655L110.988 89.7781L96.0277 100.49L99.1807 115.539C99.2569 115.907 99.0444 116.272 98.6876 116.387C98.3321 116.499 97.9442 116.326 97.793 115.983L75.1586 64.3383L60.1373 85.9337L60.253 100.279Z" fill="white"/>
<path d="M136.599 102.843C136.145 102.847 135.684 102.806 135.217 102.718C130.804 101.89 127.179 97.095 127.138 92.0274C127.116 89.338 128.112 86.9516 129.87 85.4805C131.383 84.2151 133.325 83.7282 135.348 84.1065C139.762 84.9348 143.387 89.73 143.428 94.7976C143.45 97.487 142.454 99.8734 140.696 101.345C139.532 102.318 138.112 102.831 136.599 102.843ZM133.989 85.4479C132.81 85.4574 131.709 85.8528 130.812 86.6042C129.39 87.7936 128.585 89.7666 128.603 92.0162C128.638 96.4183 131.727 100.574 135.488 101.279C137.07 101.576 138.586 101.2 139.756 100.221C141.178 99.032 141.983 97.059 141.965 94.8094C141.93 90.4066 138.841 86.2515 135.08 85.5465C134.711 85.477 134.346 85.445 133.989 85.4479Z" fill="white"/>
<g opacity="0.3">
<path d="M57.7169 50.5503C57.7169 50.5503 64.4802 62.2144 78.3138 67.1967L78.2597 60.5778C64.9852 54.4309 57.6543 42.7871 57.6543 42.7871L57.7169 50.5503Z" fill="#7799E3"/>
</g>
<g opacity="0.3">
<path d="M57.8136 62.5478C57.8136 62.5478 64.5769 74.2119 78.4104 79.1942L78.3564 72.5754C65.0819 66.4285 57.751 54.7847 57.751 54.7847L57.8136 62.5478Z" fill="#7799E3"/>
</g>
<g opacity="0.3">
<path d="M57.9103 74.5456C57.9103 74.5456 64.6736 86.2097 78.5071 91.192L78.453 84.5732C65.1786 78.4263 57.8477 66.7825 57.8477 66.7825L57.9103 74.5456Z" fill="#7799E3"/>
</g>
</svg>
