<svg width="342" height="342" viewBox="0 0 342 342" fill="none" xmlns="http://www.w3.org/2000/svg">
<path d="M317.718 75.3631C316.633 73.5391 315.493 71.7356 314.298 69.9527C298.45 46.4641 271.165 30.397 244.325 23.1329C232.549 19.9981 220.451 18.2308 208.271 17.8661C128.503 15.1643 96.7312 78.0581 70.3698 94.2552C44.0084 110.452 3.41987 138.168 6.15587 196.308C8.89187 254.448 50.7664 309.168 131.882 312.588C212.997 316.008 218.408 279.469 263.696 265.946C293.668 256.999 314.996 226.78 325.392 198.859C339.606 160.795 338.936 111.362 317.718 75.3631Z" fill="#4692B6"/>
<path opacity="0.7" d="M317.718 75.3631C316.633 73.5391 315.493 71.7356 314.298 69.9527C298.45 46.4641 271.165 30.397 244.325 23.1329C232.549 19.9981 220.451 18.2308 208.271 17.8661C128.503 15.1643 96.7312 78.0581 70.3698 94.2552C44.0084 110.452 3.41987 138.168 6.15587 196.308C8.89187 254.448 50.7664 309.168 131.882 312.588C212.997 316.008 218.408 279.469 263.696 265.946C293.668 256.999 314.996 226.78 325.392 198.859C339.606 160.795 338.936 111.362 317.718 75.3631Z" fill="white"/>
<path d="M223.668 323.532H320.796" stroke="#263238" stroke-miterlimit="10"/>
<path d="M54.7207 323.532H219.565" stroke="#263238" stroke-miterlimit="10"/>
<path d="M22.5723 323.532H49.2483" stroke="#263238" stroke-miterlimit="10"/>
<path opacity="0.2" d="M316.008 172.566H287.28V184.194H316.008V172.566Z" fill="black"/>
<path opacity="0.2" d="M305.064 131.184H276.336V142.812H305.064V131.184Z" fill="black"/>
<path opacity="0.2" d="M201.096 172.224H172.368V183.852H201.096V172.224Z" fill="black"/>
<path opacity="0.2" d="M242.82 91.314H214.092V102.942H242.82V91.314Z" fill="black"/>
<path opacity="0.2" d="M274.284 91.314H245.556V102.942H274.284V91.314Z" fill="black"/>
<path opacity="0.2" d="M151.848 258.21H123.12V269.838H151.848V258.21Z" fill="black"/>
<path opacity="0.2" d="M136.8 272.574H108.072V284.202H136.8V272.574Z" fill="black"/>
<path opacity="0.1" d="M289.332 147.258H260.604V158.886H289.332V147.258Z" fill="black"/>
<path opacity="0.1" d="M332.424 212.58H303.696V224.208H332.424V212.58Z" fill="black"/>
<path opacity="0.1" d="M164.16 230.364H135.432V241.992H164.16V230.364Z" fill="black"/>
<path opacity="0.1" d="M196.992 230.364H168.264V241.992H196.992V230.364Z" fill="black"/>
<path opacity="0.1" d="M199.728 213.948H171V225.576H199.728V213.948Z" fill="black"/>
<path opacity="0.1" d="M322.164 147.258H293.436V158.886H322.164V147.258Z" fill="black"/>
<path opacity="0.2" d="M236.664 271.404H207.936V283.032H236.664V271.404Z" fill="black"/>
<path opacity="0.1" d="M220.932 287.478H192.204V299.106H220.932V287.478Z" fill="black"/>
<path opacity="0.1" d="M253.764 287.478H225.036V299.106H253.764V287.478Z" fill="black"/>
<path opacity="0.2" d="M97.395 126.677H68.667V138.305H97.395V126.677Z" fill="black"/>
<path opacity="0.1" d="M81.6626 142.751H52.9346V154.379H81.6626V142.751Z" fill="black"/>
<path opacity="0.1" d="M114.495 142.751H85.7666V154.379H114.495V142.751Z" fill="black"/>
<path opacity="0.2" d="M86.1841 213.264H57.4561V224.892H86.1841V213.264Z" fill="black"/>
<path opacity="0.1" d="M213.408 157.662H184.68V169.29H213.408V157.662Z" fill="black"/>
<path opacity="0.1" d="M170.316 271.89H141.588V283.518H170.316V271.89Z" fill="black"/>
<path opacity="0.1" d="M259.236 76.95H230.508V88.578H259.236V76.95Z" fill="black"/>
<path opacity="0.2" d="M69.768 174.762H41.04V186.39H69.768V174.762Z" fill="black"/>
<path opacity="0.1" d="M86.1841 160.398H57.4561V172.026H86.1841V160.398Z" fill="black"/>
<path opacity="0.1" d="M159.372 90.4863H130.644V102.114H159.372V90.4863Z" fill="black"/>
<path opacity="0.2" d="M259.236 172.566H230.508V184.194H259.236V172.566Z" fill="black"/>
<path opacity="0.2" d="M93.2905 15.8688H64.5625V27.4968H93.2905V15.8688Z" fill="black"/>
<path opacity="0.1" d="M37.2026 85.6367H8.47461V97.2647H37.2026V85.6367Z" fill="black"/>
<path opacity="0.1" d="M70.0346 85.6367H41.3066V97.2647H70.0346V85.6367Z" fill="black"/>
<path opacity="0.1" d="M72.771 69.2208H44.043V80.8488H72.771V69.2208Z" fill="black"/>
<path opacity="0.1" d="M51.3003 115.938H22.5723V127.566H51.3003V115.938Z" fill="black"/>
<path opacity="0.2" d="M132.279 27.8387H103.551V39.4667H132.279V27.8387Z" fill="black"/>
<path d="M55.4656 277.868C58.1127 278.026 59.8432 276.131 62.0662 274.619C63.0413 273.862 64.07 273.176 65.1442 272.567C64.1182 273.935 63.0922 275.447 62.1209 276.965C60.5341 278.142 58.6052 279.701 57.1825 280.912C55.1647 282.656 52.5655 285.447 54.3302 287.574C55.6298 289.147 57.4766 288.511 58.7488 287.15C60.3562 285.433 60.6572 283.21 61.2523 280.748C61.4901 279.585 61.8148 278.442 62.2235 277.328C62.2783 277.212 62.6408 276.644 62.6955 276.534V276.5C63.3795 275.406 64.1456 274.305 64.9185 273.279C64.1456 274.838 63.2359 276.931 62.6613 278.456C61.7242 280.96 61.1633 285.084 64.4534 285.454C66.8816 285.727 67.6271 283.402 67.9349 281.603C68.3317 279.339 67.504 277.745 66.5669 275.529C66.3549 275.036 65.4862 273.361 65.4862 272.574C65.4862 272.512 65.5957 272.389 65.6299 272.355C65.6676 272.333 65.7095 272.319 65.753 272.314H65.6846C67.1725 270.414 68.7906 268.62 70.5273 266.945C70.6641 266.815 70.8077 266.685 70.9445 266.569C70.3495 268.47 69.7475 270.508 69.3098 272.424C68.7489 274.865 68.9678 278.894 72.1894 278.812C74.5697 278.757 75.0554 276.569 75.0896 274.831C75.1306 272.629 74.0362 271.192 72.7229 269.263C72.4083 268.792 71.095 267.341 71.0403 266.527C71.0403 266.527 71.0403 266.48 71.0745 266.48C71.1108 266.475 71.1476 266.475 71.1839 266.48C71.1707 266.453 71.152 266.43 71.1292 266.411C72.1196 265.572 73.1613 264.795 74.2483 264.086C75.4509 263.518 76.6814 263.011 77.935 262.567C77.0463 263.912 76.3423 265.371 75.842 266.904C75.0827 269.195 74.8228 273.162 77.7845 273.785C79.9733 274.243 80.8489 272.348 81.1088 270.707C81.4439 268.655 80.4863 267.116 79.4809 265.153C79.2551 264.708 78.2702 263.203 78.2155 262.499C80.0623 261.733 81.9706 261.097 83.8106 260.296C83.1325 261.724 82.6295 263.228 82.3126 264.776C81.9296 267.04 82.8188 270.31 85.6232 270.604C87.6752 270.816 88.4549 269.154 88.4002 267.56C88.3318 265.508 87.128 264.38 85.7463 262.738C85.4111 262.348 84.0226 261.035 83.92 260.283C86.0473 259.311 88.0856 258.388 89.7614 256.76C89.7614 256.76 89.7614 256.822 89.8024 256.828C89.8435 256.835 89.8024 256.774 89.8024 256.76C89.8024 256.746 89.8913 256.555 89.8845 256.664C89.8845 258.34 89.3647 259.646 89.2415 261.5C89.0911 263.737 90.3975 266.712 93.2498 266.644C95.3633 266.589 95.7327 264.592 95.3702 263.039C94.9187 261.097 93.7149 260.166 92.0801 258.778C91.6697 258.422 90.1444 257.376 89.9324 256.63C91.6725 254.564 93.1413 252.283 94.3031 249.845L94.0364 249.783C92.8857 252.196 91.4231 254.447 89.6861 256.48C89.1085 254.933 88.4228 253.429 87.6341 251.979C86.3345 249.852 83.6464 247.348 80.7941 248.559C78.6737 249.475 79.1047 251.391 80.3495 252.724C81.9296 254.407 84.0295 254.811 86.4645 255.536C87.0117 255.707 88.9543 256.09 89.5904 256.548C88.0377 258.19 85.9241 259.079 83.8379 260.029C83.2623 258.5 82.5765 257.014 81.7859 255.583C80.5479 253.456 77.6819 251.151 74.8297 252.389C72.7777 253.313 72.9281 255.228 74.2209 256.493C75.8488 258.101 77.7982 258.224 80.1991 258.921C80.7736 259.086 83.0308 259.489 83.6943 260.043C81.9775 260.802 80.0828 261.445 78.3044 262.157C78.4001 262.28 78.4617 262.389 78.0376 261.986C76.8906 260.714 75.6564 259.523 74.344 258.422C72.6751 257.157 68.5779 255.83 66.5396 258.224C65.0348 259.988 65.9513 261.644 67.8255 262.218C70.1853 262.964 71.8543 262.129 74.4056 261.924C75.0896 261.869 77.4152 261.568 78.2018 262.17C76.9022 262.738 75.3632 263.135 74.1525 263.798C73.034 264.522 71.9667 265.322 70.9582 266.192C69.76 265.139 68.4609 264.207 67.0799 263.408C64.6517 262.109 61.0129 261.986 59.1387 264.51C57.7707 266.37 58.7009 268.135 60.6777 268.675C63.1675 269.359 64.9459 268.231 67.463 267.437C67.9828 267.28 69.8638 266.445 70.6641 266.439C70.6094 266.507 70.4726 266.61 70.3768 266.705C68.6056 268.408 66.9597 270.237 65.452 272.177C63.8384 271.673 62.199 271.255 60.5409 270.926C57.7365 270.44 53.8924 271.35 52.8049 274.202C51.9841 276.336 53.352 277.745 55.4656 277.868Z" fill="#4692B6"/>
<path d="M28.8513 282.376C31.2111 281.172 31.7514 278.662 32.9074 276.22C33.3658 275.081 33.9053 273.977 34.5216 272.916C34.3438 274.633 34.1796 276.459 34.1386 278.244C33.3588 280.057 32.4765 282.348 31.8745 284.14C31.0127 286.664 30.1782 290.392 32.7774 291.336C34.6995 292.02 35.9649 290.549 36.3753 288.73C36.8951 286.439 36.0333 284.366 35.3014 281.938C34.92 280.822 34.6251 279.679 34.419 278.518C34.419 278.388 34.419 277.704 34.419 277.594V277.553C34.4601 276.261 34.5627 274.927 34.7063 273.648C34.8294 275.385 35.0962 277.649 35.3903 279.263C35.8417 281.89 37.4423 285.734 40.4724 284.387C42.7023 283.395 42.1687 281.008 41.5326 279.304C40.7323 277.15 39.207 276.192 37.2645 274.763C36.8404 274.448 35.2125 273.436 34.8431 272.759C34.8227 272.673 34.8227 272.584 34.8431 272.499C34.8634 272.461 34.8914 272.429 34.9252 272.403H34.8841C35.2093 270.012 35.6984 267.647 36.3479 265.324C36.4026 265.146 36.4642 264.961 36.5189 264.79C36.9361 266.76 37.4628 268.812 38.0511 270.659C38.8035 273.053 41.0265 276.418 43.7625 274.722C45.8145 273.47 45.1305 271.336 44.2549 269.811C43.1742 267.895 41.5189 267.211 39.3985 266.206C38.8855 265.966 37.0182 265.371 36.5531 264.681C36.5487 264.677 36.5452 264.672 36.5428 264.667C36.5404 264.661 36.5392 264.656 36.5392 264.65C36.5392 264.644 36.5404 264.638 36.5428 264.633C36.5452 264.628 36.5487 264.623 36.5531 264.619C36.5827 264.6 36.615 264.587 36.6489 264.578L36.5668 264.544C37.0024 263.324 37.5071 262.129 38.0784 260.966C38.7624 259.838 39.72 258.86 40.4998 257.793C40.4132 259.399 40.542 261.009 40.8828 262.581C41.389 264.934 43.1674 268.49 46.0402 267.526C48.1606 266.842 47.9622 264.749 47.3535 263.196C46.5874 261.233 45.0005 260.412 43.1332 259.229C42.7228 258.962 41.0812 258.155 40.705 257.574C41.9157 255.987 43.2358 254.475 44.4191 252.847C44.5575 254.422 44.8836 255.974 45.3904 257.471C46.2043 259.619 48.6257 261.986 51.1907 260.823C53.0922 259.961 52.9075 258.148 52.0525 256.794C50.9718 255.084 49.3165 254.694 47.3261 253.983C46.8336 253.812 44.9731 253.381 44.508 252.786C45.876 250.864 47.1414 249.037 47.7707 246.787C47.7707 246.787 47.8117 246.835 47.8391 246.828C47.8665 246.821 47.8391 246.787 47.7844 246.773C47.7297 246.76 47.7844 246.555 47.7844 246.657C48.612 248.107 48.8377 249.489 49.6722 251.158C50.6709 253.155 53.2974 255.07 55.7256 253.559C57.5245 252.444 56.8269 250.522 55.7256 249.379C54.3576 247.936 52.846 247.738 50.7256 247.369C50.1989 247.273 48.3521 247.136 47.7912 246.602C48.2452 243.94 48.3601 241.23 48.1332 238.538L47.8665 238.613C48.0969 241.276 47.9751 243.958 47.5039 246.589C46.214 245.552 44.8542 244.606 43.4341 243.757C41.2453 242.581 37.6543 241.78 35.8075 244.297C34.4395 246.158 35.8075 247.594 37.5312 248.114C39.7474 248.798 41.7652 248.053 44.2276 247.43C44.7885 247.293 46.6626 246.643 47.4424 246.712C46.9294 248.914 45.5545 250.754 44.2344 252.622C42.9712 251.593 41.6363 250.656 40.2399 249.817C38.0989 248.607 34.4327 248.08 32.6201 250.576C31.2863 252.423 32.4149 253.996 34.1728 254.427C36.3889 254.988 38.14 254.113 40.5613 253.497C41.1359 253.347 43.2973 252.553 44.1455 252.697C43.0443 254.222 41.731 255.734 40.5613 257.245C40.705 257.307 40.8144 257.369 40.2399 257.245C38.607 256.732 36.941 256.329 35.2535 256.042C33.2015 255.789 28.9744 256.726 28.4135 259.81C28.0031 262.095 29.6242 263.053 31.5394 262.615C33.9607 262.061 34.9594 260.494 37.0729 259.031C37.627 258.641 39.4875 257.204 40.4929 257.321C39.6585 258.47 38.5299 259.585 37.8185 260.775C37.2214 261.965 36.7072 263.194 36.2795 264.455C34.7023 264.148 33.0983 263.999 31.4915 264.01C28.7555 264.113 25.5339 265.85 25.1919 268.969C24.9456 271.274 26.6488 272.321 28.6119 271.794C31.1085 271.11 32.0729 269.25 33.8445 267.293C34.207 266.89 35.4108 265.241 36.0948 264.811C36.0688 264.939 36.0322 265.065 35.9854 265.187C35.3195 267.558 34.8257 269.974 34.5079 272.417C32.8638 272.8 31.2405 273.268 29.6447 273.819C26.9771 274.817 24.118 277.54 24.6241 280.556C25.0824 282.813 26.9839 283.326 28.8513 282.376Z" fill="#4692B6"/>
<path d="M111.28 261.452C110.594 258.573 109.592 255.779 108.291 253.121L107.867 253.025C109.242 255.74 110.275 258.614 110.945 261.582C108.893 261.117 107.272 260.542 105.001 260.33C101.964 260.05 97.5318 260.857 96.6563 264.578C96.0065 267.314 98.2021 268.313 100.425 268.06C103.236 267.745 105.172 266.008 107.662 264.12C108.23 263.696 110.035 262.068 110.945 261.78C111.417 264.516 110.754 267.252 110.158 269.988C108.241 269.431 106.287 269.008 104.31 268.723C101.307 268.388 96.9162 269.544 96.1022 273.231C95.473 275.967 97.4702 277.17 99.6864 276.835C102.457 276.404 104.009 274.578 106.451 272.731C107.033 272.294 109.085 270.372 110.111 270.118C109.598 272.369 108.845 274.701 108.25 276.958C108.435 276.958 108.585 276.958 107.874 277.102C105.784 277.294 103.711 277.634 101.67 278.121C99.2008 278.805 94.9052 281.89 95.7602 285.645C96.3964 288.422 98.6809 288.723 100.63 287.314C103.093 285.536 103.489 283.285 105.158 280.631C105.603 279.947 107.019 277.41 108.182 277.075C107.785 278.771 107.046 280.57 106.814 282.253C106.581 283.935 106.814 285.515 106.814 287.143C104.762 287.731 103.448 287.882 101.232 288.915C98.1748 290.351 95.3909 293.84 96.499 297.519C97.3198 300.255 99.7411 300.611 101.718 299.065C104.214 297.116 104.413 294.544 105.473 291.493C105.692 290.864 106.253 288.402 106.841 287.608C106.869 287.767 106.887 287.927 106.896 288.087C107.277 291.091 107.876 294.062 108.688 296.979C107.025 298.196 105.426 299.5 103.9 300.885C101.369 303.286 99.447 307.725 101.451 310.885C102.935 313.224 105.329 312.889 106.978 310.926C109.03 308.436 108.476 305.351 108.619 302.034C108.619 301.35 108.585 298.498 108.852 297.499C109.474 299.551 110.158 301.665 110.966 303.703C110.966 306.117 111.061 309.141 111.225 311.439C111.458 314.702 112.306 319.298 115.685 319.12C118.189 318.997 118.907 316.713 118.503 314.469C117.997 311.63 116.027 309.681 114.044 307.314C113.084 306.239 112.204 305.096 111.41 303.894C111.342 303.751 111.034 302.964 110.986 302.848C110.938 302.732 110.986 302.807 110.986 302.793C110.418 301.316 109.892 299.756 109.447 298.244C110.412 300.153 111.8 302.581 112.867 304.264C114.632 307 118.278 310.584 121.075 307.622C123.127 305.433 121.376 302.998 119.844 301.377C117.908 299.325 115.74 298.976 112.86 298.292C112.224 298.142 109.94 297.766 109.167 297.191C109.11 297.097 109.073 296.992 109.057 296.883C109.065 296.831 109.081 296.78 109.105 296.733L109.023 296.774C108.242 293.923 107.664 291.02 107.292 288.087C107.292 287.861 107.245 287.622 107.231 287.403C108.66 289.38 110.227 291.466 111.786 293.292C113.777 295.632 117.894 298.374 120.172 295.146C121.855 292.766 120.07 290.679 118.38 289.373C116.253 287.725 114.037 287.752 111.178 287.629C110.494 287.595 108.1 287.82 107.238 287.259C107.233 287.255 107.23 287.25 107.227 287.244C107.225 287.238 107.223 287.232 107.223 287.225C107.223 287.219 107.225 287.213 107.227 287.207C107.23 287.201 107.233 287.196 107.238 287.191L107.327 287.095H107.224C107.127 285.501 107.127 283.902 107.224 282.307C107.436 280.714 108.072 279.147 108.435 277.574C109.111 279.432 110.031 281.191 111.171 282.807C112.867 285.228 116.574 288.388 119.379 285.926C121.431 284.113 120.213 281.87 118.791 280.406C116.985 278.559 114.803 278.395 112.128 277.943C111.533 277.848 109.338 277.704 108.606 277.259C109.208 274.886 109.974 272.547 110.535 270.146C111.44 271.858 112.549 273.454 113.838 274.9C115.788 276.952 119.646 278.456 121.992 275.912C123.722 274.031 122.676 272.075 121.027 270.953C118.975 269.544 116.971 269.879 114.351 270.036C113.715 270.077 111.41 270.481 110.603 270.036C111.198 267.232 111.786 264.564 111.417 261.719C111.417 261.719 111.492 261.719 111.513 261.719C111.533 261.719 111.458 261.685 111.431 261.685C111.403 261.685 111.294 261.452 111.431 261.541C113.059 262.786 113.975 264.236 115.706 265.713C117.799 267.499 121.67 268.395 123.695 265.536C125.186 263.422 123.483 261.582 121.704 260.816C119.461 259.838 117.669 260.337 115.104 260.925C114.31 261.062 112.176 261.794 111.28 261.452Z" fill="#4692B6"/>
<path d="M261.062 51.9155C258.572 51.4436 256.698 53.0373 254.407 54.2001C253.389 54.8041 252.328 55.3323 251.233 55.7801C252.375 54.5831 253.558 53.2904 254.653 51.9634C256.301 51.04 258.319 49.8088 259.817 48.817C261.944 47.4011 264.749 45.0619 263.333 42.8252C262.279 41.1767 260.453 41.5598 259.078 42.7021C257.348 44.1316 256.794 46.211 255.932 48.4819C255.568 49.5519 255.122 50.5923 254.598 51.5941C254.53 51.6967 254.119 52.2028 254.051 52.2781C253.264 53.2357 252.409 54.1933 251.548 55.0756C252.478 53.7076 253.6 51.8129 254.325 50.4244C255.515 48.1672 256.541 44.3163 253.463 43.5844C251.192 43.0304 250.2 45.1508 249.687 46.8197C249.003 48.9196 249.632 50.5339 250.275 52.7569C250.412 53.2425 251.035 54.9457 250.959 55.6912C250.959 55.7459 250.829 55.8554 250.795 55.8827C250.757 55.8926 250.717 55.8926 250.679 55.8827L250.734 55.9306C249.092 57.5559 247.339 59.0644 245.487 60.445C245.35 60.5476 245.193 60.6502 245.05 60.746C245.843 59.0155 246.657 57.1481 247.307 55.3834C248.134 53.1331 248.415 49.2753 245.344 48.9675C243.08 48.7349 242.348 50.7527 242.108 52.3875C241.801 54.4395 242.669 55.9717 243.682 57.9621C243.928 58.4409 244.995 60.0141 244.947 60.7802C244.947 60.7802 244.947 60.8281 244.947 60.8212H244.844L244.885 60.8896C243.843 61.5629 242.763 62.1749 241.65 62.7227C240.439 63.1165 239.208 63.4476 237.963 63.7145C238.967 62.5455 239.811 61.2482 240.474 59.8568C241.465 57.8048 242.19 54.0291 239.454 53.0852C237.402 52.4012 236.37 54.077 235.925 55.6023C235.357 57.538 236.089 59.0907 236.807 61.0743C236.965 61.5189 237.717 63.0647 237.683 63.7419C235.836 64.2481 233.948 64.6174 232.101 65.1578C232.922 63.8867 233.583 62.5199 234.071 61.088C234.707 58.9813 234.256 55.7733 231.629 55.1509C229.687 54.6994 228.763 56.1837 228.627 57.709C228.449 59.6379 229.447 60.8828 230.562 62.6065C230.836 63.0237 231.999 64.4327 231.999 65.1578C229.865 65.8418 227.813 66.4574 226.027 67.798C226.027 67.798 226.027 67.7433 225.993 67.7296C225.959 67.7159 225.993 67.7843 225.993 67.798C225.993 67.8117 225.891 67.9827 225.904 67.8801C226.123 66.2932 226.759 65.1441 227.101 63.3589C227.512 61.259 226.629 58.2767 223.907 57.9963C221.896 57.7911 221.301 59.6584 221.458 61.1632C221.664 63.0647 222.683 64.0907 224.071 65.6092C224.42 65.9923 225.74 67.1756 225.85 67.9075C223.952 69.6624 222.283 71.6504 220.884 73.8241L221.13 73.9198C222.515 71.766 224.175 69.8023 226.069 68.0785C226.439 69.6194 226.916 71.1325 227.498 72.6065C228.476 74.7817 230.727 77.4835 233.599 76.649C235.72 76.0334 235.542 74.1661 234.516 72.7502C233.223 70.9581 231.274 70.322 229.044 69.3302C228.538 69.1113 226.739 68.5025 226.192 67.9622C227.867 66.5942 229.981 65.9991 232.074 65.3493C232.422 66.8692 232.879 68.3619 233.442 69.8158C234.359 71.9841 236.862 74.5286 239.666 73.6873C241.759 73.0648 241.814 71.2249 240.74 69.8637C239.372 68.1469 237.546 67.8117 235.35 66.8404C234.824 66.6147 232.731 65.9581 232.163 65.3493C233.893 64.8363 235.768 64.4533 237.539 63.9813C237.464 63.8582 237.416 63.7487 237.779 64.1865C238.712 65.5326 239.741 66.8103 240.857 68.0101C242.286 69.4191 246.014 71.1701 248.237 69.1455C249.885 67.6475 249.208 65.9717 247.505 65.192C245.35 64.1933 243.661 64.7953 241.219 64.679C240.569 64.679 238.312 64.679 237.635 63.995C238.941 63.6119 240.446 63.4204 241.677 62.9348C242.826 62.381 243.934 61.7479 244.995 61.0401C245.985 62.2094 247.09 63.2771 248.292 64.2275C250.446 65.7597 253.887 66.2795 255.966 64.1455C257.505 62.5449 256.821 60.7255 255.015 60.0415C252.724 59.0907 250.911 59.9389 248.415 60.3903C247.902 60.4861 246.014 61.0743 245.255 60.958C245.351 60.8798 245.452 60.8067 245.556 60.7391C247.451 59.3205 249.241 57.766 250.911 56.0879C252.382 56.7597 253.887 57.3556 255.419 57.8732C258.025 58.6735 261.787 58.2699 263.162 55.6912C264.181 53.7829 263.039 52.2781 261.062 51.9155Z" fill="#4692B6"/>
<path d="M206.076 60.7734C206.387 63.5905 207.011 66.3642 207.936 69.043L208.319 69.1934C207.344 66.4474 206.71 63.592 206.432 60.6913C208.209 61.4529 210.037 62.0884 211.904 62.5928C214.749 63.229 219.058 62.9964 220.344 59.5627C221.288 57.0251 219.325 55.8349 217.184 55.8007C214.448 55.8007 212.396 57.2166 209.831 58.6735C209.243 59.0087 207.334 60.3288 206.411 60.4998C206.295 57.8527 207.252 55.3424 208.155 52.8048C209.913 53.5705 211.724 54.2105 213.573 54.72C216.384 55.404 220.693 54.8294 221.938 51.4368C222.861 48.9265 221.09 47.5243 218.969 47.579C216.288 47.6543 214.592 49.2001 212.047 50.6639C211.445 51.0127 209.263 52.5928 208.251 52.7159C209.01 50.6639 210.009 48.5161 210.85 46.4368C210.672 46.4368 210.536 46.382 211.22 46.3547C213.229 46.4168 215.24 46.3413 217.239 46.129C219.667 45.7528 224.12 43.393 223.757 39.6994C223.491 36.9634 221.356 36.423 219.332 37.5242C216.781 38.8922 216.131 41.0126 214.229 43.3314C213.723 43.947 212.075 46.1632 210.925 46.341C211.5 44.7815 212.423 43.1604 212.848 41.5872C213.141 40.0515 213.328 38.4974 213.408 36.936C215.46 36.6282 216.692 36.6419 218.921 35.9237C222.006 34.9319 225.077 31.9565 224.455 28.3244C224.01 25.6432 221.719 25.0002 219.667 26.2246C217.061 27.7772 216.562 30.1986 215.187 32.9688C214.9 33.5365 214.072 35.8074 213.429 36.4914C213.429 36.3888 213.429 36.1904 213.429 36.0331C213.438 33.1311 213.235 30.2323 212.82 27.36C214.559 26.4074 216.246 25.364 217.875 24.2341C220.57 22.2574 222.93 18.2696 221.404 15.0275C220.283 12.6335 217.984 12.6608 216.165 14.3435C213.88 16.4502 214.072 19.453 213.532 22.5515C213.422 23.1808 213.142 25.9099 212.765 26.8265C212.423 24.8224 212.027 22.7225 211.507 20.6705C211.808 18.3722 212.075 15.4858 212.191 13.2833C212.362 10.1574 212.116 5.69088 208.88 5.45148C206.493 5.2668 205.536 7.353 205.645 9.55548C205.789 12.2915 207.423 14.3845 209.017 16.888C209.803 18.0274 210.501 19.2256 211.103 20.4721C211.158 20.6158 211.356 21.3955 211.384 21.5186V21.5665C211.739 23.0371 212.068 24.583 212.293 26.0741C211.609 24.1452 210.583 21.676 209.756 19.9181C208.388 17.1 205.371 13.2628 202.389 15.7457C200.18 17.572 201.541 20.1028 202.8 21.8264C204.393 24.0016 206.418 24.5966 209.065 25.5953C209.646 25.821 211.801 26.4503 212.437 27.0932C212.492 27.1411 212.506 27.3395 212.506 27.3942C212.495 27.4436 212.474 27.4902 212.444 27.531H212.526C212.924 30.3338 213.123 33.1612 213.121 35.9921C213.121 36.2041 213.121 36.4367 213.121 36.6761C211.999 34.6241 210.761 32.4626 209.503 30.5201C207.895 28.0577 204.311 24.9592 201.76 27.7499C199.872 29.8019 201.322 32.0044 202.765 33.4476C204.592 35.2739 206.698 35.4996 209.4 35.9784C210.05 36.0878 212.348 36.1699 213.094 36.7992C213.102 36.8089 213.106 36.821 213.106 36.8334C213.106 36.8458 213.102 36.8579 213.094 36.8676C213.064 36.8976 213.032 36.925 212.998 36.9497H213.094C212.996 38.4669 212.807 39.9768 212.526 41.4709C212.136 42.9552 211.343 44.3711 210.802 45.8212C210.393 43.9739 209.735 42.1908 208.846 40.5202C207.526 38.0236 204.386 34.5694 201.445 36.5666C199.277 38.0441 200.166 40.3218 201.343 41.8813C202.827 43.8581 204.886 44.2753 207.369 45.0277C207.923 45.1919 209.988 45.5886 210.631 46.1153C209.776 48.2972 208.764 50.4245 207.943 52.6406C207.289 50.9043 206.428 49.2531 205.378 47.7227C203.771 45.5612 200.289 43.6187 197.758 45.7801C195.884 47.3533 196.671 49.3506 198.073 50.5681C199.831 52.155 201.794 52.0798 204.304 52.2439C204.906 52.285 207.15 52.1824 207.861 52.7022C206.958 55.2946 206.076 57.7706 206.083 60.5135C206.083 60.5135 206.021 60.4793 205.994 60.5135C205.966 60.5477 206.042 60.5135 206.069 60.5545C206.096 60.5956 206.172 60.7871 206.069 60.6982C204.701 59.3302 203.976 57.8254 202.505 56.2111C200.754 54.2754 197.184 52.9553 194.94 55.404C193.265 57.2371 194.667 59.1865 196.261 60.1304C198.271 61.3274 200.029 61.0744 202.54 60.8144C203.148 60.7802 205.276 60.3425 206.076 60.7734Z" fill="#4692B6"/>
<path d="M225.528 39.7472H52.3256C48.359 39.7472 45.1436 42.9627 45.1436 46.9292V256.842C45.1436 260.808 48.359 264.024 52.3256 264.024H225.528C229.495 264.024 232.71 260.808 232.71 256.842V46.9292C232.71 42.9627 229.495 39.7472 225.528 39.7472Z" fill="white" stroke="#263238" stroke-linecap="round" stroke-linejoin="round"/>
<path d="M226.479 39.7882V263.976C228.193 263.787 229.777 262.972 230.927 261.687C232.077 260.402 232.712 258.737 232.71 257.013V46.7513C232.709 45.0277 232.073 43.3648 230.923 42.0804C229.774 40.7959 228.191 39.9799 226.479 39.7882Z" fill="#B2B2B2" stroke="#263238" stroke-linecap="round" stroke-linejoin="round"/>
<path d="M232.71 126.738H226.479V161.896H232.71V126.738Z" fill="#808080" stroke="#263238" stroke-linecap="round" stroke-linejoin="round"/>
<path d="M232.71 68.7078V46.7514C232.71 44.8961 231.974 43.1166 230.663 41.8035C229.353 40.4904 227.575 39.7508 225.72 39.7472H52.1546C51.2342 39.7463 50.3226 39.9268 49.4721 40.2784C48.6215 40.63 47.8486 41.1458 47.1974 41.7962C46.5463 42.4467 46.0298 43.2192 45.6774 44.0694C45.3249 44.9196 45.1436 45.831 45.1436 46.7514V68.7078H232.71Z" fill="#B2B2B2" stroke="#263238" stroke-linecap="round" stroke-linejoin="round"/>
<path d="M52.1406 53.6461H65.1777" stroke="#263238" stroke-linecap="round" stroke-linejoin="round"/>
<path d="M79.248 53.6461H92.2919" stroke="#263238" stroke-linecap="round" stroke-linejoin="round"/>
<path d="M106.361 53.6461H119.405" stroke="#263238" stroke-linecap="round" stroke-linejoin="round"/>
<path d="M133.476 53.6461H146.519" stroke="#263238" stroke-linecap="round" stroke-linejoin="round"/>
<path d="M160.589 53.6461H173.626" stroke="#263238" stroke-linecap="round" stroke-linejoin="round"/>
<path d="M187.696 53.6461H200.74" stroke="#263238" stroke-linecap="round" stroke-linejoin="round"/>
<path d="M72.3877 57.0797V65.9991" stroke="#263238" stroke-linecap="round" stroke-linejoin="round"/>
<path d="M108.119 57.0797V65.9991" stroke="#263238" stroke-linecap="round" stroke-linejoin="round"/>
<path d="M152.695 57.0797V65.9991" stroke="#263238" stroke-linecap="round" stroke-linejoin="round"/>
<path d="M179.461 57.0797V65.9991" stroke="#263238" stroke-linecap="round" stroke-linejoin="round"/>
<path d="M193.195 57.7638H188.045V65.3152H193.195V57.7638Z" fill="white" stroke="#263238" stroke-linecap="round" stroke-linejoin="round"/>
<path d="M223.394 57.7638H214.468V65.3152H223.394V57.7638Z" fill="white" stroke="#263238" stroke-linecap="round" stroke-linejoin="round"/>
<path d="M223.394 57.7638H214.468V60.1646H223.394V57.7638Z" fill="white" stroke="#263238" stroke-linecap="round" stroke-linejoin="round"/>
<path d="M200.056 57.7638H194.905V61.8815H200.056V57.7638Z" fill="white" stroke="#263238" stroke-linecap="round" stroke-linejoin="round"/>
<path d="M207.094 57.7638H201.943V61.8815H207.094V57.7638Z" fill="white" stroke="#263238" stroke-linecap="round" stroke-linejoin="round"/>
<path d="M76.4567 59.5148H75.3076V64.4533H76.4567V59.5148Z" fill="#263238"/>
<path d="M77.9824 62.0524L81.2314 63.9265V60.1714L77.9824 62.0524Z" fill="#263238"/>
<path d="M102.641 64.4532H103.79V59.5148H102.641V64.4532Z" fill="#263238"/>
<path d="M101.115 62.0524L97.8662 63.9265V60.1714L101.115 62.0524Z" fill="#263238"/>
<path d="M83.9131 62.0524L87.1621 63.9265V60.1714L83.9131 62.0524Z" fill="#263238"/>
<path d="M94.2412 62.0524L90.9922 63.9265V60.1714L94.2412 62.0524Z" fill="#263238"/>
<path d="M118.612 61.6557C118.612 61.201 118.478 60.7565 118.225 60.378C117.973 59.9996 117.615 59.7041 117.195 59.5289C116.776 59.3536 116.314 59.3064 115.867 59.3932C115.421 59.4799 115.01 59.6967 114.687 60.0164C114.363 60.336 114.142 60.7442 114.05 61.1895C113.958 61.6348 113.999 62.0974 114.17 62.5191C114.34 62.9407 114.631 63.3026 115.007 63.5591C115.382 63.8157 115.825 63.9554 116.28 63.9608C116.585 63.9645 116.887 63.9075 117.17 63.7933C117.453 63.6791 117.71 63.5098 117.927 63.2954C118.144 63.081 118.317 62.8257 118.434 62.5442C118.552 62.2628 118.612 61.9608 118.612 61.6557Z" fill="white" stroke="#263238" stroke-linecap="round" stroke-linejoin="round"/>
<path d="M116.307 60.6708V62.8049" stroke="#263238" stroke-linecap="round" stroke-linejoin="round"/>
<path d="M117.374 61.7378H115.233" stroke="#263238" stroke-linecap="round" stroke-linejoin="round"/>
<path d="M127.997 61.6557C127.997 61.1998 127.862 60.7541 127.608 60.375C127.355 59.996 126.995 59.7005 126.574 59.5261C126.153 59.3516 125.689 59.3059 125.242 59.3949C124.795 59.4838 124.384 59.7034 124.062 60.0257C123.739 60.3481 123.52 60.7588 123.431 61.206C123.342 61.6531 123.388 62.1166 123.562 62.5378C123.737 62.959 124.032 63.319 124.411 63.5723C124.79 63.8256 125.236 63.9607 125.692 63.9607C125.995 63.9607 126.294 63.9011 126.574 63.7853C126.854 63.6694 127.108 63.4996 127.322 63.2856C127.536 63.0716 127.706 62.8174 127.821 62.5378C127.937 62.2581 127.997 61.9584 127.997 61.6557Z" fill="white" stroke="#263238" stroke-linecap="round" stroke-linejoin="round"/>
<path d="M126.758 61.7378H124.617" stroke="#263238" stroke-linecap="round" stroke-linejoin="round"/>
<path d="M232.71 47.9142V46.7514C232.71 44.8961 231.974 43.1166 230.663 41.8035C229.353 40.4904 227.575 39.7508 225.72 39.7472H52.1546C51.2342 39.7463 50.3226 39.9268 49.4721 40.2784C48.6215 40.63 47.8486 41.1458 47.1974 41.7962C46.5463 42.4467 46.0298 43.2192 45.6774 44.0694C45.3249 44.9196 45.1436 45.831 45.1436 46.7514V47.9142H232.71Z" fill="#263238" stroke="#263238" stroke-linecap="round" stroke-linejoin="round"/>
<path d="M205.884 45.9443C207.04 45.9443 207.977 45.0072 207.977 43.8512C207.977 42.6953 207.04 41.7582 205.884 41.7582C204.728 41.7582 203.791 42.6953 203.791 43.8512C203.791 45.0072 204.728 45.9443 205.884 45.9443Z" fill="white" stroke="#263238" stroke-linecap="round" stroke-linejoin="round"/>
<path d="M212.484 45.9443C213.64 45.9443 214.577 45.0072 214.577 43.8512C214.577 42.6953 213.64 41.7582 212.484 41.7582C211.328 41.7582 210.391 42.6953 210.391 43.8512C210.391 45.0072 211.328 45.9443 212.484 45.9443Z" fill="white" stroke="#263238" stroke-linecap="round" stroke-linejoin="round"/>
<path d="M221.184 43.8512C221.184 43.4373 221.061 43.0326 220.831 42.6884C220.601 42.3442 220.275 42.0759 219.892 41.9175C219.51 41.7591 219.089 41.7176 218.683 41.7984C218.277 41.8792 217.904 42.0785 217.611 42.3712C217.318 42.6639 217.119 43.0369 217.038 43.4429C216.958 43.8489 216.999 44.2697 217.157 44.6522C217.316 45.0346 217.584 45.3615 217.928 45.5915C218.272 45.8215 218.677 45.9443 219.091 45.9443C219.366 45.9443 219.638 45.8901 219.892 45.7849C220.146 45.6798 220.377 45.5256 220.571 45.3312C220.765 45.1369 220.92 44.9061 221.025 44.6522C221.13 44.3983 221.184 44.1261 221.184 43.8512Z" fill="white" stroke="#263238" stroke-linecap="round" stroke-linejoin="round"/>
<path d="M45.1436 250.453V257.013C45.1436 258.872 45.8822 260.656 47.197 261.971C48.5118 263.285 50.2951 264.024 52.1546 264.024H225.72C227.579 264.024 229.362 263.285 230.677 261.971C231.992 260.656 232.731 258.872 232.731 257.013V250.453H45.1436Z" fill="#B2B2B2" stroke="#263238" stroke-linecap="round" stroke-linejoin="round"/>
<path d="M82.6882 254.427H81.5391V259.366H82.6882V254.427Z" fill="#263238"/>
<path d="M84.2139 256.958L87.4629 258.839V255.084L84.2139 256.958Z" fill="#263238"/>
<path d="M129.344 259.366H130.493V254.427H129.344V259.366Z" fill="#263238"/>
<path d="M127.811 256.958L124.562 258.839V255.084L127.811 256.958Z" fill="#263238"/>
<path d="M90.1436 256.958L93.3926 258.839V255.084L90.1436 256.958Z" fill="#263238"/>
<path d="M120.937 256.958L117.688 258.839V255.084L120.937 256.958Z" fill="#263238"/>
<path d="M115.37 252.676H95.3428V260.241H115.37V252.676Z" fill="white" stroke="#263238" stroke-linecap="round" stroke-linejoin="round"/>
<path d="M153.749 252.676H138.592V260.241H153.749V252.676Z" fill="white" stroke="#263238" stroke-linecap="round" stroke-linejoin="round"/>
<path d="M158.749 252.765H154.857V260.276H158.749V252.765Z" fill="#B2B2B2" stroke="#263238" stroke-linecap="round" stroke-linejoin="round"/>
<path d="M140.999 254.79C141.155 254.803 141.311 254.759 141.437 254.666C141.563 254.573 141.65 254.437 141.683 254.284H142.107V258.326H141.471V255.241H140.979L140.999 254.79Z" fill="#263238"/>
<path d="M142.846 255.255C142.846 254.999 142.947 254.754 143.128 254.573C143.309 254.392 143.554 254.291 143.81 254.291C144.066 254.291 144.311 254.392 144.492 254.573C144.673 254.754 144.775 254.999 144.775 255.255V257.355C144.775 257.611 144.673 257.856 144.492 258.037C144.311 258.218 144.066 258.319 143.81 258.319C143.554 258.319 143.309 258.218 143.128 258.037C142.947 257.856 142.846 257.611 142.846 257.355V255.255ZM143.482 257.396C143.482 257.683 143.612 257.793 143.81 257.793C144.009 257.793 144.138 257.683 144.138 257.396V255.214C144.138 254.92 144.015 254.81 143.81 254.81C143.605 254.81 143.482 254.92 143.482 255.214V257.396Z" fill="#263238"/>
<path d="M145.138 255.255C145.138 254.999 145.239 254.754 145.42 254.573C145.601 254.392 145.846 254.291 146.102 254.291C146.358 254.291 146.603 254.392 146.784 254.573C146.965 254.754 147.067 254.999 147.067 255.255V257.355C147.067 257.611 146.965 257.856 146.784 258.037C146.603 258.218 146.358 258.319 146.102 258.319C145.846 258.319 145.601 258.218 145.42 258.037C145.239 257.856 145.138 257.611 145.138 257.355V255.255ZM145.774 257.396C145.774 257.683 145.897 257.793 146.102 257.793C146.307 257.793 146.43 257.683 146.43 257.396V255.214C146.43 254.92 146.3 254.81 146.102 254.81C145.904 254.81 145.774 254.92 145.774 255.214V257.396Z" fill="#263238"/>
<path d="M147.443 254.899C147.434 254.814 147.443 254.727 147.469 254.645C147.496 254.563 147.54 254.487 147.597 254.423C147.655 254.359 147.726 254.307 147.805 254.272C147.883 254.237 147.969 254.219 148.055 254.219C148.141 254.219 148.227 254.237 148.306 254.272C148.384 254.307 148.455 254.359 148.513 254.423C148.57 254.487 148.614 254.563 148.641 254.645C148.667 254.727 148.676 254.814 148.667 254.899V256.226C148.676 256.312 148.667 256.399 148.641 256.481C148.614 256.563 148.57 256.639 148.513 256.703C148.455 256.767 148.384 256.818 148.306 256.853C148.227 256.889 148.141 256.907 148.055 256.907C147.969 256.907 147.883 256.889 147.805 256.853C147.726 256.818 147.655 256.767 147.597 256.703C147.54 256.639 147.496 256.563 147.469 256.481C147.443 256.399 147.434 256.312 147.443 256.226V254.899ZM147.846 256.267C147.846 256.445 147.922 256.52 148.058 256.52C148.195 256.52 148.264 256.445 148.264 256.267V254.899C148.264 254.722 148.182 254.646 148.058 254.646C147.935 254.646 147.846 254.722 147.846 254.899V256.267ZM149.652 254.291H150.028L148.428 258.326H148.052L149.652 254.291ZM149.447 256.384C149.438 256.298 149.447 256.211 149.474 256.129C149.5 256.047 149.544 255.971 149.602 255.907C149.659 255.843 149.73 255.792 149.809 255.757C149.888 255.721 149.973 255.703 150.059 255.703C150.145 255.703 150.231 255.721 150.31 255.757C150.389 255.792 150.459 255.843 150.517 255.907C150.575 255.971 150.618 256.047 150.645 256.129C150.671 256.211 150.68 256.298 150.671 256.384V257.717C150.68 257.803 150.671 257.89 150.645 257.972C150.618 258.054 150.575 258.13 150.517 258.194C150.459 258.258 150.389 258.31 150.31 258.345C150.231 258.38 150.145 258.398 150.059 258.398C149.973 258.398 149.888 258.38 149.809 258.345C149.73 258.31 149.659 258.258 149.602 258.194C149.544 258.13 149.5 258.054 149.474 257.972C149.447 257.89 149.438 257.803 149.447 257.717V256.384ZM149.851 257.752C149.851 257.93 149.926 258.005 150.063 258.005C150.199 258.005 150.268 257.93 150.268 257.752V256.384C150.268 256.206 150.186 256.131 150.063 256.131C149.939 256.131 149.851 256.206 149.851 256.384V257.752Z" fill="#263238"/>
<path d="M140.391 116.882H77.415V121.082H140.391V116.882Z" fill="#4692B6"/>
<path d="M178.578 158.667H115.603V162.867H178.578V158.667Z" fill="#4692B6"/>
<path d="M126.512 215.398H63.5361V219.598H126.512V215.398Z" fill="#4692B6"/>
<path d="M56.1221 82.08H57.5448V89.8639H59.8977V91.1635H56.1221V82.08Z" fill="#263238"/>
<path d="M60.4033 84.2414C60.4033 82.7844 61.1694 81.9568 62.5716 81.9568C63.9738 81.9568 64.733 82.7844 64.733 84.2414V88.9609C64.733 90.4179 63.967 91.2455 62.5716 91.2455C61.1762 91.2455 60.4033 90.4179 60.4033 88.9609V84.2414ZM61.826 89.0294C61.826 89.6723 62.1133 89.9186 62.5716 89.9186C63.0299 89.9186 63.3103 89.6723 63.3103 89.0294V84.1319C63.3103 83.4479 63.023 83.2359 62.5716 83.2359C62.1202 83.2359 61.826 83.4821 61.826 84.1319V89.0294Z" fill="#263238"/>
<path d="M68.6385 91.143C68.5214 90.7837 68.4772 90.4046 68.5085 90.028V88.5985C68.5085 87.7572 68.2281 87.4425 67.5783 87.4425H67.0858V91.143H65.6631V82.08H67.8177C69.2951 82.08 69.9312 82.764 69.9312 84.173V84.857C69.9825 85.222 69.9208 85.5939 69.7545 85.9228C69.5882 86.2517 69.3253 86.5218 69.001 86.697C69.685 86.9979 69.9449 87.6819 69.9449 88.6327V90.0007C69.919 90.3747 69.9726 90.7501 70.1022 91.1019L68.6385 91.143ZM67.0858 83.359V86.184H67.6398C68.1734 86.184 68.5017 85.9514 68.5017 85.2195V84.3235C68.5017 83.6805 68.276 83.3932 67.7698 83.3932L67.0858 83.359Z" fill="#263238"/>
<path d="M72.2987 85.8898H74.2618V87.1826H72.2987V89.8434H74.7679V91.143H70.876V82.08H74.7679V83.3796H72.2987V85.8898Z" fill="#263238"/>
<path d="M78.66 88.5096L79.6313 82.0594H81.6149V91.143H80.2469V84.6313L79.2619 91.143H77.8939L76.8269 84.7202V91.143H75.582V82.08H77.5656L78.66 88.5096Z" fill="#263238"/>
<path d="M84.6787 82.08H86.1083V91.1635H84.6787V82.08Z" fill="#263238"/>
<path d="M91.3756 84.303V85.5C91.3756 86.95 90.6916 87.7435 89.2483 87.7435H88.5643V91.1635H87.1416V82.08H89.2415C90.6779 82.08 91.3756 82.8529 91.3756 84.303ZM88.5712 83.359V86.4302H89.2552C89.7066 86.4302 89.9392 86.225 89.9392 85.5752V84.2072C89.9392 83.5232 89.6929 83.3522 89.2552 83.3522L88.5712 83.359Z" fill="#263238"/>
<path d="M93.9602 81.9568C95.3282 81.9568 96.0601 82.7844 96.0601 84.2413V84.5286H94.6921V84.1319C94.6921 83.4479 94.4322 83.2359 93.9739 83.2359C93.5157 83.2359 93.2899 83.4821 93.2899 84.1319C93.2899 85.9992 96.0807 86.3481 96.0807 88.9199C96.0807 90.3768 95.3556 91.2045 93.9534 91.2045C92.5512 91.2045 91.8262 90.3768 91.8262 88.9199V88.3659H93.1942V89.0157C93.1942 89.6586 93.4815 89.898 93.9329 89.898C94.3843 89.898 94.6716 89.6586 94.6716 89.0157C94.6716 87.1415 91.8809 86.7927 91.8809 84.2277C91.8535 82.7639 92.5717 81.9568 93.9602 81.9568Z" fill="#263238"/>
<path d="M98.2557 82.08V89.091C98.2557 89.7339 98.5362 89.9665 98.9944 89.9665C99.4527 89.9665 99.7332 89.7339 99.7332 89.091V82.08H101.101V88.9952C101.101 90.4521 100.376 91.2798 98.9739 91.2798C97.5717 91.2798 96.8467 90.4521 96.8467 88.9952V82.08H98.2557Z" fill="#263238"/>
<path d="M105.076 88.5096L106.054 82.0594H108.072V91.143H106.704V84.6313L105.712 91.143H104.344L103.284 84.7202V91.143H102.032V82.08H104.023L105.076 88.5096Z" fill="#263238"/>
<path d="M196.089 102.19H216.698" stroke="#263238" stroke-miterlimit="10"/>
<path d="M171.554 102.19H193.708" stroke="#263238" stroke-miterlimit="10"/>
<path d="M162.744 102.19H169.174" stroke="#263238" stroke-miterlimit="10"/>
<path d="M132.497 102.19H161.075" stroke="#263238" stroke-miterlimit="10"/>
<path d="M95.3428 102.19H129.399" stroke="#263238" stroke-miterlimit="10"/>
<path d="M68.1943 102.19H91.7718" stroke="#263238" stroke-miterlimit="10"/>
<path d="M55.2939 102.19H65.0957" stroke="#263238" stroke-miterlimit="10"/>
<path d="M75.9029 107.668H55.2939" stroke="#263238" stroke-miterlimit="10"/>
<path d="M100.431 107.668H78.2832" stroke="#263238" stroke-miterlimit="10"/>
<path d="M109.248 107.668H102.818" stroke="#263238" stroke-miterlimit="10"/>
<path d="M139.495 107.668H110.91" stroke="#263238" stroke-miterlimit="10"/>
<path d="M176.642 107.668H142.586" stroke="#263238" stroke-miterlimit="10"/>
<path d="M203.797 107.668H180.22" stroke="#263238" stroke-miterlimit="10"/>
<path d="M216.697 107.668H206.896" stroke="#263238" stroke-miterlimit="10"/>
<path d="M196.089 112.908H216.698" stroke="#263238" stroke-miterlimit="10"/>
<path d="M171.554 112.908H193.708" stroke="#263238" stroke-miterlimit="10"/>
<path d="M162.744 112.908H169.174" stroke="#263238" stroke-miterlimit="10"/>
<path d="M132.497 112.908H161.075" stroke="#263238" stroke-miterlimit="10"/>
<path d="M95.3428 112.908H129.399" stroke="#263238" stroke-miterlimit="10"/>
<path d="M68.1943 112.908H91.7718" stroke="#263238" stroke-miterlimit="10"/>
<path d="M55.2939 112.908H65.0957" stroke="#263238" stroke-miterlimit="10"/>
<path d="M75.9029 118.387H55.2939" stroke="#263238" stroke-miterlimit="10"/>
<path d="M100.431 118.387H78.2832" stroke="#263238" stroke-miterlimit="10"/>
<path d="M109.248 118.387H102.818" stroke="#263238" stroke-miterlimit="10"/>
<path d="M139.495 118.387H110.91" stroke="#263238" stroke-miterlimit="10"/>
<path d="M176.642 118.387H142.586" stroke="#263238" stroke-miterlimit="10"/>
<path d="M203.797 118.387H180.22" stroke="#263238" stroke-miterlimit="10"/>
<path d="M216.697 118.387H206.896" stroke="#263238" stroke-miterlimit="10"/>
<path d="M196.089 123.626H216.698" stroke="#263238" stroke-miterlimit="10"/>
<path d="M171.554 123.626H193.708" stroke="#263238" stroke-miterlimit="10"/>
<path d="M162.744 123.626H169.174" stroke="#263238" stroke-miterlimit="10"/>
<path d="M132.497 123.626H161.075" stroke="#263238" stroke-miterlimit="10"/>
<path d="M95.3428 123.626H129.399" stroke="#263238" stroke-miterlimit="10"/>
<path d="M68.1943 123.626H91.7718" stroke="#263238" stroke-miterlimit="10"/>
<path d="M55.2939 123.626H65.0957" stroke="#263238" stroke-miterlimit="10"/>
<path d="M75.9029 129.105H55.2939" stroke="#263238" stroke-miterlimit="10"/>
<path d="M100.431 129.105H78.2832" stroke="#263238" stroke-miterlimit="10"/>
<path d="M109.248 129.105H102.818" stroke="#263238" stroke-miterlimit="10"/>
<path d="M139.495 129.105H110.91" stroke="#263238" stroke-miterlimit="10"/>
<path d="M176.642 129.105H142.586" stroke="#263238" stroke-miterlimit="10"/>
<path d="M203.797 129.105H180.22" stroke="#263238" stroke-miterlimit="10"/>
<path d="M216.697 129.105H206.896" stroke="#263238" stroke-miterlimit="10"/>
<path d="M196.089 134.344H216.698" stroke="#263238" stroke-miterlimit="10"/>
<path d="M171.554 134.344H193.708" stroke="#263238" stroke-miterlimit="10"/>
<path d="M162.744 134.344H169.174" stroke="#263238" stroke-miterlimit="10"/>
<path d="M132.497 134.344H161.075" stroke="#263238" stroke-miterlimit="10"/>
<path d="M95.3428 134.344H129.399" stroke="#263238" stroke-miterlimit="10"/>
<path d="M68.1943 134.344H91.7718" stroke="#263238" stroke-miterlimit="10"/>
<path d="M55.2939 134.344H65.0957" stroke="#263238" stroke-miterlimit="10"/>
<path d="M75.9029 139.823H55.2939" stroke="#263238" stroke-miterlimit="10"/>
<path d="M100.431 139.823H78.2832" stroke="#263238" stroke-miterlimit="10"/>
<path d="M109.248 139.823H102.818" stroke="#263238" stroke-miterlimit="10"/>
<path d="M139.495 139.823H110.91" stroke="#263238" stroke-miterlimit="10"/>
<path d="M176.642 139.823H142.586" stroke="#263238" stroke-miterlimit="10"/>
<path d="M203.797 139.823H180.22" stroke="#263238" stroke-miterlimit="10"/>
<path d="M216.697 139.823H206.896" stroke="#263238" stroke-miterlimit="10"/>
<path d="M196.089 145.063H216.698" stroke="#263238" stroke-miterlimit="10"/>
<path d="M171.554 145.063H193.708" stroke="#263238" stroke-miterlimit="10"/>
<path d="M162.744 145.063H169.174" stroke="#263238" stroke-miterlimit="10"/>
<path d="M132.497 145.063H161.075" stroke="#263238" stroke-miterlimit="10"/>
<path d="M95.3428 145.063H129.399" stroke="#263238" stroke-miterlimit="10"/>
<path d="M68.1943 145.063H91.7718" stroke="#263238" stroke-miterlimit="10"/>
<path d="M55.2939 145.063H65.0957" stroke="#263238" stroke-miterlimit="10"/>
<path d="M75.9029 150.542H55.2939" stroke="#263238" stroke-miterlimit="10"/>
<path d="M100.431 150.542H78.2832" stroke="#263238" stroke-miterlimit="10"/>
<path d="M109.248 150.542H102.818" stroke="#263238" stroke-miterlimit="10"/>
<path d="M139.495 150.542H110.91" stroke="#263238" stroke-miterlimit="10"/>
<path d="M176.642 150.542H142.586" stroke="#263238" stroke-miterlimit="10"/>
<path d="M203.797 150.542H180.22" stroke="#263238" stroke-miterlimit="10"/>
<path d="M216.697 150.542H206.896" stroke="#263238" stroke-miterlimit="10"/>
<path d="M196.089 155.781H216.698" stroke="#263238" stroke-miterlimit="10"/>
<path d="M171.554 155.781H193.708" stroke="#263238" stroke-miterlimit="10"/>
<path d="M162.744 155.781H169.174" stroke="#263238" stroke-miterlimit="10"/>
<path d="M132.497 155.781H161.075" stroke="#263238" stroke-miterlimit="10"/>
<path d="M95.3428 155.781H129.399" stroke="#263238" stroke-miterlimit="10"/>
<path d="M68.1943 155.781H91.7718" stroke="#263238" stroke-miterlimit="10"/>
<path d="M55.2939 155.781H65.0957" stroke="#263238" stroke-miterlimit="10"/>
<path d="M75.9029 161.26H55.2939" stroke="#263238" stroke-miterlimit="10"/>
<path d="M100.431 161.26H78.2832" stroke="#263238" stroke-miterlimit="10"/>
<path d="M109.248 161.26H102.818" stroke="#263238" stroke-miterlimit="10"/>
<path d="M139.495 161.26H110.91" stroke="#263238" stroke-miterlimit="10"/>
<path d="M176.642 161.26H142.586" stroke="#263238" stroke-miterlimit="10"/>
<path d="M203.797 161.26H180.22" stroke="#263238" stroke-miterlimit="10"/>
<path d="M216.697 161.26H206.896" stroke="#263238" stroke-miterlimit="10"/>
<path d="M196.089 166.499H216.698" stroke="#263238" stroke-miterlimit="10"/>
<path d="M171.554 166.499H193.708" stroke="#263238" stroke-miterlimit="10"/>
<path d="M162.744 166.499H169.174" stroke="#263238" stroke-miterlimit="10"/>
<path d="M132.497 166.499H161.075" stroke="#263238" stroke-miterlimit="10"/>
<path d="M95.3428 166.499H129.399" stroke="#263238" stroke-miterlimit="10"/>
<path d="M68.1943 166.499H91.7718" stroke="#263238" stroke-miterlimit="10"/>
<path d="M55.2939 166.499H65.0957" stroke="#263238" stroke-miterlimit="10"/>
<path d="M75.9029 171.971H55.2939" stroke="#263238" stroke-miterlimit="10"/>
<path d="M100.431 171.971H78.2832" stroke="#263238" stroke-miterlimit="10"/>
<path d="M109.248 171.971H102.818" stroke="#263238" stroke-miterlimit="10"/>
<path d="M139.495 171.971H110.91" stroke="#263238" stroke-miterlimit="10"/>
<path d="M176.642 171.971H142.586" stroke="#263238" stroke-miterlimit="10"/>
<path d="M203.797 171.971H180.22" stroke="#263238" stroke-miterlimit="10"/>
<path d="M216.697 171.971H206.896" stroke="#263238" stroke-miterlimit="10"/>
<path d="M56.1221 184.68H57.0728V189.885H58.646V190.754H56.1221V184.68Z" fill="#263238"/>
<path d="M58.9805 186.116C58.9805 185.732 59.1332 185.363 59.4052 185.091C59.6771 184.819 60.046 184.666 60.4305 184.666C60.8151 184.666 61.184 184.819 61.4559 185.091C61.7279 185.363 61.8806 185.732 61.8806 186.116V189.276C61.8806 189.661 61.7279 190.03 61.4559 190.302C61.184 190.574 60.8151 190.726 60.4305 190.726C60.046 190.726 59.6771 190.574 59.4052 190.302C59.1332 190.03 58.9805 189.661 58.9805 189.276V186.116ZM59.9381 189.338C59.9381 189.769 60.1296 189.933 60.4305 189.933C60.7315 189.933 60.923 189.769 60.923 189.338V186.048C60.923 185.617 60.7315 185.453 60.4305 185.453C60.1296 185.453 59.9381 185.617 59.9381 186.048V189.338Z" fill="#263238"/>
<path d="M64.4875 190.733C64.4135 190.492 64.3856 190.239 64.4054 189.988V189.03C64.4054 188.469 64.2139 188.257 63.7761 188.257H63.4478V190.733H62.4971V184.68H63.9335C64.9253 184.68 65.3493 185.138 65.3493 186.048V186.527C65.3833 186.771 65.3419 187.02 65.2307 187.24C65.1194 187.46 64.9437 187.64 64.7269 187.758C65.1989 187.956 65.3562 188.442 65.3562 189.051V189.988C65.3417 190.238 65.3765 190.489 65.4588 190.726L64.4875 190.733ZM63.4478 185.528V187.416H63.824C64.1797 187.416 64.3986 187.259 64.3986 186.773V186.171C64.3986 185.74 64.2481 185.549 63.913 185.549L63.4478 185.528Z" fill="#263238"/>
<path d="M66.9361 187.218H68.2494V188.1H66.9361V189.878H68.5845V190.747H65.9854V184.68H68.5845V185.549H66.9361V187.218Z" fill="#263238"/>
<path d="M71.1975 188.969L71.8815 184.659H73.1879V190.733H72.285V186.376L71.601 190.733H70.6982L70.0142 186.438V190.733H69.1797V184.68H70.5066L71.1975 188.969Z" fill="#263238"/>
<path d="M75.2393 184.68H76.19V190.754H75.2393V184.68Z" fill="#263238"/>
<path d="M79.6853 186.164V186.951C79.6853 187.922 79.2201 188.449 78.2625 188.449H77.8111V190.733H76.8604V184.68H78.2284C79.2202 184.68 79.6853 185.193 79.6853 186.164ZM77.8111 185.528V187.58H78.2625C78.5703 187.58 78.7345 187.436 78.7345 187.006V186.096C78.7345 185.658 78.5703 185.521 78.2625 185.521L77.8111 185.528Z" fill="#263238"/>
<path d="M81.3954 184.591C82.3188 184.591 82.7634 185.145 82.7634 186.116V186.308H81.8605V186.048C81.8605 185.617 81.6895 185.453 81.3817 185.453C81.0739 185.453 80.9098 185.617 80.9098 186.048C80.9098 187.3 82.7702 187.532 82.7702 189.27C82.7702 190.241 82.2846 190.795 81.3475 190.795C80.4104 190.795 79.9248 190.241 79.9248 189.27V188.893H80.8277V189.331C80.8277 189.762 81.0192 189.919 81.327 189.919C81.6348 189.919 81.8195 189.762 81.8195 189.331C81.8195 188.079 79.9522 187.847 79.9522 186.11C80.0274 185.145 80.4857 184.591 81.3954 184.591Z" fill="#263238"/>
<path d="M84.2818 184.68V189.365C84.2818 189.796 84.4733 189.954 84.7811 189.954C85.0889 189.954 85.2736 189.796 85.2736 189.365V184.68H86.1833V189.304C86.1833 190.275 85.6977 190.829 84.7606 190.829C83.8235 190.829 83.3379 190.275 83.3379 189.304V184.68H84.2818Z" fill="#263238"/>
<path d="M88.844 188.969L89.528 184.659H90.8549V190.733H89.9589V186.376L89.2749 190.733H88.372L87.688 186.438V190.733H86.8604V184.68H88.1873L88.844 188.969Z" fill="#263238"/>
<path d="M196.089 201.746H216.698" stroke="#263238" stroke-miterlimit="10"/>
<path d="M171.554 201.746H193.708" stroke="#263238" stroke-miterlimit="10"/>
<path d="M162.744 201.746H169.174" stroke="#263238" stroke-miterlimit="10"/>
<path d="M132.497 201.746H161.075" stroke="#263238" stroke-miterlimit="10"/>
<path d="M95.3428 201.746H129.399" stroke="#263238" stroke-miterlimit="10"/>
<path d="M68.1943 201.746H91.7718" stroke="#263238" stroke-miterlimit="10"/>
<path d="M55.2939 201.746H65.0957" stroke="#263238" stroke-miterlimit="10"/>
<path d="M75.9029 207.225H55.2939" stroke="#263238" stroke-miterlimit="10"/>
<path d="M100.431 207.225H78.2832" stroke="#263238" stroke-miterlimit="10"/>
<path d="M109.248 207.225H102.818" stroke="#263238" stroke-miterlimit="10"/>
<path d="M139.495 207.225H110.91" stroke="#263238" stroke-miterlimit="10"/>
<path d="M176.642 207.225H142.586" stroke="#263238" stroke-miterlimit="10"/>
<path d="M203.797 207.225H180.22" stroke="#263238" stroke-miterlimit="10"/>
<path d="M216.697 207.225H206.896" stroke="#263238" stroke-miterlimit="10"/>
<path d="M196.089 212.464H216.698" stroke="#263238" stroke-miterlimit="10"/>
<path d="M171.554 212.464H193.708" stroke="#263238" stroke-miterlimit="10"/>
<path d="M162.744 212.464H169.174" stroke="#263238" stroke-miterlimit="10"/>
<path d="M132.497 212.464H161.075" stroke="#263238" stroke-miterlimit="10"/>
<path d="M95.3428 212.464H129.399" stroke="#263238" stroke-miterlimit="10"/>
<path d="M68.1943 212.464H91.7718" stroke="#263238" stroke-miterlimit="10"/>
<path d="M55.2939 212.464H65.0957" stroke="#263238" stroke-miterlimit="10"/>
<path d="M75.9029 217.936H55.2939" stroke="#263238" stroke-miterlimit="10"/>
<path d="M100.431 217.936H78.2832" stroke="#263238" stroke-miterlimit="10"/>
<path d="M109.248 217.936H102.818" stroke="#263238" stroke-miterlimit="10"/>
<path d="M139.495 217.936H110.91" stroke="#263238" stroke-miterlimit="10"/>
<path d="M176.642 217.936H142.586" stroke="#263238" stroke-miterlimit="10"/>
<path d="M203.797 217.936H180.22" stroke="#263238" stroke-miterlimit="10"/>
<path d="M216.697 217.936H206.896" stroke="#263238" stroke-miterlimit="10"/>
<path d="M196.089 223.176H216.698" stroke="#263238" stroke-miterlimit="10"/>
<path d="M171.554 223.176H193.708" stroke="#263238" stroke-miterlimit="10"/>
<path d="M162.744 223.176H169.174" stroke="#263238" stroke-miterlimit="10"/>
<path d="M132.497 223.176H161.075" stroke="#263238" stroke-miterlimit="10"/>
<path d="M95.3428 223.176H129.399" stroke="#263238" stroke-miterlimit="10"/>
<path d="M68.1943 223.176H91.7718" stroke="#263238" stroke-miterlimit="10"/>
<path d="M55.2939 223.176H65.0957" stroke="#263238" stroke-miterlimit="10"/>
<path d="M75.9029 228.654H55.2939" stroke="#263238" stroke-miterlimit="10"/>
<path d="M100.431 228.654H78.2832" stroke="#263238" stroke-miterlimit="10"/>
<path d="M109.248 228.654H102.818" stroke="#263238" stroke-miterlimit="10"/>
<path d="M139.495 228.654H110.91" stroke="#263238" stroke-miterlimit="10"/>
<path d="M176.642 228.654H142.586" stroke="#263238" stroke-miterlimit="10"/>
<path d="M203.797 228.654H180.22" stroke="#263238" stroke-miterlimit="10"/>
<path d="M216.697 228.654H206.896" stroke="#263238" stroke-miterlimit="10"/>
<path d="M196.089 233.894H216.698" stroke="#263238" stroke-miterlimit="10"/>
<path d="M171.554 233.894H193.708" stroke="#263238" stroke-miterlimit="10"/>
<path d="M162.744 233.894H169.174" stroke="#263238" stroke-miterlimit="10"/>
<path d="M132.497 233.894H161.075" stroke="#263238" stroke-miterlimit="10"/>
<path d="M95.3428 233.894H129.399" stroke="#263238" stroke-miterlimit="10"/>
<path d="M68.1943 233.894H91.7718" stroke="#263238" stroke-miterlimit="10"/>
<path d="M55.2939 233.894H65.0957" stroke="#263238" stroke-miterlimit="10"/>
<path d="M169.775 93.4891H124.398V108.482H128.42L126.792 116.082L132.093 108.482H169.775V93.4891Z" fill="#263238" stroke="#263238" stroke-linecap="round" stroke-linejoin="round"/>
<path d="M133.414 102.162L133.195 103.291H132.62L133.694 97.6821H134.597L135.671 103.291H135.048L134.829 102.162H133.414ZM133.496 101.622H134.747L134.118 98.3866L133.496 101.622Z" fill="#4692B6"/>
<path d="M136.711 103.284H136.15V97.6753H136.944L138.243 101.725V97.6753H138.797V103.284H138.168L136.732 98.7492L136.711 103.284Z" fill="#4692B6"/>
<path d="M139.988 103.284H139.427V97.6753H140.22L141.52 101.725V97.6753H142.074V103.284H141.39L139.953 98.7492L139.988 103.284Z" fill="#4692B6"/>
<path d="M142.662 99.0364C142.662 98.1814 143.093 97.6273 143.948 97.6273C144.803 97.6273 145.233 98.1814 145.233 99.0364V101.916C145.233 102.764 144.809 103.325 143.948 103.325C143.765 103.335 143.583 103.305 143.414 103.235C143.245 103.166 143.093 103.061 142.97 102.926C142.847 102.791 142.756 102.63 142.702 102.456C142.649 102.281 142.635 102.097 142.662 101.916V99.0364ZM143.284 101.964C143.284 102.477 143.496 102.778 143.968 102.778C144.44 102.778 144.652 102.477 144.652 101.964V99.0022C144.652 98.5028 144.44 98.195 143.968 98.195C143.496 98.195 143.284 98.5028 143.284 99.0022V101.964Z" fill="#4692B6"/>
<path d="M146.635 103.284V98.243H145.603V97.6753H148.284V98.243H147.251V103.284H146.635Z" fill="#4692B6"/>
<path d="M149.043 102.162L148.825 103.291H148.25L149.324 97.6821H150.227L151.301 103.291H150.671L150.459 102.162H149.043ZM149.119 101.622H150.37L149.734 98.3866L149.119 101.622Z" fill="#4692B6"/>
<path d="M152.293 103.284V98.243H151.26V97.6753H153.941V98.243H152.908V103.284H152.293Z" fill="#4692B6"/>
<path d="M154.995 97.6821V103.284H154.365V97.6753L154.995 97.6821Z" fill="#4692B6"/>
<path d="M155.582 99.0364C155.582 98.1814 156.006 97.6273 156.868 97.6273C157.73 97.6273 158.154 98.1814 158.154 99.0364V101.916C158.154 102.764 157.73 103.325 156.868 103.325C156.006 103.325 155.582 102.764 155.582 101.916V99.0364ZM156.198 101.964C156.198 102.477 156.417 102.778 156.882 102.778C157.347 102.778 157.566 102.477 157.566 101.964V99.0022C157.566 98.5028 157.354 98.195 156.882 98.195C156.41 98.195 156.198 98.5028 156.198 99.0022V101.964Z" fill="#4692B6"/>
<path d="M159.303 103.284H158.742V97.6753H159.536L160.828 101.725V97.6753H161.382V103.284H160.739L159.31 98.7492L159.303 103.284Z" fill="#4692B6"/>
<path d="M202.559 136.67H157.183V151.67H161.211L159.583 159.263L164.884 151.67H202.559V136.67Z" fill="#263238" stroke="#263238" stroke-linecap="round" stroke-linejoin="round"/>
<path d="M166.211 145.343L165.999 146.472H165.418L166.492 140.863H167.395L168.469 146.472H167.846L167.627 145.343H166.211ZM166.293 144.803H167.538L166.895 141.588L166.293 144.803Z" fill="#4692B6"/>
<path d="M169.502 146.472H168.948V140.863H169.742L171.034 144.919V140.863H171.588V146.472H170.939L169.509 141.937L169.502 146.472Z" fill="#4692B6"/>
<path d="M172.779 146.472H172.218V140.863H173.011L174.304 144.919V140.863H174.858V146.472H174.208L172.779 141.937V146.472Z" fill="#4692B6"/>
<path d="M175.452 142.217C175.452 141.362 175.876 140.808 176.731 140.808C177.586 140.808 178.017 141.362 178.017 142.217V145.117C178.017 145.966 177.593 146.526 176.731 146.526C175.869 146.526 175.452 145.966 175.452 145.117V142.217ZM176.068 145.152C176.068 145.658 176.287 145.959 176.752 145.959C177.217 145.959 177.436 145.658 177.436 145.152V142.19C177.436 141.684 177.231 141.376 176.752 141.376C176.273 141.376 176.068 141.684 176.068 142.19V145.152Z" fill="#4692B6"/>
<path d="M179.426 146.472V141.431H178.394V140.863H181.075V141.431H180.042V146.472H179.426Z" fill="#4692B6"/>
<path d="M181.828 145.343L181.609 146.472H181.034L182.108 140.863H183.011L184.085 146.472H183.462L183.243 145.343H181.828ZM181.91 144.803H183.155L182.525 141.568L181.91 144.803Z" fill="#4692B6"/>
<path d="M185.077 146.472V141.431H184.044V140.863H186.732V141.431H185.699V146.472H185.077Z" fill="#4692B6"/>
<path d="M187.779 140.863V146.472H187.156V140.863H187.779Z" fill="#4692B6"/>
<path d="M188.373 142.217C188.373 141.362 188.797 140.808 189.652 140.808C190.507 140.808 190.938 141.362 190.938 142.217V145.117C190.938 145.966 190.514 146.526 189.652 146.526C188.79 146.526 188.373 145.966 188.373 145.117V142.217ZM188.989 145.152C188.989 145.658 189.201 145.959 189.673 145.959C190.145 145.959 190.357 145.658 190.357 145.152V142.19C190.357 141.684 190.151 141.376 189.673 141.376C189.194 141.376 188.989 141.684 188.989 142.19V145.152Z" fill="#4692B6"/>
<path d="M192.087 146.472H191.52V140.863H192.313L193.613 144.919V140.863H194.16V146.472H193.51L192.08 141.937L192.087 146.472Z" fill="#4692B6"/>
<path d="M160.842 191.411H115.466V206.404H119.488L117.86 213.996L123.161 206.404H160.842V191.411Z" fill="#263238" stroke="#263238" stroke-linecap="round" stroke-linejoin="round"/>
<path d="M124.488 200.077L124.269 201.205H123.694L124.761 195.624H125.664L126.738 201.226H126.116L125.897 200.097L124.488 200.077ZM124.57 199.537H125.815L125.172 196.308L124.57 199.537Z" fill="#4692B6"/>
<path d="M127.778 201.205H127.224V195.624H128.017L129.317 199.673V195.624H129.871V201.226H129.187L127.75 196.691L127.778 201.205Z" fill="#4692B6"/>
<path d="M131.054 201.205H130.493V195.624H131.287L132.586 199.673V195.624H133.14V201.226H132.456L131.02 196.691L131.054 201.205Z" fill="#4692B6"/>
<path d="M133.735 196.951C133.735 196.096 134.159 195.542 135.014 195.542C135.869 195.542 136.3 196.096 136.3 196.951V199.851C136.3 200.699 135.876 201.26 135.014 201.26C134.153 201.26 133.735 200.699 133.735 199.851V196.951ZM134.351 199.885C134.351 200.398 134.563 200.693 135.035 200.693C135.507 200.693 135.719 200.398 135.719 199.885V196.924C135.719 196.418 135.514 196.11 135.035 196.11C134.556 196.11 134.351 196.418 134.351 196.924V199.885Z" fill="#4692B6"/>
<path d="M137.703 201.205V196.171H136.67V195.624H139.351V196.192H138.318V201.226L137.703 201.205Z" fill="#4692B6"/>
<path d="M140.111 200.077L139.892 201.205H139.317L140.391 195.604H141.294L142.368 201.205H141.739L141.527 200.077H140.111ZM140.186 199.537H141.438L140.802 196.308L140.186 199.537Z" fill="#4692B6"/>
<path d="M143.359 201.205V196.171H142.326V195.624H145.007V196.192H143.975V201.226L143.359 201.205Z" fill="#4692B6"/>
<path d="M146.061 195.624V201.226H145.432V195.624H146.061Z" fill="#4692B6"/>
<path d="M146.649 196.951C146.649 196.096 147.073 195.542 147.935 195.542C148.797 195.542 149.221 196.096 149.221 196.951V199.851C149.221 200.699 148.797 201.26 147.935 201.26C147.073 201.26 146.649 200.699 146.649 199.851V196.951ZM147.272 199.885C147.272 200.398 147.484 200.693 147.956 200.693C148.428 200.693 148.64 200.398 148.64 199.885V196.924C148.64 196.418 148.428 196.11 147.956 196.11C147.484 196.11 147.272 196.418 147.272 196.924V199.885Z" fill="#4692B6"/>
<path d="M150.37 201.205H149.796V195.624H150.589L151.882 199.673V195.624H152.436V201.226H151.786L150.357 196.691L150.37 201.205Z" fill="#4692B6"/>
<path d="M244.777 313.505C244.777 313.505 242.376 317.821 241.576 319.9C240.776 321.979 236.788 325.495 236.302 328.211C235.817 330.926 237.103 332.369 243.142 332.369C249.182 332.369 254.811 328.211 255.933 328.053C257.055 327.896 258.97 327.096 258.97 326.617C258.97 326.138 258.334 317.342 258.334 317.342C258.334 317.342 248.135 310.782 244.777 313.505Z" fill="#263238" stroke="#263238" stroke-linecap="round" stroke-linejoin="round"/>
<path d="M243.976 330.769C239.551 331.336 237.225 330.297 236.24 329.647C236.493 331.432 238.292 332.383 243.176 332.383C249.25 332.383 254.845 328.224 255.967 328.067C257.089 327.91 259.004 327.109 259.004 326.63C259.004 326.466 258.935 325.372 258.84 323.99C258.074 324.332 257.15 324.777 256.104 325.358C253.251 326.952 250.214 329.975 243.976 330.769Z" fill="white" stroke="#263238" stroke-linecap="round" stroke-linejoin="round"/>
<path d="M244.298 325.495C242.172 324.83 239.906 324.75 237.739 325.262C237.063 326.136 236.574 327.14 236.302 328.21C235.823 330.946 237.103 332.369 243.142 332.369C245.496 332.311 247.817 331.807 249.982 330.885C249.487 329.626 248.721 328.49 247.739 327.559C246.757 326.628 245.582 325.923 244.298 325.495Z" fill="white" stroke="#263238" stroke-linecap="round" stroke-linejoin="round"/>
<path d="M255.645 321.494C256.265 321.494 256.767 320.599 256.767 319.496C256.767 318.393 256.265 317.499 255.645 317.499C255.026 317.499 254.523 318.393 254.523 319.496C254.523 320.599 255.026 321.494 255.645 321.494Z" fill="white" stroke="#263238" stroke-linecap="round" stroke-linejoin="round"/>
<path d="M284.018 313.505C284.018 313.505 286.419 317.821 287.219 319.9C288.02 321.979 292.007 325.495 292.493 328.211C292.979 330.926 291.693 332.369 285.619 332.369C279.545 332.369 273.943 328.211 272.828 328.053C271.713 327.896 269.791 327.096 269.791 326.617C269.791 326.138 270.427 317.342 270.427 317.342C270.427 317.342 280.66 310.782 284.018 313.505Z" fill="#263238" stroke="#263238" stroke-linecap="round" stroke-linejoin="round"/>
<path d="M284.818 330.769C289.244 331.336 291.57 330.297 292.548 329.647C292.295 331.432 290.496 332.383 285.619 332.383C279.545 332.383 273.943 328.224 272.828 328.067C271.713 327.91 269.791 327.109 269.791 326.63C269.791 326.466 269.859 325.372 269.955 323.99C270.721 324.332 271.638 324.777 272.691 325.358C275.543 326.952 278.58 329.975 284.818 330.769Z" fill="white" stroke="#263238" stroke-linecap="round" stroke-linejoin="round"/>
<path d="M284.497 325.495C286.62 324.83 288.884 324.75 291.049 325.263C291.727 326.136 292.218 327.14 292.493 328.211C292.971 330.947 291.692 332.369 285.618 332.369C283.265 332.311 280.944 331.808 278.778 330.885C279.278 329.622 280.049 328.484 281.037 327.553C282.025 326.621 283.206 325.919 284.497 325.495Z" fill="white" stroke="#263238" stroke-linecap="round" stroke-linejoin="round"/>
<path d="M272.027 319.496C272.027 320.604 272.527 321.494 273.149 321.494C273.772 321.494 274.264 320.604 274.264 319.496C274.264 318.388 273.765 317.499 273.149 317.499C272.533 317.499 272.027 318.395 272.027 319.496Z" fill="white" stroke="#263238" stroke-linecap="round" stroke-linejoin="round"/>
<path d="M247.841 197.334L245.447 298.908C245.447 298.908 241.685 302.67 243.053 304.38C244.421 306.09 244.079 313.956 244.079 313.956C244.079 313.956 246.815 312.93 249.209 313.956C251.603 314.982 258.785 318.402 258.785 318.402L259.127 309.852C259.127 309.852 261.863 307.116 260.837 303.354C259.811 299.592 259.127 295.146 259.127 295.146L265.967 224.01L269.729 292.068C269.729 292.068 267.335 297.54 268.019 300.276C268.703 303.012 269.387 306.774 269.387 306.774L270.181 318.621C270.181 318.621 275.865 317.732 277.534 316.863C279.486 315.72 281.331 314.404 283.047 312.93C283.047 312.93 283.047 299.25 283.389 296.514C283.731 293.778 282.021 291.726 282.021 287.622C282.021 283.518 287.493 192.888 287.493 192.888L247.137 192.546L247.841 197.334Z" fill="#263238" stroke="#263238" stroke-linecap="round" stroke-linejoin="round"/>
<path d="M266.281 225.385L266.74 215.877L272.882 212.669" stroke="#737373" stroke-linecap="round" stroke-linejoin="round"/>
<path d="M264.777 129.016L256.056 135.117L247.273 206.794C247.273 206.794 265.509 214.55 287.397 207.252L280.249 131.629L278.505 129.454L264.777 129.016Z" fill="white" stroke="#263238" stroke-linecap="round" stroke-linejoin="round"/>
<path d="M263.101 128.961C263.101 128.961 236.849 138.052 236.849 140.069C236.849 142.087 226.78 173.627 226.78 173.627C226.78 173.627 228.832 178.928 232.587 178.928C234.96 178.875 237.256 178.081 239.154 176.657L244.674 168.852C244.674 168.852 243.661 202.423 243.661 203.182C243.661 203.941 243.914 204.448 249.469 205.453C253.395 206.112 257.358 206.534 261.336 206.718L263.101 128.961Z" fill="#4692B6" stroke="#263238" stroke-linecap="round" stroke-linejoin="round"/>
<path d="M245.105 163.476L247.157 147.06" stroke="#263238" stroke-linecap="round" stroke-linejoin="round"/>
<path d="M259.811 129.789C259.811 129.789 258.785 132.354 257.759 135.945C256.733 139.536 253.655 149.283 253.655 149.283L262.718 145.692L262.547 128.763C262.045 128.734 261.542 128.81 261.071 128.986C260.599 129.163 260.17 129.436 259.811 129.789Z" fill="#4692B6" stroke="#263238" stroke-linecap="round" stroke-linejoin="round"/>
<path d="M263.607 121.896C263.607 121.896 262.349 133.004 262.349 134.515C262.349 136.027 266.384 138.811 269.921 139.57C273.457 140.329 276.761 137.039 277.492 135.022C278.224 133.004 277.745 124.673 277.745 124.673C277.745 124.673 266.637 124.167 263.607 121.896Z" fill="#F28F8F" stroke="#263238" stroke-linecap="round" stroke-linejoin="round"/>
<path d="M272.404 84.132C272.404 84.132 269.168 81.82 266.118 82.0321C263.067 82.2441 264.339 84.7681 264.339 84.7681C264.339 84.7681 254.531 86.0745 254.312 87.8187C254.093 89.5629 255.837 90.6505 255.837 90.6505C255.837 90.6505 248.211 94.1389 248.211 96.9706C248.211 99.8024 251.261 99.1526 251.261 99.1526C251.261 99.1526 244.722 105.035 247.992 106.779C251.261 108.523 252.568 107.429 252.568 107.429C252.568 107.429 250.605 113.968 252.568 115.281C253.571 116.033 254.803 116.417 256.056 116.369C256.056 116.369 256.275 119.201 258.669 119.638C261.063 120.076 263.683 120.507 263.683 120.507C263.683 120.507 269.572 123.777 275.235 122.689C280.899 121.601 286.699 117.217 286.699 117.217C286.699 117.217 289.319 117.005 289.969 114.823C290.395 113.262 290.625 111.653 290.653 110.035C290.653 110.035 293.266 109.597 293.047 105.678C292.999 103.58 292.555 101.51 291.74 99.5767C291.74 99.5767 295.297 98.024 293.484 94.1047C290.208 87.0526 282.924 85.9446 282.924 85.9446C282.924 85.9446 287.287 83.2838 283.368 82.1962C279.449 81.1087 278.484 81.1566 272.404 84.132Z" fill="#263238" stroke="#263238" stroke-linecap="round" stroke-linejoin="round"/>
<path d="M262.848 109.775C262.848 109.775 260.071 106.499 259.065 110.281C258.06 114.064 258.306 116.088 259.825 116.848C261.343 117.607 261.589 116.848 261.589 116.848C261.589 116.848 261.336 122.655 263.607 124.42C265.878 126.184 270.174 129.467 273.457 129.208C276.74 128.948 282.034 122.901 282.034 120.876C282.034 118.852 283.046 106.239 283.046 104.46C283.046 102.682 281.535 100.172 280.269 99.9187C279.004 99.6656 275.981 97.9009 275.981 97.9009L269.92 100.931V98.407C269.92 98.407 267.397 101.936 266.637 102.696C265.878 103.455 264.873 101.936 264.873 101.936L262.848 109.775Z" fill="#F28F8F" stroke="#263238" stroke-linecap="round" stroke-linejoin="round"/>
<path d="M274.716 110.028L274.463 119.625H270.174" stroke="#263238" stroke-linecap="round" stroke-linejoin="round"/>
<path d="M268.402 112.805C268.961 112.805 269.414 112.184 269.414 111.417C269.414 110.65 268.961 110.028 268.402 110.028C267.843 110.028 267.39 110.65 267.39 111.417C267.39 112.184 267.843 112.805 268.402 112.805Z" fill="#263238"/>
<path d="M277.999 112.805C278.558 112.805 279.011 112.184 279.011 111.417C279.011 110.65 278.558 110.028 277.999 110.028C277.44 110.028 276.986 110.65 276.986 111.417C276.986 112.184 277.44 112.805 277.999 112.805Z" fill="#263238"/>
<path d="M266.131 108.263H271.432" stroke="#263238" stroke-linecap="round" stroke-linejoin="round"/>
<path d="M275.98 107.251C275.98 107.251 278.251 104.727 280.269 107.504" stroke="#263238" stroke-linecap="round" stroke-linejoin="round"/>
<path d="M257.547 144.871L265.283 131.67L267.65 123.161L274.715 122.908C274.715 122.908 276.733 123.161 275.728 124.167C274.722 125.172 270.358 125.268 270.358 125.268L269.674 128.462H274.216L274.722 130.48L273.963 136.034L272.697 136.8L271.179 136.547C271.179 136.547 271.179 137.552 269.92 139.577C268.662 141.602 264.873 141.595 264.873 141.595L261.842 150.432L257.547 144.871Z" fill="#F28F8F" stroke="#263238" stroke-linecap="round" stroke-linejoin="round"/>
<path d="M269.496 131.068C269.496 131.068 272.471 130.774 273.067 130.774C273.662 130.774 274.435 132.703 274.435 132.703" stroke="#263238" stroke-linecap="round" stroke-linejoin="round"/>
<path d="M269.496 133.749C270.543 133.703 271.586 133.603 272.622 133.448C273.067 133.298 274.106 135.083 274.106 135.083" stroke="#263238" stroke-linecap="round" stroke-linejoin="round"/>
<path d="M259.572 141.335L264.113 149.413L235.871 182.97C235.871 182.97 232.088 184.235 229.558 182.211C227.027 180.186 224.51 173.88 227.54 170.35C230.57 166.821 259.572 141.335 259.572 141.335Z" fill="#4692B6" stroke="#263238" stroke-linecap="round" stroke-linejoin="round"/>
<path d="M277.746 129.214L276.733 206.465C276.733 206.465 283.573 207.225 284.811 207.225C286.049 207.225 292.889 204.448 292.889 204.448L293.396 173.9C293.396 173.9 304.887 177.635 306.152 177.135C307.418 176.636 306.33 170.863 304.784 165.056C303.238 159.249 299.271 146.656 299.271 145.138C299.271 143.619 297.753 139.078 296.494 137.06C295.236 135.042 277.746 129.214 277.746 129.214Z" fill="#4692B6" stroke="#263238" stroke-linecap="round" stroke-linejoin="round"/>
<path d="M277.745 129.214V145.521L285.098 148.086L281.678 130.644C281.678 130.644 279.435 128.647 277.745 129.214Z" fill="#4692B6" stroke="#263238" stroke-linecap="round" stroke-linejoin="round"/>
<path d="M281.165 193.729L291.015 192.396" stroke="#263238" stroke-linecap="round" stroke-linejoin="round"/>
<path d="M291.651 189.858L280.7 191.233" stroke="#263238" stroke-linecap="round" stroke-linejoin="round"/>
<path d="M279.483 184.605L279.284 205.084" stroke="#263238" stroke-linecap="round" stroke-linejoin="round"/>
<path d="M279.599 172.737L279.503 182.888" stroke="#263238" stroke-linecap="round" stroke-linejoin="round"/>
<path d="M246.932 189.858L260.256 191.13V193.668L247.157 192.546" stroke="#263238" stroke-linecap="round" stroke-linejoin="round"/>
<path d="M259.202 170.343L258.669 190.179" stroke="#263238" stroke-linecap="round" stroke-linejoin="round"/>
<path d="M259.619 154.974L259.264 168.148" stroke="#263238" stroke-linecap="round" stroke-linejoin="round"/>
<path d="M258.354 195.255L258.032 204.448" stroke="#263238" stroke-linecap="round" stroke-linejoin="round"/>
<path d="M283.409 145.521L276.398 167.238L287.171 168.948L293.84 147.744L283.409 145.521Z" fill="#263238" stroke="#263238" stroke-linecap="round" stroke-linejoin="round"/>
<path d="M288.012 171C288.012 171 288.696 175.678 290.441 177.703C295.584 183.702 304.182 184.372 306.173 181.417C308.163 178.462 306.754 172.881 304.743 171.417C301.604 169.133 292.24 166.164 292.24 166.164C292.24 166.164 289.196 166.616 288.573 168.134C288.189 169.04 287.998 170.016 288.012 171Z" fill="#4692B6" stroke="#263238" stroke-linecap="round" stroke-linejoin="round"/>
<path d="M295.632 167.347C293.772 166.663 292.212 166.164 292.212 166.164C292.212 166.164 289.168 166.616 288.546 168.134C288.169 169.041 287.985 170.017 288.006 171C288.006 171 288.17 171.575 288.436 172.443L291.439 175.446C292.982 174.167 294.26 172.599 295.201 170.829C295.507 170.309 295.703 169.732 295.778 169.133C295.852 168.534 295.802 167.926 295.632 167.347Z" fill="#F28F8F" stroke="#263238" stroke-linecap="round" stroke-linejoin="round"/>
<path d="M294.278 167.956C294.278 167.956 289.613 157.491 289.36 155.473C289.107 153.455 284.312 153.955 283.299 153.955C282.287 153.955 280.269 153.955 281.535 155.22C282.8 156.485 285.57 156.479 285.57 156.479L286.583 156.732L287.335 160.015C287.335 160.015 283.299 159.762 282.547 159.762C281.795 159.762 278.511 162.286 278.005 163.045C277.499 163.804 277.499 165.063 279.011 165.063L279.428 164.912C279.428 164.912 277.376 166.704 277.821 167.334C278.265 167.963 278.505 168.223 279.072 168.223C279.712 168.062 280.318 167.792 280.864 167.423L283.279 167.6L284.975 168.496C284.975 168.496 281.487 169.297 280.871 169.475C280.256 169.652 278.546 170.46 278.99 170.911C279.287 171.151 279.641 171.309 280.017 171.372C280.394 171.434 280.78 171.398 281.138 171.267C281.945 171 284.558 170.583 284.558 170.583C284.558 170.583 287.239 170.672 288.046 171.034C289.385 171.455 290.758 171.755 292.15 171.93" fill="#F28F8F"/>
<path d="M294.278 167.956C294.278 167.956 289.613 157.491 289.36 155.473C289.107 153.455 284.312 153.955 283.299 153.955C282.287 153.955 280.269 153.955 281.535 155.22C282.8 156.485 285.57 156.479 285.57 156.479L286.583 156.732L287.335 160.015C287.335 160.015 283.299 159.762 282.547 159.762C281.795 159.762 278.511 162.286 278.005 163.045C277.499 163.804 277.499 165.063 279.011 165.063L279.428 164.912C279.428 164.912 277.376 166.704 277.821 167.334C278.265 167.963 278.505 168.223 279.072 168.223C279.712 168.062 280.318 167.792 280.864 167.423L283.279 167.6L284.975 168.496C284.975 168.496 281.487 169.297 280.871 169.475C280.256 169.652 278.546 170.46 278.99 170.911C279.287 171.151 279.641 171.309 280.017 171.372C280.394 171.434 280.78 171.398 281.138 171.267C281.945 171 284.558 170.583 284.558 170.583C284.558 170.583 287.239 170.672 288.046 171.034C289.385 171.455 290.758 171.755 292.15 171.93" stroke="#263238" stroke-linecap="round" stroke-linejoin="round"/>
<path d="M279.421 164.912C279.421 164.912 281.213 163.483 281.842 163.483C282.472 163.483 287.116 164.646 287.116 164.646" stroke="#263238" stroke-linecap="round" stroke-linejoin="round"/>
<path d="M42.7568 17.7841V34.8841L41.2042 35.7459V30.3765C41.2042 27.4763 38.8375 26.4845 35.9237 28.174L28.6665 32.3601V63.1538C28.6665 66.5191 30.7184 68.0649 33.2698 66.5738L37.7773 63.9746H37.8252L42.7568 66.8269L18.085 81.0609L14.7539 79.1389L13.1533 80.0623V78.2155L17.7019 75.5821C20.2464 74.1183 22.3052 70.199 22.3052 66.8269V36.0058L15.048 40.1919C12.1273 41.8745 9.76069 45.5955 9.76069 48.5025V53.8856L8.20801 54.8158V37.7158L42.7568 17.7841Z" fill="#4692B6"/>
<path opacity="0.2" d="M42.7568 17.7841V34.8841L41.2042 35.7459V30.3765C41.2042 27.4763 38.8375 26.4845 35.9237 28.174L28.6665 32.3601V63.1538C28.6665 66.5191 30.7184 68.0649 33.2698 66.5738L37.7773 63.9746H37.8252L42.7568 66.8269L18.085 81.0609L14.7539 79.1389L13.1533 80.0623V78.2155L17.7019 75.5821C20.2464 74.1183 22.3052 70.199 22.3052 66.8269V36.0058L15.048 40.1919C12.1273 41.8745 9.76069 45.5955 9.76069 48.5025V53.8856L8.20801 54.8158V37.7158L42.7568 17.7841Z" fill="white"/>
<path d="M46.1357 38.5913L41.2041 35.7391V27.2233L46.1357 28.1603V38.5913Z" fill="#4692B6"/>
<path d="M47.6885 20.6295V37.7295L46.1358 38.5845V33.2014C46.1358 30.2944 43.776 29.3095 40.8553 30.9921L33.6049 35.1645V65.9992C33.6049 69.3714 35.6569 70.9104 38.2082 69.4192L42.7568 66.7927V68.6805L18.085 82.9282V81.0609L22.6336 78.4344C25.178 76.9638 27.2369 73.0444 27.2369 69.6792V38.8513L19.9865 43.0374C17.1 44.7405 14.706 48.441 14.706 51.348V56.7379L13.1533 57.6613V40.5613L47.6885 20.6295Z" fill="#4692B6"/>
<path opacity="0.5" d="M47.6885 20.6295V37.7295L46.1358 38.5845V33.2014C46.1358 30.2944 43.776 29.3095 40.8553 30.9921L33.6049 35.1645V65.9992C33.6049 69.3714 35.6569 70.9104 38.2082 69.4192L42.7568 66.7927V68.6805L18.085 82.9282V81.0609L22.6336 78.4344C25.178 76.9638 27.2369 73.0444 27.2369 69.6792V38.8513L19.9865 43.0374C17.1 44.7405 14.706 48.441 14.706 51.348V56.7379L13.1533 57.6613V40.5613L47.6885 20.6295Z" fill="white"/>
<path d="M42.7559 17.7841L47.6875 20.6295L13.1523 40.5749L8.2207 37.7227L42.7559 17.7841Z" fill="#4692B6"/>
<path opacity="0.7" d="M42.7559 17.7841L47.6875 20.6295L13.1523 40.5749L8.2207 37.7227L42.7559 17.7841Z" fill="white"/>
<path d="M8.22168 37.7227L13.1533 40.5749V57.6613L8.22168 54.8158V37.7227Z" fill="#4692B6"/>
<path opacity="0.2" d="M8.22168 37.7227L13.1533 40.5749V57.6613L8.22168 54.8158V37.7227Z" fill="white"/>
<path d="M13.1533 78.2155L18.085 81.0609V82.9145L13.1533 80.0623V78.2155Z" fill="#4692B6"/>
</svg>
