<svg width="20" height="20" viewBox="0 0 20 20" fill="none" xmlns="http://www.w3.org/2000/svg">
<path d="M14.7961 11.6667C15.0422 11.6668 15.2859 11.7154 15.5132 11.8097C15.7406 11.904 15.9471 12.0421 16.1211 12.2163C16.295 12.3904 16.433 12.597 16.5271 12.8245C16.6212 13.0519 16.6695 13.2956 16.6694 13.5417V14.0209C16.6694 14.7659 16.4027 15.4867 15.9194 16.0526C14.6111 17.5801 12.6219 18.3342 10.0002 18.3342C7.37941 18.3342 5.39025 17.5801 4.08525 16.0509C3.60242 15.4854 3.33709 14.7662 3.33691 14.0226V13.5409C3.33691 13.0438 3.53437 12.5671 3.88584 12.2157C4.23732 11.8642 4.71402 11.6667 5.21108 11.6667H14.7961ZM14.7961 12.9167H5.21025C5.12814 12.9166 5.04682 12.9327 4.97094 12.9641C4.89506 12.9955 4.82612 13.0415 4.76806 13.0995C4.71 13.1576 4.66397 13.2265 4.6326 13.3024C4.60123 13.3783 4.58514 13.4596 4.58525 13.5417V14.0226C4.58525 14.4684 4.74525 14.9001 5.03525 15.2392C6.07941 16.4634 7.71858 17.0842 9.99941 17.0842C12.2819 17.0842 13.9211 16.4634 14.9686 15.2401C15.2591 14.9003 15.4187 14.4679 15.4186 14.0209V13.5409C15.4186 13.3755 15.3529 13.2169 15.2361 13.0998C15.1192 12.9828 14.9615 12.917 14.7961 12.9167ZM10.0002 1.6709C10.5474 1.6709 11.0892 1.77867 11.5948 1.98807C12.1003 2.19746 12.5596 2.50438 12.9465 2.89129C13.3334 3.2782 13.6404 3.73753 13.8497 4.24305C14.0591 4.74857 14.1669 5.29039 14.1669 5.83756C14.1669 6.38474 14.0591 6.92656 13.8497 7.43208C13.6404 7.9376 13.3334 8.39693 12.9465 8.78384C12.5596 9.17075 12.1003 9.47767 11.5948 9.68706C11.0892 9.89646 10.5474 10.0042 10.0002 10.0042C8.89518 10.0042 7.83537 9.56524 7.05397 8.78384C6.27257 8.00244 5.83358 6.94263 5.83358 5.83756C5.83358 4.7325 6.27257 3.67269 7.05397 2.89129C7.83537 2.10989 8.89518 1.6709 10.0002 1.6709ZM10.0002 2.9209C9.61723 2.9209 9.23795 2.99634 8.88409 3.14292C8.53022 3.28949 8.20869 3.50433 7.93785 3.77517C7.66702 4.04601 7.45217 4.36754 7.3056 4.7214C7.15902 5.07527 7.08358 5.45454 7.08358 5.83756C7.08358 6.22059 7.15902 6.59986 7.3056 6.95372C7.45217 7.30759 7.66702 7.62912 7.93785 7.89996C8.20869 8.1708 8.53022 8.38564 8.88409 8.53221C9.23795 8.67879 9.61723 8.75423 10.0002 8.75423C10.7738 8.75423 11.5157 8.44694 12.0626 7.89996C12.6096 7.35298 12.9169 6.61111 12.9169 5.83756C12.9169 5.06402 12.6096 4.32215 12.0626 3.77517C11.5157 3.22819 10.7738 2.9209 10.0002 2.9209Z" fill="#545454"/>
</svg>
