<svg width="107" height="21" viewBox="0 0 107 21" fill="none" xmlns="http://www.w3.org/2000/svg">
<path d="M20.5121 12.8856C20.5121 12.5321 20.2186 12.2456 19.8566 12.2456C19.4946 12.2456 19.2012 12.5321 19.2012 12.8856V15.6351C19.2012 15.9885 19.4946 16.2751 19.8566 16.2751C20.2186 16.2751 20.5121 15.9885 20.5121 15.6351V12.8856Z" fill="#4692B6" stroke="#4692B6" stroke-miterlimit="10"/>
<path d="M2.79824 12.8856C2.79824 12.5321 2.50478 12.2456 2.14277 12.2456C1.78077 12.2456 1.4873 12.5321 1.4873 12.8856V15.6351C1.4873 15.9885 1.78077 16.2751 2.14277 16.2751C2.50478 16.2751 2.79824 15.9885 2.79824 15.6351V12.8856Z" fill="#4692B6" stroke="#4692B6" stroke-miterlimit="10"/>
<path d="M16.9135 15.3586C16.386 15.8734 15.6706 16.1626 14.9246 16.1626C14.1787 16.1626 13.4633 15.8734 12.9357 15.3586C12.4081 14.8438 11.6926 14.5546 10.9466 14.5546C10.2006 14.5546 9.4851 14.8438 8.9575 15.3586C8.56415 15.7425 8.06299 16.004 7.51741 16.1099C6.97184 16.2158 6.40634 16.1614 5.89243 15.9536C5.37851 15.7458 4.93927 15.3939 4.63023 14.9425C4.3212 14.491 4.15625 13.9603 4.15625 13.4173C4.15625 12.8744 4.3212 12.3436 4.63023 11.8921C4.93927 11.4407 5.37851 11.0888 5.89243 10.881C6.40634 10.6732 6.97184 10.6189 7.51741 10.7248C8.06299 10.8307 8.56415 11.0921 8.9575 11.476C9.4851 11.9908 10.2006 12.28 10.9466 12.28C11.6926 12.28 12.4081 11.9908 12.9357 11.476C13.4632 10.9611 14.1787 10.6719 14.9246 10.6719C15.6706 10.6719 16.386 10.9611 16.9135 11.476C17.441 11.9909 17.7374 12.6892 17.7374 13.4173C17.7374 14.1454 17.441 14.8438 16.9135 15.3586Z" stroke="#4692B6" stroke-miterlimit="10"/>
<path d="M12.7085 16.9282C10.999 20.4181 9.33105 16.9282 9.33105 16.9282H12.7085Z" fill="#4692B6" stroke="#4692B6" stroke-linecap="round" stroke-linejoin="round"/>
<path d="M11.0195 6.82459V3.8208" stroke="#4692B6" stroke-miterlimit="10" stroke-linecap="round"/>
<path d="M10.9826 2.64844C11.3765 2.64844 11.6957 2.33681 11.6957 1.95239C11.6957 1.56798 11.3765 1.25635 10.9826 1.25635C10.5888 1.25635 10.2695 1.56798 10.2695 1.95239C10.2695 2.33681 10.5888 2.64844 10.9826 2.64844Z" stroke="#4692B6" stroke-miterlimit="10" stroke-linecap="round"/>
<path d="M16.2082 5.36828C16.1225 6.40523 16.3492 7.52501 16.8695 8.62555C17.0674 9.04436 17.2966 9.44841 17.5552 9.83443C18.0746 10.6137 18.4401 11.3361 18.6424 11.9841C18.6527 12.1095 18.6583 12.2375 18.6583 12.3634V15.4241C18.6584 16.65 18.1597 17.8257 17.2718 18.6928C16.3839 19.5598 15.1796 20.0471 13.9236 20.0475H8.04265C7.42041 20.0479 6.80421 19.9285 6.22924 19.6963C5.65428 19.4641 5.13183 19.1236 4.69174 18.6942C4.25165 18.2649 3.90256 17.7551 3.6644 17.194C3.42624 16.6329 3.30369 16.0315 3.30374 15.4241V12.3634C3.30369 11.7561 3.42624 11.1547 3.6644 10.5936C3.90256 10.0325 4.25165 9.52269 4.69174 9.09332C5.13183 8.66396 5.65428 8.32345 6.22924 8.09124C6.80421 7.85903 7.42041 7.73969 8.04265 7.74002H14.0766L14.368 7.33343C14.6809 6.89673 15.1716 6.26845 15.7321 5.75645C15.8824 5.61756 16.0414 5.48791 16.2082 5.36828ZM17.0851 4.03809C15.7163 4.03809 14.2408 5.84973 13.5709 6.78756H8.04265C7.29245 6.7875 6.54958 6.93169 5.85648 7.21188C5.16337 7.49208 4.5336 7.90279 4.00313 8.42057C3.47265 8.93835 3.05187 9.55306 2.76481 10.2296C2.47774 10.9061 2.33002 11.6312 2.33008 12.3634V15.4241C2.33002 16.1564 2.47774 16.8815 2.76481 17.558C3.05187 18.2345 3.47265 18.8492 4.00313 19.367C4.5336 19.8848 5.16337 20.2955 5.85648 20.5757C6.54958 20.8559 7.29245 21.0001 8.04265 21H13.9236C14.6738 21.0001 15.4167 20.8559 16.1098 20.5757C16.8029 20.2955 17.4327 19.8848 17.9632 19.367C18.4936 18.8492 18.9144 18.2345 19.2015 17.558C19.4885 16.8815 19.6363 16.1564 19.6362 15.4241V12.3634C19.6362 12.1744 19.6266 11.9881 19.6075 11.8046C19.4129 11.142 19.0422 10.3159 18.375 9.3149C18.1415 8.96769 17.9345 8.60419 17.7557 8.22733C16.5618 5.70082 17.5496 4.11297 17.5496 4.11297C17.4001 4.06289 17.2431 4.03759 17.0851 4.03809Z" fill="#4692B6"/>
<path d="M39.72 7.768V19H36.984V14.376H32.728V19H29.992V7.768H32.728V12.168H36.984V7.768H39.72ZM41.1511 14.52C41.1511 13.6027 41.3218 12.7973 41.6631 12.104C42.0151 11.4107 42.4898 10.8773 43.0871 10.504C43.6845 10.1307 44.3511 9.944 45.0871 9.944C45.7165 9.944 46.2658 10.072 46.7351 10.328C47.2151 10.584 47.5831 10.92 47.8391 11.336V10.072H50.5751V19H47.8391V17.736C47.5725 18.152 47.1991 18.488 46.7191 18.744C46.2498 19 45.7005 19.128 45.0711 19.128C44.3458 19.128 43.6845 18.9413 43.0871 18.568C42.4898 18.184 42.0151 17.6453 41.6631 16.952C41.3218 16.248 41.1511 15.4373 41.1511 14.52ZM47.8391 14.536C47.8391 13.8533 47.6471 13.3147 47.2631 12.92C46.8898 12.5253 46.4311 12.328 45.8871 12.328C45.3431 12.328 44.8791 12.5253 44.4951 12.92C44.1218 13.304 43.9351 13.8373 43.9351 14.52C43.9351 15.2027 44.1218 15.7467 44.4951 16.152C44.8791 16.5467 45.3431 16.744 45.8871 16.744C46.4311 16.744 46.8898 16.5467 47.2631 16.152C47.6471 15.7573 47.8391 15.2187 47.8391 14.536ZM52.0105 14.536C52.0105 13.608 52.1972 12.7973 52.5705 12.104C52.9545 11.4107 53.4825 10.8773 54.1545 10.504C54.8372 10.1307 55.6158 9.944 56.4905 9.944C57.6105 9.944 58.5438 10.2373 59.2905 10.824C60.0478 11.4107 60.5438 12.2373 60.7785 13.304H57.8665C57.6212 12.6213 57.1465 12.28 56.4425 12.28C55.9412 12.28 55.5412 12.4773 55.2425 12.872C54.9438 13.256 54.7945 13.8107 54.7945 14.536C54.7945 15.2613 54.9438 15.8213 55.2425 16.216C55.5412 16.6 55.9412 16.792 56.4425 16.792C57.1465 16.792 57.6212 16.4507 57.8665 15.768H60.7785C60.5438 16.8133 60.0478 17.6347 59.2905 18.232C58.5332 18.8293 57.5998 19.128 56.4905 19.128C55.6158 19.128 54.8372 18.9413 54.1545 18.568C53.4825 18.1947 52.9545 17.6613 52.5705 16.968C52.1972 16.2747 52.0105 15.464 52.0105 14.536ZM67.698 19L64.978 15.256V19H62.242V7.16H64.978V13.704L67.682 10.072H71.058L67.346 14.552L71.09 19H67.698ZM80.2126 7.768V9.96H77.2366V19H74.5006V9.96H71.5246V7.768H80.2126ZM81.0418 14.52C81.0418 13.6027 81.2124 12.7973 81.5538 12.104C81.9058 11.4107 82.3804 10.8773 82.9778 10.504C83.5751 10.1307 84.2418 9.944 84.9778 9.944C85.6071 9.944 86.1564 10.072 86.6258 10.328C87.1058 10.584 87.4738 10.92 87.7298 11.336V10.072H90.4658V19H87.7298V17.736C87.4631 18.152 87.0898 18.488 86.6098 18.744C86.1404 19 85.5911 19.128 84.9618 19.128C84.2364 19.128 83.5751 18.9413 82.9778 18.568C82.3804 18.184 81.9058 17.6453 81.5538 16.952C81.2124 16.248 81.0418 15.4373 81.0418 14.52ZM87.7298 14.536C87.7298 13.8533 87.5378 13.3147 87.1538 12.92C86.7804 12.5253 86.3218 12.328 85.7778 12.328C85.2338 12.328 84.7698 12.5253 84.3858 12.92C84.0124 13.304 83.8258 13.8373 83.8258 14.52C83.8258 15.2027 84.0124 15.7467 84.3858 16.152C84.7698 16.5467 85.2338 16.744 85.7778 16.744C86.3218 16.744 86.7804 16.5467 87.1538 16.152C87.5378 15.7573 87.7298 15.2187 87.7298 14.536ZM95.1811 7.16V19H92.4451V7.16H95.1811ZM102.62 19L99.8999 15.256V19H97.1639V7.16H99.8999V13.704L102.604 10.072H105.98L102.268 14.552L106.012 19H102.62Z" fill="url(#paint0_linear_1014_45001)"/>
<defs>
<linearGradient id="paint0_linear_1014_45001" x1="68" y1="1" x2="137.771" y2="1" gradientUnits="userSpaceOnUse">
<stop stop-color="#60B0D7"/>
<stop offset="1" stop-color="#162E39"/>
</linearGradient>
</defs>
</svg>
