<svg width="347" height="347" viewBox="0 0 347 347" fill="none" xmlns="http://www.w3.org/2000/svg">
<path d="M71.41 306.603C127.328 336.073 217.988 336.075 273.905 306.604C329.822 277.132 329.822 229.352 273.905 199.881C217.987 170.41 127.327 170.41 71.4094 199.88C15.4917 229.351 15.4917 277.133 71.41 306.603Z" fill="#E8E0D0"/>
<path d="M48.7139 269.861L51.3088 271.343C52.1395 271.82 53.4858 271.819 54.3159 271.339L174.247 202.102C175.077 201.623 175.075 200.848 174.245 200.371L171.668 198.901C170.836 198.424 169.49 198.426 168.66 198.905L48.7118 268.13C47.8818 268.609 47.8832 269.384 48.7139 269.861Z" fill="#E0E0E0"/>
<path d="M247.738 288.93C233.445 296.767 210.272 296.767 195.978 288.93C181.684 281.094 181.684 268.388 195.978 260.551C210.271 252.715 233.444 252.715 247.738 260.551C262.031 268.388 262.031 281.094 247.738 288.93Z" fill="#E0E0E0"/>
<path d="M284.11 235.669C273.083 241.715 255.205 241.715 244.178 235.669C233.151 229.624 233.151 219.821 244.178 213.774C255.205 207.729 273.083 207.729 284.11 213.774C295.137 219.821 295.137 229.624 284.11 235.669Z" fill="#E0E0E0"/>
<path d="M277.953 209.167C277.911 205.621 280.386 198.247 284.011 193.599C287.634 188.951 293.378 185.516 297.504 186.872C301.347 188.135 300.993 193.16 296.389 196.544C291.786 199.926 284.857 204.189 282.884 209.965L278.685 217.073L277.953 209.167Z" fill="#4692B6"/>
<path opacity="0.1" d="M277.953 209.167C277.911 205.621 280.386 198.247 284.011 193.599C287.634 188.951 293.378 185.516 297.504 186.872C301.347 188.135 300.993 193.16 296.389 196.544C291.786 199.926 284.857 204.189 282.884 209.965L278.685 217.073L277.953 209.167Z" fill="black"/>
<path d="M277.75 214.021C277.863 214.011 277.96 213.926 277.981 213.81C280.21 201.679 289.882 191.724 295.716 189.481C295.849 189.429 295.915 189.279 295.864 189.146C295.813 189.014 295.666 188.944 295.53 188.998C289.585 191.284 279.733 201.402 277.472 213.717C277.446 213.858 277.539 213.993 277.679 214.019C277.703 214.023 277.727 214.024 277.75 214.021Z" fill="white"/>
<path d="M279.648 221.747C280.194 219.747 282.589 216.429 286.493 213.665C290.812 210.608 296.308 209.16 297.55 206.805C299.043 203.977 296.642 201.35 292.175 201.959C287.707 202.568 279.915 208.766 278.768 217.972L279.648 221.747Z" fill="#4692B6"/>
<path d="M278.757 219.666C278.855 219.657 278.944 219.591 278.978 219.491C282.565 209.079 290.432 205.345 294.09 204.825C294.232 204.805 294.33 204.674 294.31 204.532C294.29 204.39 294.164 204.291 294.017 204.312C289.972 204.887 282.15 208.695 278.488 219.323C278.442 219.459 278.514 219.607 278.649 219.653C278.685 219.665 278.722 219.669 278.757 219.666Z" fill="white"/>
<path d="M51.9473 268.114L51.4206 267.81C50.578 267.323 49.8951 266.141 49.8951 265.168V87.3274C49.8951 86.3544 50.578 85.1719 51.4206 84.6854L166.012 18.5319C166.854 18.0454 168.22 18.0454 169.063 18.5319L169.589 18.8359C170.432 19.3224 171.115 20.5049 171.115 21.4779V199.318C171.115 200.291 170.432 201.474 169.589 201.96L54.9981 268.114C54.1556 268.6 52.7891 268.6 51.9473 268.114Z" fill="#4692B6"/>
<path opacity="0.4" d="M171.099 21.233C170.995 20.4418 170.356 20.1545 169.589 20.5938L54.9946 86.7528C54.5713 86.9922 54.1959 87.4156 53.9162 87.8875L50.3448 85.8263C50.6162 85.3468 51 84.9317 51.4233 84.684L166.01 18.5326C166.857 18.0454 168.224 18.0454 169.062 18.5326L169.589 18.8366C170.357 19.2842 171.004 20.3148 171.099 21.233Z" fill="white"/>
<path opacity="0.1" d="M54.7393 268.234C53.9002 268.593 52.71 268.553 51.9508 268.114L51.4157 267.81C50.5767 267.323 49.8979 266.14 49.8979 265.166V87.3281C49.8979 86.8409 50.0659 86.2975 50.3456 85.8263L53.9169 87.8875C53.6455 88.367 53.4693 88.9097 53.4693 89.3893V267.234C53.4693 268.106 54.0203 268.513 54.7393 268.234Z" fill="black"/>
<path d="M66.9849 203.795L66.4581 203.491C65.6156 203.005 64.9327 201.821 64.9327 200.849V168.884C64.9327 167.911 65.6156 166.729 66.4581 166.242L170.494 106.122C171.336 105.635 172.702 105.635 173.544 106.122L174.071 106.426C174.914 106.912 175.597 108.095 175.597 109.068V141.033C175.597 142.006 174.914 143.188 174.071 143.675L70.0357 203.795C69.1932 204.282 67.8274 204.282 66.9849 203.795Z" fill="#EBEBEB"/>
<path d="M175.582 108.823C175.478 108.032 174.839 107.744 174.072 108.183L70.033 168.31C69.6096 168.55 69.2342 168.974 68.9545 169.445L65.3832 167.384C65.6552 166.904 66.0383 166.489 66.4617 166.241L170.493 106.122C171.34 105.635 172.706 105.635 173.544 106.122L174.072 106.426C174.839 106.873 175.486 107.904 175.582 108.823Z" fill="#FAFAFA"/>
<path d="M69.7769 203.915C68.9378 204.275 67.7476 204.234 66.9884 203.795L66.4533 203.492C65.6143 203.005 64.9355 201.822 64.9355 200.848V168.886C64.9355 168.398 65.1035 167.855 65.3832 167.384L68.9545 169.445C68.6831 169.925 68.5069 170.467 68.5069 170.947V202.917C68.5069 203.788 69.0579 204.195 69.7769 203.915Z" fill="#E0E0E0"/>
<path d="M84.7464 166.164C90.6801 162.738 95.4903 165.404 95.4896 172.118C95.4889 178.832 90.6732 186.997 84.734 190.354C78.794 193.711 73.979 191.043 73.9818 184.398C73.9846 177.752 78.8127 169.59 84.7464 166.164Z" fill="#4692B6"/>
<path d="M66.9849 247.113L66.4581 246.809C65.6156 246.323 64.9327 245.14 64.9327 244.167V212.202C64.9327 211.229 65.6156 210.047 66.4581 209.56L170.494 149.44C171.336 148.953 172.702 148.953 173.544 149.44L174.071 149.744C174.914 150.23 175.597 151.413 175.597 152.386V184.351C175.597 185.324 174.914 186.506 174.071 186.993L70.0357 247.113C69.1932 247.6 67.8274 247.6 66.9849 247.113Z" fill="#EBEBEB"/>
<path d="M175.582 152.141C175.478 151.35 174.839 151.062 174.072 151.502L70.033 211.628C69.6096 211.868 69.2342 212.292 68.9545 212.763L65.3832 210.702C65.6552 210.222 66.0383 209.807 66.4617 209.56L170.493 149.44C171.34 148.953 172.706 148.953 173.544 149.44L174.072 149.744C174.839 150.191 175.486 151.222 175.582 152.141Z" fill="#FAFAFA"/>
<path d="M69.7769 247.233C68.9378 247.593 67.7476 247.553 66.9884 247.113L66.4533 246.809C65.6143 246.322 64.9355 245.14 64.9355 244.165V212.203C64.9355 211.716 65.1035 211.172 65.3832 210.701L68.9545 212.762C68.6831 213.242 68.5069 213.785 68.5069 214.264V246.234C68.5069 247.106 69.0579 247.513 69.7769 247.233Z" fill="#E0E0E0"/>
<path d="M84.7464 209.483C90.6801 206.057 95.4903 208.722 95.4896 215.436C95.4889 222.15 90.6732 230.315 84.734 233.672C78.794 237.029 73.979 234.361 73.9818 227.716C73.9846 221.07 78.8127 212.908 84.7464 209.483Z" fill="#4692B6"/>
<path d="M66.9849 131.352L66.4581 131.048C65.6156 130.562 64.9327 129.378 64.9327 128.406V96.441C64.9327 95.468 65.6156 94.2854 66.4581 93.799L170.494 33.6784C171.336 33.1919 172.702 33.1919 173.544 33.6784L174.071 33.9824C174.914 34.4689 175.597 35.6515 175.597 36.6245V68.5894C175.597 69.5624 174.914 70.745 174.071 71.2315L70.0357 131.352C69.1932 131.838 67.8274 131.838 66.9849 131.352Z" fill="#EBEBEB"/>
<path d="M175.582 36.3795C175.478 35.5883 174.839 35.301 174.072 35.7403L70.033 95.8671C69.6096 96.1065 69.2342 96.5299 68.9545 97.0018L65.3832 94.9406C65.6552 94.4611 66.0383 94.046 66.4617 93.7983L170.493 33.6791C171.34 33.192 172.706 33.192 173.544 33.6791L174.072 33.9831C174.839 34.4301 175.486 35.4606 175.582 36.3795Z" fill="#FAFAFA"/>
<path d="M69.7769 131.472C68.9378 131.832 67.7476 131.792 66.9884 131.352L66.4533 131.049C65.6143 130.562 64.9355 129.379 64.9355 128.405V96.4424C64.9355 95.9552 65.1035 95.4118 65.3832 94.9406L68.9545 97.0018C68.6831 97.4813 68.5069 98.0241 68.5069 98.5036V130.473C68.5069 131.344 69.0579 131.752 69.7769 131.472Z" fill="#E0E0E0"/>
<path d="M84.7464 93.7212C90.6801 90.2956 95.4903 92.9606 95.4896 99.6751C95.4889 106.389 90.6732 114.554 84.734 117.911C78.794 121.268 73.979 118.6 73.9818 111.955C73.9846 105.309 78.8127 97.1468 84.7464 93.7212Z" fill="#4692B6"/>
<path d="M74.2969 171.936L73.7702 171.632C72.9276 171.145 72.2448 169.962 72.2448 168.99V137.025C72.2448 136.052 72.9276 134.869 73.7702 134.383L177.806 74.2622C178.648 73.7757 180.014 73.7757 180.856 74.2622L181.383 74.5662C182.226 75.0526 182.909 76.2359 182.909 77.2082V109.173C182.909 110.146 182.226 111.329 181.383 111.815L77.3477 171.936C76.5052 172.422 75.1394 172.422 74.2969 171.936Z" fill="#37474F"/>
<path d="M182.894 76.9632C182.79 76.1721 182.151 75.8848 181.384 76.3241L77.345 136.451C76.9216 136.69 76.5462 137.114 76.2665 137.586L72.6952 135.524C72.9665 135.045 73.3503 134.63 73.7737 134.382L177.805 74.2629C178.652 73.7757 180.018 73.7757 180.856 74.2629L181.384 74.5669C182.151 75.0138 182.798 76.0444 182.894 76.9632Z" fill="#455A64"/>
<path d="M77.0896 172.056C76.2505 172.415 75.0603 172.375 74.3018 171.936L73.7667 171.632C72.9276 171.145 72.2489 169.963 72.2489 168.988V137.026C72.2489 136.539 72.4168 135.996 72.6965 135.524L76.2679 137.586C75.9965 138.065 75.8202 138.608 75.8202 139.087V171.057C75.8188 171.928 76.3706 172.335 77.0896 172.056Z" fill="#263238"/>
<path d="M92.0585 134.305C97.9922 130.879 102.802 133.544 102.802 140.259C102.801 146.973 97.9852 155.137 92.046 158.494C86.106 161.852 81.291 159.184 81.2938 152.538C81.2973 145.893 86.1248 137.731 92.0585 134.305Z" fill="#F5F5F5"/>
<path d="M92.2708 153.618C91.7656 153.909 91.2847 153.934 90.9529 153.683L86.2337 150.113C85.6029 149.637 85.682 148.32 86.4107 147.172C87.138 146.02 88.2415 145.479 88.8688 145.957L92.1584 148.444L101.293 128.811C101.864 127.585 102.954 126.764 103.729 126.974C104.506 127.183 104.673 128.348 104.103 129.572L93.6755 151.985C93.3611 152.66 92.8698 153.246 92.3395 153.577C92.3173 153.591 92.2937 153.604 92.2708 153.618Z" fill="#4692B6"/>
<path d="M182.884 124.435L179.867 122.693V122.701C178.554 121.947 176.951 122.692 176.103 123.213L174.22 122.127C171.936 120.748 168.761 123.633 168.05 124.326L167.236 123.856L167.237 123.858C164.815 122.397 160.413 126.305 160.413 126.305V111.764L162.325 110.837L159.283 109.078C159.281 109.077 159.279 109.075 159.276 109.074L159.255 109.061L159.254 109.064C158.555 108.674 157.599 108.737 156.542 109.347C154.404 110.581 152.671 113.584 152.671 116.052V149.759C149.889 147.695 146.93 146.428 144.334 146.89C141.994 147.306 139.903 149.3 139.296 150.37C138.015 152.627 140.128 154.043 142.849 157.156C145.546 160.24 147.925 163.955 150.382 166.247C152.84 168.539 154.62 169.135 154.62 169.135V173.529L157.61 175.255L177.369 160.395V156.002C177.369 156.002 180.192 144.748 181.094 140.044C181.962 135.514 182.76 128.294 181.269 124.544L182.883 124.434L182.884 124.435Z" fill="#4692B6"/>
<path opacity="0.4" d="M182.884 124.435L179.867 122.693V122.701C178.554 121.947 176.951 122.692 176.103 123.213L174.22 122.127C171.936 120.748 168.761 123.633 168.05 124.326L167.236 123.856L167.237 123.858C164.815 122.397 160.413 126.305 160.413 126.305V111.764L162.325 110.837L159.283 109.078C159.281 109.077 159.279 109.075 159.276 109.074L159.255 109.061L159.254 109.064C158.555 108.674 157.599 108.737 156.542 109.347C154.404 110.581 152.671 113.584 152.671 116.052V149.759C149.889 147.695 146.93 146.428 144.334 146.89C141.994 147.306 139.903 149.3 139.296 150.37C138.015 152.627 140.128 154.043 142.849 157.156C145.546 160.24 147.925 163.955 150.382 166.247C152.84 168.539 154.62 169.135 154.62 169.135V173.529L157.61 175.255L177.369 160.395V156.002C177.369 156.002 180.192 144.748 181.094 140.044C181.962 135.514 182.76 128.294 181.269 124.544L182.883 124.434L182.884 124.435Z" fill="white"/>
<path d="M160.597 163.175L145.649 154.546L139.103 150.767C138.27 152.803 140.289 154.23 142.848 157.157C145.545 160.242 147.925 163.957 150.382 166.248C152.839 168.541 154.62 169.137 154.62 169.137V173.531L157.61 175.257L161.975 171.974C161.41 168.24 160.597 163.175 160.597 163.175Z" fill="#4692B6"/>
<path d="M155.661 117.779L152.671 116.053V151.409L155.661 151.486V117.779Z" fill="#4692B6"/>
<path d="M179.107 126.705L181.423 124.996C181.373 124.844 181.326 124.688 181.269 124.546L182.111 124.488L180.253 124.404L177.148 122.694C176.745 122.852 176.381 123.043 176.103 123.214L177.073 123.778L179.107 126.705Z" fill="#4692B6"/>
<path d="M170.894 126.198L173.07 124.543L170.071 122.728C169.12 123.324 168.356 124.028 168.05 124.326L170.132 125.53L170.894 126.198Z" fill="#4692B6"/>
<path d="M166.357 126.038L163.391 124.302L163.404 124.275V128.031L166.861 126.763L166.357 126.038Z" fill="#4692B6"/>
<g opacity="0.15">
<path d="M160.597 163.175L145.649 154.546L139.103 150.767C138.27 152.803 140.289 154.23 142.848 157.157C145.545 160.242 147.925 163.957 150.382 166.248C152.839 168.541 154.62 169.137 154.62 169.137V173.531L157.61 175.257L161.975 171.974C161.41 168.24 160.597 163.175 160.597 163.175Z" fill="black"/>
<path d="M155.661 117.779L152.671 116.053V151.409L155.661 151.486V117.779Z" fill="black"/>
<path d="M179.107 126.705L181.423 124.996C181.373 124.844 181.326 124.688 181.269 124.546L182.111 124.488L180.253 124.404L177.148 122.694C176.745 122.852 176.381 123.043 176.103 123.214L177.073 123.778L179.107 126.705Z" fill="black"/>
<path d="M170.894 126.198L173.07 124.543L170.071 122.728C169.12 123.324 168.356 124.028 168.05 124.326L170.132 125.53L170.894 126.198Z" fill="black"/>
<path d="M166.357 126.038L163.391 124.302L163.404 124.275V128.031L166.861 126.763L166.357 126.038Z" fill="black"/>
</g>
<path d="M157.61 175.257V170.863C157.61 170.863 155.829 170.266 153.372 167.974C150.915 165.683 148.535 161.967 145.839 158.883C143.117 155.77 141.004 154.355 142.285 152.097C142.893 151.027 144.983 149.033 147.324 148.617C149.92 148.156 152.879 149.422 155.661 151.486V117.779C155.661 115.31 157.394 112.309 159.532 111.074C161.67 109.839 163.403 110.84 163.403 113.309V128.032C163.403 128.032 168.738 123.294 170.893 126.2C170.893 126.2 176.134 120.71 178.501 125.347C178.501 125.347 182.349 122.239 184.084 125.846C185.819 129.453 184.986 137.069 184.084 141.772C183.183 146.476 180.36 157.73 180.36 157.73V162.124L157.61 175.257Z" fill="#4692B6"/>
<path d="M163.404 134.353C163.404 134.353 163.89 127.636 166.357 126.038C166.357 126.038 166.322 126.048 166.269 126.064C164.698 126.883 163.404 128.031 163.404 128.031V127.904C163.377 127.989 163.404 128.031 163.404 128.031V134.353Z" fill="#455A64"/>
<path d="M170.894 126.198V132.344C170.894 132.344 171.576 126.025 172.992 124.498C171.786 125.267 170.9 126.193 170.894 126.198Z" fill="#455A64"/>
<path d="M178.502 125.345V131.513C178.502 131.513 178.877 125.3 180.215 124.383C179.242 124.749 178.507 125.342 178.502 125.345Z" fill="#455A64"/>
<path d="M156.522 105.102C156.042 105.379 155.652 105.215 155.652 104.734V99.8576C155.652 99.3773 156.042 98.7631 156.522 98.4862C157.002 98.2086 157.392 98.3738 157.392 98.8534V103.73C157.392 104.211 157.002 104.825 156.522 105.102Z" fill="#EBEBEB"/>
<path d="M149.236 112.793C148.897 113.381 148.346 113.699 148.007 113.503L145.185 111.874C144.845 111.678 144.845 111.042 145.185 110.454C145.524 109.866 146.075 109.548 146.415 109.744L149.236 111.372C149.576 111.569 149.576 112.205 149.236 112.793Z" fill="#EBEBEB"/>
<path d="M146.219 122.878V123.017C146.219 123.533 145.8 124.193 145.285 124.49L141.424 126.72C140.908 127.017 140.49 126.84 140.49 126.325V126.185C140.49 125.67 140.908 125.01 141.424 124.711L145.285 122.482C145.801 122.185 146.219 122.362 146.219 122.878Z" fill="#EBEBEB"/>
<path d="M166.824 111.121V110.981C166.824 110.465 167.243 109.805 167.758 109.507L171.619 107.278C172.135 106.98 172.553 107.157 172.553 107.673V107.812C172.553 108.328 172.135 108.988 171.619 109.286L167.758 111.515C167.243 111.813 166.824 111.636 166.824 111.121Z" fill="#EBEBEB"/>
<path d="M163.807 104.38C163.468 104.184 163.468 103.548 163.807 102.96L166.629 98.0733C166.968 97.4855 167.518 97.1676 167.858 97.3633C168.198 97.5591 168.198 98.1948 167.858 98.7833L165.037 103.67C164.697 104.259 164.147 104.577 163.807 104.38Z" fill="#EBEBEB"/>
<path d="M273.591 218.76V217.97C273.279 218.897 271.835 222.884 269.643 224.883C267.901 226.472 265.525 228.307 264.921 230.078C264.292 231.921 268.228 232.539 269.855 232.251C271.746 231.917 274.193 230.844 275.524 229.207C276.46 228.057 277.056 226.694 277.725 225.789C278.393 224.885 279.935 223.875 280.296 222.828C280.495 222.253 280.259 220.993 279.98 219.929C279.724 218.953 279.446 217.879 279.113 217.971C279.112 218.09 279.113 218.573 279.113 218.573C278.712 219.017 277.603 219.458 276.352 219.506C275.544 219.536 273.585 219.376 273.591 218.76Z" fill="#263238"/>
<path d="M268.067 226.281C268.607 225.798 269.151 225.327 269.644 224.878C271.175 223.481 272.342 221.113 273.012 219.497C273.394 218.575 273.591 217.59 273.591 216.591V213.444H279.114V218.567V218.568V218.704L279.086 218.718C278.82 219.866 276.286 222.918 274.846 224.909C273.882 226.243 272.047 227.941 269.856 228.233C267.778 228.511 266.717 227.855 268.067 226.281Z" fill="#FFA8A7"/>
<path d="M252.05 213.316V212.526C251.739 213.453 250.294 217.441 248.103 219.439C246.361 221.028 243.985 222.864 243.38 224.635C242.752 226.477 246.687 227.096 248.315 226.808C250.206 226.473 252.652 225.399 253.984 223.764C254.92 222.614 255.516 221.25 256.185 220.345C256.853 219.441 258.394 218.43 258.756 217.384C258.954 216.808 258.718 215.549 258.439 214.485C258.183 213.508 257.906 212.435 257.573 212.526C257.572 212.645 257.573 213.128 257.573 213.128C257.171 213.572 256.062 214.014 254.812 214.062C254.004 214.093 252.044 213.932 252.05 213.316Z" fill="#263238"/>
<path d="M246.526 220.837C247.067 220.355 247.61 219.884 248.103 219.434C249.634 218.037 250.801 215.67 251.471 214.053C251.853 213.131 252.05 212.146 252.05 211.147V208H257.573V213.123V213.124V213.261L257.545 213.275C257.279 214.422 254.745 217.475 253.305 219.465C252.34 220.8 250.506 222.497 248.315 222.789C246.238 223.066 245.177 222.412 246.526 220.837Z" fill="#FFA8A7"/>
<path d="M278.014 132.936C282.296 142.287 277.86 175.227 277.86 175.227C277.988 176.744 279.723 179.73 280.37 186.408C281.134 194.3 279.171 214.114 279.171 214.114C279.171 214.114 276.615 215.785 273.59 214.336C273.59 214.336 268.327 184.494 267.337 176.649C266.473 169.802 264.816 154.746 264.816 154.746L260.104 176.612C260.104 176.612 261.313 180.448 261.596 183.37C262.043 187.985 257.572 209.472 257.572 209.472C257.572 209.472 255.666 210.171 252.05 209.639C252.05 209.639 250.468 181.124 250.051 175.565C249.351 166.229 251.83 137.097 253.543 131.57L278.014 132.936Z" fill="#37474F"/>
<path d="M264.817 154.745L263.426 146.06C263.426 146.06 257.546 144.842 254.879 142.335C254.879 142.335 257.677 145.815 261.833 146.955L263.394 153.642L260.665 173.888L264.817 154.745Z" fill="#263238"/>
<path d="M261.324 100.196C261.324 100.196 257.177 99.5876 254.298 103.344C252.086 106.229 243.629 117.243 243.629 117.243C243.629 117.243 231.162 111.004 230.549 110.265C229.935 109.525 230.28 108.029 230.449 107.206C230.618 106.383 230.897 104.555 231.08 104.041C231.4 103.144 230.073 103.387 229.292 104.224C228.492 105.083 228.164 106.7 227.773 106.982C227.384 107.264 224.417 103.852 222.977 102.206C221.538 100.56 220.863 99.4079 219.898 100.087C219.203 100.577 219.649 101.554 220.681 102.965C221.713 104.375 221.863 104.527 222.014 104.833C222.138 105.085 221.757 105.287 221.606 105.422C221.327 105.672 220.83 106.081 220.795 106.472C220.777 106.685 220.816 106.905 220.757 107.111C220.622 107.58 220.041 107.801 219.877 108.261C219.759 108.593 219.89 108.966 219.822 109.313C219.779 109.536 219.656 109.738 219.616 109.962C219.538 110.402 219.79 110.832 220.078 111.173C221.089 112.376 222.471 112.837 223.797 113.57C224.899 114.18 226.037 114.448 227.306 115.011C228.575 115.575 243.303 125.785 245.633 124.498C247.963 123.212 259.998 109.212 259.998 109.212C263.471 103.461 261.324 100.196 261.324 100.196Z" fill="#FFA8A7"/>
<path d="M270.463 100.451C275.952 100.828 276.337 103.48 277.71 106.378C278.756 108.585 278.768 111.145 277.97 113.453L274.145 124.518C274.145 124.518 275.937 128.847 278.015 132.937C268.416 138.295 256.431 135.479 253.545 131.569C253.422 130.74 254.164 124.257 254.621 120.022C252.93 115.781 252.484 113.094 253.198 110.29C254.522 105.087 259.662 100.017 261.936 100.202L270.463 100.451Z" fill="#F5F5F5"/>
<path d="M265.186 95.9018H267.316C273.512 95.9018 278.535 90.8793 278.535 84.6833C278.535 78.4539 273.485 73.4037 267.255 73.4037H265.247C259.017 73.4037 253.967 78.4539 253.967 84.6833C253.967 90.8793 258.99 95.9018 265.186 95.9018Z" fill="#263238"/>
<path d="M284.542 101.815C280.881 101.815 277.914 98.8471 277.914 95.1863V80.9933C281.574 80.9933 284.542 83.9608 284.542 87.6217V101.815Z" fill="#263238"/>
<path d="M279.129 78.4754L277.467 81.1459C278.204 81.6387 279.173 81.4402 279.632 80.7025C280.091 79.9655 279.865 78.9682 279.129 78.4754Z" fill="#263238"/>
<path d="M258.003 78.3713C256.705 79.1382 255.102 82.4014 255.26 89.2428C255.394 95.0412 257.273 96.4729 258.217 96.8859C259.161 97.2988 260.981 97.0476 262.75 96.7526V100.232C262.75 100.232 260.306 103.073 260.459 104.668C260.613 106.264 263.99 106.641 266.278 105.082C268.566 103.523 270.033 101.15 270.033 101.15V92.7392C270.033 92.7392 271.228 94.334 273.181 93.0369C275.135 91.7399 275.209 88.528 274.073 87.3753C272.937 86.2219 270.489 86.5876 270.033 88.1803C270.033 88.1803 267.211 88.283 263.453 86.2191C259.696 84.1551 258.253 80.6199 258.003 78.3713Z" fill="#FFA8A7"/>
<path d="M262.383 87.7861C262.362 88.2039 262.671 88.5579 263.073 88.5773C263.476 88.596 263.818 88.2733 263.839 87.8555C263.86 87.4377 263.551 87.0838 263.149 87.0644C262.747 87.0456 262.403 87.3683 262.383 87.7861Z" fill="#263238"/>
<path d="M261.539 92.7018L259.845 93.2417C259.986 93.7261 260.479 93.9981 260.947 93.8489C261.414 93.6997 261.68 93.1862 261.539 92.7018Z" fill="#F28F8F"/>
<path d="M256.405 85.5473L257.88 84.525C257.611 84.1038 257.062 83.9914 256.655 84.2738C256.247 84.5563 256.135 85.1261 256.405 85.5473Z" fill="#263238"/>
<path d="M256.745 87.2594C256.724 87.6772 257.033 88.0311 257.435 88.0506C257.837 88.07 258.18 87.7466 258.201 87.3288C258.222 86.911 257.913 86.5571 257.511 86.5376C257.109 86.5182 256.765 86.8416 256.745 87.2594Z" fill="#263238"/>
<path d="M260.305 86.8416L260.19 91.2312L257.88 90.5156L260.305 86.8416Z" fill="#F28F8F"/>
<path d="M262.75 96.7533C264.615 96.509 268.451 95.4069 269.049 93.8899C269.049 93.8899 268.849 94.8427 267.704 95.8254C266.558 96.8074 262.75 97.9144 262.75 97.9144V96.7533Z" fill="#F28F8F"/>
<path opacity="0.1" d="M268.008 133.975C271.16 133.228 273.161 130.039 272.328 126.908C272.296 126.789 272.263 126.687 272.23 126.606C271.613 125.122 270.286 125.317 270.286 125.317C271.53 124.492 272.394 123.205 272.685 121.741L273.852 114.806C273.852 114.806 274.112 113.273 273.556 111.443L277.414 106.98C277.414 106.98 277.691 107.173 278.127 107.476C278.728 109.408 278.638 111.517 277.969 113.453L274.145 124.518C274.145 124.518 275.936 128.847 278.014 132.937C270.94 136.885 262.574 136.393 257.505 134.296C261.51 134.916 265.219 134.635 268.008 133.975Z" fill="black"/>
<path d="M287.839 127.994C282.855 107.624 279.17 100.831 273.117 100.91C271.35 103.022 271.838 109.403 274.631 113.275C274.631 113.275 280.858 126.413 281.852 131.083C282.725 135.186 283.713 140.348 283.651 143.876C283.64 144.501 283.382 145.095 282.959 145.554C281.822 146.787 281.817 147.779 281.081 149.142C280.504 150.209 279.873 150.608 280.053 150.849C280.284 151.157 281.014 151.56 281.923 150.987C282.38 150.699 282.677 150.36 283.339 149.628C283.339 149.628 283.159 151.28 282.216 153.407C280.938 156.289 281.249 157.759 285.14 156.733C287.578 156.09 289.108 154.059 289.473 148.2C289.578 146.512 289.737 143.849 289.537 141.714C289.016 136.157 288.641 131.274 287.839 127.994Z" fill="#FFA8A7"/>
<path d="M238.397 186.229C238.931 166.404 237.342 161.653 232.064 158.021L230.019 169.509C230.019 169.509 232.423 183.046 232.165 187.554C231.938 191.515 231.553 196.47 230.616 199.672C230.45 200.239 230.067 200.717 229.566 201.03C228.222 201.871 227.68 202.734 226.668 203.794C225.875 204.624 225.2 204.83 225.305 205.094C225.439 205.434 226.005 205.983 226.976 205.686C227.465 205.537 228.096 205.155 228.883 204.652C228.883 204.652 228.32 206.303 226.93 208.008C225.046 210.318 224.963 211.737 228.768 211.771C231.152 211.792 233.055 210.321 234.849 205.067C235.366 203.554 236.175 201.164 236.525 199.168C237.436 193.968 238.311 189.42 238.397 186.229Z" fill="#B16668"/>
<path d="M227.623 156.515C230.142 156.15 233.567 156.678 235.779 160.634C237.991 164.59 238.533 171.396 238.785 178.163C238.785 178.163 234.391 181.838 229.121 180.031L227.623 156.515Z" fill="#4692B6"/>
<path opacity="0.1" d="M227.623 156.515C230.142 156.15 233.567 156.678 235.779 160.634C237.991 164.59 238.533 171.396 238.785 178.163C238.785 178.163 234.391 181.838 229.121 180.031L227.623 156.515Z" fill="black"/>
<path d="M235.035 265.553C235.435 265.704 235.536 266.466 235.596 267.981C235.642 269.128 235.888 271.128 234.545 271.528C233.202 271.928 231.235 271.724 230.375 270.643C229.3 269.294 228.574 268.107 227.041 266.461C225.712 265.034 224.273 263.701 223.737 261.699C223.251 259.89 223.655 259.105 224.89 258.579C226.588 257.856 229.254 260.219 230.584 260.591C231.729 260.913 234.635 265.402 235.035 265.553Z" fill="#263238"/>
<path d="M235.035 264.15V266.011C235.035 266.011 233.101 267.497 230.334 266.138C230.253 265.959 229.846 263.477 229.846 263.477L235.035 264.15Z" fill="#B16668"/>
<path d="M219.97 276.273C219.97 276.273 220.504 277.891 220.792 279.306C221.02 280.43 221.348 282.31 220.954 283.156C220.56 284.002 219.024 284.548 216.643 284.53C215.1 284.518 212.696 285.565 211.05 286.484C209.351 287.433 205.815 287.81 204.017 287.599C201.898 287.351 199.703 286.122 199.36 285.244C199.017 284.367 199.472 283.455 204.466 281.327C204.512 281.308 211.408 279.066 213.825 276.399L219.97 276.273Z" fill="#263238"/>
<path d="M219.97 274.263C219.97 274.263 219.963 275.643 219.97 276.432C219.977 277.221 219.045 278.397 216.633 278.311C214.939 278.25 213.757 277.795 213.824 276.399V274.388L219.97 274.263Z" fill="#B16668"/>
<path d="M236.245 239.464C235.393 233.386 234.048 229.776 234.048 229.776C234.048 229.776 234.712 221.417 235.031 213.492C235.375 204.931 235.013 194.171 235.175 192.035C235.175 192.035 207.552 186.447 207.06 196.342C206.567 206.238 208.15 231.427 208.477 235.775C208.803 240.122 209.555 243.967 210.453 251.012C211.339 257.966 213.823 274.387 213.823 274.387C216.979 276.093 219.97 274.262 219.97 274.262C219.97 274.262 221.913 254.475 221.709 249.46C221.46 243.334 219.807 238.511 219.807 238.511C219.807 238.511 220.331 230.352 220.793 223.254C221.256 216.157 221.745 212.748 221.853 209.661L222.448 209.367C222.448 209.367 223.054 221.611 223.38 225.958C223.707 230.305 224.398 234.473 225.655 242.548C226.746 249.553 229.996 264.374 229.996 264.374C233.151 266.08 235.034 264.15 235.034 264.15C235.034 264.15 237.097 245.542 236.245 239.464Z" fill="#37474F"/>
<path d="M221.854 209.661C221.854 209.661 228.554 206.359 231.908 203.381C231.908 203.381 228.794 207.769 224.707 209.714C224.707 209.714 223.253 224.925 223.26 224.623L222.421 209.639L221.854 209.661Z" fill="#263238"/>
<path d="M215.89 153.381L217.524 162.377L225.651 161.784L223.944 151.586L215.89 153.381Z" fill="#B16668"/>
<path d="M234.233 161.127C233.428 158.68 230.325 156.018 227.22 156.596C221.515 157.655 216.99 158.788 213.621 159.991C210.778 161.007 208.188 163.464 207.952 172.816C207.952 172.816 207 194.617 206.983 198.833C214.122 201.658 221.547 201.571 225.651 200.674C234.195 198.807 235.224 195.264 235.224 195.264C235.224 195.264 235.335 179.586 235.079 172.816C234.861 167.062 234.785 162.806 234.233 161.127Z" fill="#4692B6"/>
<path d="M209.62 142.439C209.62 142.439 207.56 145.724 207.809 146.036C208.06 146.349 209.636 146.601 209.636 146.601L209.62 142.439Z" fill="#B16668"/>
<path d="M215.343 133.349C211.045 134.357 209.842 136.283 209.589 143.151C209.326 150.327 210.108 152.563 211.071 153.507C211.721 154.144 215.256 154.182 217.027 153.651C219.243 152.986 224.243 151.087 226.522 147.428C229.202 143.124 229.802 137.36 226.776 135.069C222.519 131.845 217.092 132.938 215.343 133.349Z" fill="#B16668"/>
<path d="M215.981 153.873C217.439 152.7 217.309 151.944 217.309 151.944C216.263 152.921 212.392 153.758 211.072 153.507C211.61 154.035 214.126 154.151 215.981 153.873Z" fill="#9A4A4D"/>
<path d="M209.636 135.136C210.897 137.295 213.634 138.327 213.634 138.327C214.458 139.266 214.004 142.927 215.454 143.507C215.454 143.507 216.077 140.843 218.317 141.126C220.572 141.41 220.94 144.268 219.564 146.04C218.186 147.813 216.851 147.175 216.851 147.175C216.851 147.175 217.006 150.96 218.731 153.066C218.731 153.066 220.655 153.641 224.149 152.813C226.297 152.305 229.288 149.538 230.507 146.653C233.085 140.548 233.152 135.107 229.257 133.564C228.777 130.788 226.557 129.589 224.044 129.071C218.636 127.957 215.15 131.332 210.987 131.039C208.604 130.871 208.159 132.606 209.636 135.136Z" fill="#263238"/>
<path d="M229.345 134.494L231.895 132.913C231.458 132.21 230.533 131.993 229.829 132.43C229.125 132.866 228.909 133.79 229.345 134.494Z" fill="#263238"/>
<path d="M213.842 159.953C213.842 159.953 209.804 160.699 207.693 163.894C205.582 167.088 196.454 178.535 196.454 178.535C196.454 178.535 183.321 171.963 182.675 171.183C182.029 170.404 182.393 168.829 182.571 167.962C182.749 167.095 183.042 165.169 183.235 164.627C183.573 163.683 182.176 163.938 181.352 164.821C180.509 165.725 180.163 167.43 179.752 167.727C179.341 168.023 176.216 164.429 174.699 162.695C173.183 160.961 172.471 159.747 171.455 160.463C170.723 160.979 171.193 162.008 172.281 163.495C173.368 164.98 173.526 165.14 173.685 165.463C173.815 165.729 173.414 165.941 173.254 166.084C172.96 166.348 172.437 166.779 172.401 167.19C172.381 167.415 172.421 167.647 172.36 167.863C172.218 168.357 171.606 168.59 171.433 169.074C171.308 169.424 171.446 169.817 171.376 170.182C171.331 170.417 171.201 170.63 171.158 170.866C171.076 171.329 171.342 171.782 171.645 172.143C172.71 173.41 174.167 173.895 175.563 174.667C176.724 175.31 177.923 175.591 179.26 176.185C180.597 176.779 196.341 188.415 198.796 187.06C201.25 185.705 213.844 170.991 213.844 170.991C217.5 164.932 213.842 159.953 213.842 159.953Z" fill="#B16668"/>
<path d="M215.25 159.478C213.513 159.678 211.079 159.356 207.677 163.01C204.274 166.664 200.021 172.863 200.021 172.863C200.021 172.863 201.202 178.788 207.635 180.031C207.635 180.031 213.592 173.927 215.25 170.567C216.906 167.206 217.295 161.746 215.25 159.478Z" fill="#4692B6"/>
<path opacity="0.1" d="M215.25 159.478C213.513 159.678 211.079 159.356 207.677 163.01C204.274 166.664 200.021 172.863 200.021 172.863C200.021 172.863 201.202 178.788 207.635 180.031C207.635 180.031 213.592 173.927 215.25 170.567C216.906 167.206 217.295 161.746 215.25 159.478Z" fill="black"/>
</svg>
