<svg width="212" height="212" viewBox="0 0 212 212" fill="none" xmlns="http://www.w3.org/2000/svg">
<circle cx="106" cy="106" r="106" fill="#4692B6"/>
<g clip-path="url(#clip0_587_18215)">
<path d="M169.754 112.821C169.754 110.418 167.802 108.469 165.395 108.469C162.988 108.469 161.036 110.418 161.036 112.821V131.518C161.036 133.921 162.988 135.869 165.395 135.869C167.802 135.869 169.754 133.921 169.754 131.518V112.821Z" fill="white" stroke="white" stroke-width="5" stroke-miterlimit="10"/>
<path d="M51.9609 112.821C51.9609 110.418 50.0094 108.469 47.602 108.469C45.1947 108.469 43.2432 110.418 43.2432 112.821V131.518C43.2432 133.921 45.1947 135.869 47.602 135.869C50.0094 135.869 51.9609 133.921 51.9609 131.518V112.821Z" fill="white" stroke="white" stroke-width="5" stroke-miterlimit="10"/>
<path d="M145.826 129.64C142.318 133.141 137.561 135.108 132.6 135.108C127.639 135.108 122.882 133.141 119.374 129.64C115.865 126.14 111.107 124.173 106.146 124.173C101.185 124.173 96.4271 126.14 92.9186 129.64C90.3027 132.251 86.9701 134.029 83.342 134.749C79.7139 135.469 75.9533 135.099 72.5358 133.686C69.1183 132.273 66.1973 129.88 64.1422 126.811C62.0871 123.741 60.9902 120.131 60.9902 116.439C60.9902 112.747 62.0871 109.138 64.1422 106.068C66.1973 102.998 69.1183 100.606 72.5358 99.1927C75.9533 97.7798 79.7139 97.41 83.342 98.1301C86.9701 98.8502 90.3027 100.628 92.9186 103.239C96.4271 106.739 101.185 108.706 106.146 108.706C111.107 108.706 115.865 106.739 119.374 103.239C122.882 99.7374 127.639 97.7705 132.6 97.7705C137.561 97.7705 142.318 99.7374 145.826 103.239C149.334 106.74 151.305 111.488 151.305 116.439C151.305 121.391 149.334 126.139 145.826 129.64Z" stroke="white" stroke-width="7" stroke-miterlimit="10"/>
<path d="M117.861 140.312C106.493 164.042 95.4014 140.312 95.4014 140.312H117.861Z" fill="white" stroke="white" stroke-width="7" stroke-linecap="round" stroke-linejoin="round"/>
<path d="M106.633 71.6054V51.1797" stroke="white" stroke-width="10" stroke-miterlimit="10" stroke-linecap="round"/>
<path d="M106.385 43.2099C109.004 43.2099 111.127 41.0908 111.127 38.4768C111.127 35.8627 109.004 33.7437 106.385 33.7437C103.766 33.7437 101.643 35.8627 101.643 38.4768C101.643 41.0908 103.766 43.2099 106.385 43.2099Z" stroke="white" stroke-width="6" stroke-miterlimit="10" stroke-linecap="round"/>
<path d="M141.135 61.704C140.566 68.7553 142.073 76.3698 145.533 83.8534C146.849 86.7014 148.373 89.4489 150.093 92.0738C153.547 97.3729 155.978 102.285 157.323 106.691C157.391 107.545 157.428 108.415 157.428 109.271V130.084C157.429 138.42 154.112 146.415 148.208 152.31C142.304 158.206 134.295 161.52 125.943 161.523H86.8343C82.6964 161.525 78.5987 160.714 74.7752 159.135C70.9516 157.556 67.4773 155.24 64.5508 152.321C61.6242 149.401 59.3027 145.934 57.7189 142.119C56.1352 138.303 55.3202 134.214 55.3206 130.084V109.271C55.3202 105.141 56.1352 101.052 57.7189 97.2361C59.3027 93.4206 61.6242 89.954 64.5508 87.0343C67.4773 84.1146 70.9516 81.7992 74.7752 80.2201C78.5987 78.6411 82.6964 77.8296 86.8343 77.8318H126.96L128.898 75.067C130.979 72.0975 134.242 67.8252 137.969 64.3436C138.969 63.3991 140.026 62.5175 141.135 61.704ZM146.966 52.6587C137.864 52.6587 128.052 64.9779 123.597 71.3551H86.8343C81.8455 71.3547 76.9054 72.3352 72.2963 74.2405C67.6871 76.1458 63.4991 78.9387 59.9715 82.4596C56.4438 85.9805 53.6456 90.1605 51.7366 94.7608C49.8277 99.3612 48.8453 104.292 48.8457 109.271V130.084C48.8453 135.063 49.8277 139.994 51.7366 144.594C53.6456 149.194 56.4438 153.374 59.9715 156.895C63.4991 160.416 67.6871 163.209 72.2963 165.114C76.9054 167.02 81.8455 168 86.8343 168H125.943C130.932 168 135.872 167.02 140.481 165.114C145.09 163.209 149.278 160.416 152.806 156.895C156.333 153.374 159.132 149.194 161.041 144.594C162.95 139.994 163.932 135.063 163.932 130.084V109.271C163.932 107.985 163.868 106.719 163.741 105.471C162.447 100.965 159.982 95.3477 155.544 88.541C153.992 86.18 152.615 83.7082 151.426 81.1456C143.487 63.9653 150.056 53.1679 150.056 53.1679C149.061 52.8274 148.017 52.6553 146.966 52.6587Z" fill="white"/>
</g>
<defs>
<clipPath id="clip0_587_18215">
<rect width="133" height="136" fill="white" transform="translate(40 32)"/>
</clipPath>
</defs>
</svg>
