<svg width="311" height="311" viewBox="0 0 311 311" fill="none" xmlns="http://www.w3.org/2000/svg">
<path d="M60.9119 235.525H39.0436V242.486H60.9119V235.525Z" fill="#EBEBEB"/>
<path d="M74.0466 154.346H52.1783V161.306H74.0466V154.346Z" fill="#EBEBEB"/>
<path d="M48.7132 251.262C45.0695 251.324 35.8826 251.479 32.3614 251.519L26.8455 251.545L26.5632 251.547L26.5619 251.262L26.5345 244.302L26.5333 243.99L26.8449 243.991L37.7791 244.034C40.5009 244.058 45.9907 244.116 48.7132 244.154L48.8643 244.156L48.8612 244.302L48.7132 251.262ZM48.7132 251.262L48.5658 244.302L48.7132 244.449C45.9851 244.488 40.5059 244.546 37.7791 244.57L26.8449 244.612L27.1553 244.302L27.1279 251.262L26.8443 250.978L32.2625 251.005C35.7289 251.045 45.128 251.201 48.7132 251.262Z" fill="#EBEBEB"/>
<path d="M172.446 127.981C168.803 128.043 159.616 128.199 156.095 128.238L150.579 128.265L150.296 128.266L150.295 127.981L150.268 121.021L150.267 120.708L150.578 120.71L161.512 120.752C164.234 120.776 169.724 120.835 172.446 120.873L172.597 120.875L172.594 121.021L172.446 127.981ZM172.446 127.981L172.299 121.021L172.446 121.168C169.718 121.207 164.239 121.265 161.512 121.289L150.578 121.331L150.889 121.021L150.861 127.981L150.578 127.697L155.996 127.724C159.463 127.764 168.861 127.921 172.446 127.981Z" fill="#EBEBEB"/>
<path d="M160.248 136.757C156.604 136.819 147.417 136.975 143.896 137.014L138.38 137.041L138.098 137.042L138.096 136.757L138.069 129.797L138.068 129.485L138.379 129.486L149.314 129.528C152.036 129.553 157.525 129.611 160.248 129.649L160.398 129.651L160.395 129.797L160.248 136.757ZM160.248 136.757L160.1 129.797L160.248 129.945C157.52 129.983 152.04 130.042 149.314 130.065L138.379 130.107L138.69 129.797L138.662 136.757L138.379 136.474L143.796 136.5C147.264 136.54 156.663 136.697 160.248 136.757Z" fill="#EBEBEB"/>
<path d="M148.098 121.021H126.229V127.981H148.098V121.021Z" fill="#EBEBEB"/>
<path d="M284.155 244.302H262.287V251.262H284.155V244.302Z" fill="#EBEBEB"/>
<path d="M271.956 29.3689H250.088V36.3291H271.956V29.3689Z" fill="#EBEBEB"/>
<path d="M284.155 45.1055C280.511 45.1677 271.325 45.3232 267.803 45.3624L262.287 45.3892L262.005 45.3904L262.004 45.1055L261.976 38.1454L261.975 37.8337L262.287 37.835L273.222 37.8773C275.943 37.9015 281.433 37.9594 284.156 37.9979L284.306 37.9998L284.303 38.146L284.155 45.1055ZM284.155 45.1055L284.008 38.1454L284.155 38.2928C281.427 38.3313 275.948 38.3898 273.221 38.4134L262.287 38.4557L262.597 38.1454L262.57 45.1055L262.286 44.8219L267.704 44.8487C271.171 44.8885 280.569 45.0452 284.155 45.1055Z" fill="#EBEBEB"/>
<path d="M60.9119 36.3292C57.2682 36.3914 48.0812 36.5469 44.5601 36.5861L39.0442 36.6128L38.7618 36.6141L38.7606 36.3292L38.7332 29.369L38.732 29.0574L39.0442 29.0586L49.9783 29.1009C52.7002 29.1252 58.19 29.183 60.9125 29.2216L61.0636 29.2234L61.0605 29.369L60.9119 36.3292ZM60.9119 36.3292L60.7644 29.369L60.9119 29.5164C58.1838 29.555 52.7046 29.6134 49.9777 29.6371L39.0436 29.6794L39.354 29.369L39.3266 36.3292L39.043 36.0455L44.4612 36.0723C47.9276 36.1127 57.3267 36.2688 60.9119 36.3292Z" fill="#EBEBEB"/>
<path d="M187.016 267.272C183.372 267.334 174.185 267.49 170.664 267.529L165.148 267.556L164.865 267.557L164.864 267.272L164.837 260.312L164.836 260L165.148 260.002L176.082 260.044C178.805 260.068 184.294 260.127 187.016 260.165L187.167 260.167L187.164 260.312L187.016 267.272ZM187.016 267.272L186.868 260.312L187.016 260.46C184.287 260.498 178.808 260.557 176.081 260.58L165.147 260.622L165.458 260.312L165.43 267.272L165.147 266.989L170.565 267.015C174.031 267.055 183.43 267.211 187.016 267.272Z" fill="#EBEBEB"/>
<path d="M67.9809 74.4584C66.4109 85.1972 57.1593 93.4381 45.9901 93.4381C33.7118 93.4381 23.7505 83.4842 23.7505 71.1985C23.7505 58.9202 33.7118 48.9663 45.9901 48.9663V71.1985L67.9809 74.4584Z" fill="#EBEBEB"/>
<path d="M72.7498 66.6703C72.7498 67.7799 72.6664 68.8666 72.5084 69.9302L50.5176 66.6703V44.4375C58.766 44.4375 65.9731 48.9352 69.8139 55.6142C71.6861 58.8741 72.7498 62.6553 72.7498 66.6703Z" fill="#DBDBDB"/>
<path d="M72.0425 79.0911H48.3978V79.7131H72.0425V79.0911Z" fill="#C7C7C7"/>
<path d="M73.6996 81.3701C72.6142 81.3701 71.7309 80.4875 71.7309 79.4021C71.7309 78.3167 72.6142 77.4341 73.6996 77.4341C74.7849 77.4341 75.6676 78.3167 75.6676 79.4021C75.6682 80.4875 74.7849 81.3701 73.6996 81.3701ZM73.6996 78.0561C72.9575 78.0561 72.3529 78.66 72.3529 79.4021C72.3529 80.1441 72.9569 80.7481 73.6996 80.7481C74.4416 80.7481 75.0456 80.1441 75.0456 79.4021C75.0462 78.6594 74.4422 78.0561 73.6996 78.0561Z" fill="#C7C7C7"/>
<path d="M98.0732 78.1594H79.7081V78.9879H98.0732V78.1594Z" fill="#C7C7C7"/>
<path d="M90.1048 79.8164H79.7081V80.6449H90.1048V79.8164Z" fill="#C7C7C7"/>
<path d="M145.012 159.056H139.147V200.792H145.012V159.056Z" fill="#EBEBEB"/>
<path d="M155.093 169.158H149.228V200.792H155.093V169.158Z" fill="#EBEBEB"/>
<path d="M165.173 184.975H159.309V200.792H165.173V184.975Z" fill="#EBEBEB"/>
<path d="M175.254 175.941H169.389V200.792H175.254V175.941Z" fill="#EBEBEB"/>
<path d="M185.335 166.454H179.47V200.792H185.335V166.454Z" fill="#EBEBEB"/>
<path d="M195.416 160.875H189.551V200.792H195.416V160.875Z" fill="#EBEBEB"/>
<path d="M135.746 153.748L135.814 165.509L135.847 177.27L135.895 200.791L135.747 200.643C141.137 200.628 146.527 200.621 151.917 200.64L168.088 200.672L184.259 200.704L200.43 200.791L184.259 200.878L168.088 200.911L151.917 200.943C146.527 200.962 141.137 200.954 135.747 200.939L135.598 200.939V200.791L135.645 177.27L135.678 165.509L135.746 153.748Z" fill="#EBEBEB"/>
<path d="M134.452 156.107C134.883 155.977 135.315 155.947 135.746 155.941C136.177 155.946 136.609 155.976 137.04 156.107C136.609 156.239 136.177 156.269 135.746 156.274C135.315 156.268 134.883 156.238 134.452 156.107Z" fill="#EBEBEB"/>
<path d="M134.452 159.682C134.883 159.552 135.315 159.522 135.746 159.516C136.177 159.521 136.609 159.551 137.04 159.682C136.609 159.814 136.177 159.844 135.746 159.848C135.315 159.843 134.883 159.813 134.452 159.682Z" fill="#EBEBEB"/>
<path d="M134.452 163.258C134.883 163.127 135.315 163.098 135.746 163.092C136.177 163.097 136.609 163.127 137.04 163.258C136.609 163.39 136.177 163.42 135.746 163.424C135.315 163.419 134.883 163.389 134.452 163.258Z" fill="#EBEBEB"/>
<path d="M134.452 166.833C134.883 166.703 135.315 166.672 135.746 166.667C136.177 166.672 136.609 166.702 137.04 166.833C136.609 166.965 136.177 166.994 135.746 166.999C135.315 166.994 134.883 166.964 134.452 166.833Z" fill="#EBEBEB"/>
<path d="M134.452 170.409C134.883 170.278 135.315 170.248 135.746 170.242C136.177 170.247 136.609 170.277 137.04 170.409C136.609 170.54 136.177 170.57 135.746 170.575C135.315 170.569 134.883 170.539 134.452 170.409Z" fill="#EBEBEB"/>
<path d="M134.452 173.984C134.883 173.853 135.315 173.823 135.746 173.818C136.177 173.823 136.609 173.853 137.04 173.984C136.609 174.115 136.177 174.146 135.746 174.15C135.315 174.144 134.883 174.115 134.452 173.984Z" fill="#EBEBEB"/>
<path d="M134.452 177.559C134.883 177.429 135.315 177.398 135.746 177.393C136.177 177.397 136.609 177.428 137.04 177.559C136.609 177.69 136.177 177.721 135.746 177.725C135.315 177.72 134.883 177.69 134.452 177.559Z" fill="#EBEBEB"/>
<path d="M134.452 181.134C134.883 181.004 135.315 180.973 135.746 180.968C136.177 180.973 136.609 181.003 137.04 181.134C136.609 181.266 136.177 181.296 135.746 181.3C135.315 181.295 134.883 181.265 134.452 181.134Z" fill="#EBEBEB"/>
<path d="M134.452 184.71C134.883 184.579 135.315 184.549 135.746 184.543C136.177 184.548 136.609 184.578 137.04 184.71C136.609 184.841 136.177 184.871 135.746 184.876C135.315 184.871 134.883 184.84 134.452 184.71Z" fill="#EBEBEB"/>
<path d="M134.452 188.285C134.883 188.154 135.315 188.124 135.746 188.119C136.177 188.123 136.609 188.154 137.04 188.285C136.609 188.416 136.177 188.446 135.746 188.451C135.315 188.446 134.883 188.415 134.452 188.285Z" fill="#EBEBEB"/>
<path d="M134.452 191.86C134.883 191.73 135.315 191.699 135.746 191.694C136.177 191.699 136.609 191.729 137.04 191.86C136.609 191.991 136.177 192.021 135.746 192.026C135.315 192.021 134.883 191.991 134.452 191.86Z" fill="#EBEBEB"/>
<path d="M134.452 195.435C134.883 195.305 135.315 195.274 135.746 195.269C136.177 195.274 136.609 195.304 137.04 195.435C136.609 195.567 136.177 195.597 135.746 195.601C135.315 195.596 134.883 195.566 134.452 195.435Z" fill="#EBEBEB"/>
<path d="M25.8068 281.612C108.897 281.232 202.104 281.229 285.193 281.612C202.103 281.996 108.896 281.993 25.8068 281.612Z" fill="#263238"/>
<path d="M277.388 26.3049H175.457C169.766 26.3049 165.147 31.0017 165.147 36.808V246.632C165.147 252.426 169.766 257.135 175.457 257.135H277.388C283.08 257.135 287.71 252.427 287.71 246.632V36.8074C287.71 31.0017 283.08 26.3049 277.388 26.3049ZM281.258 240.145C281.258 245.668 277.122 250.135 272.022 250.135H180.835C175.722 250.135 171.586 245.668 171.586 240.145V44.7603C171.586 33.5096 175.722 32.961 180.835 32.961H199.104C200.165 32.961 201.033 34.167 201.033 35.6623V36.3073C201.033 39.8104 202.951 39.8222 205.302 39.8222H247.543C249.918 39.8222 251.824 39.8104 251.824 36.3073V35.6623C251.824 34.167 252.679 32.961 253.759 32.961H272.022C277.123 32.961 281.258 34.4562 281.258 44.7603V240.145Z" fill="#263238"/>
<path d="M281.258 44.7603V240.145C281.258 245.668 277.122 250.135 272.022 250.135H180.835C175.722 250.135 171.586 245.668 171.586 240.145V44.7603C171.586 33.5095 175.722 32.9609 180.835 32.9609H199.104C200.165 32.9609 201.033 34.167 201.033 35.6623V36.3073C201.033 39.8104 202.95 39.8222 205.302 39.8222H247.543C249.918 39.8222 251.824 39.8104 251.824 36.3073V35.6623C251.824 34.167 252.679 32.9609 253.759 32.9609H272.022C277.123 32.9609 281.258 34.4562 281.258 44.7603Z" fill="white"/>
<path d="M195.95 37.3491C195.891 37.4076 195.832 37.466 195.773 37.5245C195.74 37.5581 195.707 37.5911 195.673 37.6246C195.199 37.1644 194.634 36.9193 193.974 36.9193C193.313 36.9193 192.748 37.1637 192.271 37.6265C192.239 37.5935 192.208 37.56 192.176 37.527C192.118 37.4685 192.059 37.4101 192.001 37.3516C192 37.3503 191.998 37.3497 191.996 37.3485C191.996 37.3472 191.996 37.3454 191.996 37.3441C192 37.3404 192.005 37.3373 192.009 37.3335C192.083 37.2676 192.156 37.1992 192.232 37.1364C192.391 37.0058 192.564 36.8981 192.748 36.8073C192.966 36.7003 193.194 36.6214 193.433 36.5772C193.546 36.5567 193.66 36.5461 193.774 36.5318C193.813 36.5268 194.066 36.5262 194.073 36.5268C194.151 36.5324 194.229 36.5361 194.307 36.5442C194.522 36.5672 194.731 36.6195 194.934 36.6941C195.082 36.7482 195.223 36.8148 195.359 36.8925C195.503 36.9753 195.638 37.0686 195.764 37.1762C195.827 37.2303 195.888 37.2881 195.95 37.3441C195.95 37.3466 195.95 37.3479 195.95 37.3491Z" fill="#C7C7C7"/>
<path d="M192.831 38.1794C192.737 38.0867 192.646 37.9959 192.552 37.9026C192.87 37.591 193.245 37.3926 193.686 37.3329C194.346 37.2433 194.913 37.4442 195.393 37.8983C195.299 37.9928 195.206 38.0842 195.113 38.1769C194.798 37.8703 194.418 37.7048 193.973 37.7054C193.528 37.7061 193.148 37.8721 192.831 38.1794Z" fill="#C7C7C7"/>
<path d="M194.834 38.4582C194.742 38.5502 194.65 38.6423 194.557 38.7356C194.395 38.5794 194.201 38.493 193.972 38.4936C193.744 38.4942 193.549 38.5794 193.387 38.7374C193.295 38.6448 193.202 38.5527 193.11 38.4606C193.551 37.9973 194.346 37.9606 194.834 38.4582Z" fill="#C7C7C7"/>
<path d="M194.223 38.9875C194.223 39.1256 194.111 39.2381 193.972 39.2381C193.833 39.2381 193.721 39.1256 193.721 38.9875C193.721 38.8494 193.833 38.7368 193.972 38.7368C194.111 38.7368 194.223 38.8488 194.223 38.9875Z" fill="#C7C7C7"/>
<path d="M178.74 37.8827C178.74 37.4816 179.065 37.1562 179.466 37.1562C179.867 37.1562 180.193 37.4816 180.193 37.8827C180.193 38.2846 179.868 38.6099 179.466 38.6099C179.065 38.6092 178.74 38.2839 178.74 37.8827Z" fill="#C7C7C7"/>
<path d="M181.029 37.8827C181.029 37.4816 181.355 37.1562 181.756 37.1562C182.157 37.1562 182.483 37.4816 182.483 37.8827C182.483 38.2846 182.158 38.6099 181.756 38.6099C181.355 38.6092 181.029 38.2839 181.029 37.8827Z" fill="#C7C7C7"/>
<path d="M183.319 37.8827C183.319 37.4816 183.644 37.1562 184.046 37.1562C184.447 37.1562 184.773 37.4816 184.773 37.8827C184.773 38.2846 184.447 38.6099 184.046 38.6099C183.644 38.6092 183.319 38.2839 183.319 37.8827Z" fill="#C7C7C7"/>
<path d="M185.608 37.8827C185.608 37.4816 185.933 37.1562 186.334 37.1562C186.736 37.1562 187.061 37.4816 187.061 37.8827C187.061 38.2846 186.736 38.6099 186.334 38.6099C185.933 38.6092 185.608 38.2839 185.608 37.8827Z" fill="#C7C7C7"/>
<path d="M187.897 37.8827C187.897 37.4816 188.223 37.1562 188.625 37.1562C189.026 37.1562 189.351 37.4816 189.351 37.8827C189.351 38.2846 189.026 38.6099 188.625 38.6099C188.223 38.6092 187.897 38.2839 187.897 37.8827Z" fill="#C7C7C7"/>
<path d="M273.034 39.4694H267.117V36.7283H273.034V39.4694ZM267.418 39.1678H272.732V37.0299H267.418V39.1678Z" fill="#C7C7C7"/>
<path d="M271.422 37.1941H267.607V39.0041H271.422V37.1941Z" fill="#C7C7C7"/>
<path d="M273.563 37.3657H273.037V38.8318H273.563V37.3657Z" fill="#C7C7C7"/>
<path d="M232.187 35.4471H220.665C220.272 35.4471 219.953 35.1286 219.953 34.7355C219.953 34.3424 220.272 34.0239 220.665 34.0239H232.187C232.58 34.0239 232.899 34.3424 232.899 34.7355C232.899 35.1286 232.581 35.4471 232.187 35.4471Z" fill="white"/>
<path d="M185.847 238.638H185.311V241.102H184.308V239.846H182.533V241.102H181.531V238.638H180.995L183.42 236.131L185.847 238.638Z" fill="#EBEBEB"/>
<path d="M272.726 236.131H266.878V236.967H272.726V236.131Z" fill="#EBEBEB"/>
<path d="M272.726 238.199H266.878V239.035H272.726V238.199Z" fill="#EBEBEB"/>
<path d="M272.726 240.266H266.878V241.102H272.726V240.266Z" fill="#EBEBEB"/>
<path d="M228.579 238.702L226.916 240.477L225.254 238.702L225.547 238.427L226.916 239.888L228.286 238.427L228.579 238.702Z" fill="#EBEBEB"/>
<path d="M226.917 242.311C225.252 242.311 223.896 240.955 223.896 239.29C223.896 237.624 225.252 236.27 226.917 236.27C228.583 236.27 229.937 237.624 229.937 239.29C229.937 240.955 228.582 242.311 226.917 242.311ZM226.917 236.668C225.471 236.668 224.295 237.845 224.295 239.29C224.295 240.736 225.471 241.912 226.917 241.912C228.362 241.912 229.539 240.736 229.539 239.29C229.539 237.845 228.362 236.668 226.917 236.668Z" fill="#EBEBEB"/>
<path d="M275.453 47.5239H177.391V76.1484H275.453V47.5239Z" fill="#E8E0D0"/>
<path d="M182.974 56.7172L179.732 53.6787L182.974 50.6409L183.478 51.177L180.807 53.6787L183.478 56.1816L182.974 56.7172Z" fill="white"/>
<path d="M273.125 51.7865C273.125 52.1385 272.84 52.4246 272.487 52.4246C272.134 52.4246 271.849 52.1392 271.849 51.7865C271.849 51.4338 272.134 51.1489 272.487 51.1489C272.84 51.1489 273.125 51.4344 273.125 51.7865Z" fill="white"/>
<path d="M273.125 54.0555C273.125 54.4082 272.84 54.6937 272.487 54.6937C272.134 54.6937 271.849 54.4082 271.849 54.0555C271.849 53.7035 272.134 53.418 272.487 53.418C272.84 53.418 273.125 53.7035 273.125 54.0555Z" fill="white"/>
<path d="M273.125 56.3247C273.125 56.6774 272.84 56.9629 272.487 56.9629C272.134 56.9629 271.849 56.6774 271.849 56.3247C271.849 55.9726 272.134 55.6865 272.487 55.6865C272.84 55.6865 273.125 55.972 273.125 56.3247Z" fill="white"/>
<path d="M187.897 53.6792C199.182 53.2612 210.547 53.2612 221.834 53.6792C210.546 54.0972 199.182 54.0972 187.897 53.6792Z" fill="white"/>
<path d="M187.897 56.717C195.517 56.5136 203.902 56.5117 211.521 56.717C203.902 56.9222 195.517 56.9204 187.897 56.717Z" fill="white"/>
<path d="M199.124 67.1703C216.613 66.98 236.233 66.9787 253.722 67.1703C236.232 67.3619 216.612 67.3606 199.124 67.1703Z" fill="white"/>
<path d="M181.86 99.6605C197.338 99.551 212.816 99.579 228.295 99.533C243.772 99.5784 259.251 99.5504 274.729 99.6605C259.251 99.7706 243.772 99.7432 228.295 99.788C212.816 99.7426 197.338 99.7699 181.86 99.6605Z" fill="#E8E0D0"/>
<path d="M181.86 110.122C197.338 110.012 212.816 110.04 228.295 109.994C243.772 110.04 259.251 110.012 274.729 110.122C259.251 110.232 243.772 110.204 228.295 110.249C212.816 110.204 197.338 110.231 181.86 110.122Z" fill="#E8E0D0"/>
<path d="M181.86 120.583C197.338 120.474 212.816 120.501 228.295 120.456C243.772 120.501 259.251 120.473 274.729 120.583C259.251 120.693 243.772 120.665 228.295 120.711C212.816 120.665 197.338 120.693 181.86 120.583Z" fill="#E8E0D0"/>
<path d="M181.86 131.044C197.338 130.935 212.816 130.962 228.295 130.917C243.772 130.961 259.251 130.934 274.729 131.044C259.251 131.154 243.772 131.126 228.295 131.172C212.816 131.126 197.338 131.154 181.86 131.044Z" fill="#E8E0D0"/>
<path d="M181.86 141.505C197.338 141.396 212.816 141.423 228.295 141.378C243.772 141.423 259.251 141.395 274.729 141.505C259.251 141.616 243.772 141.588 228.295 141.633C212.816 141.588 197.338 141.616 181.86 141.505Z" fill="#E8E0D0"/>
<path d="M200.558 92.8589C200.695 102.634 200.66 112.408 200.717 122.183C200.661 131.958 200.695 141.733 200.558 151.507C200.421 141.733 200.456 131.958 200.4 122.183C200.456 112.408 200.422 102.634 200.558 92.8589Z" fill="#E8E0D0"/>
<path d="M216.618 92.8589C216.754 102.634 216.72 112.408 216.776 122.183C216.72 131.958 216.755 141.733 216.618 151.507C216.481 141.733 216.515 131.958 216.459 122.183C216.516 112.408 216.482 102.634 216.618 92.8589Z" fill="#E8E0D0"/>
<path d="M232.678 92.8589C232.814 102.634 232.779 112.408 232.836 122.183C232.78 131.958 232.815 141.733 232.678 151.507C232.541 141.733 232.576 131.958 232.519 122.183C232.576 112.408 232.541 102.634 232.678 92.8589Z" fill="#E8E0D0"/>
<path d="M248.737 92.8589C248.873 102.634 248.839 112.408 248.896 122.183C248.84 131.958 248.874 141.733 248.737 151.507C248.6 141.733 248.635 131.958 248.579 122.183C248.636 112.408 248.601 102.634 248.737 92.8589Z" fill="#E8E0D0"/>
<path d="M264.797 92.8589C264.933 102.634 264.899 112.408 264.956 122.183C264.9 131.958 264.934 141.733 264.797 151.507C264.66 141.733 264.695 131.958 264.639 122.183C264.695 112.408 264.66 102.634 264.797 92.8589Z" fill="#E8E0D0"/>
<path opacity="0.5" d="M184.2 133.918C187.034 133.918 188.725 123.292 192.74 123.292C196.755 123.292 197.177 131.045 200.558 131.045C203.939 131.045 203.834 117.426 208.377 117.426C212.92 117.426 211.863 122.952 216.618 122.952C221.372 122.952 219.576 110.123 224.542 110.123C229.507 110.123 227.5 127.798 232.677 127.798C235.953 127.798 237.22 122.184 241.129 122.184C243.718 122.184 245.245 124.993 248.628 124.993C252.065 124.993 252.752 114.197 256.978 114.197C261.204 114.197 261.687 120.585 264.797 120.585C267.906 120.585 269.022 110.123 274.728 110.123V151.509H184.2V133.918Z" fill="#E8E0D0"/>
<path opacity="0.3" d="M184.2 133.918C187.034 133.918 188.725 123.292 192.74 123.292C196.755 123.292 197.177 131.045 200.558 131.045C203.939 131.045 203.834 117.426 208.377 117.426C212.92 117.426 211.863 122.952 216.618 122.952C221.372 122.952 219.576 110.123 224.542 110.123C229.507 110.123 227.5 127.798 232.677 127.798C235.953 127.798 237.22 122.184 241.129 122.184C243.718 122.184 245.245 124.993 248.628 124.993C252.065 124.993 252.752 114.197 256.978 114.197C261.204 114.197 261.687 120.585 264.797 120.585C267.906 120.585 269.022 110.123 274.728 110.123V151.509H184.2V133.918Z" fill="#E8E0D0"/>
<path d="M184.2 134.429V133.407C185.057 133.407 186.24 130.924 187.104 129.112C188.587 125.999 190.121 122.78 192.74 122.78C195.253 122.78 196.502 125.137 197.604 127.217C198.467 128.847 199.36 130.533 200.558 130.533C201.615 130.533 202.531 127.262 203.2 124.874C204.296 120.96 205.429 116.914 208.377 116.914C211.008 116.914 212.04 118.502 212.95 119.904C213.836 121.265 214.599 122.439 216.618 122.439C218.445 122.439 219.16 119.442 219.852 116.544C220.666 113.135 221.508 109.61 224.543 109.61C227.552 109.61 228.322 114.05 229.137 118.75C229.797 122.553 230.615 127.285 232.678 127.285C233.911 127.285 234.919 126.119 235.985 124.884C237.284 123.378 238.758 121.671 241.131 121.671C242.557 121.671 243.67 122.368 244.748 123.043C245.876 123.749 247.043 124.48 248.63 124.48C249.803 124.48 250.872 121.912 251.732 119.848C252.994 116.817 254.3 113.684 256.979 113.684C259.64 113.684 260.951 115.722 262.108 117.52C262.952 118.832 263.749 120.072 264.798 120.072C265.692 120.072 266.705 118.085 267.597 116.332C269.122 113.338 271.021 109.611 274.729 109.611V110.633C271.874 110.633 270.227 113.867 268.773 116.72C267.528 119.164 266.544 121.095 264.798 121.095C262.975 121.095 262.005 119.587 260.979 117.99C259.94 116.376 258.866 114.707 256.979 114.707C255.214 114.707 254.004 117.612 252.935 120.174C251.744 123.033 250.715 125.503 248.628 125.503C246.606 125.503 245.203 124.625 243.966 123.85C242.976 123.23 242.12 122.694 241.129 122.694C239.422 122.694 238.204 124.105 237.027 125.467C235.823 126.864 234.575 128.309 232.677 128.309C229.509 128.309 228.717 123.735 227.877 118.892C227.24 115.213 226.445 110.633 224.541 110.633C222.557 110.633 221.782 113.876 221.099 116.738C220.273 120.196 219.494 123.463 216.617 123.463C213.828 123.463 212.764 121.824 211.824 120.379C210.972 119.069 210.238 117.937 208.376 117.937C206.445 117.937 205.333 121.909 204.44 125.1C203.429 128.707 202.631 131.556 200.558 131.556C198.52 131.556 197.507 129.643 196.434 127.618C195.44 125.743 194.414 123.803 192.74 123.803C190.995 123.803 189.495 126.95 188.291 129.478C186.973 132.244 185.931 134.429 184.2 134.429Z" fill="#E8E0D0"/>
<path opacity="0.5" d="M232.678 127.798V151.506H216.618V122.954C221.37 122.954 219.58 110.122 224.544 110.122C229.51 110.121 227.5 127.798 232.678 127.798Z" fill="#E8E0D0"/>
<path d="M224.538 112.332C225.942 112.332 227.08 111.194 227.08 109.79C227.08 108.386 225.942 107.248 224.538 107.248C223.134 107.248 221.996 108.386 221.996 109.79C221.996 111.194 223.134 112.332 224.538 112.332Z" fill="#263238"/>
<path d="M225.992 109.79C225.992 110.593 225.341 111.243 224.538 111.243C223.736 111.243 223.085 110.593 223.085 109.79C223.085 108.987 223.735 108.336 224.538 108.336C225.341 108.336 225.992 108.987 225.992 109.79Z" fill="#E8E0D0"/>
<path d="M229.117 99.4204H219.887V104.57H229.117V99.4204Z" fill="#E8E0D0"/>
<path d="M223.287 104.571H225.716L224.502 106.319L223.287 104.571Z" fill="#E8E0D0"/>
<path d="M221.615 101.321C223.564 101.216 225.513 101.215 227.462 101.321C225.513 101.426 223.564 101.425 221.615 101.321Z" fill="white"/>
<path d="M221.615 102.317C223.564 102.213 225.513 102.212 227.462 102.317C225.513 102.422 223.564 102.422 221.615 102.317Z" fill="white"/>
<path d="M184.2 93.4951C184.302 103.164 184.391 112.832 184.4 122.501L184.496 151.507L184.2 151.268L229.464 151.329L252.096 151.377L274.728 151.507L252.096 151.638L229.464 151.686L184.2 151.746L183.902 151.747L183.902 151.507L183.999 122.501C184.008 112.832 184.097 103.163 184.2 93.4951Z" fill="#E8E0D0"/>
<path d="M189.046 155.846C191.194 155.527 193.348 155.524 195.496 155.846C193.348 156.168 191.194 156.165 189.046 155.846Z" fill="#DBDBDB"/>
<path d="M177.391 99.6604C178.367 99.3413 179.356 99.3388 180.331 99.6604C179.356 99.982 178.367 99.9795 177.391 99.6604Z" fill="#DBDBDB"/>
<path d="M177.391 110.122C178.367 109.803 179.356 109.8 180.331 110.122C179.356 110.443 178.367 110.441 177.391 110.122Z" fill="#DBDBDB"/>
<path d="M177.391 120.583C178.367 120.264 179.356 120.262 180.331 120.583C179.356 120.905 178.367 120.902 177.391 120.583Z" fill="#DBDBDB"/>
<path d="M177.391 131.045C178.367 130.726 179.356 130.723 180.331 131.045C179.356 131.366 178.367 131.364 177.391 131.045Z" fill="#DBDBDB"/>
<path d="M177.391 141.506C178.367 141.187 179.356 141.185 180.331 141.506C179.356 141.828 178.367 141.825 177.391 141.506Z" fill="#DBDBDB"/>
<path d="M204.866 155.846C207.013 155.527 209.167 155.524 211.315 155.846C209.167 156.168 207.013 156.165 204.866 155.846Z" fill="#DBDBDB"/>
<path d="M220.685 155.846C222.833 155.527 224.987 155.524 227.135 155.846C224.987 156.168 222.833 156.165 220.685 155.846Z" fill="#DBDBDB"/>
<path d="M236.504 155.846C238.651 155.527 240.805 155.524 242.953 155.846C240.806 156.168 238.651 156.165 236.504 155.846Z" fill="#DBDBDB"/>
<path d="M252.323 155.846C254.471 155.527 256.625 155.524 258.773 155.846C256.625 156.168 254.471 156.165 252.323 155.846Z" fill="#DBDBDB"/>
<path d="M268.142 155.846C270.29 155.527 272.444 155.524 274.592 155.846C272.444 156.168 270.29 156.165 268.142 155.846Z" fill="#DBDBDB"/>
<path d="M177.476 83.4405C186.581 83.0163 195.758 83.0163 204.866 83.4405C195.758 83.8653 186.582 83.8647 177.476 83.4405Z" fill="#DBDBDB"/>
<path d="M177.476 86.3191C183.311 85.8949 189.211 85.8949 195.046 86.3191C189.21 86.7433 183.311 86.7427 177.476 86.3191Z" fill="#DBDBDB"/>
<path d="M257.158 86.3191C263.01 86.0062 268.877 86.0037 274.729 86.3191C268.878 86.6338 263.01 86.6313 257.158 86.3191Z" fill="#E8E0D0"/>
<path d="M178.082 165.466C187.292 165.041 196.574 165.041 205.786 165.466C196.574 165.89 187.293 165.89 178.082 165.466Z" fill="#263238"/>
<path d="M253.81 165.466C260.778 165.153 267.76 165.15 274.729 165.466C267.76 165.781 260.778 165.778 253.81 165.466Z" fill="#E8E0D0"/>
<path d="M196.944 174.146C204.185 173.721 211.493 173.721 218.736 174.146C211.492 174.57 204.186 174.57 196.944 174.146Z" fill="#263238"/>
<path d="M196.944 177.352C203.01 176.928 209.139 176.928 215.205 177.352C209.139 177.776 203.01 177.776 196.944 177.352Z" fill="#263238"/>
<path d="M274.729 187.606C274.512 187.396 177.653 188.218 177.874 187.606C177.873 187.606 177.85 170.611 177.85 170.611L177.85 170.378H178.083L226.406 170.444C242.536 170.481 258.667 170.457 274.798 170.543C274.827 170.603 274.707 187.54 274.729 187.606ZM274.729 187.606L274.66 170.611C258.996 170.898 242.385 170.672 226.406 170.778C226.624 170.608 176.971 171.23 178.315 170.612C178.315 170.611 178.292 187.606 178.292 187.606C176.973 187.029 275.02 187.79 274.729 187.606Z" fill="#DBDBDB"/>
<path d="M192.897 173.062H180.584V185.375H192.897V173.062Z" fill="#E8E0D0"/>
<path d="M271.899 179.218C271.899 182.618 269.143 185.375 265.743 185.375C262.342 185.375 259.586 182.618 259.586 179.218C259.586 175.818 262.343 173.062 265.743 173.062C268.029 173.062 270.023 174.307 271.086 176.157C271.603 177.059 271.899 178.104 271.899 179.218Z" fill="#E8E0D0"/>
<path d="M271.086 176.157L265.742 179.218V173.062C268.028 173.062 270.023 174.307 271.086 176.157Z" fill="#E8E0D0"/>
<path d="M265.743 183.476C268.094 183.476 270.001 181.57 270.001 179.218C270.001 176.866 268.094 174.96 265.743 174.96C263.391 174.96 261.484 176.866 261.484 179.218C261.484 181.57 263.391 183.476 265.743 183.476Z" fill="white"/>
<path d="M196.944 195.997C204.185 195.572 211.493 195.572 218.736 195.997C211.492 196.421 204.186 196.421 196.944 195.997Z" fill="#263238"/>
<path d="M196.944 199.203C203.01 198.779 209.139 198.779 215.205 199.203C209.139 199.627 203.01 199.627 196.944 199.203Z" fill="#263238"/>
<path d="M274.729 209.457C274.512 209.248 177.653 210.069 177.874 209.458C177.873 209.457 177.85 192.463 177.85 192.463L177.85 192.23L178.083 192.23L226.406 192.296C242.536 192.333 258.667 192.309 274.798 192.395C274.827 192.454 274.707 209.391 274.729 209.457ZM274.729 209.457L274.66 192.463C258.996 192.748 242.385 192.524 226.406 192.63C226.624 192.46 176.971 193.082 178.315 192.464C178.315 192.463 178.292 209.457 178.292 209.457C176.973 208.881 275.02 209.641 274.729 209.457Z" fill="#DBDBDB"/>
<path d="M192.897 194.912H180.584V207.226H192.897V194.912Z" fill="#E8E0D0"/>
<path d="M271.899 201.07C271.899 201.376 271.877 201.677 271.831 201.972C271.398 204.944 268.836 207.226 265.743 207.226C262.343 207.226 259.586 204.469 259.586 201.07C259.586 197.67 262.343 194.913 265.743 194.913C268.027 194.913 270.021 196.158 271.086 198.009C271.603 198.91 271.899 199.956 271.899 201.07Z" fill="#E8E0D0"/>
<path d="M271.899 201.07C271.899 201.376 271.877 201.677 271.831 201.972L265.743 201.07V194.913C268.027 194.913 270.021 196.158 271.086 198.009C271.603 198.91 271.899 199.956 271.899 201.07Z" fill="#E8E0D0"/>
<path d="M270 201.069C270 203.421 268.093 205.327 265.741 205.327C263.39 205.327 261.483 203.421 261.483 201.069C261.483 198.717 263.39 196.811 265.741 196.811C268.093 196.811 270 198.718 270 201.069Z" fill="white"/>
<path d="M196.944 217.848C204.185 217.424 211.493 217.424 218.736 217.848C211.492 218.272 204.186 218.272 196.944 217.848Z" fill="#263238"/>
<path d="M196.944 221.054C203.01 220.63 209.139 220.63 215.205 221.054C209.139 221.478 203.01 221.478 196.944 221.054Z" fill="#263238"/>
<path d="M274.729 231.308C274.512 231.098 177.653 231.92 177.874 231.309C177.873 231.308 177.85 214.314 177.85 214.314L177.85 214.081H178.083L226.406 214.146C242.536 214.183 258.667 214.16 274.798 214.245C274.827 214.305 274.707 231.242 274.729 231.308ZM274.729 231.308L274.66 214.314C258.996 214.599 242.385 214.375 226.406 214.481C226.624 214.311 176.971 214.933 178.315 214.314C178.315 214.314 178.292 231.308 178.292 231.308C176.973 230.732 275.02 231.492 274.729 231.308Z" fill="#DBDBDB"/>
<path d="M192.897 216.764H180.584V229.078H192.897V216.764Z" fill="#E8E0D0"/>
<path d="M271.899 222.92C271.899 225.542 270.26 227.783 267.949 228.668C267.263 228.933 266.519 229.077 265.743 229.077C262.343 229.077 259.586 226.32 259.586 222.92C259.586 219.521 262.343 216.764 265.743 216.764C268.029 216.764 270.024 218.009 271.086 219.86C271.603 220.762 271.899 221.807 271.899 222.92Z" fill="#E8E0D0"/>
<path d="M271.899 222.92C271.899 225.542 270.26 227.783 267.949 228.668L265.743 222.92V216.764C268.029 216.764 270.024 218.009 271.086 219.86C271.603 220.762 271.899 221.807 271.899 222.92Z" fill="#E8E0D0"/>
<path d="M270 222.921C270 225.272 268.094 227.179 265.742 227.179C263.39 227.179 261.484 225.272 261.484 222.921C261.484 220.569 263.391 218.662 265.742 218.662C268.093 218.662 270 220.569 270 222.921Z" fill="white"/>
<path d="M284.237 225.331C276.544 235.749 268.524 247.839 266.571 260.903C266.547 261.101 266.863 261.166 266.91 260.969C267.803 257.386 268.932 253.906 270.311 250.509C275.368 249.118 280.332 247.974 282.988 242.955C285.696 237.795 285.352 231.067 284.837 225.447C284.802 225.145 284.393 225.13 284.237 225.331Z" fill="#4692B6"/>
<path d="M270.388 250.411C273.844 242.656 278.28 234.87 283.919 228.494C283.957 228.451 284.016 228.512 283.981 228.556C280.289 233.097 277.484 238.044 274.744 243.076C277.291 240.49 280.082 238.174 282.495 235.432C282.542 235.378 282.618 235.456 282.573 235.51C280.177 238.384 277.56 241.508 274.44 243.636C273.602 245.18 272.758 246.729 271.902 248.278C272.112 248.161 272.328 248.055 272.544 247.95C272.582 247.931 272.615 247.987 272.577 248.006C272.338 248.127 272.103 248.254 271.858 248.358C271.453 249.09 271.051 249.824 270.634 250.555C270.541 250.718 270.314 250.575 270.388 250.411Z" fill="#263238"/>
<path d="M272.958 247.706C275.02 246.524 277.008 245.253 278.863 243.764C278.914 243.724 278.986 243.794 278.935 243.837C277.113 245.379 275.171 246.76 273.043 247.851C272.947 247.9 272.864 247.76 272.958 247.706Z" fill="#263238"/>
<path d="M265.68 258.962C265.696 259.12 265.965 259.117 265.962 258.948C266.002 254.646 265.965 250.324 266.03 246.002C267.132 243.778 269.498 242.547 271.143 240.764C272.329 239.478 273.344 238.027 274.211 236.492C276.246 232.852 277.347 228.759 277.771 224.623C278.225 220.021 276.479 204.835 274.539 205.363C273.533 205.636 270.278 213.158 269.414 215.644C267.999 219.735 267.004 223.974 266.352 228.251C264.78 238.376 264.911 248.773 265.68 258.962Z" fill="#4692B6"/>
<path d="M265.65 240.402C265.657 240.396 265.663 240.39 265.669 240.385C265.905 234.941 267.132 229.444 268.279 224.164C269.516 218.476 270.962 213.12 273.889 208.046C273.944 207.952 274.083 208.035 274.034 208.132C272.042 212.056 270.618 216.223 269.528 220.503C269.724 220.196 269.962 219.905 270.166 219.616C270.247 219.502 270.435 219.608 270.356 219.726C270.069 220.155 269.81 220.655 269.442 221.018C269.429 221.03 269.416 221.032 269.404 221.036C268.396 225.101 267.673 229.26 267.054 233.408C267.1 233.355 267.145 233.298 267.191 233.247C267.223 233.213 267.277 233.257 267.255 233.297C267.178 233.434 267.092 233.571 267.008 233.708C266.696 235.813 266.407 237.915 266.116 239.998C269.865 236.793 273.067 233.017 274.873 228.363C274.882 228.342 274.917 228.35 274.908 228.373C273.139 233.2 270.35 237.491 266.057 240.42C265.978 240.981 265.9 241.542 265.82 242.101C265.804 242.217 265.618 242.186 265.619 242.074C265.621 241.578 265.644 241.08 265.664 240.583C265.61 240.536 265.585 240.456 265.65 240.402Z" fill="#263238"/>
<path d="M267.416 232.514C270.281 228.238 272.957 224.085 275.053 219.359C275.076 219.306 275.167 219.344 275.147 219.399C273.38 224.095 270.906 228.853 267.559 232.625C267.491 232.702 267.358 232.6 267.416 232.514Z" fill="#263238"/>
<path d="M271.223 218.303C272.41 216.203 273.661 214.16 274.778 212.019C274.81 211.959 274.892 212.011 274.867 212.07C273.929 214.259 272.809 216.481 271.406 218.41C271.328 218.518 271.155 218.425 271.223 218.303Z" fill="#263238"/>
<path d="M270.76 219.216C270.784 219.216 270.784 219.254 270.76 219.254C270.736 219.254 270.736 219.216 270.76 219.216Z" fill="#263238"/>
<path d="M262.769 246.519C262.695 249.37 262.388 252.221 261.764 254.996C261.808 255.302 261.852 255.608 261.897 255.924C262.796 252.835 263.265 249.67 263.413 246.475C263.462 246.387 263.482 246.291 263.426 246.183C263.426 246.183 263.426 246.183 263.426 246.174C263.588 241.907 263.192 237.594 262.476 233.372C261.144 225.465 258.233 217.876 252.719 211.951C252.544 211.768 252.195 211.863 252.11 212.076C249.885 217.734 250.661 224.486 252.556 230.13C253.588 233.17 255.06 236.09 256.929 238.704C258.82 241.364 261.232 243.614 262.769 246.519Z" fill="#4692B6"/>
<path d="M253.37 214.599C258.597 223.08 262.233 233.136 262.677 243.155C262.685 243.333 262.386 243.38 262.361 243.198C262.238 242.298 262.1 241.406 261.956 240.517C261.953 240.515 261.95 240.517 261.947 240.514C259.785 238.444 257.566 236.259 256.017 233.671C255.99 233.626 256.056 233.572 256.092 233.613C257.973 235.763 259.728 237.965 261.851 239.882C261.477 237.667 261.034 235.487 260.509 233.339C260.369 233.178 260.233 233.014 260.096 232.853C260.005 232.747 260.156 232.592 260.25 232.698C260.291 232.745 260.334 232.791 260.376 232.837C259.636 229.887 258.731 226.999 257.644 224.162C256.313 222.575 254.826 221.204 253.857 219.292C253.833 219.245 253.897 219.209 253.927 219.251C254.705 220.345 255.459 221.444 256.344 222.459C256.696 222.863 257.083 223.241 257.448 223.635C256.258 220.606 254.847 217.636 253.169 214.717C253.094 214.586 253.292 214.471 253.37 214.599Z" fill="#263238"/>
<path d="M254.427 225.061C256.117 227.335 258.042 229.504 259.612 231.854C259.657 231.921 259.559 231.99 259.503 231.938C257.485 230.045 255.778 227.46 254.314 225.128C254.267 225.054 254.378 224.995 254.427 225.061Z" fill="#263238"/>
<path d="M259.848 232.38L259.92 232.452C259.97 232.503 259.893 232.58 259.843 232.53L259.771 232.458C259.72 232.408 259.798 232.33 259.848 232.38Z" fill="#263238"/>
<path d="M245.182 230.904C245.602 235.268 247.898 240.48 250.697 243.843C251.937 245.33 253.443 246.467 255.169 247.333C257.106 248.291 259.134 249.395 261.138 250.181C262.075 252.572 262.791 255.077 263.251 257.687C263.316 257.469 263.38 257.241 263.444 257.022C262.158 245.974 255.009 236.531 245.864 230.469C245.536 230.25 245.146 230.531 245.182 230.904Z" fill="#4692B6"/>
<path d="M248.342 234.168C248.278 234.111 248.365 233.995 248.435 234.047C253.281 237.637 257.648 242.872 260.087 248.407C260.153 248.559 259.946 248.691 259.86 248.54C259.435 247.795 259.001 247.071 258.56 246.359C258.558 246.359 258.557 246.36 258.554 246.36C256.467 245.967 254.49 244.498 252.941 243.104C252.898 243.066 252.961 243.005 253.003 243.042C253.812 243.755 254.68 244.407 255.644 244.897C256.495 245.329 257.41 245.602 258.297 245.947C257.523 244.72 256.717 243.542 255.875 242.4C253.629 241.635 251.49 240.256 249.602 238.874C249.543 238.831 249.596 238.733 249.661 238.773C251.586 239.931 253.483 240.951 255.492 241.89C254.226 240.214 252.857 238.626 251.376 237.091C250.667 236.716 249.947 236.34 249.26 235.939C249.204 235.906 249.24 235.811 249.304 235.832C249.852 236.014 250.41 236.301 250.928 236.63C250.102 235.795 249.252 234.972 248.342 234.168Z" fill="#263238"/>
<path d="M248.536 237.983C248.663 238.063 248.776 238.135 248.888 238.234C248.922 238.264 248.879 238.307 248.844 238.292C248.71 238.233 248.6 238.163 248.477 238.084C248.414 238.043 248.473 237.942 248.536 237.983Z" fill="#263238"/>
<path d="M277.716 281.612H252.658L254.68 258.792L255.124 253.76H275.249L275.693 258.792L277.716 281.612Z" fill="#455A64"/>
<path d="M275.693 258.792H254.68L255.124 253.76H275.249L275.693 258.792Z" fill="#263238"/>
<path d="M276.448 250.241H253.926V255.221H276.448V250.241Z" fill="#455A64"/>
<path d="M160.717 61.836C160.717 73.6633 151.124 83.2564 139.297 83.2564C134.517 83.2564 130.104 81.689 126.536 79.0324L116.043 81.7114L120.411 71.9404C118.788 68.928 117.877 65.4821 117.877 61.836C117.877 50.0086 127.47 40.4155 139.297 40.4155C151.124 40.4161 160.717 50.0086 160.717 61.836Z" fill="white"/>
<path d="M160.717 61.836C160.75 70.4109 155.476 78.3041 147.613 81.6672C140.734 84.6068 132.414 83.7136 126.404 79.2097L126.591 79.247L116.111 81.9758L115.563 82.1182L115.793 81.5994L120.138 71.8179L120.148 72.0822C118.576 69.193 117.699 65.9313 117.595 62.6459C117.148 52.6198 124.256 43.1605 134.051 40.9144C147.426 37.4953 160.836 48.0581 160.717 61.836ZM160.717 61.836C160.765 48.101 147.432 37.6769 134.133 41.2453C124.651 43.5268 117.692 52.8991 118.192 62.6241C118.318 65.8181 119.171 68.9778 120.675 71.798L120.744 71.9292L120.685 72.0629L116.292 81.8227L115.976 81.4464L126.481 78.8172L126.585 78.7911C132.828 83.6533 141.837 84.4718 148.882 80.8897C156.034 77.4451 160.72 69.7609 160.717 61.836Z" fill="#263238"/>
<path d="M135.827 74.5814L126.227 64.8645L129.452 61.6786L135.06 67.3544L146.71 49.0906L150.532 51.5282L135.827 74.5814Z" fill="#4692B6"/>
<path d="M128.109 142.129C131.232 141.579 133.968 139.341 134.868 136.243C135.749 133.198 134.692 129.877 132.416 127.741C135.714 126.933 138.511 124.588 138.713 120.89C138.923 117.064 136.161 114.163 132.557 113.417C132.531 113.411 132.516 113.454 132.543 113.463C135.747 114.498 138.343 117.302 138.103 120.83C137.897 123.846 135.97 125.692 133.51 126.699C135.362 124.998 136.707 122.716 136.731 120.147C136.755 117.329 135.078 114.605 132.478 113.545C133.76 110.607 134.107 107.025 132.429 104.169C131.02 101.765 128.283 100.244 125.525 100.614C126.204 97.5059 124.999 94.0576 122.328 92.2252C119.823 90.4997 116.491 90.4493 113.865 91.8694C114.541 87.1123 109.971 83.1769 105.32 84.6156C105.278 82.8846 104.092 81.3762 102.478 80.6958C100.62 79.9052 98.5553 80.3387 96.7334 81.0814C95.6885 79.6346 93.9817 78.6674 92.148 78.7781C89.6992 78.9268 87.8973 80.8556 87.6429 83.1794C84.5292 82.428 81.0453 82.0468 78.1338 83.6179C75.7397 84.9117 73.9458 87.5011 74.2655 90.2646C68.517 89.6663 63.5659 94.1764 63.6237 99.9715C61.262 100.39 59.3469 102.152 58.5308 104.417C57.7091 106.698 57.7968 108.403 57.9144 109.206C55.8208 109.748 54.3335 111.656 54.2029 113.818C54.0736 115.945 55.1123 117.653 56.541 119.053C56.6642 119.582 56.6878 120.106 56.5566 120.76C55.9694 123.706 56.7556 126.602 58.8406 128.762C57.0641 131.824 58.6017 136.03 61.9238 137.231C61.1401 140.75 63.6225 144.476 67.1567 145.134C66.8438 147.954 67.719 150.829 69.6727 152.924C71.1686 154.529 73.5266 155.674 75.629 154.852C75.5892 156.579 77.3538 157.808 79.0257 157.941C79.6601 157.992 80.3002 157.93 80.9265 157.841C81.6711 157.729 82.5941 157.39 83.3436 157.553C84.1224 157.714 84.6672 158.457 85.2706 158.91C85.7041 159.235 86.1775 159.514 86.6707 159.742C90.4089 161.448 95.133 160.183 97.4717 156.836C99.8142 158.579 102.938 157.928 105.347 156.552C106.141 156.098 106.825 155.539 107.524 154.958C108.169 154.42 108.763 153.991 109.634 153.888C110.16 153.827 110.697 153.886 111.225 153.829C113.019 153.631 114.232 152.394 115.285 151.047C121.73 155.456 128.957 149.227 128.109 142.129ZM54.8728 114.809C54.662 112.469 55.8879 110.483 57.953 109.449C57.9853 109.614 58.0133 109.721 58.0133 109.721C58.0133 109.721 57.4616 110.21 57.2196 110.478C56.7849 110.97 56.4278 111.53 56.1523 112.128C55.5794 113.371 55.3729 114.792 55.595 116.142C55.6945 116.75 55.8966 117.322 56.1392 117.883C56.1722 117.959 56.1927 118.023 56.2226 118.095C55.5228 117.131 54.9879 116.087 54.8728 114.809ZM93.1812 80.2647C91.0477 80.1117 88.9503 81.329 88.1131 83.2895C88.0584 83.2758 88.0005 83.264 87.9452 83.2503C88.5212 81.12 89.6358 79.3361 92.1897 79.2254C93.9736 79.1482 95.24 80.0613 96.1463 81.3315C96.1363 81.3358 96.1264 81.3402 96.1164 81.3445C95.2667 80.7368 94.2809 80.34 93.1812 80.2647ZM115.497 150.774C115.513 150.753 115.529 150.733 115.545 150.713C120.477 152.414 125.554 149.771 127.279 145.249C125.727 150.373 121.413 153.904 115.497 150.774Z" fill="#263238"/>
<path d="M95.8533 179.642C108.451 206.601 129.81 243.101 139.612 244.623C145.535 245.543 155.55 246.341 163.159 239.172C179.765 223.529 191.143 201.177 197.453 189.703C200.317 184.494 168.303 161.305 164.275 166.222C154.841 177.733 144.2 200.033 142.454 199.964C135.992 199.709 126.415 183.99 110.774 169.412C91.9329 151.851 90.4699 168.122 95.8533 179.642Z" fill="#AD6359"/>
<path d="M192.887 197.002C200.798 188.56 211.187 175.982 211.212 170.691C211.238 165.138 210.547 145.611 208.923 141.124C207.299 136.638 198.609 125.072 194.626 123.547C191.436 122.326 189.727 126.273 193.436 133.438C197.583 141.451 196.317 144.683 196.507 147.249C196.705 149.914 192.251 161.232 188.508 162.192C186.302 162.758 181.724 162.733 180.684 158.755C179.644 154.778 180.692 151.174 179.146 144.235C177.944 138.84 173.432 135.485 171.574 136.428C169.715 137.372 171.255 140.603 170.03 148.69C169.266 153.734 168.521 157.354 162.507 164.724C157.244 171.175 156.919 180.109 156.919 180.109L192.887 197.002Z" fill="#AD6359"/>
<path d="M211.58 158.246C211.362 155.203 213.437 145.983 212.722 141.963C212.005 137.943 207.287 123.158 202.788 121.952C197.134 120.437 198.815 132.462 200.02 137.616C201.224 142.77 197.92 152.068 197.92 152.068L205.704 155.376L211.58 158.246Z" fill="#AD6359"/>
<path d="M196.79 154.187C198.184 149.513 199.914 144.759 199.976 139.841C199.739 136.324 199.032 132.859 198.865 129.312C198.819 127.212 198.684 124.914 199.751 123.013C200.118 122.387 200.773 121.931 201.48 121.852C200.782 122.002 200.208 122.484 199.893 123.096C199.005 125.01 199.214 127.22 199.342 129.28C199.579 132.083 200.041 134.866 200.4 137.682C201.129 143.392 198.815 148.969 196.79 154.187Z" fill="#263238"/>
<path d="M211.316 160.894C211.95 157.93 216.475 149.745 216.906 145.705C217.337 141.665 216.943 126.203 213.001 123.749C208.046 120.664 206.317 132.614 206.036 137.876C205.754 143.138 200.041 151.042 200.041 151.042L206.525 156.453L211.316 160.894Z" fill="#AD6359"/>
<path d="M198.381 152.735C201.004 148.676 203.972 144.633 205.381 139.966C206.123 136.552 206.411 133.06 207.232 129.637C207.768 127.625 208.271 125.398 209.815 123.885C210.337 123.389 211.092 123.144 211.785 123.275C211.08 123.215 210.396 123.508 209.929 124.005C208.553 125.58 208.145 127.743 207.699 129.739C207.151 132.472 206.82 135.249 206.385 138.029C205.514 143.657 201.758 148.345 198.381 152.735Z" fill="#263238"/>
<path d="M199.441 159.876C195.81 162.881 190.744 164.004 186.135 164.307C182.631 164.49 179.154 165.254 176.032 166.888C174.971 167.392 173.981 168.029 172.976 168.649C176.64 165.601 181.344 163.92 186.089 163.699C190.711 163.374 195.513 162.447 199.441 159.876Z" fill="#263238"/>
<path d="M210.931 125.162L194.473 169.741C194.019 170.973 192.633 171.77 191.384 171.522L169.024 167.069C167.775 166.821 167.131 165.619 167.585 164.387L184.043 119.808C184.499 118.574 185.88 117.778 187.129 118.027L209.49 122.479C210.739 122.728 211.387 123.928 210.931 125.162Z" fill="#37474F"/>
<path d="M208.123 122.208L185.762 117.754C184.513 117.505 183.131 118.301 182.676 119.535L166.218 164.114C165.764 165.345 166.408 166.547 167.656 166.796L190.018 171.249C191.266 171.498 192.651 170.7 193.106 169.468L209.564 124.889C210.02 123.656 209.372 122.456 208.123 122.208ZM192.2 167.809C191.767 168.983 190.509 169.751 189.39 169.528L169.385 165.544C168.263 165.321 167.706 164.191 168.14 163.018L183.465 121.506C184.347 119.116 185.298 119.18 186.419 119.403L190.427 120.201C190.659 120.247 190.755 120.541 190.638 120.859L190.588 120.996C190.313 121.74 190.733 121.826 191.248 121.929L200.515 123.774C201.036 123.878 201.455 123.958 201.73 123.215L201.78 123.078C201.897 122.76 202.18 122.541 202.416 122.588L206.423 123.386C207.541 123.609 208.331 124.108 207.523 126.297L192.2 167.809Z" fill="#263238"/>
<path d="M207.525 126.298L192.2 167.809C191.767 168.983 190.509 169.751 189.39 169.529L169.385 165.545C168.263 165.321 167.706 164.191 168.14 163.018L183.465 121.507C184.347 119.116 185.298 119.18 186.419 119.404L190.427 120.202C190.659 120.248 190.755 120.542 190.638 120.86L190.588 120.996C190.313 121.741 190.733 121.827 191.248 121.929L200.515 123.775C201.036 123.879 201.455 123.959 201.73 123.215L201.78 123.078C201.897 122.76 202.18 122.542 202.416 122.589L206.423 123.387C207.543 123.61 208.333 124.108 207.525 126.298Z" fill="white"/>
<path d="M189.391 120.996C189.374 121.006 189.356 121.016 189.339 121.026C189.329 121.031 189.319 121.037 189.309 121.043C189.241 120.924 189.137 120.847 188.992 120.819C188.847 120.79 188.704 120.817 188.562 120.894C188.558 120.886 188.554 120.878 188.549 120.869C188.541 120.854 188.533 120.839 188.525 120.824L188.524 120.824L188.525 120.823C188.526 120.822 188.528 120.822 188.529 120.821C188.551 120.811 188.572 120.799 188.594 120.789C188.638 120.768 188.685 120.753 188.733 120.741C188.789 120.728 188.845 120.722 188.901 120.722C188.927 120.723 188.953 120.725 188.979 120.727C188.988 120.728 189.044 120.739 189.045 120.739C189.062 120.743 189.079 120.748 189.095 120.753C189.14 120.767 189.182 120.787 189.221 120.812C189.248 120.83 189.275 120.85 189.298 120.873C189.323 120.896 189.346 120.922 189.365 120.95C189.375 120.965 189.383 120.98 189.393 120.994C189.392 120.995 189.391 120.996 189.391 120.996Z" fill="#C7C7C7"/>
<path d="M188.641 121.036C188.628 121.013 188.615 120.989 188.602 120.965C188.696 120.913 188.794 120.887 188.896 120.894C189.048 120.904 189.156 120.971 189.226 121.089C189.198 121.105 189.171 121.12 189.143 121.136C189.097 121.057 189.027 121.005 188.929 120.986C188.832 120.966 188.735 120.985 188.641 121.036Z" fill="#C7C7C7"/>
<path d="M189.059 121.183C189.032 121.199 189.005 121.214 188.977 121.23C188.954 121.19 188.918 121.162 188.867 121.153C188.817 121.143 188.768 121.153 188.72 121.179C188.707 121.155 188.694 121.131 188.681 121.108C188.814 121.029 188.991 121.056 189.059 121.183Z" fill="#C7C7C7"/>
<path d="M188.884 121.268C188.873 121.298 188.84 121.317 188.809 121.311C188.779 121.304 188.763 121.276 188.774 121.247C188.784 121.217 188.818 121.198 188.849 121.204C188.879 121.211 188.895 121.239 188.884 121.268Z" fill="#C7C7C7"/>
<path d="M185.574 120.358C185.605 120.272 185.702 120.218 185.79 120.235C185.878 120.253 185.924 120.336 185.893 120.421C185.862 120.506 185.765 120.561 185.676 120.544C185.588 120.526 185.542 120.443 185.574 120.358Z" fill="#C7C7C7"/>
<path d="M186.076 120.457C186.108 120.372 186.204 120.317 186.293 120.335C186.381 120.352 186.426 120.436 186.395 120.521C186.364 120.606 186.267 120.661 186.179 120.643C186.091 120.626 186.045 120.543 186.076 120.457Z" fill="#C7C7C7"/>
<path d="M186.578 120.557C186.61 120.472 186.706 120.417 186.795 120.435C186.883 120.452 186.928 120.536 186.897 120.621C186.866 120.706 186.769 120.761 186.681 120.743C186.593 120.726 186.547 120.643 186.578 120.557Z" fill="#C7C7C7"/>
<path d="M187.08 120.658C187.112 120.572 187.208 120.518 187.297 120.535C187.385 120.552 187.43 120.636 187.399 120.721C187.368 120.806 187.271 120.861 187.183 120.843C187.095 120.826 187.049 120.743 187.08 120.658Z" fill="#C7C7C7"/>
<path d="M187.583 120.758C187.614 120.672 187.711 120.618 187.799 120.635C187.888 120.652 187.933 120.736 187.902 120.821C187.871 120.906 187.774 120.961 187.685 120.944C187.597 120.926 187.551 120.843 187.583 120.758Z" fill="#C7C7C7"/>
<path d="M206.136 124.814L204.838 124.556L205.053 123.973L206.351 124.232L206.136 124.814ZM204.927 124.505L206.093 124.737L206.261 124.283L205.095 124.051L204.927 124.505Z" fill="#C7C7C7"/>
<path d="M205.96 124.26L205.124 124.094L204.981 124.479L205.819 124.645L205.96 124.26Z" fill="#C7C7C7"/>
<path d="M206.302 124.702L206.186 124.679L206.301 124.367L206.417 124.39L206.302 124.702Z" fill="#C7C7C7"/>
<path d="M197.49 122.175L194.962 121.672C194.876 121.655 194.831 121.573 194.862 121.49C194.893 121.406 194.988 121.352 195.074 121.37L197.602 121.873C197.688 121.89 197.733 121.972 197.702 122.055C197.671 122.139 197.576 122.192 197.49 122.175Z" fill="white"/>
<path d="M171.387 163.321L171.269 163.298L171.076 163.821L170.856 163.777L170.954 163.51L170.565 163.433L170.467 163.699L170.246 163.656L170.44 163.132L170.322 163.109L171.051 162.682L171.387 163.321Z" fill="#EBEBEB"/>
<path d="M190.577 166.762L189.295 166.506L189.36 166.329L190.643 166.584L190.577 166.762Z" fill="#EBEBEB"/>
<path d="M190.415 167.201L189.132 166.945L189.198 166.768L190.481 167.023L190.415 167.201Z" fill="#EBEBEB"/>
<path d="M190.253 167.64L188.97 167.384L189.036 167.207L190.318 167.462L190.253 167.64Z" fill="#EBEBEB"/>
<path d="M180.756 165.201L180.253 165.506L180.027 165.056L180.113 165.01L180.299 165.381L180.713 165.13L180.756 165.201Z" fill="#EBEBEB"/>
<path d="M180.108 165.895C179.743 165.822 179.552 165.475 179.683 165.121C179.813 164.767 180.217 164.539 180.582 164.611C180.947 164.684 181.139 165.031 181.008 165.385C180.878 165.74 180.474 165.968 180.108 165.895ZM180.551 164.696C180.234 164.633 179.884 164.832 179.77 165.139C179.657 165.446 179.823 165.747 180.14 165.81C180.457 165.874 180.807 165.675 180.921 165.368C181.034 165.061 180.868 164.76 180.551 164.696Z" fill="#EBEBEB"/>
<path d="M185.025 124.544L184.552 123.757L185.502 123.253L185.571 123.389L184.788 123.804L185.178 124.452L185.025 124.544Z" fill="#DBDBDB"/>
<path d="M205.19 127.435C205.162 127.509 205.077 127.558 205 127.542C204.923 127.527 204.882 127.454 204.91 127.379C204.937 127.304 205.022 127.256 205.1 127.271C205.177 127.287 205.217 127.36 205.19 127.435Z" fill="#DBDBDB"/>
<path d="M205.012 127.917C204.984 127.991 204.899 128.04 204.822 128.024C204.745 128.009 204.705 127.936 204.732 127.861C204.759 127.786 204.844 127.738 204.922 127.753C204.999 127.769 205.039 127.842 205.012 127.917Z" fill="#DBDBDB"/>
<path d="M204.834 128.399C204.807 128.474 204.721 128.522 204.644 128.507C204.567 128.491 204.527 128.418 204.554 128.343C204.581 128.268 204.667 128.22 204.744 128.235C204.821 128.251 204.861 128.324 204.834 128.399Z" fill="#DBDBDB"/>
<path d="M190.613 125.05C193.412 125.501 196.194 126.055 198.922 126.704C196.122 126.253 193.339 125.699 190.613 125.05Z" fill="#DBDBDB"/>
<path d="M182.78 127.118C184.814 127.415 186.828 127.816 188.789 128.314C186.754 128.017 184.741 127.616 182.78 127.118Z" fill="#DBDBDB"/>
<path d="M198.586 132.625C199.976 132.795 201.345 133.067 202.661 133.437C201.271 133.267 199.901 132.995 198.586 132.625Z" fill="#DBDBDB"/>
<path d="M198.423 133.065C199.813 133.234 201.182 133.507 202.498 133.877C201.108 133.708 199.739 133.435 198.423 133.065Z" fill="#DBDBDB"/>
<path d="M182.555 127.729C183.871 127.883 185.166 128.141 186.409 128.497C185.092 128.342 183.797 128.084 182.555 127.729Z" fill="#DBDBDB"/>
<path d="M191.004 131.253L187.218 136.619L185.03 142.548C181.651 141.875 179.891 138.673 181.099 135.401C182.307 132.128 186.028 130.019 189.407 130.691C189.991 130.807 190.525 131.001 191.004 131.253Z" fill="#4692B6"/>
<path d="M189.081 142.116C187.799 142.64 186.387 142.818 185.029 142.548L187.218 136.619L189.081 142.116Z" fill="#263238"/>
<path d="M193.339 137.838C192.616 139.798 190.993 141.339 189.081 142.116L187.218 136.619L193.353 133.841C193.83 135.028 193.86 136.427 193.339 137.838Z" fill="#37474F"/>
<path d="M194.18 133.542L187.133 136.734L191.482 130.57C192.747 131.241 193.68 132.288 194.18 133.542Z" fill="#C7C7C7"/>
<path d="M190.279 137.229C189.674 138.866 187.814 139.92 186.124 139.584C184.433 139.247 183.553 137.648 184.157 136.01C184.762 134.373 186.622 133.319 188.312 133.656C190.002 133.992 190.883 135.592 190.279 137.229Z" fill="white"/>
<path d="M197.767 133.041L197.109 132.91L197.344 132.272L198.003 132.403L197.767 133.041Z" fill="#4692B6"/>
<path d="M197.968 134.297C199.358 134.467 200.727 134.739 202.043 135.109C200.653 134.94 199.284 134.667 197.968 134.297Z" fill="#DBDBDB"/>
<path d="M197.806 134.738C199.196 134.907 200.565 135.179 201.881 135.55C200.49 135.38 199.122 135.107 197.806 134.738Z" fill="#DBDBDB"/>
<path d="M197.15 134.713L196.492 134.582L196.727 133.944L197.385 134.075L197.15 134.713Z" fill="#263238"/>
<path d="M197.351 135.97C198.741 136.139 200.11 136.412 201.426 136.782C200.036 136.612 198.667 136.339 197.351 135.97Z" fill="#DBDBDB"/>
<path d="M197.188 136.41C198.578 136.579 199.948 136.851 201.263 137.221C199.873 137.052 198.504 136.78 197.188 136.41Z" fill="#DBDBDB"/>
<path d="M196.533 136.385L195.875 136.254L196.11 135.617L196.768 135.748L196.533 136.385Z" fill="#37474F"/>
<path d="M196.734 137.642C198.124 137.811 199.493 138.083 200.808 138.454C199.418 138.284 198.05 138.012 196.734 137.642Z" fill="#DBDBDB"/>
<path d="M196.571 138.082C197.961 138.251 199.33 138.524 200.646 138.894C199.256 138.725 197.887 138.452 196.571 138.082Z" fill="#DBDBDB"/>
<path d="M195.916 138.057L195.257 137.927L195.493 137.289L196.151 137.42L195.916 138.057Z" fill="#C7C7C7"/>
<path d="M183.856 164.121L182.416 163.834L187.465 150.161L188.904 150.448L183.856 164.121Z" fill="#EBEBEB"/>
<path d="M176.962 143.265C180.84 143.932 184.899 144.742 188.709 145.605C184.825 144.935 180.768 144.13 176.962 143.265Z" fill="#263238"/>
<path d="M176.682 144.025C178.888 144.357 181.076 144.793 183.209 145.325C181.002 144.993 178.814 144.558 176.682 144.025Z" fill="#263238"/>
<path d="M193.575 146.574C195.131 146.804 196.663 147.109 198.164 147.487C196.608 147.258 195.076 146.952 193.575 146.574Z" fill="#4692B6"/>
<path d="M174.187 155.924L173.716 155.83L176.463 148.391L176.934 148.485L174.187 155.924Z" fill="#4692B6"/>
<path d="M172.184 161.351L171.712 161.257L173.479 156.473L173.95 156.567L172.184 161.351Z" fill="#455A64"/>
<path d="M177.591 153.302L177.119 153.208L178.73 148.843L179.202 148.936L177.591 153.302Z" fill="#4692B6"/>
<path d="M174.452 161.802L173.981 161.708L176.882 153.851L177.353 153.944L174.452 161.802Z" fill="#455A64"/>
<path d="M180.729 151.396L180.257 151.302L180.999 149.294L181.47 149.388L180.729 151.396Z" fill="#4692B6"/>
<path d="M176.721 162.254L176.249 162.16L180.02 151.945L180.492 152.039L176.721 162.254Z" fill="#455A64"/>
<path d="M181.697 155.372L181.225 155.278L183.267 149.746L183.739 149.84L181.697 155.372Z" fill="#4692B6"/>
<path d="M178.989 162.705L178.518 162.611L180.988 155.92L181.459 156.014L178.989 162.705Z" fill="#455A64"/>
<path d="M184.396 154.657L183.924 154.563L185.536 150.198L186.007 150.291L184.396 154.657Z" fill="#4692B6"/>
<path d="M181.258 163.157L180.786 163.064L183.687 155.206L184.158 155.3L181.258 163.157Z" fill="#455A64"/>
<path d="M184.761 160.263L184.289 160.169L187.804 150.65L188.275 150.743L184.761 160.263Z" fill="#4692B6"/>
<path d="M183.525 163.609L183.054 163.515L184.052 160.812L184.523 160.906L183.525 163.609Z" fill="#455A64"/>
<path d="M189.051 155.239L188.579 155.145L190.072 151.101L190.543 151.195L189.051 155.239Z" fill="#4692B6"/>
<path d="M185.794 164.061L185.322 163.967L188.342 155.788L188.814 155.882L185.794 164.061Z" fill="#455A64"/>
<path d="M188.599 163.06L188.127 162.966L192.34 151.553L192.812 151.647L188.599 163.06Z" fill="#4692B6"/>
<path d="M188.062 164.512L187.591 164.418L187.89 163.609L188.361 163.703L188.062 164.512Z" fill="#455A64"/>
<path d="M194.178 154.543L193.706 154.449L194.609 152.004L195.08 152.098L194.178 154.543Z" fill="#4692B6"/>
<path d="M190.331 164.964L189.859 164.871L193.469 155.092L193.94 155.186L190.331 164.964Z" fill="#455A64"/>
<path d="M178.616 146.272C180.006 146.441 181.375 146.714 182.691 147.084C181.301 146.914 179.932 146.642 178.616 146.272Z" fill="#DBDBDB"/>
<path d="M178.454 146.712C179.844 146.881 181.213 147.154 182.528 147.524C181.138 147.354 179.77 147.082 178.454 146.712Z" fill="#DBDBDB"/>
<path d="M177.798 146.688L177.139 146.557L177.375 145.919L178.033 146.05L177.798 146.688Z" fill="#4692B6"/>
<path d="M185.421 147.627C186.811 147.796 188.18 148.069 189.496 148.439C188.106 148.269 186.737 147.997 185.421 147.627Z" fill="#DBDBDB"/>
<path d="M185.258 148.067C186.649 148.236 188.018 148.509 189.333 148.879C187.943 148.71 186.574 148.437 185.258 148.067Z" fill="#DBDBDB"/>
<path d="M184.603 148.043L183.945 147.912L184.18 147.274L184.838 147.405L184.603 148.043Z" fill="#455A64"/>
<path d="M210.028 174.369C211.289 171.687 215.578 161.136 215.824 156.667C216.07 152.198 214.732 135.168 210.196 132.604C204.496 129.384 203.263 142.62 203.255 148.431C203.248 154.242 198.065 160.402 198.065 160.402L206.383 167.762L210.028 174.369Z" fill="#AD6359"/>
<path d="M204 139.322C204.105 141.238 204.002 143.206 203.913 145.118C203.829 146.931 203.88 148.825 203.524 150.605C203.166 152.392 202.393 154.028 201.476 155.587C201.025 156.354 200.53 157.084 200.012 157.808C199.447 158.596 198.801 159.336 198.251 160.133C198.192 160.217 198.052 160.135 198.11 160.048C199.075 158.587 199.874 156.943 200.637 155.366C201.431 153.726 202.037 151.954 202.399 150.163C203.123 146.579 203.061 142.874 203.751 139.285C203.778 139.14 203.993 139.186 204 139.322Z" fill="#263238"/>
<path d="M203.524 150.605C203.465 146.535 202.398 129.635 209.693 132.135C213.762 134.501 214.872 143.347 215.34 147.71C214.56 143.647 213.153 134.822 209.437 132.672C203.153 130.627 203.907 146.904 203.524 150.605Z" fill="#263238"/>
<path d="M156.581 175.376L192.684 205.117C192.684 205.117 173.482 234.446 160.462 242.721C154.319 246.626 141.852 246.64 137.697 245.089C133.818 243.641 112.037 221.912 95.7384 182.788C83.0788 152.398 103.241 159.85 110.809 167.732C118.961 176.224 140.453 198.001 141.638 197.644C142.823 197.287 156.581 175.376 156.581 175.376Z" fill="#4692B6"/>
<path d="M151.894 186.151C157.332 190.394 162.639 194.795 167.915 199.231C170.503 201.406 180.445 210.431 183.31 212.975C183.423 213.076 183.151 213.371 183.03 213.278C180.209 211.109 169.7 202.263 167.149 200.045C161.955 195.53 156.791 190.983 151.769 186.284C151.68 186.201 151.799 186.077 151.894 186.151Z" fill="#263238"/>
<path opacity="0.1" d="M156.745 244.417C150.229 246.586 141.127 246.372 137.701 245.089C133.818 243.638 112.035 221.906 95.7345 182.795C88.788 166.127 91.7176 160.839 97.037 160.773C104.722 171.478 136.671 216.131 156.745 244.417Z" fill="black"/>
<path d="M132.985 281.594H37.6839C42.3538 259.019 62.6802 177.742 79.2577 165.695C89.4473 158.292 102.914 163.427 105.203 166.584C114.603 179.56 130.252 260.831 132.985 281.594Z" fill="#EBEBEB"/>
<path d="M106.776 168.989C106.766 168.948 106.695 168.957 106.7 168.999C107.164 172.965 107.937 182.18 100.691 182.077C97.7722 182.035 95.0497 180.633 92.7657 179.234C90.4208 177.798 88.314 176.093 86.3964 174.246C84.2686 172.198 82.0772 170.047 80.3811 167.707C80.3089 167.607 80.1316 167.727 80.2094 167.827C82.0312 170.152 83.5725 172.592 85.6594 174.76C87.6672 176.846 89.9331 178.763 92.5374 180.29C94.9788 181.721 97.8736 183.11 100.959 183.026C103.894 182.946 105.956 181.246 106.711 178.851C107.702 175.704 107.483 172.106 106.776 168.989Z" fill="#263238"/>
<path d="M82.2962 162.525C82.2962 162.525 88.6132 196.244 89.8075 208.769C91.0017 221.294 87.2013 281.594 87.2013 281.594L36.0835 281.592C36.0835 281.592 51.5719 207.434 66.7667 178.715C75.2496 162.682 82.2962 162.525 82.2962 162.525Z" fill="#4692B6"/>
<path d="M104.092 164.814C104.092 164.814 114.299 202.96 114.969 207.012C115.639 211.064 119.03 281.903 119.03 281.903L135.734 281.786C135.734 281.786 118.148 175.031 104.092 164.814Z" fill="#4692B6"/>
<path d="M66.304 176.164C44.7865 205.137 20.7425 263.095 28.1548 273.116C36.4113 284.277 66.3419 243.696 65.9146 241.632C65.5912 240.072 73.312 205.836 79.3119 180.88C85.3054 155.949 71.6246 169 66.304 176.164Z" fill="#AD6359"/>
<path d="M66.1541 241.638C66.7331 238.012 77.4303 192.793 80.3064 178.565C83.1819 164.338 78.1586 160.766 66.2455 175.103C54.3317 189.441 30.2367 235.129 26.5016 258.103C22.9039 280.234 33.8206 278.698 46.8509 266.896C57.5182 257.234 66.1541 241.638 66.1541 241.638Z" fill="#4692B6"/>
<path d="M66.1541 241.638C69.2522 224.086 73.182 206.689 77.9472 189.514C74.8565 207.064 70.9124 224.465 66.1541 241.638Z" fill="#263238"/>
<path d="M78.5511 192.084C78.4429 194.433 77.4552 196.726 75.953 198.524C76.6882 196.341 77.62 194.201 78.5511 192.084Z" fill="#263238"/>
<path d="M28.1548 273.116C34.9409 280.401 50.5357 279.778 89.9493 281.894C95.403 282.187 107.824 244.254 102.016 243.642C94.7001 242.871 66.1429 241.464 64.0418 241.624C46.3185 242.981 23.5514 268.175 28.1548 273.116Z" fill="#AD6359"/>
<path d="M95.1237 244.999C95.1237 244.999 109.629 240.313 118.013 240.211C129.238 240.074 138.986 244.577 142.957 246.711C151.246 251.165 168.209 267.665 164.309 273.38C160.779 278.553 144.292 260.811 144.292 260.811C144.292 260.811 164.087 276.127 158.691 281.574C153.295 287.022 135.328 265.337 135.328 265.337C135.328 265.337 155.314 281.53 148.861 286.267C143.984 289.846 126.604 271.123 126.604 271.123C126.604 271.123 143.686 285.16 138.83 289.058C133.463 293.365 116.336 277.088 116.336 277.088C102.324 284.918 92.4491 282.913 85.594 280.651C83.9345 280.103 95.1237 244.999 95.1237 244.999Z" fill="#AD6359"/>
<path d="M137.785 255.075C140.176 256.79 142.607 258.51 144.836 260.431C147.066 262.353 149.231 264.354 151.272 266.474C156.277 271.675 158.598 275.715 158.428 275.481C154.394 269.949 146.519 262.947 144.288 261.025C142.064 259.107 139.934 257.078 137.71 255.157C137.653 255.11 137.728 255.035 137.785 255.075Z" fill="#263238"/>
<path d="M130.7 263C133.658 265.322 136.679 267.518 139.534 269.972C142.376 272.414 144.859 274.978 147.525 277.609C147.731 277.811 147.555 277.855 147.34 277.66C144.571 275.137 141.816 273.02 139.018 270.531C136.229 268.051 133.516 265.443 130.639 263.066C130.594 263.03 130.655 262.965 130.7 263Z" fill="#263238"/>
<path d="M123.397 268.709C128.098 272.025 132.182 276.206 136.09 280.402C136.285 280.611 136.051 280.642 135.839 280.441C131.693 276.474 128.469 273.333 123.281 268.872C123.2 268.803 123.298 268.639 123.397 268.709Z" fill="#263238"/>
<path d="M97.4879 242.494L69.1471 284.646C69.1471 284.646 34.0676 281.626 27.8345 273.615C23.7318 268.342 46.0442 241.505 65.7417 241.496L97.4879 242.494Z" fill="#4692B6"/>
<path d="M43.5555 250.826C46.3539 248.13 54.3833 241.634 65.7647 241.463C65.8648 241.461 65.8897 241.62 65.7883 241.632C57.3229 242.58 46.5635 248.59 43.6495 250.955C43.573 251.017 43.4853 250.894 43.5555 250.826Z" fill="#263238"/>
<path d="M59.0769 279.674C61.9456 274.872 65.0662 270.228 68.201 265.593C71.3372 260.955 74.4652 256.309 77.7176 251.749C79.555 249.173 81.3781 246.584 83.3051 244.072C83.3555 244.006 83.478 244.074 83.4338 244.149C80.5726 248.944 77.4664 253.606 74.3682 258.254C71.2625 262.913 68.1053 267.543 64.9069 272.141C63.0994 274.739 61.2452 277.305 59.3195 279.818C59.2237 279.942 58.993 279.814 59.0769 279.674Z" fill="#263238"/>
<path d="M97.4798 242C95.3327 241.609 93.1582 241.552 90.9793 241.452C88.8029 241.353 86.6247 241.291 84.4465 241.249C80.1142 241.166 70.9428 240.496 63.1224 241.618C63.036 241.63 63.5379 241.987 63.6231 241.971C67.3197 241.246 94.7617 242.8 96.976 242.648C96.9101 242.803 96.8473 242.958 96.8031 243.127C96.7733 243.24 96.9008 243.365 97.0053 243.272C97.2541 243.048 97.417 242.79 97.6472 242.551C97.8362 242.353 97.7579 242.051 97.4798 242Z" fill="#263238"/>
<path d="M36.7148 278.648C40.1881 279.37 45.0509 280.786 48.5222 281.694C44.4282 281.526 40.4387 280.303 36.7148 278.648Z" fill="#263238"/>
<path d="M100.011 178.766C94.8469 179.397 85.0206 172.3 82.2328 164.711C82.0443 164.189 83.5421 159.231 85.0766 153.12C85.9934 149.408 86.9264 145.253 87.5042 141.4C87.6187 140.608 110.789 150.894 110.789 150.894C110.789 150.894 107.202 158.614 106.236 165.338C106.161 165.901 106.139 166.432 106.165 166.944C106.162 167.018 106.17 167.109 106.16 167.212C106.2 170.287 105.537 178.091 100.011 178.766Z" fill="#AD6359"/>
<path d="M106.172 166.943C106.164 167.021 106.168 167.116 106.157 167.21C105.387 167.199 104.561 167.119 103.665 166.968C89.489 164.521 88.4049 146.156 88.3582 141.535C92.5598 142.794 110.79 150.893 110.79 150.893C110.79 150.893 107.2 158.62 106.232 165.344C106.167 165.903 106.137 166.435 106.172 166.943Z" fill="#263238"/>
<path d="M87.5173 110.731C83.8792 119.027 85.4989 144.419 90.9669 150.681C98.8943 159.76 113.33 162.238 121.411 152.375C129.245 142.816 126.549 109.761 120.305 103.92C111.108 95.3172 92.8913 98.4769 87.5173 110.731Z" fill="#AD6359"/>
<path d="M109.858 129.665C109.843 129.6 109.727 129.751 109.732 129.821C109.846 131.531 109.69 133.51 108.16 134.133C108.113 134.152 108.12 134.239 108.178 134.228C110.059 133.896 110.241 131.268 109.858 129.665Z" fill="#263238"/>
<path d="M108.265 127.93C105.503 127.818 105.482 133.35 108.041 133.455C110.56 133.557 110.581 128.024 108.265 127.93Z" fill="#263238"/>
<path d="M119.778 129.983C119.791 129.918 119.912 130.064 119.909 130.135C119.848 131.848 120.067 133.821 121.615 134.396C121.663 134.414 121.658 134.501 121.6 134.492C119.71 134.218 119.445 131.596 119.778 129.983Z" fill="#263238"/>
<path d="M121.315 128.199C124.072 128.001 124.266 133.53 121.712 133.713C119.198 133.895 119.004 128.365 121.315 128.199Z" fill="#263238"/>
<path d="M106.092 125.392C106.847 125.205 107.511 124.908 108.237 124.646C109.057 124.35 109.741 124.2 110.281 123.467C110.57 123.075 110.453 122.367 110.098 122.051C109.27 121.312 108.177 121.424 107.175 121.74C106.088 122.082 105.338 122.624 104.712 123.575C104.105 124.495 105.097 125.638 106.092 125.392Z" fill="#263238"/>
<path d="M123.465 125.422C122.698 125.294 122.013 125.048 121.268 124.843C120.428 124.612 119.734 124.514 119.14 123.825C118.821 123.456 118.883 122.742 119.213 122.398C119.981 121.599 121.08 121.627 122.103 121.864C123.213 122.122 124.003 122.604 124.7 123.503C125.376 124.374 124.476 125.591 123.465 125.422Z" fill="#263238"/>
<path d="M108.212 145.565C108.621 145.968 109.029 146.522 109.651 146.577C110.247 146.629 110.947 146.363 111.495 146.153C111.549 146.132 111.604 146.19 111.569 146.241C111.121 146.897 110.184 147.305 109.39 147.163C108.614 147.024 108.234 146.352 108.048 145.642C108.021 145.542 108.153 145.506 108.212 145.565Z" fill="#263238"/>
<path d="M110.033 140.441C110.987 141.932 112.394 142.751 113.918 143.052C114.599 143.191 115.314 143.217 116.017 143.156C116.155 143.154 116.293 143.139 116.418 143.112C116.543 143.097 116.656 143.083 116.794 143.056C116.994 143.027 117.104 142.862 117.139 142.673V142.661C117.138 142.598 117.138 142.548 117.123 142.485C117.123 142.485 117.123 142.485 117.123 142.472L117.121 142.322C117.162 141.002 117.042 138.995 117.042 138.995C117.523 139.238 119.977 140.354 119.94 139.665C119.622 133.956 119.267 127.609 117.744 121.996C117.704 121.808 117.415 121.85 117.431 122.038C117.52 127.537 118.576 132.982 118.754 138.503C117.97 138.202 116.693 137.645 116.002 137.656C115.815 137.71 116.305 141.531 116.238 142.122C116.238 142.122 116.239 142.147 116.227 142.185C114.009 142.46 112.341 141.784 110.194 140.287C110.067 140.19 109.931 140.304 110.033 140.441Z" fill="#263238"/>
<path d="M115.241 142.485C115.241 142.485 114.065 144.058 112.461 144.622C111.87 144.832 111.234 144.913 110.569 144.733C109.201 144.368 109.172 143.112 109.427 142.038C109.634 141.155 110.047 140.395 110.047 140.395C110.047 140.395 112.038 142.274 115.241 142.485Z" fill="#263238"/>
<path d="M112.461 144.622C111.87 144.831 111.234 144.912 110.569 144.732C109.201 144.367 109.172 143.111 109.427 142.037C110.894 142.194 112.342 143.196 112.461 144.622Z" fill="#FF9BBC"/>
<path d="M125.517 113.485C124.775 111.354 123.774 110.903 123.774 110.903C123.774 110.903 123.791 108.382 121.521 105.156C119.145 101.781 116.566 101.335 116.566 101.335C116.566 101.335 114.398 98.8925 109.468 97.9725C108.336 97.7611 104.904 97.707 103.844 98.133C102.623 98.625 101.323 97.9806 100.054 97.9558C98.88 97.9278 97.7019 98.1591 96.6078 98.6163C95.7053 98.9908 94.8463 99.5195 94.0837 100.19C93.6415 100.584 93.2546 101.029 92.8571 101.486C92.1991 102.238 91.5721 102.499 90.6777 102.76C88.7656 103.326 87.1802 104.702 86.2173 106.704C85.6581 107.863 85.4131 109.102 85.3589 110.431C85.2974 112.038 83.608 112.794 82.9779 114.179C81.9547 116.417 82.4977 119.109 84.11 120.773C82.0045 122.28 81.2201 125.647 82.3447 128.299C83.2149 130.353 85.0399 131.265 86.8804 131.772C87.2256 131.867 87.5745 131.919 87.9222 131.939C91.6903 132.564 95.4105 128.419 94.0445 123.939C94.0458 123.925 94.0477 123.916 94.0489 123.902C94.0489 123.902 96.8771 123.235 99.2159 120.236C100.646 118.401 101.115 115.882 101.134 113.425C105.863 116.406 112.425 113.468 113.268 107.39C114.613 108.871 118.484 111.369 120.269 110.811C121.039 116.268 124.618 118.302 125.571 118.271C125.705 118.267 126.369 115.933 125.517 113.485ZM91.7021 130.341C92.7931 129.204 93.6222 127.592 94.0128 124.174C94.5378 126.773 93.4337 129.018 91.7021 130.341ZM106.648 113.684C109.362 112.927 111.694 110.725 112.827 107.54C111.967 111.258 109.548 113.173 106.648 113.684Z" fill="#263238"/>
<path d="M107.585 137.575C104.52 137.201 101.97 134.79 101.558 131.589C101.071 127.804 103.753 124.329 107.536 123.842C111.322 123.353 114.796 126.035 115.284 129.82V129.82C115.771 133.603 113.09 137.079 109.305 137.567C108.721 137.643 108.145 137.643 107.585 137.575ZM109.145 124.753C108.661 124.694 108.161 124.694 107.656 124.76C104.377 125.182 102.054 128.193 102.475 131.472C102.899 134.749 105.91 137.076 109.187 136.651C112.466 136.228 114.789 133.218 114.367 129.939C114.01 127.167 111.801 125.077 109.145 124.753Z" fill="#4692B6"/>
<path d="M123.466 137.558C120.838 137.238 118.781 134.256 118.796 130.646C118.803 128.824 119.329 127.107 120.278 125.814C121.258 124.475 122.572 123.741 123.976 123.748C125.387 123.751 126.688 124.498 127.658 125.845C128.595 127.147 129.107 128.867 129.099 130.688C129.082 134.504 126.758 137.598 123.919 137.587C123.766 137.586 123.616 137.577 123.466 137.558ZM124.324 124.696C124.208 124.681 124.091 124.674 123.973 124.673C122.873 124.669 121.826 125.268 121.024 126.361C120.191 127.498 119.728 129.022 119.72 130.649C119.707 133.955 121.584 136.654 123.922 136.662C126.252 136.672 128.159 133.99 128.174 130.685C128.181 129.058 127.731 127.53 126.907 126.385C126.2 125.403 125.294 124.813 124.324 124.696Z" fill="#4692B6"/>
<path d="M115.049 130.62L114.457 129.909C115.51 129.032 117.942 127.857 119.624 129.672L118.945 130.301C117.441 128.673 115.146 130.541 115.049 130.62Z" fill="#4692B6"/>
<path d="M84.2095 132.27L83.3897 131.842C83.5906 131.46 85.4012 128.097 87.4688 127.77C89.4013 127.47 101.797 128.685 102.323 128.737L102.232 129.657C98.6784 129.305 89.1052 128.448 87.6137 128.684C86.2471 128.899 84.694 131.345 84.2095 132.27Z" fill="#4692B6"/>
<path d="M91.3886 132.011C91.3886 132.011 86.5401 123.407 82.6893 125.06C78.8385 126.713 81.9373 138.802 86.0736 140.817C90.2093 142.833 92.1499 139.04 92.1499 139.04L91.3886 132.011Z" fill="#AD6359"/>
<path d="M83.6634 128.504C83.5949 128.491 83.5719 128.586 83.6298 128.616C86.5202 130.128 87.8326 133.072 88.6605 136.073C87.8737 134.873 86.7149 134.144 85.1195 135.064C85.0361 135.112 85.0989 135.242 85.1854 135.233C86.4437 135.089 87.312 135.389 88.0485 136.457C88.5703 137.213 88.8869 138.136 89.2309 138.985C89.3453 139.268 89.8454 139.171 89.7726 138.851C89.7677 138.828 89.7608 138.803 89.7552 138.779C90.2043 134.95 87.7449 129.29 83.6634 128.504Z" fill="#263238"/>
</svg>
