<svg width="326" height="326" viewBox="0 0 326 326" fill="none" xmlns="http://www.w3.org/2000/svg">
<path d="M163 319.468C245.301 319.468 312.018 280.161 312.018 231.674C312.018 183.187 245.301 143.88 163 143.88C80.7 143.88 13.9824 183.187 13.9824 231.674C13.9824 280.161 80.7 319.468 163 319.468Z" fill="#E8E0D0"/>
<path d="M163.635 313.972C174.013 313.972 182.426 309.015 182.426 302.901C182.426 296.787 174.013 291.83 163.635 291.83C153.257 291.83 144.844 296.787 144.844 302.901C144.844 309.015 153.257 313.972 163.635 313.972Z" fill="#E0E0E0"/>
<path d="M64.4192 249.356C74.7974 249.356 83.2105 244.4 83.2105 238.285C83.2105 232.171 74.7974 227.214 64.4192 227.214C54.0411 227.214 45.6279 232.171 45.6279 238.285C45.6279 244.4 54.0411 249.356 64.4192 249.356Z" fill="#E0E0E0"/>
<path d="M237.828 284.98C245.418 284.98 251.57 281.355 251.57 276.884C251.57 272.412 245.418 268.788 237.828 268.788C230.239 268.788 224.086 272.412 224.086 276.884C224.086 281.355 230.239 284.98 237.828 284.98Z" fill="#E0E0E0"/>
<path d="M98.3828 220.503C105.972 220.503 112.125 216.878 112.125 212.407C112.125 207.935 105.972 204.311 98.3828 204.311C90.7932 204.311 84.6406 207.935 84.6406 212.407C84.6406 216.878 90.7932 220.503 98.3828 220.503Z" fill="#E0E0E0"/>
<path d="M218.712 246.374L167.625 216.879C164.327 214.975 160.264 214.975 156.966 216.879L107.286 245.627C105.635 246.581 105.635 248.964 107.286 249.917L158.373 279.412C161.671 281.316 165.735 281.316 169.032 279.412L218.712 250.664C220.364 249.711 220.364 247.328 218.712 246.374Z" fill="#E0E0E0"/>
<path d="M90.5986 180.244V212.413H90.6045C90.6045 213.56 91.3615 214.705 92.8761 215.579C95.9053 217.328 100.816 217.328 103.845 215.579C105.36 214.705 106.117 213.559 106.117 212.413V180.244H90.5986Z" fill="#37474F"/>
<path d="M103.845 183.41C100.816 185.158 95.9049 185.158 92.8764 183.41C89.8472 181.661 89.8472 178.826 92.8764 177.077C95.9056 175.328 100.816 175.328 103.846 177.077C106.874 178.826 106.874 181.661 103.845 183.41Z" fill="#455A64"/>
<path d="M96.5371 15.4883V179.815H96.5384C96.5384 180.084 96.7158 180.353 97.0711 180.558C97.7818 180.968 98.9339 180.968 99.6445 180.558C99.9999 180.352 100.177 180.084 100.177 179.815V15.4883H96.5371Z" fill="#37474F"/>
<path d="M99.6455 16.231C98.9348 16.6411 97.7828 16.6411 97.0721 16.231C96.3614 15.8209 96.3614 15.1558 97.0721 14.7451C97.7828 14.335 98.9348 14.335 99.6455 14.7451C100.356 15.1558 100.356 15.8209 99.6455 16.231Z" fill="#455A64"/>
<path d="M80.3135 81.7314V109.198C80.3135 113.385 81.6175 117.462 84.039 120.879C86.0322 123.692 88.4778 127.709 90.4632 132.703C91.2038 134.567 93.9709 134.043 93.9709 132.037V113.914C93.9709 111.107 93.2759 108.343 91.9471 105.87L90.5714 103.311L80.3135 81.7314Z" fill="#4692B6"/>
<path d="M96.5369 32.2695C96.5369 32.2695 91.4969 47.2714 87.3822 57.3389C83.2674 67.4065 77.0845 78.8465 82.2059 88.5326C87.328 98.2187 90.5717 103.311 90.5717 103.311C90.5717 103.311 88.7592 100.357 91.2472 90.7911C93.7352 81.225 96.5362 76.4869 96.5362 76.4869V32.2695H96.5369Z" fill="#4692B6"/>
<path opacity="0.3" d="M96.5369 32.2695C96.5369 32.2695 91.4969 47.2714 87.3822 57.3389C83.2674 67.4065 77.0845 78.8465 82.2059 88.5326C87.328 98.2187 90.5717 103.311 90.5717 103.311C90.5717 103.311 88.7592 100.357 91.2472 90.7911C93.7352 81.225 96.5362 76.4869 96.5362 76.4869V32.2695H96.5369Z" fill="black"/>
<path d="M93.9711 113.914C93.9711 118.546 93.0753 123.128 91.3338 127.42C90.5553 129.338 89.563 131.678 88.304 134.488C83.6532 144.871 83.0449 146.774 83.0449 146.774V175.489C83.0449 175.489 85.8309 172.586 87.1421 169.199C87.9682 167.065 90.4627 161.475 92.1964 157.629C93.3661 155.034 93.9711 152.222 93.9711 149.375V120.148V113.914Z" fill="#4692B6"/>
<path opacity="0.3" d="M93.9711 113.914C93.9711 118.546 93.0753 123.128 91.3338 127.42C90.5553 129.338 89.563 131.678 88.304 134.488C83.6532 144.871 83.0449 146.774 83.0449 146.774V175.489C83.0449 175.489 85.8309 172.586 87.1421 169.199C87.9682 167.065 90.4627 161.475 92.1964 157.629C93.3661 155.034 93.9711 152.222 93.9711 149.375V120.148V113.914Z" fill="black"/>
<path d="M98.3835 33.8644C97.7862 33.8644 97.189 33.7301 96.7235 33.4615C96.2188 33.17 95.9404 32.7632 95.9404 32.3153C95.9404 32.1353 96.0865 31.9893 96.2664 31.9893C96.4464 31.9893 96.5924 32.1353 96.5924 32.3153C96.5924 32.5174 96.7587 32.7293 97.0495 32.8968C97.7719 33.3148 98.9938 33.3141 99.7168 32.8968C100.008 32.7293 100.174 32.5174 100.174 32.3153C100.174 32.1353 100.32 31.9893 100.5 31.9893C100.68 31.9893 100.826 32.1353 100.826 32.3153C100.826 32.7632 100.547 33.1707 100.043 33.4615C99.5779 33.7301 98.9807 33.8644 98.3835 33.8644Z" fill="#4692B6"/>
<path d="M98.3838 76.9205C97.7866 76.9205 97.1893 76.7862 96.7245 76.5175C96.2198 76.2255 95.9414 75.8186 95.9414 75.3707C95.9414 75.1907 96.0875 75.0447 96.2674 75.0447C96.4474 75.0447 96.5934 75.1907 96.5934 75.3707C96.5934 75.5728 96.7597 75.7847 97.0505 75.9529C97.7735 76.3702 98.9947 76.3702 99.7178 75.9529C100.009 75.7853 100.175 75.5728 100.175 75.3707C100.175 75.1907 100.321 75.0447 100.501 75.0447C100.681 75.0447 100.827 75.1907 100.827 75.3707C100.827 75.8186 100.548 76.2261 100.044 76.5175C99.5783 76.7862 98.981 76.9205 98.3838 76.9205Z" fill="#4692B6"/>
<path d="M230.069 244.822V276.992H230.075C230.075 278.138 230.832 279.284 232.347 280.158C235.376 281.907 240.287 281.907 243.316 280.158C244.831 279.284 245.588 278.138 245.588 276.992V244.822H230.069Z" fill="#37474F"/>
<path d="M243.315 247.989C240.286 249.738 235.375 249.738 232.346 247.989C229.317 246.24 229.317 243.405 232.346 241.656C235.375 239.907 240.286 239.907 243.315 241.656C246.345 243.405 246.345 246.24 243.315 247.989Z" fill="#455A64"/>
<path d="M236.008 80.0669V244.394H236.009C236.009 244.662 236.186 244.932 236.542 245.136C237.252 245.546 238.405 245.546 239.115 245.136C239.471 244.931 239.649 244.662 239.649 244.394V80.0669H236.008Z" fill="#37474F"/>
<path d="M237.829 81.1173C238.834 81.1173 239.648 80.6471 239.648 80.067C239.648 79.4869 238.834 79.0166 237.829 79.0166C236.824 79.0166 236.009 79.4869 236.009 80.067C236.009 80.6471 236.824 81.1173 237.829 81.1173Z" fill="#455A64"/>
<path d="M219.784 146.31V173.776C219.784 177.964 221.088 182.04 223.51 185.457C225.503 188.27 227.949 192.287 229.934 197.281C230.675 199.146 233.442 198.622 233.442 196.616V178.492C233.442 175.685 232.746 172.921 231.418 170.449L230.042 167.889L219.784 146.31Z" fill="#4692B6"/>
<path d="M236.008 96.8481C236.008 96.8481 230.968 111.85 226.853 121.918C222.738 131.985 216.555 143.425 221.677 153.111C226.798 162.797 230.042 167.89 230.042 167.89C230.042 167.89 228.23 164.935 230.718 155.37C233.206 145.804 236.007 141.065 236.007 141.065V96.8481H236.008Z" fill="#4692B6"/>
<path opacity="0.3" d="M236.008 96.8481C236.008 96.8481 230.968 111.85 226.853 121.918C222.738 131.985 216.555 143.425 221.677 153.111C226.798 162.797 230.042 167.89 230.042 167.89C230.042 167.89 228.23 164.935 230.718 155.37C233.206 145.804 236.007 141.065 236.007 141.065V96.8481H236.008Z" fill="black"/>
<path d="M233.442 178.492C233.442 183.124 232.546 187.707 230.804 191.999C230.026 193.917 229.034 196.257 227.775 199.067C223.124 209.449 222.516 211.352 222.516 211.352V240.068C222.516 240.068 225.302 237.165 226.613 233.778C227.439 231.644 229.933 226.054 231.667 222.207C232.837 219.613 233.442 216.8 233.442 213.954V184.727V178.492Z" fill="#4692B6"/>
<path opacity="0.3" d="M233.442 178.492C233.442 183.124 232.546 187.707 230.804 191.999C230.026 193.917 229.034 196.257 227.775 199.067C223.124 209.449 222.516 211.352 222.516 211.352V240.068C222.516 240.068 225.302 237.165 226.613 233.778C227.439 231.644 229.933 226.054 231.667 222.207C232.837 219.613 233.442 216.8 233.442 213.954V184.727V178.492Z" fill="black"/>
<path d="M237.854 98.443C237.256 98.443 236.66 98.3087 236.194 98.0401C235.69 97.7486 235.411 97.3418 235.411 96.8939C235.411 96.7139 235.557 96.5679 235.737 96.5679C235.917 96.5679 236.063 96.7139 236.063 96.8939C236.063 97.096 236.229 97.3079 236.52 97.4755C237.243 97.8934 238.464 97.8934 239.188 97.4755C239.478 97.3079 239.645 97.096 239.645 96.8939C239.645 96.7139 239.791 96.5679 239.971 96.5679C240.151 96.5679 240.297 96.7139 240.297 96.8939C240.297 97.3418 240.019 97.7493 239.514 98.0401C239.049 98.3087 238.451 98.443 237.854 98.443Z" fill="#4692B6"/>
<path d="M237.855 141.498C237.257 141.498 236.66 141.364 236.195 141.095C235.691 140.803 235.412 140.396 235.412 139.949C235.412 139.769 235.558 139.623 235.738 139.623C235.918 139.623 236.064 139.769 236.064 139.949C236.064 140.151 236.23 140.363 236.521 140.531C237.244 140.949 238.465 140.948 239.188 140.531C239.479 140.363 239.646 140.151 239.646 139.949C239.646 139.769 239.792 139.623 239.972 139.623C240.151 139.623 240.298 139.769 240.298 139.949C240.298 140.396 240.02 140.803 239.514 141.095C239.049 141.364 238.452 141.498 237.855 141.498Z" fill="#4692B6"/>
<path d="M123.325 58.9368C122.197 58.0195 121.502 56.6777 121.407 55.227C121.268 53.1093 121.085 50.1811 121.085 49.5154C121.085 48.4449 121.063 46.0533 119.555 46.7307C118.047 47.4088 117.528 50.9935 117.666 53.0512C117.666 53.0512 109.967 44.823 109.051 44.0093C108.135 43.1956 106.79 43.0274 106.41 44.0093C106.029 44.9912 107.1 46.7868 110.76 51.4486C110.76 51.4486 108.73 51.3104 108.415 53.728C108.415 53.728 106.383 54.4185 107.19 56.767C107.19 56.767 104.936 57.8245 106.691 60.3517C108.447 62.8788 117.977 66.9538 117.977 66.9538L123.325 58.9368Z" fill="#FFA8A7"/>
<path d="M123.669 58.3083C123.669 58.3083 117.974 65.1165 116.663 68.194L134.879 81.1942C137.681 83.1939 141.165 83.9952 144.559 83.4195L166.242 79.7442L173.626 64.9887H171.105C169.788 64.9887 168.474 65.1172 167.182 65.3721L142.409 70.2595L123.669 58.3083Z" fill="#37474F"/>
<path d="M172.745 224.729H175.587C175.587 224.729 177.007 225.548 176.902 227.966C176.798 230.383 177.2 233.939 177.251 235.479C177.303 237.019 175.206 238.432 172.043 238.157C168.88 237.882 165.978 237.618 163.775 238.775C161.571 239.931 156.203 243.219 151.247 239.912C146.292 236.605 148.459 234.287 149.062 234.326C149.666 234.364 158.241 232.046 160.727 230.182C163.214 228.317 167.206 224.892 167.206 224.892L172.745 224.729Z" fill="#263238"/>
<path d="M167.206 219.132V226.839C167.206 226.839 168.188 228.374 171.468 227.966C174.748 227.558 175.588 226.055 175.588 226.055V219.132H167.206V219.132Z" fill="#FFA8A7"/>
<path d="M201.477 235.759C201.477 235.759 205.2 235.347 205.508 237.634C205.815 239.921 206.44 245.068 205.404 246.36C204.367 247.652 201.493 250.193 200.732 251.497C199.971 252.802 196.159 259.238 189.529 259.801C182.899 260.363 181.451 254.879 183.64 253.03C185.828 251.181 191.67 247.241 192.983 243.581C194.295 239.92 196.187 236.855 196.187 236.855L201.477 235.759Z" fill="#263238"/>
<path d="M195.876 231.974L196.324 239.02C196.324 239.02 199.285 242.54 204.151 238.433C204.51 238.129 204.713 237.676 204.683 237.206L204.272 230.805L195.876 231.974Z" fill="#FFA8A7"/>
<path d="M163.776 124.698L162.812 177.966L164.68 222.82C164.68 222.82 170.884 225.957 179.135 222.82L181.89 178.739L185.384 128.094L163.776 124.698Z" fill="#37474F"/>
<path d="M180.7 152.26L181.891 178.74L183.717 152.26H180.7Z" fill="#263238"/>
<path d="M183.551 154.669L184.641 138.868L172.67 138.63C172.175 137.994 173.424 146.967 183.551 154.669Z" fill="#263238"/>
<path d="M167.909 130.92C167.909 130.92 170.715 143.859 182.366 148.97L185.14 188.506C185.178 189.041 185.248 189.574 185.351 190.1L194.051 234.491C194.051 234.491 198.696 238.672 206.968 234.491L206.674 197.111C206.639 192.54 205.84 188.006 204.312 183.696L203.439 130.92H167.909V130.92Z" fill="#37474F"/>
<path d="M170.67 125.561C170.67 125.561 173.907 135.512 190.731 132.013V76.2085H170.67V125.561Z" fill="#F0F0F0"/>
<path d="M172.284 37.9431C172.284 37.9431 165.554 40.6548 169.15 51.094L172.284 37.9431Z" fill="#263238"/>
<path d="M176.389 75.6646L177.305 80.4222L179.52 81.1902L184.941 77.1309L176.389 75.6646Z" fill="#455A64"/>
<path d="M191.259 58.3083V69.0833C191.259 69.0833 184.56 78.3332 179.137 78.3332V64.5715L191.259 58.3083Z" fill="#FFA8A7"/>
<path d="M179.136 68.2194C183.203 66.903 187.408 64.207 188.729 60.6823C188.869 60.3054 188.998 59.8784 189.113 59.4167L179.136 64.5721V68.2194Z" fill="#F28F8F"/>
<path d="M179.136 78.3332L179.172 65.3662C179.172 65.3662 177.062 64.8205 176.147 65.4907C175.232 66.1603 170.288 79.9938 170.288 79.9938C170.288 79.9938 175.266 76.8342 176.147 76.608C177.028 76.3817 179.172 78.9376 179.172 78.9376L179.136 78.3332Z" fill="#E0E0E0"/>
<path d="M177.028 65.6147C177.028 65.6147 171.819 75.5896 171.819 83.7898C171.819 91.99 171.819 138.785 171.819 138.785C171.819 138.785 165.325 138.888 161.818 134.086C161.818 134.086 161.818 88.6701 161.818 84.08C161.818 79.4892 164.284 68.3068 173.625 64.9888L177.028 65.6147Z" fill="#455A64"/>
<path d="M174.538 65.157L168.202 72.4666C167.845 72.878 167.747 73.453 167.946 73.9596L169.694 78.3978L166.719 83.3713C166.361 83.9698 166.294 84.6987 166.536 85.3527L171.819 99.5995C171.819 92.3604 171.819 86.2857 171.819 83.7898C171.819 75.5896 177.028 65.6147 177.028 65.6147L174.538 65.157Z" fill="#37474F"/>
<path d="M180.163 38.2573C176.614 38.2573 169.888 39.7263 169.314 47.8665C168.74 56.0074 169.092 66.131 175.906 66.7067C180.635 67.1064 189.259 63.6482 191.258 58.3083C193.258 52.9684 193.037 38.2573 180.163 38.2573Z" fill="#FFA8A7"/>
<path d="M190.356 54.2855C190.356 54.2855 188.39 53.0376 189.011 48.842C189.633 44.6464 187.716 43.0405 186.059 43.092C184.402 43.1435 174.609 45.3427 170.959 41.2645C167.308 37.1868 168.654 33.2585 173.161 33.2585C175.907 33.2585 178.537 35.2856 182.683 35.3606C186.83 35.4356 193.328 34.7992 193.786 41.535C193.786 41.535 197.749 40.456 196.489 48.0153C195.228 55.5745 193.506 60.6856 191.233 62.2999V56.5069L190.356 54.2855Z" fill="#263238"/>
<path d="M190.355 54.2855C190.355 54.2855 191.22 50.4165 194.112 50.4165C197.005 50.4165 196.952 53.4001 196.586 55.386C196.229 57.3212 194.772 59.2648 192.849 59.2648C190.927 59.2648 190.355 57.5272 190.355 57.5272V54.2855Z" fill="#FFA8A7"/>
<path d="M193.421 41.8122L196.372 39.9794C196.372 39.9794 194.898 38.7413 194.035 39.6391C193.171 40.5369 193.421 41.8122 193.421 41.8122Z" fill="#263238"/>
<path d="M176.514 52.2427V58.0976L173.086 57.0447L176.514 52.2427Z" fill="#F28F8F"/>
<path d="M181.521 53.2553C181.521 53.9138 180.987 54.4484 180.329 54.4484C179.67 54.4484 179.136 53.9144 179.136 53.2553C179.136 52.5961 179.67 52.0627 180.329 52.0627C180.987 52.0621 181.521 52.5961 181.521 53.2553Z" fill="#263238"/>
<path d="M173.676 52.4232C173.676 53.0824 173.142 53.6164 172.483 53.6164C171.825 53.6164 171.29 53.0824 171.29 52.4232C171.29 51.7647 171.824 51.2307 172.483 51.2307C173.142 51.2307 173.676 51.7647 173.676 52.4232Z" fill="#263238"/>
<path d="M171.03 49.9392L173.362 48.5537C173.362 48.5537 172.466 47.6233 171.575 48.1821C170.685 48.7415 171.03 49.9392 171.03 49.9392Z" fill="#263238"/>
<path d="M180.95 49.5363L183.054 51.2485C183.054 51.2485 183.619 50.0873 182.788 49.4431C181.956 48.8002 180.95 49.5363 180.95 49.5363Z" fill="#263238"/>
<path d="M174.901 60.471C174.901 60.471 176.795 60.6438 178.114 59.6104C178.114 59.6104 178.334 61.3023 176.917 61.6257C175.499 61.9497 174.901 60.471 174.901 60.471Z" fill="#F28F8F"/>
<path d="M179.136 78.3334C179.136 78.3334 187.532 74.1482 191.258 69.0834V66.4031L191.329 66.4246C192.417 66.7578 193.312 67.5402 193.787 68.5742L195.509 72.3245L187.929 84.9257C187.929 84.9257 183.847 77.7433 182.406 77.8392C180.965 77.935 179.172 78.9365 179.172 78.9365L179.136 78.3334Z" fill="#E0E0E0"/>
<path d="M194.762 70.6978L184.902 87.5617C184.713 87.8851 184.614 88.2522 184.614 88.6264V140.898C184.614 140.898 195.484 145.689 204.265 138.471V85.2504L205.554 78.1377C205.554 78.1377 198.266 72.3121 194.762 70.6978Z" fill="#455A64"/>
<path d="M197.126 71.6321L194.303 69.6982L194.333 69.7628C194.602 70.3489 194.569 71.0296 194.243 71.5864L184.902 87.5617C184.713 87.8851 184.614 88.2529 184.614 88.6271V89.8705V104.889L191.787 93.4043C192.153 92.8175 192.182 92.0814 191.863 91.4679L189.546 87.0206L195.618 83.5115C196.168 83.1933 196.53 82.6281 196.588 81.995L197.463 72.3493C197.489 72.0663 197.36 71.7925 197.126 71.6321Z" fill="#37474F"/>
<path d="M175.615 83.6863C175.615 83.6863 173.314 107.791 173.402 117.32L177.166 124.698L181.892 119.473L179.093 84.9466L175.615 83.6863Z" fill="#37474F"/>
<path d="M176.241 78.0333C176.241 78.0333 180.585 78.712 182.243 79.6535C183.595 80.4216 181.022 83.4469 180.029 84.5344C179.788 84.7984 179.451 84.9464 179.093 84.9464C178.108 84.9471 176.087 84.7919 175.043 83.5994C174.438 82.9083 174.561 77.7242 176.241 78.0333Z" fill="#455A64"/>
<path d="M159.962 153.968L113.286 127.02L140.169 111.092L186.845 138.04L159.962 153.968Z" fill="#4692B6"/>
<path opacity="0.1" d="M159.962 153.968L113.286 127.02L140.169 111.092L186.845 138.04L159.962 153.968Z" fill="black"/>
<path opacity="0.3" d="M159.961 153.968L140.169 111.092L186.844 138.04L159.961 153.968Z" fill="black"/>
<path d="M153.751 79.1073C152.26 77.6729 151.804 75.7286 153.649 73.8111C155.493 71.8936 158.197 71.5024 159.688 72.9361C161.179 74.3699 160.892 77.0874 159.048 79.0049C157.203 80.9225 155.242 80.5417 153.751 79.1073Z" fill="#4692B6"/>
<path opacity="0.2" d="M153.751 79.1073C152.26 77.6729 151.804 75.7286 153.649 73.8111C155.493 71.8936 158.197 71.5024 159.688 72.9361C161.179 74.3699 160.892 77.0874 159.048 79.0049C157.203 80.9225 155.242 80.5417 153.751 79.1073Z" fill="black"/>
<path d="M154.593 76.7966C154.979 76.4269 156.542 76.8755 156.093 78.3197C156.093 78.3197 153.812 81.2693 152.616 83.0708C152.343 83.4816 150.228 82.707 150.961 81.3887C151.455 80.5006 152.933 78.3856 154.593 76.7966Z" fill="#4692B6"/>
<path d="M145.536 107.433C145.534 107.433 145.531 107.433 145.528 107.433C145.245 107.428 145.018 107.195 145.023 106.911C145.263 90.9091 151.055 82.3869 151.301 82.0315C151.463 81.7987 151.783 81.7407 152.016 81.9024C152.249 82.0641 152.307 82.3842 152.146 82.617C152.087 82.7018 146.285 91.2625 146.05 106.926C146.046 107.208 145.817 107.433 145.536 107.433Z" fill="#4692B6"/>
<g opacity="0.5">
<path d="M145.536 107.433C145.534 107.433 145.531 107.433 145.528 107.433C145.245 107.428 145.018 107.195 145.023 106.911C145.263 90.9091 151.055 82.3869 151.301 82.0315C151.463 81.7987 151.783 81.7407 152.016 81.9024C152.249 82.0641 152.307 82.3842 152.146 82.617C152.087 82.7018 146.285 91.2625 146.05 106.926C146.046 107.208 145.817 107.433 145.536 107.433Z" fill="black"/>
</g>
<path d="M115.887 122.72L142.658 107.175V104.629C142.658 101.215 139.319 98.7991 136.077 99.8677L124.527 103.674C124.527 103.674 118.118 105.144 118.118 97.6235L115.887 98.8558L115.887 122.72Z" fill="#4692B6"/>
<path opacity="0.3" d="M115.887 122.72L142.658 107.175V104.629C142.658 101.215 139.319 98.7991 136.077 99.8677L124.527 103.674C124.527 103.674 118.118 105.144 118.118 97.6235L115.887 98.8558L115.887 122.72Z" fill="black"/>
<path d="M124.527 103.675L136.076 99.8684C137.37 99.442 138.676 99.5769 139.784 100.102C138.516 99.0273 136.732 98.5755 134.972 99.1557L123.422 102.962C123.422 102.962 121.575 103.384 119.864 102.613C121.762 104.309 124.527 103.675 124.527 103.675Z" fill="#4692B6"/>
<g opacity="0.5">
<path d="M124.527 103.675L136.076 99.8684C137.37 99.442 138.676 99.5769 139.784 100.102C138.516 99.0273 136.732 98.5755 134.972 99.1557L123.422 102.962C123.422 102.962 121.575 103.384 119.864 102.613C121.762 104.309 124.527 103.675 124.527 103.675Z" fill="black"/>
</g>
<path d="M142.659 107.175L180.142 128.999L156.173 143.022L118.502 121.828L142.659 107.175Z" fill="#4692B6"/>
<path opacity="0.1" d="M142.659 107.175L180.142 128.999L156.173 143.022L118.502 121.828L142.659 107.175Z" fill="black"/>
<path d="M157.936 145.461L119.787 123.437V127.684L157.936 149.708V145.461Z" fill="#4692B6"/>
<path opacity="0.3" d="M157.936 145.461L119.787 123.437V127.684L157.936 149.708V145.461Z" fill="black"/>
<path d="M157.936 145.461L180.068 132.451V136.698L157.936 149.708V145.461Z" fill="#4692B6"/>
<path opacity="0.5" d="M157.936 145.461L180.068 132.451V136.698L157.936 149.708V145.461Z" fill="black"/>
<path d="M119.857 94.3496L113.286 98.3327V121.31L160.074 148.43V124.566L153.535 114.296L119.857 94.3496Z" fill="#4692B6"/>
<path d="M119.857 94.3497L122.088 93.1174L155.766 113.063L153.536 114.296L119.857 94.3497Z" fill="#4692B6"/>
<path opacity="0.1" d="M119.857 94.3497L122.088 93.1174L155.766 113.063L153.536 114.296L119.857 94.3497Z" fill="black"/>
<path d="M153.535 114.296L155.766 113.063L162.304 123.334L160.073 124.566L153.535 114.296Z" fill="#4692B6"/>
<path opacity="0.3" d="M153.535 114.296L155.766 113.063L162.304 123.334L160.073 124.566L153.535 114.296Z" fill="black"/>
<path d="M160.073 148.431L186.845 132.885V130.339C186.845 126.925 183.506 124.509 180.263 125.578L168.714 129.384C168.714 129.384 162.304 130.855 162.304 123.334L160.074 124.566V148.431H160.073Z" fill="#4692B6"/>
<path opacity="0.3" d="M160.073 148.431L186.845 132.885V130.339C186.845 126.925 183.506 124.509 180.263 125.578L168.714 129.384C168.714 129.384 162.304 130.855 162.304 123.334L160.074 124.566V148.431H160.073Z" fill="black"/>
<path d="M168.712 129.384L180.262 125.578C181.556 125.151 182.862 125.286 183.969 125.812C182.702 124.737 180.918 124.285 179.157 124.865L167.608 128.672C167.608 128.672 165.761 129.093 164.05 128.322C165.948 130.018 168.712 129.384 168.712 129.384Z" fill="#4692B6"/>
<g opacity="0.5">
<path d="M168.712 129.384L180.262 125.578C181.556 125.151 182.862 125.286 183.969 125.812C182.702 124.737 180.918 124.285 179.157 124.865L167.608 128.672C167.608 128.672 165.761 129.093 164.05 128.322C165.948 130.018 168.712 129.384 168.712 129.384Z" fill="black"/>
</g>
<path d="M113.286 127.02V249.522L159.962 276.47V153.968L113.286 127.02Z" fill="#4692B6"/>
<path d="M149.367 165.679L143.473 155.471L143.494 155.458L127.643 146.308L127.664 146.343L121.77 149.746V234.931L127.664 245.139L143.473 254.267L149.367 250.864V165.679Z" fill="#4692B6"/>
<path opacity="0.5" d="M149.367 165.679L143.473 155.471L143.494 155.458L127.643 146.308L127.664 146.343L121.77 149.746V234.931L127.664 245.139L143.473 254.267L149.367 250.864V165.679Z" fill="white"/>
<path d="M186.845 138.04V168.821C178.8 173.648 173.877 182.342 173.877 191.725V268.255L159.961 276.471V153.968L186.845 138.04Z" fill="#4692B6"/>
<path opacity="0.3" d="M186.845 138.04V168.821C178.8 173.648 173.877 182.342 173.877 191.725V268.255L159.961 276.471V153.968L186.845 138.04Z" fill="black"/>
<path d="M188.263 128.719C188.263 128.719 183.318 131.681 181.444 132.759C179.571 133.837 178.708 134.543 179.088 135.632C179.466 136.721 182.531 136.224 184.77 135.537C184.77 135.537 180.817 138.605 177.894 140.466C174.971 142.328 175.011 143.407 176.15 144.53C177.29 145.654 182.008 147.536 185.316 146.433C188.624 145.331 191.919 142.352 195.331 136.216C195.331 136.216 194.622 128.878 188.263 128.719Z" fill="#FFA8A7"/>
<path d="M205.553 78.1384C205.553 78.1384 195.648 85.2557 201.023 99.0683C206.399 112.881 206.399 112.881 206.399 112.881L187.521 128.693C187.521 128.693 194.049 131.303 195.429 136.938L215.442 122.321C219.318 119.489 220.925 114.485 219.419 109.927C215.907 99.2978 209.453 81.0881 205.553 78.1384Z" fill="#37474F"/>
<path d="M64.3605 217.181C64.3605 217.181 54.8661 207.909 60.2692 192.377C63.2977 183.672 73.3313 177.28 79.0468 176.68C79.0468 176.68 75.9465 180.252 74.5812 184.21L67.3844 188.995L73.9996 186.923L72.5907 192.586C72.5907 192.586 66.4371 196.306 65.5262 197.119L72.159 195.385C72.159 195.385 71.6511 211.417 64.3605 217.181Z" fill="#4692B6"/>
<path opacity="0.4" d="M64.3605 217.181C64.3605 217.181 54.8661 207.909 60.2692 192.377C63.2977 183.672 73.3313 177.28 79.0468 176.68C79.0468 176.68 75.9465 180.252 74.5812 184.21L67.3844 188.995L73.9996 186.923L72.5907 192.586C72.5907 192.586 66.4371 196.306 65.5262 197.119L72.159 195.385C72.159 195.385 71.6511 211.417 64.3605 217.181Z" fill="black"/>
<path d="M64.3607 217.181C64.3607 217.181 59.4447 197.778 66.7177 186.464C66.7177 186.464 58.1915 196.448 64.3607 217.181Z" fill="white"/>
<path d="M75.2271 219.808L63.6104 219.662V219.661L63.5511 219.662L63.4918 219.661V219.662L51.8744 219.808C51.8744 219.808 51.7453 234.119 56.1535 239.942C57.3708 241.49 60.2246 242.577 63.5511 242.577C66.8835 242.577 69.7405 241.486 70.9539 239.934C75.3555 234.106 75.2271 219.808 75.2271 219.808Z" fill="#37474F"/>
<path d="M63.5507 226.077C69.9995 226.077 75.2274 223.27 75.2274 219.808C75.2274 216.345 69.9995 213.539 63.5507 213.539C57.1018 213.539 51.874 216.345 51.874 219.808C51.874 223.27 57.1018 226.077 63.5507 226.077Z" fill="#455A64"/>
<path d="M63.5498 218.144C67.5674 218.144 70.9696 219.433 72.1673 221.217C72.4653 220.773 72.6328 220.3 72.6328 219.807C72.6328 217.331 68.5663 215.324 63.5498 215.324C58.5333 215.324 54.4668 217.331 54.4668 219.807C54.4668 220.3 54.6344 220.773 54.9323 221.217C56.1307 219.433 59.5328 218.144 63.5498 218.144Z" fill="#263238"/>
<path d="M63.5501 218.144C59.5331 218.144 56.131 219.433 54.9326 221.217C56.131 223.002 59.5331 224.29 63.5501 224.29C67.5677 224.29 70.9699 223.001 72.1676 221.217C70.9699 219.433 67.5677 218.144 63.5501 218.144Z" fill="#E0E0E0"/>
<path d="M63.6929 221.992C63.6929 221.992 59.1928 221.817 55.3329 215.841C53.7407 213.376 52.9733 212.081 52.9733 212.081L59.243 211.615L52.219 209.859L48.8996 204.781L54.7331 204.348C54.7331 204.348 50.3882 202.826 47.2859 202.806C47.2859 202.806 41.9069 193.303 40.333 191.949C40.333 191.949 52.7393 192.051 61.583 202.507C70.4267 212.963 65.0053 222.26 63.6929 221.992Z" fill="#4692B6"/>
<path d="M63.6925 221.992C63.6925 221.992 66.5072 205.04 48.5459 194.843C48.5459 194.843 67.1872 203.798 63.6925 221.992Z" fill="white"/>
<path d="M63.6924 221.992C63.6924 221.992 67.7687 222.258 71.8137 217.229C73.4822 215.155 74.2965 214.059 74.2965 214.059L68.6841 213.047L75.1871 212.124L78.6597 207.856L73.4372 206.916C73.4372 206.916 77.5004 205.952 80.3008 206.226C80.3008 206.226 86.0488 198.159 87.596 197.085C87.596 197.085 76.3927 196.01 67.4296 204.611C58.4672 213.212 62.4836 222.11 63.6924 221.992Z" fill="#4692B6"/>
<path opacity="0.2" d="M63.6924 221.992C63.6924 221.992 67.7687 222.258 71.8137 217.229C73.4822 215.155 74.2965 214.059 74.2965 214.059L68.6841 213.047L75.1871 212.124L78.6597 207.856L73.4372 206.916C73.4372 206.916 77.5004 205.952 80.3008 206.226C80.3008 206.226 86.0488 198.159 87.596 197.085C87.596 197.085 76.3927 196.01 67.4296 204.611C58.4672 213.212 62.4836 222.11 63.6924 221.992Z" fill="black"/>
<path d="M63.6928 221.992C63.6928 221.992 62.7494 206.432 79.9146 198.923C79.9146 198.923 62.2532 205.248 63.6928 221.992Z" fill="white"/>
<path d="M164.445 284.72C164.445 284.72 154.951 275.449 160.354 259.917C163.383 251.212 173.416 244.82 179.132 244.22C179.132 244.22 176.031 247.792 174.666 251.749L167.469 256.534L174.085 254.463L172.676 260.126C172.676 260.126 166.522 263.846 165.611 264.659L172.244 262.925C172.244 262.925 171.735 278.956 164.445 284.72Z" fill="#4692B6"/>
<path opacity="0.4" d="M164.445 284.72C164.445 284.72 154.951 275.449 160.354 259.917C163.383 251.212 173.416 244.82 179.132 244.22C179.132 244.22 176.031 247.792 174.666 251.749L167.469 256.534L174.085 254.463L172.676 260.126C172.676 260.126 166.522 263.846 165.611 264.659L172.244 262.925C172.244 262.925 171.735 278.956 164.445 284.72Z" fill="black"/>
<path d="M164.445 284.72C164.445 284.72 159.529 265.317 166.802 254.003C166.802 254.003 158.275 263.987 164.445 284.72Z" fill="white"/>
<path d="M175.311 287.347L163.694 287.201V287.199L163.635 287.2L163.576 287.199V287.201L151.958 287.347C151.958 287.347 151.83 301.658 156.237 307.481C157.455 309.029 160.309 310.116 163.635 310.116C166.967 310.116 169.825 309.025 171.038 307.473C175.44 301.645 175.311 287.347 175.311 287.347Z" fill="#37474F"/>
<path d="M163.635 293.616C170.084 293.616 175.311 290.809 175.311 287.347C175.311 283.885 170.084 281.078 163.635 281.078C157.186 281.078 151.958 283.885 151.958 287.347C151.958 290.809 157.186 293.616 163.635 293.616Z" fill="#455A64"/>
<path d="M163.635 285.684C167.652 285.684 171.054 286.973 172.252 288.756C172.55 288.312 172.718 287.84 172.718 287.346C172.718 284.87 168.651 282.863 163.635 282.863C158.618 282.863 154.552 284.871 154.552 287.346C154.552 287.839 154.719 288.312 155.017 288.756C156.215 286.973 159.617 285.684 163.635 285.684Z" fill="#263238"/>
<path d="M163.635 285.684C159.618 285.684 156.216 286.973 155.018 288.756C156.216 290.541 159.618 291.829 163.635 291.829C167.653 291.829 171.054 290.541 172.253 288.756C171.054 286.973 167.652 285.684 163.635 285.684Z" fill="#E0E0E0"/>
<path d="M163.778 289.531C163.778 289.531 159.278 289.356 155.418 283.38C153.826 280.916 153.058 279.621 153.058 279.621L159.328 279.154L152.304 277.398L148.985 272.32L154.818 271.887C154.818 271.887 150.473 270.366 147.371 270.345C147.371 270.345 141.991 260.842 140.418 259.488C140.418 259.488 152.824 259.591 161.667 270.047C170.511 280.502 165.09 289.799 163.778 289.531Z" fill="#4692B6"/>
<path opacity="0.3" d="M163.778 289.531C163.778 289.531 159.278 289.356 155.418 283.38C153.826 280.916 153.058 279.621 153.058 279.621L159.328 279.154L152.304 277.398L148.985 272.32L154.818 271.887C154.818 271.887 150.473 270.366 147.371 270.345C147.371 270.345 141.991 260.842 140.418 259.488C140.418 259.488 152.824 259.591 161.667 270.047C170.511 280.502 165.09 289.799 163.778 289.531Z" fill="white"/>
<path d="M163.777 289.531C163.777 289.531 166.592 272.579 148.631 262.383C148.631 262.383 167.272 271.337 163.777 289.531Z" fill="white"/>
<path d="M163.778 289.531C163.778 289.531 167.854 289.797 171.899 284.768C173.568 282.694 174.382 281.598 174.382 281.598L168.77 280.586L175.272 279.664L178.745 275.395L173.522 274.455C173.522 274.455 177.585 273.492 180.386 273.766C180.386 273.766 186.134 265.698 187.681 264.625C187.681 264.625 176.478 263.549 167.515 272.15C158.552 280.751 162.568 289.649 163.778 289.531Z" fill="#4692B6"/>
<path opacity="0.2" d="M163.778 289.531C163.778 289.531 167.854 289.797 171.899 284.768C173.568 282.694 174.382 281.598 174.382 281.598L168.77 280.586L175.272 279.664L178.745 275.395L173.522 274.455C173.522 274.455 177.585 273.492 180.386 273.766C180.386 273.766 186.134 265.698 187.681 264.625C187.681 264.625 176.478 263.549 167.515 272.15C158.552 280.751 162.568 289.649 163.778 289.531Z" fill="black"/>
<path d="M163.778 289.531C163.778 289.531 162.834 273.972 180 266.463C180 266.463 162.338 272.787 163.778 289.531Z" fill="white"/>
</svg>
