<svg width="359" height="359" viewBox="0 0 359 359" fill="none" xmlns="http://www.w3.org/2000/svg">
<path d="M176.483 342.588C267.008 342.588 340.392 301.956 340.392 251.834C340.392 201.712 267.008 161.08 176.483 161.08C85.9583 161.08 12.5736 201.712 12.5736 251.834C12.5736 301.956 85.9583 342.588 176.483 342.588Z" fill="#E8E0D0"/>
<path d="M191.045 305.972C221.327 305.972 245.876 292.38 245.876 275.614C245.876 258.847 221.327 245.255 191.045 245.255C160.763 245.255 136.214 258.847 136.214 275.614C136.214 292.38 160.763 305.972 191.045 305.972Z" fill="#E0E0E0"/>
<path d="M289.658 272.594C304.893 272.594 317.243 265.756 317.243 257.321C317.243 248.886 304.893 242.048 289.658 242.048C274.424 242.048 262.074 248.886 262.074 257.321C262.074 265.756 274.424 272.594 289.658 272.594Z" fill="#E0E0E0"/>
<path d="M74.919 291.607C103.761 291.607 127.142 278.661 127.142 262.692C127.142 246.722 103.761 233.776 74.919 233.776C46.077 233.776 22.696 246.722 22.696 262.692C22.696 278.661 46.077 291.607 74.919 291.607Z" fill="#E0E0E0"/>
<path d="M275.764 260.773C268.376 253.236 264.037 222.559 271.243 216.581H307.904C315.107 222.558 310.773 253.223 303.39 260.766C303.326 260.836 303.254 260.904 303.187 260.974C303.102 261.058 303.018 261.142 302.933 261.222C302.725 261.424 302.503 261.622 302.265 261.816C302.207 261.864 302.147 261.908 302.089 261.954C301.908 262.097 301.729 262.239 301.531 262.376C301.215 262.599 300.898 262.807 300.576 262.986C294.499 266.494 284.647 266.494 278.571 262.986H278.57C278.246 262.806 277.926 262.596 277.609 262.372C277.425 262.244 277.259 262.111 277.09 261.979C277.017 261.921 276.944 261.867 276.872 261.808C276.643 261.62 276.429 261.43 276.228 261.235C276.128 261.142 276.032 261.045 275.934 260.948C275.878 260.889 275.816 260.832 275.764 260.773Z" fill="#37474F"/>
<path d="M304.72 214.172C313.085 219.002 313.085 226.832 304.72 231.661C296.355 236.491 282.793 236.491 274.428 231.661C266.064 226.832 266.064 219.002 274.428 214.172C282.793 209.343 296.355 209.343 304.72 214.172Z" fill="#455A64"/>
<path d="M300.696 216.496C306.839 220.043 306.839 225.792 300.696 229.339C294.553 232.886 284.594 232.886 278.45 229.339C272.307 225.792 272.307 220.043 278.45 216.496C284.594 212.949 294.554 212.949 300.696 216.496Z" fill="#263238"/>
<path d="M278.451 222.591C284.594 219.044 294.554 219.044 300.697 222.591C302.404 223.576 303.618 224.734 304.377 225.965C303.618 227.195 302.404 228.354 300.697 229.339C294.554 232.886 284.594 232.886 278.451 229.339C276.745 228.354 275.53 227.195 274.771 225.965C275.53 224.734 276.745 223.577 278.451 222.591Z" fill="#F5F5F5"/>
<path d="M293.148 212.9L287.884 209.158C287.884 209.158 283.58 186.566 287.298 176.823C291.015 167.08 297.869 167.14 301.138 169.747C304.406 172.354 302.615 180.507 301.276 185.227C299.665 190.91 294.533 216.356 298.15 225.38L293.148 212.9Z" fill="#4692B6"/>
<g opacity="0.2">
<path d="M293.148 212.9L287.884 209.158C287.884 209.158 283.58 186.566 287.298 176.823C291.015 167.08 297.869 167.14 301.138 169.747C304.406 172.354 302.615 180.507 301.276 185.227C299.665 190.91 294.533 216.356 298.15 225.38L293.148 212.9Z" fill="black"/>
</g>
<path d="M292.096 210.274C292.292 210.195 292.408 209.985 292.361 209.772C288.095 190.452 296.9 172.489 296.989 172.31C297.098 172.092 297.009 171.829 296.793 171.72C296.576 171.611 296.312 171.701 296.204 171.916C296.113 172.099 287.168 190.329 291.504 209.96C291.556 210.197 291.79 210.347 292.027 210.295C292.051 210.291 292.075 210.283 292.096 210.274Z" fill="white"/>
<path d="M290.89 207.023C290.89 207.023 290.304 205.244 292.917 204.794C295.531 204.343 296.535 202.168 296.78 198.522C297.025 194.875 298.126 192.258 301.404 191.719C304.683 191.181 307.322 192.832 309.452 191.19C311.583 189.549 317.087 185.582 321.673 187.388C326.258 189.194 324.755 193.109 322.371 195.649C319.986 198.189 319.294 199.044 321.119 203.173C322.944 207.302 321.615 211.159 317.396 212.124C313.177 213.089 310.82 212.595 310.754 217.225C310.695 221.358 309.854 225.231 305.536 226.796C302.138 228.027 298.431 228.393 294.859 227.849C293.721 227.675 292.419 227.328 291.582 226.485C290.705 225.603 290.89 224.622 290.89 223.469C290.89 220.993 290.89 218.517 290.89 216.041C290.89 213.035 290.89 210.029 290.89 207.023Z" fill="#4692B6"/>
<g opacity="0.1">
<path d="M290.89 207.023C290.89 207.023 290.304 205.244 292.917 204.794C295.531 204.343 296.535 202.168 296.78 198.522C297.025 194.875 298.126 192.258 301.404 191.719C304.683 191.181 307.322 192.832 309.452 191.19C311.583 189.549 317.087 185.582 321.673 187.388C326.258 189.194 324.755 193.109 322.371 195.649C319.986 198.189 319.294 199.044 321.119 203.173C322.944 207.302 321.615 211.159 317.396 212.124C313.177 213.089 310.82 212.595 310.754 217.225C310.695 221.358 309.854 225.231 305.536 226.796C302.138 228.027 298.431 228.393 294.859 227.849C293.721 227.675 292.419 227.328 291.582 226.485C290.705 225.603 290.89 224.622 290.89 223.469C290.89 220.993 290.89 218.517 290.89 216.041C290.89 213.035 290.89 210.029 290.89 207.023Z" fill="black"/>
</g>
<path d="M290.889 226.09C291.041 226.09 291.181 225.995 291.232 225.843C298.911 203.042 316.291 193.833 316.465 193.743C316.642 193.651 316.713 193.432 316.62 193.254C316.529 193.077 316.311 193.005 316.132 193.098C315.955 193.189 298.322 202.52 290.545 225.612C290.481 225.802 290.583 226.007 290.773 226.071C290.812 226.084 290.851 226.09 290.889 226.09Z" fill="white"/>
<path d="M301.905 206.214C301.932 206.214 301.958 206.212 301.986 206.205C307 205.059 315.024 205.679 315.104 205.684C315.306 205.7 315.478 205.552 315.494 205.351C315.51 205.152 315.361 204.977 315.161 204.961C314.828 204.934 306.945 204.327 301.824 205.499C301.629 205.543 301.507 205.737 301.551 205.932C301.59 206.1 301.74 206.214 301.905 206.214Z" fill="white"/>
<path d="M297.818 217.173C300.109 217.173 302.54 217.024 302.693 217.014C302.893 217.001 303.045 216.829 303.032 216.629C303.02 216.43 302.849 216.268 302.647 216.29C302.591 216.292 296.989 216.637 294.804 216.293C294.605 216.264 294.421 216.397 294.39 216.595C294.358 216.792 294.493 216.979 294.692 217.01C295.467 217.132 296.624 217.173 297.818 217.173Z" fill="white"/>
<path d="M304.259 203.536C304.265 203.536 304.273 203.536 304.28 203.535C304.479 203.524 304.633 203.353 304.622 203.154C304.399 199.132 303.065 195.664 303.008 195.518C302.936 195.332 302.725 195.238 302.539 195.312C302.353 195.384 302.26 195.594 302.333 195.781C302.346 195.816 303.682 199.291 303.899 203.193C303.908 203.386 304.068 203.536 304.259 203.536Z" fill="white"/>
<path d="M290.752 228.561C290.752 228.561 286.005 230.337 279.614 228.969C273.223 227.599 271.675 223.694 271.675 223.694C271.675 223.694 276.225 218.96 280.257 218.694C280.257 218.694 274.002 217.64 268.15 218.95C268.15 218.95 264.451 217.588 265.152 211.41C265.152 211.41 268.633 208.873 276.648 209.867C276.648 209.867 272.632 207.032 265.592 206.195C265.038 206.201 265.787 198.153 266.458 194.566C267.13 190.979 268.462 191.533 271.341 191.842C274.22 192.152 283.278 195.141 284.358 197.207C285.439 199.273 284.376 204.502 284.376 204.502C284.376 204.502 287.01 202.327 287.592 199.703C287.592 199.703 290.556 199.824 293.095 201.978C295.633 204.131 294.896 205.488 294.073 207.622C293.192 209.904 292.383 211.332 290.744 213.637C290.744 213.637 293.444 212.666 296.007 206.234C296.007 206.234 298.662 211.154 299.13 214.683C299.597 218.213 296.253 225.684 290.752 228.561Z" fill="#4692B6"/>
<path d="M290.621 228.9C290.496 228.851 290.402 228.734 290.39 228.59C289.424 216.618 275.878 197.917 269.89 194.162C269.721 194.056 269.669 193.831 269.776 193.661C269.882 193.491 270.107 193.443 270.276 193.546C276.362 197.363 290.132 216.368 291.112 228.531C291.129 228.732 290.98 228.906 290.78 228.922C290.725 228.927 290.671 228.918 290.621 228.9Z" fill="white"/>
<path d="M75.3757 288.282C74.7689 288.282 74.2778 287.791 74.2778 287.184V216.603C74.2778 215.996 74.7689 215.505 75.3757 215.505C75.9824 215.505 76.4735 215.996 76.4735 216.603V287.184C76.4735 287.791 75.9824 288.282 75.3757 288.282Z" fill="#4692B6"/>
<path d="M119.045 262.591C118.608 262.591 118.195 262.328 118.024 261.896L96.3808 207.114C96.1575 206.551 96.4346 205.912 96.9982 205.69C97.5597 205.465 98.1987 205.743 98.422 206.308L120.065 261.089C120.289 261.654 120.012 262.291 119.448 262.513C119.317 262.567 119.179 262.591 119.045 262.591Z" fill="#4692B6"/>
<path d="M116.445 256.011C116.154 256.011 115.863 255.896 115.648 255.667L75.3742 213.051L35.1741 255.487C34.7569 255.929 34.0626 255.948 33.6225 255.529C33.1817 255.112 33.1637 254.417 33.5809 253.977L74.5787 210.698C74.7854 210.479 75.0741 210.354 75.3749 210.354H75.3764C75.6779 210.354 75.9658 210.479 76.1726 210.698L117.242 254.159C117.659 254.6 117.639 255.294 117.198 255.711C116.987 255.912 116.717 256.011 116.445 256.011Z" fill="#4692B6"/>
<path d="M31.7069 262.591C31.5727 262.591 31.4355 262.567 31.3034 262.514C30.7398 262.292 30.4626 261.654 30.6859 261.09L52.3293 206.309C52.5526 205.744 53.1902 205.466 53.7531 205.691C54.3167 205.913 54.5939 206.551 54.3706 207.115L32.7272 261.897C32.557 262.328 32.1442 262.591 31.7069 262.591Z" fill="#4692B6"/>
<path d="M117.553 254.319L120.414 261.87C120.432 261.935 120.44 261.999 120.44 262.063C120.445 262.107 120.445 262.153 120.44 262.201C120.414 262.355 120.219 262.552 120.009 262.677C119.529 262.956 118.748 262.956 118.268 262.677C118.092 262.574 117.98 262.449 117.929 262.32C117.929 262.316 117.929 262.312 117.924 262.308L117.903 262.205L115.25 255.125L117.553 254.319Z" fill="#27DEBF"/>
<path d="M33.1989 254.319L30.3377 261.87C30.3204 261.935 30.3118 261.999 30.3118 262.063C30.3075 262.107 30.3075 262.153 30.3118 262.201C30.3377 262.355 30.533 262.552 30.7433 262.677C31.2237 262.956 32.0042 262.956 32.4852 262.677C32.6611 262.574 32.7724 262.449 32.8241 262.32C32.8241 262.316 32.8241 262.312 32.8284 262.308L32.85 262.205L35.503 255.125L33.1989 254.319Z" fill="#27DEBF"/>
<path d="M76.6415 281.72V287.966C76.6415 288.153 76.518 288.34 76.271 288.482C75.777 288.768 74.975 288.768 74.481 288.482C74.234 288.34 74.1105 288.153 74.1105 287.966V281.72C74.9542 281.297 75.7978 281.297 76.6415 281.72Z" fill="#27DEBF"/>
<path d="M120.383 206.309C120.379 204.508 118.802 202.586 115.462 200.42C109.292 196.417 95.5076 188.383 86.8751 183.599C86.8572 183.534 86.8026 183.529 86.8026 183.529C80.159 179.497 73.9633 160.298 69.3653 145.707C67.7979 140.734 65.8787 137.919 63.6033 136.598C63.0634 136.284 61.0731 135.188 60.6279 134.921C56.1167 132.217 50.1954 135.465 42.8194 139.502C36.0249 143.22 30.7168 147.981 29.6491 160.612C28.9993 168.303 29.6175 183.001 31.1799 194.139C31.1791 194.138 31.1756 194.129 31.1756 194.129C33.4373 212.738 36.2138 212.771 40.2439 215.884C47.1805 221.243 62.8035 228.777 69.3861 231.366C81.3286 236.064 91.0876 228.821 98.361 225.229C105.634 221.636 114.575 216.033 117.636 213.81C119.457 212.487 120.399 211.151 120.38 209.742C120.372 209.183 120.384 206.892 120.383 206.309Z" fill="#263238"/>
<path d="M98.361 221.766C105.634 218.174 114.575 212.57 117.636 210.347C121.775 207.343 121.394 204.267 115.463 200.42C111.042 197.552 111.271 197.299 77.9576 178.987C77.9576 178.987 35.4929 204.048 37.3195 208.675C39.1461 213.303 61.1061 224.646 69.3861 227.903C81.3286 232.602 91.0876 225.359 98.361 221.766Z" fill="#4692B6"/>
<path d="M63.3391 136.446C58.8695 134.1 53.0602 137.289 45.8744 141.226C41.2713 143.749 37.3496 146.739 34.9666 152.334L31.9323 150.58C34.3154 145.007 38.2299 142.018 42.8179 139.502C50.1954 135.461 56.116 132.22 60.6301 134.921C61.0228 135.151 62.5916 136.024 63.3391 136.446Z" fill="#4692B6"/>
<path d="M45.8723 141.228C56.9116 135.186 64.6969 130.893 69.3653 145.707C73.9634 160.298 80.1597 179.496 86.8026 183.529C86.8026 183.529 84.6515 181.707 68.1289 194.192C62.8717 198.165 56.4923 201.42 52.3013 203.918C44.0895 208.812 39.1124 210.772 38.3254 210.119C33.9851 206.52 31.6344 174.972 32.7028 162.34C33.7704 149.708 39.0779 144.948 45.8723 141.228Z" fill="#4692B6"/>
<g opacity="0.5">
<path d="M45.8723 141.228C56.9116 135.186 64.6969 130.893 69.3653 145.707C73.9634 160.298 80.1597 179.496 86.8026 183.529C86.8026 183.529 75.4101 183.52 58.9004 192.435C41.7345 201.706 39.1124 210.771 38.3254 210.118C33.9851 206.52 31.6344 174.971 32.7028 162.339C33.7704 149.708 39.0779 144.948 45.8723 141.228Z" fill="#4692B6"/>
</g>
<path d="M257.227 105.835C260.151 105.181 262.733 104.568 264.712 104.063C275.255 101.37 278.422 97.8799 278.75 93.2186C279.273 85.7794 276.487 85.722 271.682 89.0463C268.136 91.499 265.19 92.4001 265.19 92.4001C266.294 90.9397 266.807 90.282 267.174 89.3508C267.903 87.499 266.918 86.3093 266.275 85.9948C265.776 85.75 265.268 87.0374 263.525 88.4568C261.29 90.2763 259.479 90.6245 257.622 93.1454C256.926 94.0903 255.889 94.7185 254.745 94.9784C253.699 95.2118 236.484 99.9269 228.425 101.308C223.689 95.2865 219.296 88.8582 214.296 82.4601C206.591 72.5984 202.928 71.2162 198.603 72.0046L194.851 84.3808C194.851 84.3808 220.226 114.262 220.524 114.636C222.481 117.081 225.211 117.964 228.216 117.084C239.155 113.876 250.718 108.839 257.227 105.835Z" fill="#FFA8A7"/>
<path d="M197.604 69.5066C206.612 69.9015 209.285 74.9533 213.904 80.5545C218.523 86.1556 228.598 100.528 228.598 100.528L253.177 95.3826C253.177 95.3826 252.158 102.444 255.342 106.695C255.342 106.695 242.303 113.269 234.408 116.297C224.425 120.124 223.772 119.252 221.967 117.597C220.248 116.021 198.26 91.1679 198.26 91.1679L197.604 69.5066Z" fill="#576EA3"/>
<path d="M96.0095 86.1626C98.3473 79.081 100.92 78.7866 104.105 83.6855C106.456 87.3 108.84 89.2508 108.84 89.2508C108.372 87.4802 108.147 86.6775 108.16 85.6758C108.188 83.6863 109.551 82.9589 110.265 82.9115C110.82 82.8742 110.802 84.2578 111.877 86.233C113.254 88.7647 114.798 89.7735 115.56 92.8099C115.846 93.9479 116.593 96.2197 117.553 96.8946C122.43 100.322 131.309 104.556 140.128 107.962C143.262 101.355 147.389 93.1043 150.538 87.3251C156.526 76.3354 160.486 75.0853 164.848 75.6303L169.286 87.7774C169.286 87.7774 145.62 119.031 145.343 119.42C143.526 121.971 139.812 123.731 136.915 122.542C128.653 119.153 122.512 113.182 115.5 108.422C111.332 105.592 107.401 103.39 104.885 101.52C96.1517 95.0307 94.5441 90.5999 96.0095 86.1626Z" fill="#FFA8A7"/>
<path d="M159.113 222.788C159.307 213.452 162.118 206.528 162.338 203.936C162.338 203.936 161.65 148.409 161.65 139.402L208.998 137.471C208.998 137.471 208.337 193.137 208.337 200.854C208.337 208.57 207.18 241.378 205.958 256.479H205.956L205.819 261.446L195.253 264.731C195.253 264.731 195.45 263.279 195.253 256.23C195.056 249.181 190.304 224.771 189.863 218.572C189.293 210.557 190.566 207.317 190.415 201.958C190.265 196.598 187.093 161.548 187.093 161.548C187.093 161.548 181.162 195.986 179.687 207.681C177.997 221.082 172.572 256.197 172.558 264.362C172.558 265.823 172.561 267.518 172.571 269.353C172.595 273.77 172.448 274.938 173.156 276.645C174.396 279.635 163.81 281.511 163.318 279.388L162.181 270.612V270.359V270.358V264.793C162.183 256.474 158.832 236.327 159.113 222.788Z" fill="#FFA8A7"/>
<path d="M226.496 275.305C226.804 275.948 226.714 277.154 226.349 277.919C225.984 278.684 221.988 280.937 216.6 280.573C211.21 280.21 207.509 278.039 205.455 276.678C203.4 275.318 201.261 275.064 198.592 274.911C195.924 274.758 192.419 273.427 191.834 272.179C191.249 270.931 191.922 268.782 191.922 268.782L226.496 275.305Z" fill="#576EA3"/>
<path d="M204.747 258.484C204.887 258.454 205.029 258.425 205.174 258.396C205.408 258.349 205.652 258.303 205.884 258.358C206.149 258.42 206.366 258.607 206.55 258.807C207.129 259.436 207.479 260.238 207.926 260.968C209.056 262.811 211.427 264.337 214.018 265.729C215.778 266.675 217.503 267.409 219.321 268.227C221.175 269.06 223.636 269.57 225.087 270.548C227.203 271.973 227.475 275.555 225.066 276.969C222.987 278.189 217.518 279.512 211.782 277.887C208.657 277.001 205.189 273.663 201.087 273.342C198.479 273.138 193.547 272.405 191.868 270.425C191.247 269.546 192.076 266.761 192.756 264.357C193.499 261.734 194.386 257.623 195.255 257.854C195.291 258.369 195.191 258.5 195.529 258.85C195.851 259.182 196.284 259.394 196.634 259.693C197.279 260.244 197.675 261.022 198.077 261.769C198.251 262.092 198.457 262.437 198.818 262.572C199.257 262.737 199.586 262.46 199.971 262.282C200.454 262.06 201.019 262.02 201.529 262.171C201.479 261.652 201.387 261.137 201.254 260.632C201.211 260.469 201.164 260.296 201.215 260.135C201.268 259.973 201.41 259.858 201.549 259.759C202.554 259.056 203.593 258.733 204.747 258.484Z" fill="#4692B6"/>
<path d="M183.424 290.575C183.743 290.875 183.647 292.927 183.295 293.479C182.917 294.071 180.75 295.92 176.831 296.2C173.087 296.468 169.742 295.963 167.544 294.567C165.345 293.171 164.281 291.631 164.074 289.498C163.867 287.365 164.104 285.307 163.087 283.664C162.148 282.148 160.652 280.44 160.326 279.617C159.617 277.829 160.301 275.272 160.301 275.272L183.424 290.575Z" fill="#576EA3"/>
<path d="M173.174 271.951C173.201 272.78 173.347 273.536 173.607 274.326C174.149 275.98 174.974 277.538 175.9 279.019C176.377 279.781 176.881 280.53 177.462 281.222C178.595 282.569 180.001 283.677 181.2 284.969C182.399 286.262 183.418 287.829 183.512 289.566C183.672 292.504 180.484 293.502 178.03 293.938C175.409 294.405 172.612 294.265 170.053 293.538C167.207 292.729 165.154 290.524 164.681 287.684C164.546 286.869 164.596 286.035 164.5 285.214C164.279 283.343 163.31 281.632 162.215 280.076C161.579 279.173 160.889 278.291 160.462 277.279C159.696 275.461 160.31 273.416 160.8 271.604C161.223 270.04 161.702 268.27 162.252 268.418C162.259 269.228 162.249 269.312 162.831 269.862C163.567 270.557 163.598 271.603 164.376 272.218C164.012 271.265 163.988 270.861 163.83 270.129C163.783 269.91 163.843 269.466 163.996 269.299C164.202 269.073 164.554 268.933 164.898 268.817C166.053 268.426 167.251 268.155 168.465 268.005C169.574 267.869 170.847 267.734 171.946 267.98C172.284 268.056 172.613 268.218 172.821 268.487C173.04 268.77 173.081 269.021 173.134 269.49C173.186 269.958 173.149 271.171 173.174 271.951Z" fill="#4692B6"/>
<path d="M176.296 279.634C175.202 278.815 172.751 278.804 171.411 278.948C169.733 279.128 168.374 279.716 167.602 280.285C167.26 280.537 166.781 280.493 166.481 280.196C166.119 279.839 166.152 279.252 166.563 278.949C167.381 278.347 168.861 277.5 170.85 277.36C174.147 277.128 175.114 277.693 175.114 277.693C175.114 277.693 176.619 278.661 176.296 279.634Z" fill="#F5F5F5"/>
<path d="M178.811 282.644C177.435 281.831 174.74 281.948 173.4 282.092C171.722 282.272 170.468 282.932 169.696 283.501C169.354 283.753 168.875 283.709 168.574 283.412C168.212 283.054 168.245 282.467 168.657 282.164C169.475 281.562 171.047 280.589 173.036 280.449C176.334 280.217 177.193 280.891 177.193 280.891C177.193 280.891 178.583 281.429 178.811 282.644Z" fill="#F5F5F5"/>
<path d="M169.537 274.203C171.816 273.968 172.782 274.223 173.683 274.551C174.264 274.876 174.646 275.794 174.272 276.027C173.538 275.619 172.217 275.45 170.598 275.522C169.511 275.57 168.142 276.01 167.031 276.502C166.749 276.627 166.415 276.803 166.123 276.965C165.729 277.183 165.227 277.028 165.038 276.627C164.878 276.288 164.997 275.883 165.324 275.685C166.121 275.203 167.695 274.393 169.537 274.203Z" fill="#F5F5F5"/>
<path d="M211.581 264.311C211.581 264.311 211.206 263.31 209.655 263.021C208.468 262.8 206.373 263.675 205.069 264.749C204.536 265.188 204.606 266.022 205.21 266.356C205.57 266.555 206.011 266.503 206.322 266.233C207.175 265.49 209.091 264.139 211.581 264.311Z" fill="#F5F5F5"/>
<path d="M215.259 266.371C215.259 266.371 214.492 265.172 212.977 265.195C212.977 265.195 209.878 265.284 207.959 267.072C207.47 267.527 207.504 268.304 208.09 268.626C208.439 268.818 208.864 268.767 209.161 268.502C210.025 267.731 211.758 266.109 215.259 266.371Z" fill="#F5F5F5"/>
<path d="M219.32 268.227C219.32 268.227 218.466 267.142 216.95 267.165C216.95 267.165 214.062 267.273 212.145 269.062C211.656 269.518 211.689 270.294 212.275 270.616C212.624 270.808 213.049 270.757 213.346 270.492C214.21 269.72 215.819 267.965 219.32 268.227Z" fill="#F5F5F5"/>
<path d="M208.999 137.471C208.999 137.471 209.631 176.691 209.699 183.582C209.767 190.473 209.699 203.686 209.699 210.427C209.699 210.427 207.954 213.371 198.004 213.361C188.055 213.352 186.618 210.604 186.618 210.604L185.146 178.896L182.403 211.83C182.403 211.83 176.69 216.263 168.495 214.497C160.3 212.73 159.097 210.289 159.097 210.289L160.707 137.619L208.999 137.471Z" fill="#576EA3"/>
<path d="M185.146 178.897L186.607 165.582C186.607 165.582 193.436 163.919 198.004 160.482C198.004 160.482 195.587 163.476 192.816 165.028C190.045 166.58 188.714 167.223 188.714 167.223L186.719 180.106L186.367 205.216L185.146 178.897Z" fill="#263238"/>
<path d="M160.101 144.268C166.6 149.002 196.053 154.246 209.725 144.268C209.725 144.268 209.408 106.082 208.337 85.8706C208.286 84.9523 208.225 84.0648 208.133 83.1975C208.102 82.9117 208.061 82.626 208.031 82.3402C207.868 81.0851 207.643 79.8918 207.338 78.7595C207.287 78.5657 207.226 78.3718 207.165 78.178C207.032 77.7393 206.889 77.3106 206.716 76.8927C206.624 76.668 206.532 76.444 206.43 76.2293C206.338 76.0254 206.246 75.8215 206.134 75.6276C206.124 75.5867 206.103 75.5565 206.083 75.5156C205.981 75.3218 205.869 75.1279 205.757 74.9441C205.634 74.7402 205.512 74.5363 205.369 74.3316C205.236 74.1478 205.103 73.954 204.971 73.7809C204.818 73.5871 204.654 73.3932 204.481 73.2094C204.328 73.0256 204.155 72.8526 203.982 72.6888C203.87 72.5768 203.747 72.4641 203.625 72.3521C203.513 72.2501 203.39 72.1482 203.268 72.0563C203.115 71.9235 202.941 71.8014 202.778 71.6786C202.248 71.301 201.677 70.9642 201.054 70.6583C200.891 70.5772 200.718 70.4954 200.544 70.4236C200.503 70.4035 200.452 70.3927 200.421 70.3726C200.217 70.2907 200.013 70.2096 199.809 70.1378C199.473 70.005 199.116 69.893 198.748 69.791C198.381 69.689 198.004 69.5971 197.605 69.5052C197.166 69.4851 196.677 69.4744 196.146 69.4744C195.809 69.4744 195.442 69.4844 195.065 69.4945C194.687 69.5045 194.299 69.5153 193.902 69.5354C188.79 69.7601 181.455 70.5865 175.568 71.3412C175.181 71.3921 174.793 71.4431 174.415 71.4941C174.068 71.535 173.732 71.576 173.405 71.6162C169.365 72.1468 166.366 72.5855 165.906 72.6565C165.865 72.6666 165.845 72.6666 165.845 72.6666C164.519 73.0033 163.295 73.32 162.305 73.6151C159.601 74.4106 161.612 73.7271 161.02 76.3392C159.275 84.011 161.306 111.904 161.306 111.904L160.101 144.268Z" fill="#4692B6"/>
<path d="M171.868 48.531C171.868 48.531 173.968 58.3999 174.811 60.0219C175.654 61.6431 177.395 62.1041 177.395 62.1041L177.248 55.1617L171.868 48.531Z" fill="#263238"/>
<path d="M174.504 34.3927C174.504 34.3927 172.242 34.005 170.478 35.8086C168.749 37.577 169.715 43.1107 171.868 48.5316L175.825 48.9861L174.504 34.3927Z" fill="#263238"/>
<path d="M177.011 48.9882C176.218 49.4621 175.086 47.9378 174.108 46.9139C173.129 45.8901 169.935 44.4914 168.342 47.8488C166.718 51.2708 169.748 55.7913 172.263 56.5804C176.596 57.941 177.247 55.1609 177.247 55.1609L177.537 71.0976C182.078 79.313 197.434 75.1062 191.677 69.6623L191.665 65.6142C191.665 65.6142 196.286 65.9101 198.202 65.6142C201.389 65.1217 202.699 62.9153 203.666 59.4653C205.219 53.9245 205.809 49.4499 204.491 38.5521C203.047 26.6075 189.154 26.4832 181.653 31.2055C174.151 35.9278 177.011 48.9882 177.011 48.9882Z" fill="#FFA8A7"/>
<path d="M175.156 27.8626C177.727 26.6571 180.56 26.0037 183.351 25.3977C189.409 24.0823 195.582 22.8703 201.115 20.0737C201.798 19.7291 202.526 19.3493 203.284 19.4491C204.743 19.6408 205.383 21.4085 205.441 22.879C205.494 24.2403 205.316 25.6109 204.914 26.9127C205.699 25.9786 207.302 26.1085 208.173 26.9637C209.043 27.8188 209.275 29.1564 209.116 30.3663C208.759 33.0789 206.681 35.3377 204.224 36.5425C201.768 37.748 198.971 38.0496 196.237 38.1286C192.417 38.2391 188.586 37.9498 184.825 37.2677C183.912 37.1018 182.978 36.913 182.063 37.0674C181.148 37.2224 180.24 37.8091 180 38.7058C179.598 40.2136 179.18 50.4746 177.071 50.5169C176.678 50.5248 175.183 47.9415 174.21 47.0188C172.988 45.86 171.757 37.0717 171.539 35.4475C171.521 35.3147 171.448 35.2113 171.37 35.1022C169.992 33.1715 171.61 29.9168 173.312 28.8592C173.907 28.4887 174.524 28.1584 175.156 27.8626Z" fill="#263238"/>
<path d="M172.133 35.2421C171.097 36.4569 169.274 36.6027 168.059 35.5673C166.844 34.532 166.698 32.7083 167.733 31.4934L172.133 35.2421Z" fill="#263238"/>
<path d="M191.666 65.615C191.666 65.615 184.551 64.9315 182.064 63.6089C180.399 62.7243 179.028 61.1907 178.625 60.207C178.625 60.207 179.091 62.318 180.579 64.2192C182.398 66.5448 191.666 68.2573 191.666 68.2573V65.615Z" fill="#F28F8F"/>
<path d="M189.956 47.2099C189.956 48.0277 189.318 48.6897 188.53 48.6876C187.743 48.6854 187.105 48.0205 187.105 47.202C187.105 46.3842 187.743 45.7229 188.53 45.7244C189.318 45.7272 189.956 46.3921 189.956 47.2099Z" fill="#263238"/>
<path d="M188.444 41.8278L185.394 43.5108C184.945 42.6348 185.263 41.5471 186.105 41.0825C186.947 40.6173 187.995 40.9511 188.444 41.8278Z" fill="#263238"/>
<path d="M191.022 57.0588L194.276 58.2802C193.954 59.2128 192.965 59.696 192.066 59.3586C191.167 59.0211 190.699 57.9915 191.022 57.0588Z" fill="#F28F8F"/>
<path d="M202.67 43.0147L199.888 40.8721C200.456 40.0759 201.538 39.91 202.306 40.5009C203.074 41.0926 203.237 42.2177 202.67 43.0147Z" fill="#263238"/>
<path d="M201.813 46.8041C201.813 47.622 201.175 48.2832 200.387 48.2811C199.6 48.2789 198.961 47.6141 198.961 46.7963C198.961 45.9785 199.6 45.3165 200.387 45.3186C201.175 45.3208 201.813 45.9863 201.813 46.8041Z" fill="#263238"/>
<path d="M195.73 45.7861L196.198 54.3605L200.674 52.834L195.73 45.7861Z" fill="#F28F8F"/>
<path d="M166.394 72.6594C155.876 72.8253 153.147 79.0238 150.051 85.5899C146.998 92.067 139.079 106.991 139.079 106.991L119.274 98.0343C119.274 98.0343 117.847 103.388 112.622 106.53C112.622 106.53 121.975 114.379 130.009 120.125C136.825 124.999 140.785 127.523 143.397 125.778C145.336 124.483 164.669 99.2233 164.669 99.2233C169.588 91.5206 170.641 78.4795 166.394 72.6594Z" fill="#576EA3"/>
<path d="M199.888 50.6799C199.86 50.6799 198.76 50.1055 198.76 50.1055L197.659 48.5273C197.659 48.5273 198.271 48.2545 198.773 48.6099C199.277 48.9653 199.888 50.6799 199.888 50.6799Z" fill="#4692B6"/>
<path opacity="0.65" d="M199.888 50.6799C199.86 50.6799 198.76 50.1055 198.76 50.1055L197.659 48.5273C197.659 48.5273 198.271 48.2545 198.773 48.6099C199.277 48.9653 199.888 50.6799 199.888 50.6799Z" fill="black"/>
<path d="M210.388 45.7529C210.334 48.0742 208.405 50.2878 206.16 50.6878L204.384 50.9951C203.554 51.1408 202.739 51.2026 202.032 51.1796C201.955 51.1796 201.879 51.1796 201.794 51.1717C201.663 51.1717 201.533 51.1566 201.41 51.1487C201.171 51.1257 200.956 51.087 200.756 51.041C200.642 51.018 200.526 50.9872 200.425 50.9491C200.318 50.9182 200.226 50.8802 200.141 50.8335C200.102 50.8184 200.056 50.7947 200.026 50.7718C199.972 50.7409 199.926 50.71 199.888 50.6799C199.811 50.6109 199.749 50.542 199.711 50.4652L199.104 49.2194C198.866 48.7355 198.22 48.4275 197.659 48.528L196.391 48.7506C195.83 48.8504 195.184 49.3882 194.946 49.9497C194.946 49.9497 194.676 50.6109 194.338 51.418C194 52.225 191.909 53.2015 189.665 53.5928L187.889 53.908C187.513 53.9697 187.151 53.9848 186.806 53.946C186.598 53.931 186.406 53.8922 186.214 53.8383C186.121 53.8154 186.029 53.7845 185.938 53.7536C185.884 53.7306 185.822 53.7077 185.768 53.6847C185.614 53.6229 185.461 53.5461 185.322 53.4614C184.838 53.269 177.105 50.1256 176.045 47.5889C174.354 43.5078 181.31 39.311 183.816 38.5112V38.5191C184.108 38.4035 184.4 38.3116 184.708 38.2577L202.978 35.0368C203.962 34.8602 204.884 35.0598 205.614 35.5286C206.083 35.8287 207.805 36.8433 208.52 37.2734C208.582 37.3042 208.651 37.3423 208.705 37.3811C208.804 37.4428 208.905 37.5117 209.005 37.5807C209.036 37.6036 209.074 37.6266 209.097 37.6575C209.197 37.7343 209.29 37.819 209.382 37.9109C209.497 38.0265 209.597 38.1414 209.689 38.2721C209.766 38.3647 209.828 38.4645 209.881 38.5643C209.974 38.7029 210.043 38.8566 210.112 39.0102C210.166 39.1409 210.212 39.2795 210.25 39.4173C210.25 39.4252 210.25 39.4252 210.25 39.4324C210.289 39.5552 210.319 39.6858 210.335 39.8244C210.343 39.8553 210.35 39.8862 210.35 39.9163C210.373 40.0621 210.389 40.2164 210.389 40.3701C210.434 42.1637 210.434 43.9544 210.388 45.7529Z" fill="#4692B6"/>
<g opacity="0.2">
<path d="M210.388 45.7529C210.334 48.0742 208.405 50.2878 206.16 50.6878L204.384 50.9951C203.554 51.1408 202.739 51.2026 202.032 51.1796C201.955 51.1796 201.879 51.1796 201.794 51.1717C201.663 51.1717 201.533 51.1566 201.41 51.1487C201.171 51.1257 200.956 51.087 200.756 51.041C200.642 51.018 200.526 50.9872 200.425 50.9491C200.318 50.9182 200.226 50.8802 200.141 50.8335C200.102 50.8184 200.056 50.7947 200.026 50.7718C199.972 50.7409 199.926 50.71 199.888 50.6799C199.811 50.6109 199.749 50.542 199.711 50.4652L199.104 49.2194C198.866 48.7355 198.22 48.4275 197.659 48.528L196.391 48.7506C195.83 48.8504 195.184 49.3882 194.946 49.9497C194.946 49.9497 194.676 50.6109 194.338 51.418C194 52.225 191.909 53.2015 189.665 53.5928L187.889 53.908C187.513 53.9697 187.151 53.9848 186.806 53.946C186.598 53.931 186.406 53.8922 186.214 53.8383C186.121 53.8154 186.029 53.7845 185.938 53.7536C185.884 53.7306 185.822 53.7077 185.768 53.6847C185.614 53.6229 185.461 53.5461 185.322 53.4614C184.838 53.269 177.105 50.1256 176.045 47.5889C174.354 43.5078 181.31 39.311 183.816 38.5112V38.5191C184.108 38.4035 184.4 38.3116 184.708 38.2577L202.978 35.0368C203.962 34.8602 204.884 35.0598 205.614 35.5286C206.083 35.8287 207.805 36.8433 208.52 37.2734C208.582 37.3042 208.651 37.3423 208.705 37.3811C208.804 37.4428 208.905 37.5117 209.005 37.5807C209.036 37.6036 209.074 37.6266 209.097 37.6575C209.197 37.7343 209.29 37.819 209.382 37.9109C209.497 38.0265 209.597 38.1414 209.689 38.2721C209.766 38.3647 209.828 38.4645 209.881 38.5643C209.974 38.7029 210.043 38.8566 210.112 39.0102C210.166 39.1409 210.212 39.2795 210.25 39.4173C210.25 39.4252 210.25 39.4252 210.25 39.4324C210.289 39.5552 210.319 39.6858 210.335 39.8244C210.343 39.8553 210.35 39.8862 210.35 39.9163C210.373 40.0621 210.389 40.2164 210.389 40.3701C210.434 42.1637 210.434 43.9544 210.388 45.7529Z" fill="black"/>
</g>
<path d="M208.52 37.2748C207.836 36.9216 207.021 36.783 206.161 36.9366L187.891 40.1569C185.746 40.541 183.886 42.578 183.679 44.7837L178.437 41.7551C180.266 40.1332 182.58 38.9111 183.817 38.5119V38.5198C184.11 38.4042 184.402 38.3123 184.709 38.2585L202.979 35.0375C203.963 34.8609 204.886 35.0605 205.616 35.5294C206.083 35.8302 207.805 36.8447 208.52 37.2748Z" fill="#4692B6"/>
<path opacity="0.35" d="M208.52 37.2748C207.836 36.9216 207.021 36.783 206.161 36.9366L187.891 40.1569C185.746 40.541 183.886 42.578 183.679 44.7837L178.437 41.7551C180.266 40.1332 182.58 38.9111 183.817 38.5119V38.5198C184.11 38.4042 184.402 38.3123 184.709 38.2585L202.979 35.0375C203.963 34.8609 204.886 35.0605 205.616 35.5294C206.083 35.8302 207.805 36.8447 208.52 37.2748Z" fill="white"/>
<path d="M210.391 40.3758C210.432 42.1614 210.432 43.9557 210.391 45.7565C210.337 48.077 208.401 50.2892 206.159 50.6848L204.383 50.9979C202.141 51.3935 200.049 51.1537 199.712 50.4651L199.105 49.2194C198.869 48.7369 198.22 48.426 197.659 48.5251L196.39 48.7491C195.829 48.8482 195.183 49.3867 194.947 49.9525C194.947 49.9525 194.673 50.6073 194.336 51.415C193.999 52.2228 191.908 53.1978 189.665 53.5934L187.89 53.9065C185.648 54.3021 183.711 52.7728 183.658 50.4709C183.616 48.6845 183.616 46.8902 183.658 45.0894C183.711 42.7689 185.648 40.556 187.89 40.1604L206.158 36.9394C208.401 36.5431 210.337 38.0731 210.391 40.3758Z" fill="#4692B6"/>
<path opacity="0.5" d="M210.388 45.7529C210.334 48.0742 208.405 50.2878 206.16 50.6877L204.384 50.995C203.554 51.1408 202.739 51.2025 202.032 51.1795C201.955 51.1795 201.879 51.1795 201.794 51.1716C201.663 51.1716 201.533 51.1566 201.41 51.1487C201.171 51.1257 200.956 51.0869 200.756 51.041C200.641 51.018 200.526 50.9871 200.425 50.9491C200.318 50.9182 200.226 50.8801 200.141 50.8335C200.102 50.8184 200.056 50.7947 200.026 50.7717C199.972 50.7408 199.926 50.71 199.888 50.6798C199.811 50.6109 199.749 50.542 199.711 50.4651L199.104 49.2194C198.866 48.7355 198.22 48.4274 197.659 48.528L196.391 48.7506C195.83 48.8504 195.184 49.3881 194.946 49.9496C194.946 49.9496 194.676 50.6109 194.338 51.4179C194 52.2249 191.909 53.2014 189.665 53.5927L187.889 53.9079C187.513 53.9697 187.151 53.9848 186.806 53.946C186.598 53.9309 186.406 53.8921 186.214 53.8383C186.121 53.8153 186.029 53.7844 185.938 53.7536C185.884 53.7306 185.822 53.7076 185.768 53.6846C185.614 53.6229 185.461 53.5461 185.322 53.4613C184.339 52.8618 183.685 51.7934 183.654 50.4716C183.616 48.6809 183.616 46.8895 183.654 45.0909C183.708 42.7696 185.645 40.556 187.889 40.1561L206.159 36.9359C207.02 36.7822 207.835 36.9208 208.519 37.274C208.58 37.3049 208.649 37.343 208.703 37.3817C208.803 37.4435 208.904 37.5124 209.003 37.5813C209.034 37.6043 209.072 37.6273 209.096 37.6582C209.196 37.735 209.288 37.8197 209.38 37.9116C209.495 38.0272 209.596 38.1421 209.688 38.2728C209.764 38.3654 209.826 38.4652 209.88 38.565C209.973 38.7036 210.042 38.8572 210.11 39.0109C210.164 39.1416 210.21 39.2801 210.249 39.418C210.249 39.4259 210.249 39.4259 210.249 39.4331C210.287 39.5558 210.318 39.6865 210.334 39.8251C210.342 39.856 210.349 39.8868 210.349 39.917C210.372 40.0628 210.388 40.2171 210.388 40.3708C210.434 42.1636 210.434 43.9543 210.388 45.7529Z" fill="white"/>
<g opacity="0.7">
<path d="M210.388 40.3723C210.388 40.2186 210.372 40.065 210.349 39.9185C210.349 39.8876 210.341 39.8568 210.334 39.8266C210.319 39.688 210.288 39.5574 210.249 39.4346C210.249 39.4267 210.249 39.4267 210.249 39.4195C210.21 39.2809 210.164 39.1431 210.111 39.0124C210.042 38.8587 209.972 38.7051 209.88 38.5665C209.826 38.4667 209.764 38.3669 209.688 38.2743C209.596 38.1436 209.495 38.028 209.38 37.9131C209.288 37.8212 209.196 37.7365 209.096 37.6597C209.074 37.631 209.039 37.6094 209.009 37.5872L198.074 48.5223C198.51 48.5848 198.923 48.8519 199.104 49.2195L199.71 50.4652C199.749 50.542 199.81 50.611 199.887 50.6799C199.926 50.7108 199.972 50.7416 200.026 50.7718C200.056 50.7948 200.102 50.8177 200.14 50.8335C200.225 50.8795 200.317 50.9183 200.425 50.9491C200.525 50.9872 200.64 51.0181 200.756 51.041C200.955 51.087 201.171 51.1258 201.409 51.1487C201.532 51.1566 201.663 51.1717 201.793 51.1717C201.878 51.1796 201.955 51.1796 202.032 51.1796C202.468 51.194 202.951 51.1645 203.447 51.1143L210.407 44.1547C210.421 42.8925 210.42 41.6324 210.388 40.3723Z" fill="#4692B6"/>
<path d="M201.716 37.7199L185.757 53.6789C185.761 53.6803 185.765 53.6832 185.769 53.6846C185.823 53.7076 185.884 53.7306 185.938 53.7535C186.03 53.7844 186.123 53.8153 186.215 53.8383C186.407 53.8921 186.599 53.9302 186.806 53.946C187.152 53.9847 187.514 53.9689 187.89 53.9079L189.052 53.7018L205.744 37.0105L201.716 37.7199Z" fill="#4692B6"/>
<path d="M190.355 39.7232L183.641 46.4372C183.626 47.7842 183.626 49.129 183.655 50.4724C183.67 51.1329 183.841 51.7296 184.13 52.2365L197.99 38.377L190.355 39.7232Z" fill="#4692B6"/>
</g>
<path d="M179.425 46.7711C179.425 47.2227 179.097 47.5365 178.694 47.4733C178.29 47.4094 177.963 46.9922 177.963 46.5413C177.963 46.0904 178.29 45.7759 178.694 45.8391C179.097 45.9023 179.425 46.3202 179.425 46.7711Z" fill="#263238"/>
<g opacity="0.5">
<path d="M206.854 37.2589C207.383 37.2589 207.885 37.3788 208.348 37.6186C208.392 37.6409 208.443 37.6674 208.504 37.7105C208.598 37.7687 208.692 37.8333 208.775 37.8907L208.809 37.9159L208.822 37.9331L208.863 37.964C208.942 38.0243 209.02 38.0946 209.11 38.1851C209.216 38.2906 209.301 38.3897 209.395 38.5204C209.446 38.5807 209.492 38.6532 209.543 38.748L209.552 38.7645L209.562 38.7796C209.637 38.8923 209.698 39.0266 209.756 39.158C209.796 39.2542 209.833 39.3605 209.866 39.4732V39.4933L209.884 39.5493C209.919 39.6635 209.942 39.7683 209.953 39.8702L209.96 39.8947L209.966 39.9198V39.9499L209.971 39.9801C209.993 40.1215 210.005 40.2544 210.005 40.3836C210.05 42.1585 210.05 43.9621 210.005 45.7449C209.956 47.8508 208.165 49.9409 206.096 50.31L204.32 50.618C203.638 50.7379 202.95 50.8011 202.33 50.8011C202.234 50.8011 202.14 50.7996 202.034 50.7961C202.028 50.7961 202.021 50.7961 202.014 50.7961C201.955 50.7961 201.892 50.7961 201.796 50.7882C201.717 50.7882 201.637 50.7817 201.561 50.7752L201.449 50.7673C201.249 50.748 201.051 50.7156 200.834 50.6654C200.731 50.6446 200.639 50.6194 200.534 50.5807C200.458 50.5591 200.392 50.5326 200.328 50.4974L200.282 50.4751L200.26 50.4665L200.24 50.4514L200.218 50.4392C200.183 50.4198 200.154 50.4004 200.147 50.3954C200.084 50.3394 200.063 50.3078 200.058 50.2978L199.45 49.0513C199.182 48.5064 198.536 48.1265 197.878 48.1258C197.781 48.1258 197.685 48.1344 197.594 48.1502L196.326 48.3735C195.643 48.4949 194.882 49.1217 194.592 49.8059C194.592 49.8059 194.324 50.4658 193.986 51.2699C193.734 51.8716 191.872 52.8187 189.601 53.215L187.83 53.5295C187.61 53.5654 187.396 53.584 187.195 53.584C187.078 53.584 186.964 53.5783 186.837 53.5639C186.671 53.5517 186.507 53.5216 186.31 53.467C186.228 53.4462 186.145 53.4189 186.091 53.4024L185.999 53.3651L185.913 53.3299C185.78 53.276 185.645 53.2093 185.525 53.1353C184.609 52.5767 184.067 51.6038 184.041 50.4651C184.003 48.6894 184.003 46.8844 184.041 45.1016C184.09 42.9964 185.884 40.9063 187.959 40.5366L206.23 37.3156C206.436 37.2776 206.647 37.2589 206.854 37.2589ZM206.854 36.8748C206.627 36.8748 206.396 36.8949 206.161 36.9372L187.891 40.1575C185.646 40.5574 183.709 42.771 183.656 45.0923C183.618 46.8909 183.618 48.6815 183.656 50.473C183.687 51.7948 184.34 52.8632 185.324 53.4627C185.462 53.5474 185.616 53.6243 185.77 53.686C185.823 53.709 185.885 53.732 185.939 53.7549C186.031 53.7858 186.124 53.8167 186.215 53.8397C186.408 53.8935 186.6 53.9316 186.807 53.9474C186.934 53.9617 187.063 53.9682 187.194 53.9682C187.42 53.9682 187.652 53.9474 187.891 53.9086L189.666 53.5934C191.911 53.2014 194.001 52.2249 194.34 51.4178C194.678 50.6108 194.947 49.9495 194.947 49.9495C195.185 49.3881 195.831 48.8503 196.392 48.7505L197.66 48.5272C197.731 48.5143 197.805 48.5085 197.877 48.5085C198.379 48.5085 198.897 48.7964 199.105 49.2193L199.712 50.4651C199.75 50.5419 199.812 50.6108 199.889 50.6797C199.927 50.7106 199.974 50.7415 200.028 50.7716C200.058 50.7946 200.104 50.8176 200.142 50.8334C200.227 50.8793 200.319 50.9181 200.427 50.949C200.527 50.987 200.642 51.0179 200.757 51.0409C200.957 51.0868 201.172 51.1256 201.41 51.1486C201.533 51.1565 201.664 51.1716 201.795 51.1716C201.879 51.1795 201.956 51.1795 202.032 51.1795C202.129 51.1823 202.228 51.1845 202.328 51.1845C202.963 51.1845 203.668 51.1213 204.384 50.9957L206.16 50.6884C208.404 50.2884 210.334 48.0748 210.388 45.7535C210.434 43.955 210.434 42.1643 210.388 40.3736C210.388 40.2199 210.372 40.0663 210.349 39.9198C210.349 39.8889 210.342 39.858 210.334 39.8279C210.319 39.6893 210.288 39.5586 210.249 39.4359C210.249 39.428 210.249 39.428 210.249 39.4208C210.21 39.2822 210.164 39.1444 210.11 39.0137C210.042 38.86 209.972 38.7064 209.88 38.5678C209.826 38.468 209.765 38.3682 209.688 38.2756C209.596 38.1449 209.495 38.0293 209.38 37.9144C209.288 37.8225 209.196 37.7378 209.096 37.661C209.072 37.6301 209.034 37.6071 209.003 37.5841C208.903 37.5152 208.804 37.4456 208.703 37.3845C208.649 37.3458 208.58 37.3077 208.519 37.2768C208.022 37.0176 207.456 36.8748 206.854 36.8748Z" fill="black"/>
</g>
<path d="M183.655 50.4723L183.562 46.6058C183.565 45.9568 183.512 45.3264 183.565 44.6608C183.635 44.0017 183.85 43.3634 184.163 42.7818C184.79 41.6201 185.828 40.6658 187.083 40.1991C187.723 39.9643 188.369 39.9026 188.997 39.7762L190.899 39.4323L198.521 38.1334C201.063 37.7113 203.61 37.3142 206.16 36.9373C203.634 37.4549 201.105 37.9518 198.572 38.425L190.966 39.8107L189.062 40.1374C188.428 40.258 187.778 40.319 187.203 40.528C186.029 40.9466 185.052 41.8491 184.421 42.9254C184.11 43.4682 183.889 44.0684 183.806 44.6902C183.737 45.3091 183.773 45.9704 183.749 46.6087L183.655 50.4723Z" fill="white"/>
<g opacity="0.3">
<path d="M313.118 19.4435V112.394C311.526 122.125 306.523 131.678 298.014 140.456C295.109 143.454 291.835 146.367 288.146 149.142C284.871 151.555 281.328 153.915 277.462 156.144C263.403 164.283 246.755 170.017 229.061 173.384C226.248 173.922 223.404 174.399 220.537 174.814V81.4406C240.422 78.2276 259.161 72.3019 274.856 63.6622C294.34 52.9324 306.224 39.6042 310.528 25.7073C310.528 25.6994 310.528 25.6922 310.536 25.6922C311.358 23.6014 312.027 21.4955 312.526 19.3738C312.61 19.0278 313.118 19.0974 313.118 19.4435Z" fill="#7799E3"/>
</g>
<path d="M220.152 175.257V81.1131L220.476 81.0614C240.823 77.7737 259.563 71.6413 274.67 63.3261C293.421 52.9998 305.686 39.9731 310.142 25.649V25.3231L310.268 25.318C311.05 23.2983 311.684 21.27 312.15 19.2861C312.236 18.9422 312.548 18.7268 312.897 18.767C313.248 18.8094 313.502 19.0937 313.502 19.4427V112.393C311.854 122.497 306.737 132.008 298.289 140.722C295.279 143.829 291.943 146.765 288.375 149.447C284.826 152.064 281.32 154.361 277.652 156.476C263.907 164.434 247.582 170.25 229.131 173.76C226.324 174.297 223.45 174.779 220.59 175.192L220.152 175.257ZM220.921 81.7672V174.368C223.624 173.971 226.336 173.514 228.988 173.007C247.354 169.512 263.598 163.726 277.268 155.812C280.911 153.711 284.394 151.428 287.917 148.832C291.449 146.175 294.754 143.266 297.737 140.189C306.074 131.588 311.122 122.216 312.739 112.332L312.733 20.1427C312.259 22.0196 311.641 23.9309 310.893 25.8336L310.884 25.8551C306.373 40.3802 293.979 53.5699 275.041 63.9996C259.938 72.3119 241.23 78.4536 220.921 81.7672Z" fill="#7799E3"/>
<path d="M242.117 151.637C241.949 151.637 241.784 151.582 241.649 151.478C241.459 151.332 241.349 151.107 241.349 150.868V95.9694C241.349 95.6219 241.582 95.3175 241.918 95.227C246.463 94.0093 250.654 92.7054 254.73 91.2428C254.964 91.1595 255.227 91.194 255.432 91.3376C255.637 91.4819 255.758 91.716 255.758 91.9666V146.866C255.758 147.19 255.555 147.479 255.249 147.589C251.123 149.069 246.892 150.384 242.316 151.611C242.25 151.629 242.184 151.637 242.117 151.637ZM242.886 96.5596V149.864C246.866 148.775 250.588 147.612 254.221 146.324V93.0558C250.599 94.3252 246.875 95.4769 242.886 96.5596Z" fill="white"/>
<path d="M266.815 142.813C266.669 142.813 266.523 142.771 266.397 142.689C266.178 142.547 266.047 142.305 266.047 142.045V87.1458C266.047 86.8421 266.226 86.5664 266.504 86.4429C269.84 84.9609 273.299 83.1868 277.077 81.0206C277.86 80.6056 278.582 80.1539 279.279 79.7174C279.517 79.5695 279.816 79.5609 280.059 79.6966C280.304 79.8316 280.456 80.0893 280.456 80.3693V135.268C280.456 135.533 280.32 135.779 280.095 135.919C279.37 136.373 278.621 136.841 277.819 137.267C274.017 139.446 270.513 141.243 267.128 142.748C267.028 142.792 266.921 142.813 266.815 142.813ZM267.584 87.6441V140.854C270.587 139.474 273.704 137.853 277.076 135.92C277.72 135.579 278.328 135.209 278.918 134.841V81.7457C278.562 81.9576 278.197 82.1665 277.818 82.3675C274.187 84.449 270.827 86.1815 267.584 87.6441Z" fill="white"/>
<path d="M291.468 127.713C291.356 127.713 291.244 127.689 291.14 127.64C290.871 127.513 290.7 127.242 290.7 126.944V72.0449C290.7 71.8159 290.801 71.5983 290.978 71.4525C293.315 69.5211 295.499 67.5186 297.467 65.5039C299.746 63.1841 301.846 60.661 303.71 58.0044C303.903 57.7294 304.252 57.6109 304.571 57.7136C304.89 57.8148 305.108 58.1114 305.108 58.4467V113.345C305.108 113.503 305.06 113.657 304.968 113.787C303.056 116.511 300.902 119.099 298.565 121.479C296.56 123.531 294.336 125.57 291.958 127.538C291.817 127.653 291.643 127.713 291.468 127.713ZM292.236 72.4068V125.292C294.101 123.691 295.855 122.051 297.467 120.403C299.689 118.14 301.741 115.684 303.57 113.1V60.7989C302.025 62.8265 300.348 64.7644 298.565 66.5802C296.638 68.5525 294.51 70.5112 292.236 72.4068Z" fill="white"/>
<g opacity="0.3">
<path d="M229.84 161.153L261.063 103.469L286.04 135.916C286.04 135.916 275.515 150.982 229.84 161.153Z" fill="#7799E3"/>
</g>
<g opacity="0.3">
<path d="M171.836 164.621C143.328 163.099 115.573 156.327 93.7363 144.306C69.1635 130.77 56.6653 113.107 56.2503 95.3748V93.615L56.0277 33.8752C56.0126 29.6096 63.5372 41.7021 79.2708 54.0998C79.6398 54.3993 80.0161 54.6843 80.393 54.9758C81.2697 55.6522 82.1686 56.3134 83.0984 56.974C86.3653 59.2953 89.9395 61.5319 93.8131 63.6607C115.565 75.6434 143.197 82.4077 171.598 83.9521L171.836 164.621Z" fill="#7799E3"/>
</g>
<path d="M56.7959 33.9607C57.6532 34.5581 59.4181 36.412 61.2698 38.357C65.1211 42.4022 70.9412 48.516 78.7854 54.6973C79.0611 54.9213 79.3419 55.1374 79.6233 55.3542L79.9227 55.5854C80.7606 56.2324 81.6538 56.8922 82.6525 57.6016C85.9661 59.9559 89.5963 62.2219 93.4412 64.3357C114.228 75.7864 141.687 83.0023 170.831 84.681L171.065 163.809C142.059 162.156 114.759 155.002 94.1068 143.633C70.616 130.693 57.4443 113.549 57.0185 95.3756V93.6129L56.7959 33.9607ZM56.4664 33.0015C56.1713 33.0015 56.0255 33.2786 56.0277 33.8753L56.251 93.615V95.3748C56.666 113.107 69.1642 130.77 93.737 144.306C115.574 156.327 143.329 163.099 171.837 164.621L171.598 83.9536C143.198 82.4085 115.566 75.6449 93.8131 63.6622C89.9395 61.5333 86.3653 59.2968 83.0984 56.9755C82.1686 56.3142 81.269 55.6536 80.393 54.9773C80.0161 54.6851 79.6398 54.4007 79.2708 54.1013C65.7386 43.4376 58.2793 33.0007 56.4664 33.0015Z" fill="#7799E3"/>
<path d="M144.27 153.164C144.235 153.164 144.199 153.162 144.164 153.157C143.934 153.124 120.831 149.808 98.361 138.405C72.6149 125.337 62.4997 105.077 62.4007 104.874C62.3497 104.769 62.3231 104.654 62.3231 104.536V89.0485C62.3231 88.8891 62.3719 88.734 62.4638 88.6048L79.3483 64.7449C79.5099 64.5188 79.7849 64.3953 80.0563 64.4247C80.3334 64.4541 80.5725 64.6301 80.6824 64.8864L101.623 113.733L99.8042 104.689C99.7446 104.39 99.8666 104.084 100.116 103.909L116.999 92.0253C117.173 91.9019 117.391 91.8573 117.602 91.9018C117.811 91.9464 117.993 92.0763 118.102 92.2601L144.929 137.326C145 137.445 145.037 137.581 145.037 137.72L145.039 152.396C145.039 152.618 144.943 152.831 144.775 152.976C144.634 153.098 144.454 153.164 144.27 153.164ZM63.8596 104.353C64.8354 106.228 74.97 124.809 99.056 137.035C118.838 147.074 139.099 150.779 143.501 151.499L143.499 137.932L117.203 93.76L101.41 104.878L104.592 120.701C104.669 121.087 104.442 121.469 104.067 121.586C103.693 121.701 103.287 121.516 103.131 121.155L79.81 66.7532L63.8596 89.2941V104.353Z" fill="white"/>
<path d="M143.976 107.692C143.499 107.692 143.016 107.644 142.527 107.549C137.901 106.642 134.136 101.578 134.136 96.2581C134.136 93.4349 135.202 90.9384 137.06 89.4091C138.658 88.0937 140.701 87.599 142.822 88.0133C147.448 88.9201 151.212 93.9842 151.212 99.3038C151.212 102.127 150.147 104.623 148.289 106.153C147.059 107.164 145.564 107.692 143.976 107.692ZM141.384 89.4098C140.146 89.4098 138.987 89.8155 138.038 90.5966C136.536 91.833 135.674 93.8973 135.674 96.2588C135.674 100.88 138.881 105.268 142.823 106.04C144.481 106.365 146.075 105.983 147.312 104.966C148.815 103.73 149.676 101.665 149.676 99.3038C149.676 94.6821 146.469 90.2944 142.527 89.5225C142.141 89.4464 141.758 89.4098 141.384 89.4098Z" fill="white"/>
<g opacity="0.3">
<path d="M61.6187 52.1325C61.6187 52.1325 68.6192 64.4332 83.0977 69.7802L83.097 62.8321C69.2152 56.2674 61.6187 43.9832 61.6187 43.9832V52.1325Z" fill="#7799E3"/>
</g>
<g opacity="0.3">
<path d="M61.6187 64.7269C61.6187 64.7269 68.6192 77.0277 83.0977 82.3747L83.097 75.4266C69.2152 68.8619 61.6187 56.5776 61.6187 56.5776V64.7269Z" fill="#7799E3"/>
</g>
<g opacity="0.3">
<path d="M61.6187 77.3214C61.6187 77.3214 68.6192 89.6222 83.0977 94.9691L83.097 88.0211C69.2152 81.4564 61.6187 69.1721 61.6187 69.1721V77.3214Z" fill="#7799E3"/>
</g>
</svg>
