<svg width="52" height="52" viewBox="0 0 52 52" fill="none" xmlns="http://www.w3.org/2000/svg">
<circle cx="26" cy="26" r="25" fill="#EFEFEF" stroke="#4692B6" stroke-width="2"/>
<path d="M29.8919 16.2795C28.9037 15.2125 27.5235 14.625 26 14.625C24.4685 14.625 23.0837 15.209 22.1 16.2693C21.1057 17.3413 20.6213 18.7982 20.735 20.3714C20.9605 23.4752 23.3224 26 26 26C28.6777 26 31.0355 23.4757 31.2645 20.3724C31.3798 18.8134 30.8923 17.3596 29.8919 16.2795ZM34.9375 37.375H17.0625C16.8286 37.378 16.5969 37.3289 16.3843 37.2311C16.1717 37.1333 15.9836 36.9894 15.8336 36.8098C15.5036 36.4152 15.3705 35.8764 15.469 35.3316C15.8976 32.954 17.2352 30.9568 19.3375 29.5547C21.2053 28.31 23.5712 27.625 26 27.625C28.4289 27.625 30.7948 28.3105 32.6625 29.5547C34.7649 30.9562 36.1025 32.9535 36.5311 35.3311C36.6296 35.8759 36.4965 36.4147 36.1665 36.8093C36.0165 36.989 35.8285 37.133 35.6159 37.2309C35.4033 37.3287 35.1716 37.378 34.9375 37.375Z" fill="#4692B6"/>
</svg>
