<svg width="21" height="21" viewBox="0 0 21 21" fill="none" xmlns="http://www.w3.org/2000/svg">
<path d="M10.5002 20.9166C4.74704 20.9166 0.0834961 16.253 0.0834961 10.4999C0.0834961 4.74679 4.74704 0.083252 10.5002 0.083252C16.2533 0.083252 20.9168 4.74679 20.9168 10.4999C20.9168 16.253 16.2533 20.9166 10.5002 20.9166ZM10.5002 18.8333C12.7103 18.8333 14.8299 17.9553 16.3927 16.3925C17.9555 14.8297 18.8335 12.7101 18.8335 10.4999C18.8335 8.28978 17.9555 6.17017 16.3927 4.60736C14.8299 3.04456 12.7103 2.16659 10.5002 2.16659C8.29002 2.16659 6.17041 3.04456 4.60761 4.60736C3.0448 6.17017 2.16683 8.28978 2.16683 10.4999C2.16683 12.7101 3.0448 14.8297 4.60761 16.3925C6.17041 17.9553 8.29002 18.8333 10.5002 18.8333ZM9.4585 13.6249H11.5418V15.7083H9.4585V13.6249ZM11.5418 11.9114V12.5833H9.4585V11.0208C9.4585 10.7445 9.56824 10.4795 9.76359 10.2842C9.95894 10.0888 10.2239 9.97908 10.5002 9.97908C10.7961 9.97907 11.0859 9.89502 11.3359 9.73672C11.5859 9.57842 11.7859 9.35238 11.9124 9.0849C12.039 8.81742 12.087 8.5195 12.0509 8.2258C12.0147 7.9321 11.8959 7.65469 11.7083 7.42587C11.5207 7.19704 11.2719 7.0262 10.991 6.93322C10.7101 6.84024 10.4085 6.82895 10.1214 6.90065C9.83434 6.97236 9.57351 7.12412 9.36929 7.33827C9.16508 7.55242 9.02587 7.82016 8.96787 8.11034L6.92412 7.70096C7.05082 7.06771 7.3434 6.47947 7.77195 5.99636C8.20051 5.51325 8.74966 5.15261 9.36328 4.95129C9.97689 4.74998 10.633 4.71522 11.2644 4.85056C11.8959 4.9859 12.4801 5.28649 12.9573 5.72161C13.4345 6.15673 13.7876 6.71076 13.9805 7.32707C14.1734 7.94338 14.1992 8.59986 14.0552 9.22941C13.9113 9.85895 13.6027 10.439 13.1611 10.9102C12.7195 11.3814 12.1607 11.7269 11.5418 11.9114Z" fill="#4692B6"/>
</svg>
