<svg width="228" height="228" viewBox="0 0 228 228" fill="none" xmlns="http://www.w3.org/2000/svg">
<circle cx="114" cy="114" r="114" fill="url(#paint0_linear_293_14885)"/>
<circle cx="114" cy="114" r="101" fill="#5F9CB9"/>
<circle cx="114" cy="114" r="89" fill="#4692B6"/>
<g clip-path="url(#clip0_293_14885)">
<path d="M112.031 129.312C115.305 129.312 118.445 128.012 120.76 125.697C123.075 123.382 124.375 120.243 124.375 116.969V87.3438C124.375 84.07 123.075 80.9303 120.76 78.6154C118.445 76.3005 115.305 75 112.031 75C108.757 75 105.618 76.3005 103.303 78.6154C100.988 80.9303 99.6875 84.07 99.6875 87.3438V116.969C99.6875 120.243 100.988 123.382 103.303 125.697C105.618 128.012 108.757 129.312 112.031 129.312ZM129.312 109.562V116.969C129.312 121.552 127.492 125.948 124.251 129.188C121.01 132.429 116.615 134.25 112.031 134.25C107.448 134.25 103.052 132.429 99.8116 129.188C96.5707 125.948 94.75 121.552 94.75 116.969V109.562H89.8125V116.969C89.8127 122.434 91.8271 127.707 95.4706 131.781C99.1141 135.854 104.131 138.442 109.562 139.049V149.062H99.6875V154H124.375V149.062H114.5V139.049C119.931 138.442 124.948 135.854 128.592 131.781C132.235 127.707 134.25 122.434 134.25 116.969V109.562H129.312Z" fill="white"/>
</g>
<defs>
<linearGradient id="paint0_linear_293_14885" x1="267.5" y1="144" x2="-112" y2="114" gradientUnits="userSpaceOnUse">
<stop stop-color="#61A8CA"/>
<stop offset="1" stop-color="#1A313C" stop-opacity="0"/>
</linearGradient>
<clipPath id="clip0_293_14885">
<rect width="79" height="79" fill="white" transform="translate(75 75)"/>
</clipPath>
</defs>
</svg>
