<svg width="390" height="297" viewBox="0 0 390 297" fill="none" xmlns="http://www.w3.org/2000/svg">
<path d="M57.3104 163.013L64.0395 154.235C64.0395 154.235 94.2531 123.711 95.329 89.2688C96.4049 54.8264 109.784 50.1966 141.8 48.0333C168.867 46.2044 200.155 41.0189 225.304 60.5653C236.341 69.1432 249.404 73.5032 262.648 72.9815L291.839 71.8319C305.766 71.2834 319.472 76.1189 330.797 85.6168C347.586 99.6971 365.666 125.616 358.29 169.699C357.037 177.184 356.245 185.03 356.121 192.655L355.816 211.386C355.547 227.835 344.307 241.114 330.264 241.465L111.164 246.945C88.6401 247.508 66.9868 236.902 51.5127 217.74C47.3864 212.63 45.1474 205.826 45.262 198.79C45.4779 185.562 49.7603 172.862 57.3104 163.013Z" fill="url(#paint0_linear_293_14115)"/>
<path d="M335.933 57.5055C337.96 76.1292 348.098 190.968 294.629 227.613C293.011 228.722 290.934 227.487 290.797 225.336C289.93 211.648 289.388 168.152 311.38 116.817C327.247 79.7785 333.063 63.0815 334.896 57.3696C335.09 56.765 335.863 56.8663 335.933 57.5055Z" fill="#91B3FA"/>
<path d="M290.797 225.696C290.747 225.696 290.695 225.682 290.647 225.652C290.494 225.557 290.438 225.339 290.521 225.164C304.64 195.512 314.304 163.031 319.925 141.003C326.292 116.052 328.999 98.7638 328.906 97.745C328.866 97.5618 328.958 97.3724 329.118 97.3152C329.285 97.2563 329.461 97.3615 329.513 97.5512C329.787 98.5518 326.588 117.391 320.645 140.754C315.003 162.938 305.292 195.649 291.074 225.508C291.017 225.628 290.909 225.696 290.797 225.696ZM328.908 97.7517C328.909 97.7573 328.91 97.7621 328.911 97.7663C328.91 97.7614 328.909 97.7566 328.908 97.7517Z" fill="#7D97F4"/>
<path d="M299.665 233.76C312.263 236.526 349.469 238.259 363.183 167.727C363.572 165.725 361.39 164.427 360.186 165.948C354.543 173.075 344.506 185.19 335.978 188.919C309.556 200.47 299.992 219.051 296.836 227.755C295.901 230.332 297.266 233.234 299.665 233.76Z" fill="#BDD0FB"/>
<path d="M298.446 231.517C298.31 231.517 298.184 231.414 298.144 231.257C298.095 231.066 298.192 230.866 298.359 230.811C316.812 224.681 330.358 212.894 338.473 204.085C347.271 194.535 351.759 186.328 351.803 186.246C351.895 186.077 352.089 186.025 352.237 186.13C352.385 186.234 352.431 186.456 352.339 186.625C352.295 186.708 347.774 194.978 338.922 204.59C333.725 210.234 328.072 215.234 322.119 219.45C314.676 224.721 306.741 228.776 298.534 231.502C298.505 231.512 298.476 231.517 298.446 231.517Z" fill="#7D97F4"/>
<path d="M123.463 177.733C123.463 177.733 124.486 147.063 112.219 138.649C99.9515 130.236 76.4955 124.717 76.1667 80.649C75.9741 54.8498 75.557 43.5645 75.2442 38.6415C75.1223 36.7211 76.6337 35.1974 78.2854 35.581C89.9697 38.2939 127.899 49.2943 135.506 79.099C144.524 114.433 123.463 177.733 123.463 177.733Z" fill="#BDD0FB"/>
<path d="M86.9899 48.2305C86.9899 48.2305 87.0715 48.3194 87.2295 48.4915C87.3862 48.667 87.6184 48.9274 87.9214 49.2671C88.5199 49.952 89.3945 50.9607 90.4677 52.2862C91.0009 52.9522 91.603 53.6783 92.2294 54.4981C92.8611 55.3124 93.551 56.187 94.2583 57.1504C94.6154 57.6288 94.984 58.1227 95.3633 58.6312C95.7429 59.1395 96.1163 59.6783 96.509 60.2226C96.8979 60.7705 97.2969 61.3325 97.7053 61.9078C98.1078 62.4883 98.5099 63.0911 98.9259 63.702C99.3406 64.314 99.7642 64.9388 100.196 65.5756C100.614 66.2238 101.04 66.884 101.473 67.5558C101.906 68.2283 102.346 68.9123 102.793 69.6067C103.225 70.3132 103.663 71.0305 104.108 71.7577C104.55 72.4865 105.008 73.2186 105.455 73.9724C105.893 74.7326 106.337 75.5019 106.786 76.2799C107.229 77.0616 107.689 77.8432 108.132 78.6485C108.567 79.459 109.006 80.2771 109.449 81.1022C109.889 81.9293 110.346 82.7548 110.782 83.6021C111.21 84.4555 111.64 85.3152 112.073 86.18C112.504 87.0462 112.946 87.9124 113.375 88.7926C113.788 89.683 114.203 90.578 114.619 91.4764C115.036 92.3749 115.454 93.2771 115.873 94.1819C116.266 95.1026 116.659 96.026 117.053 96.9511C117.447 97.8766 117.841 98.8042 118.236 99.7324L118.384 100.081L118.403 100.124L118.424 100.178L118.458 100.266L118.526 100.443L118.797 101.15L119.339 102.565C120.761 106.387 121.957 110.308 122.935 114.229C123.914 118.15 124.676 122.072 125.253 125.896C125.834 129.72 126.204 133.451 126.447 136.994C126.687 140.539 126.786 143.899 126.791 147C126.801 150.101 126.7 152.943 126.561 155.456C126.42 157.97 126.235 160.157 126.051 161.954C125.869 163.751 125.679 165.156 125.542 166.114C125.473 166.593 125.416 166.96 125.376 167.208C125.334 167.457 125.312 167.586 125.312 167.586C125.277 167.797 125.099 167.934 124.915 167.894C124.733 167.854 124.613 167.656 124.644 167.448L124.645 167.438C124.645 167.438 124.664 167.314 124.7 167.072C124.735 166.829 124.785 166.466 124.845 165.991C124.967 165.041 125.122 163.642 125.283 161.857C125.443 160.072 125.6 157.898 125.708 155.401C125.817 152.904 125.872 150.083 125.849 147.006C125.822 143.93 125.701 140.598 125.439 137.087C125.181 133.576 124.768 129.889 124.198 126.104C123.624 122.32 122.867 118.442 121.897 114.567C120.927 110.692 119.743 106.822 118.342 103.064L117.799 101.65L117.527 100.943L117.459 100.767L117.426 100.678L117.394 100.601L117.249 100.254C116.862 99.3296 116.475 98.4056 116.089 97.4835C115.703 96.5615 115.317 95.6416 114.932 94.7241C114.52 93.8221 114.11 92.9228 113.701 92.027C113.292 91.1311 112.884 90.2389 112.479 89.3509C112.057 88.4731 111.623 87.6091 111.199 86.7451C110.773 85.8823 110.35 85.0246 109.93 84.1732C109.5 83.3278 109.051 82.5039 108.618 81.6782C108.182 80.8546 107.749 80.0377 107.321 79.2288C106.886 78.4247 106.432 77.6444 105.995 76.8636C105.558 76.0829 105.126 75.3107 104.699 74.5477C104.264 73.791 103.817 73.0559 103.386 72.3238C102.952 71.5932 102.524 70.8727 102.103 70.1629C101.667 69.4649 101.237 68.7776 100.815 68.1016C100.391 67.4262 99.975 66.7624 99.5664 66.1106C99.1446 65.4701 98.7305 64.8418 98.3251 64.2262C97.9182 63.6116 97.5252 63.005 97.1314 62.4208C96.7318 61.8415 96.3415 61.2758 95.961 60.7243C95.5799 60.1731 95.2177 59.6275 94.8491 59.1125C94.4805 58.5974 94.1227 58.097 93.7759 57.6121C93.0888 56.6357 92.4182 55.7489 91.8038 54.9229C91.1946 54.0914 90.6087 53.3549 90.0897 52.6788C89.0424 51.3364 88.2011 50.3008 87.6209 49.6026C87.329 49.257 87.105 48.992 86.9542 48.8135C86.8004 48.6367 86.7212 48.5455 86.7212 48.5455L86.7201 48.5442C86.6451 48.458 86.6454 48.3185 86.721 48.2328C86.7951 48.1495 86.9145 48.1486 86.9899 48.2305Z" fill="#7D97F4"/>
<path d="M100.602 246.888C102.283 248.367 87.7435 215.763 89.4729 170.265C90.2878 148.825 94.8845 122.793 86.313 110.358C79.1792 100.008 48.9074 98.4611 38.9528 98.2334C37.7089 98.205 36.997 99.8417 37.771 100.954C41.5873 106.439 49.5786 119.143 50.2748 130.236C51.1924 144.857 61.1401 156.333 71.0248 161.11C80.9096 165.887 86.2325 169.531 87.9009 189.53C89.5691 209.529 95.8276 242.685 100.602 246.888Z" fill="#91B3FA"/>
<path d="M51.3727 107.397C51.3727 107.397 51.6622 107.474 52.1937 107.644C52.7255 107.817 53.5031 108.079 54.4771 108.467C55.4512 108.854 56.6242 109.359 57.9431 110.011C59.2613 110.665 60.73 111.457 62.2787 112.438C63.828 113.416 65.4638 114.57 67.1112 115.928C68.7566 117.287 70.4189 118.847 71.9902 120.64C73.561 122.431 75.0472 124.446 76.3496 126.66C77.6534 128.872 78.7688 131.283 79.6336 133.808L79.9475 134.76L80.1043 135.236C80.1514 135.396 80.1927 135.559 80.2371 135.721C80.4098 136.368 80.5909 137.014 80.7491 137.663C81.0496 138.956 81.349 140.243 81.646 141.52C81.9333 142.802 82.2185 144.073 82.5001 145.329C82.7791 146.586 83.0407 147.831 83.3056 149.054C83.5694 150.276 83.8113 151.484 84.0574 152.663C84.3023 153.843 84.5174 155.003 84.74 156.129C85.1735 158.385 85.5649 160.522 85.9151 162.497C86.0857 163.485 86.2493 164.433 86.4048 165.334C86.5504 166.237 86.6884 167.094 86.8181 167.899C87.0688 169.511 87.28 170.918 87.4435 172.079C87.6098 173.24 87.7261 174.154 87.8034 174.778C87.8783 175.403 87.9182 175.737 87.9182 175.737C87.9281 175.819 87.8773 175.896 87.8049 175.907C87.7336 175.918 87.6679 175.862 87.6563 175.782L87.6558 175.778C87.6558 175.778 87.608 175.448 87.5187 174.829C87.4276 174.209 87.2852 173.301 87.1013 172.147C86.9174 170.992 86.6815 169.593 86.4024 167.989C86.1177 166.387 85.7926 164.581 85.4263 162.613C85.0556 160.646 84.6418 158.518 84.185 156.272C83.7243 154.028 83.233 151.663 82.7087 149.22C82.4403 148.001 82.1753 146.758 81.8929 145.505C81.608 144.253 81.3197 142.986 81.0289 141.708C80.728 140.433 80.4246 139.146 80.12 137.855C79.9629 137.217 79.7811 136.588 79.6164 135.951C79.5736 135.793 79.5339 135.633 79.4883 135.476L79.3363 135.009L79.0323 134.075C78.1948 131.596 77.1108 129.228 75.8397 127.05C74.5698 124.87 73.1167 122.881 71.5771 121.11C70.0377 119.336 68.4222 117.766 66.8076 116.402C65.1937 115.037 63.5863 113.872 62.0609 112.882C60.5339 111.894 59.095 111.066 57.7958 110.391C56.4972 109.714 55.34 109.187 54.3786 108.781C53.4168 108.376 52.6521 108.086 52.1275 107.901C51.6025 107.716 51.321 107.632 51.321 107.632C51.2641 107.616 51.2299 107.549 51.2446 107.484C51.2591 107.42 51.3155 107.382 51.3716 107.396L51.3727 107.397Z" fill="#7D97F4"/>
<path d="M98.4444 252.696C99.5747 253.376 92.0775 238.636 91.5022 225.649C90.9269 212.662 88.3622 190.497 78.5582 177.238C68.7543 163.978 58.0178 162.769 44.4897 174.822C33.2161 184.867 26.1839 189.937 22.0598 190.879C21.0388 191.112 20.5175 192.429 21.0145 193.474C23.6596 199.039 31.1381 211.82 43.6947 210.92C59.7115 209.773 79.1228 197.879 85.0389 207.801C90.9553 217.723 90.1956 223.275 90.3773 227.977C90.559 232.679 90.9641 248.19 98.4444 252.696Z" fill="#BDD0FB"/>
<path d="M49.159 190.903C49.159 190.903 49.3266 190.726 49.6481 190.41C49.9699 190.094 50.4478 189.638 51.0765 189.087C51.7045 188.536 52.4807 187.886 53.3987 187.184C54.3161 186.481 55.3837 185.742 56.5843 185.007C57.785 184.273 59.1249 183.55 60.6009 182.945C60.7859 182.871 60.9723 182.797 61.1598 182.722C61.3497 182.655 61.5408 182.587 61.7332 182.519C61.8293 182.485 61.9259 182.451 62.0227 182.417C62.1205 182.387 62.2188 182.357 62.3173 182.327C62.5146 182.268 62.7128 182.208 62.9123 182.147C63.7171 181.939 64.5458 181.74 65.4044 181.648C65.8311 181.581 66.2674 181.574 66.7044 181.542C66.9236 181.538 67.1439 181.544 67.3648 181.545L67.6968 181.548L68.0296 181.576C68.9213 181.619 69.8113 181.821 70.6974 182.078C71.5454 182.345 72.4239 182.681 73.2695 183.048C74.1164 183.43 74.9492 183.864 75.7603 184.348C76.5663 184.843 77.3464 185.393 78.0943 185.989C78.8355 186.596 79.5407 187.252 80.2064 187.945C81.5206 189.352 82.6785 190.9 83.6228 192.528C84.5776 194.149 85.3631 195.812 86.0144 197.432C86.6661 199.052 87.1853 200.63 87.6164 202.102C87.6703 202.286 87.7238 202.468 87.7767 202.648C87.8252 202.829 87.8731 203.009 87.9207 203.187C88.0142 203.542 88.1104 203.888 88.1951 204.227C88.3583 204.909 88.5241 205.552 88.6531 206.164C88.7206 206.469 88.786 206.765 88.849 207.05C88.9071 207.336 88.9631 207.612 89.0168 207.878C89.1248 208.408 89.2217 208.895 89.2987 209.338C89.3786 209.781 89.4505 210.175 89.508 210.52C89.5633 210.865 89.6102 211.158 89.6485 211.396C89.7248 211.871 89.7655 212.125 89.7655 212.125C89.7773 212.198 89.7347 212.269 89.6706 212.282C89.6077 212.295 89.5472 212.249 89.5338 212.178L89.5333 212.175C89.5333 212.175 89.4861 211.924 89.3972 211.453C89.3528 211.217 89.2981 210.927 89.2336 210.585C89.1643 210.245 89.0846 209.854 88.9952 209.416C88.9097 208.977 88.8036 208.494 88.6854 207.969C88.6267 207.707 88.5654 207.434 88.502 207.151C88.4336 206.869 88.3627 206.577 88.2896 206.276C88.1492 205.671 87.9716 205.037 87.7961 204.365C87.7055 204.03 87.6029 203.69 87.5033 203.34C87.4527 203.165 87.4017 202.988 87.35 202.81C87.2947 202.632 87.2387 202.453 87.1822 202.272C86.7372 200.822 86.2044 199.27 85.5426 197.684C84.8811 196.098 84.0889 194.478 83.1361 192.909C82.1873 191.338 81.0673 189.829 79.7821 188.473C79.133 187.804 78.4465 187.172 77.7257 186.587C76.9982 186.013 76.2395 185.485 75.4555 185.008C74.6662 184.543 73.8554 184.125 73.0297 183.758C72.1943 183.403 71.3746 183.091 70.51 182.824C69.6788 182.581 68.8342 182.378 67.9853 182.331L67.6686 182.302L67.3514 182.297C67.1403 182.295 66.9297 182.287 66.72 182.29C66.3005 182.318 65.8828 182.32 65.4711 182.383C64.6447 182.464 63.8414 182.651 63.0597 182.847C62.8655 182.904 62.6725 182.961 62.4806 183.017C62.3846 183.046 62.289 183.074 62.1935 183.102C62.0991 183.135 62.0049 183.167 61.9109 183.2C61.7231 183.265 61.5365 183.329 61.3511 183.393C61.1675 183.465 60.9852 183.536 60.8041 183.606C59.3532 184.167 58.0228 184.844 56.8271 185.54C55.6292 186.233 54.5676 186.951 53.6384 187.608C52.7098 188.267 51.9216 188.882 51.2831 189.405C50.6455 189.93 50.1544 190.357 49.8227 190.653C49.4908 190.95 49.3213 191.115 49.3213 191.115C49.2696 191.165 49.1921 191.157 49.1483 191.098C49.1057 191.041 49.1104 190.956 49.1582 190.905L49.159 190.903Z" fill="#7D97F4"/>
<path d="M312.707 239.208C312.707 241.737 310.894 243.806 308.677 243.806H90.761C88.5446 243.806 86.7312 241.737 86.7312 239.208L84.918 96.156C84.918 93.6266 87.5268 88.6887 92.3078 89.0599L305.279 82.7649C308.06 82.6828 310.749 83.9054 312.718 86.1476C314.688 88.3899 315.765 91.4557 315.7 94.6294L312.707 239.208Z" fill="url(#paint1_linear_293_14115)"/>
<path d="M308.728 234.796C308.728 237.191 307.012 239.151 304.915 239.151H96.0159C93.919 239.151 92.2033 237.191 92.2033 234.796L90.4922 104.932C90.6937 97.1172 96.6917 94.3085 100.327 94.4743L304.447 88.2187C306.401 88.1588 308.291 89.0181 309.674 90.5954C311.057 92.1728 311.813 94.3297 311.763 96.5615L308.728 234.796Z" fill="#F8F6F1"/>
<g opacity="0.24">
<path d="M94.4609 172.643C94.3749 172.643 94.3046 172.564 94.3033 172.466L94.168 161.934C94.1667 161.834 94.2362 161.753 94.3232 161.751C94.4125 161.746 94.4819 161.829 94.4831 161.928L94.6185 172.46C94.6198 172.56 94.5503 172.641 94.4633 172.643C94.4625 172.643 94.4617 172.643 94.4609 172.643Z" fill="#91B3FA"/>
</g>
<g opacity="0.24">
<path d="M94.1293 146.835C94.0432 146.835 93.973 146.756 93.9717 146.657L93.4531 106.321C93.4635 103.679 94.1747 101.568 95.5662 100.045C98.1082 97.2626 102.095 97.4029 102.264 97.4102L167.457 95.4121C167.54 95.4061 167.616 95.4878 167.618 95.5872C167.621 95.6866 167.552 95.7694 167.465 95.7719L102.264 97.7701C102.09 97.763 98.2308 97.6266 95.7841 100.305C94.4566 101.758 93.7784 103.782 93.7681 106.319L94.2867 146.652C94.288 146.751 94.2183 146.833 94.1315 146.835C94.1307 146.835 94.1299 146.835 94.1293 146.835Z" fill="#91B3FA"/>
</g>
<g opacity="0.24">
<path d="M101.407 227.591C101.626 216.858 101.544 121.811 101.005 113.603C100.466 105.394 111.658 103.854 128.84 102.93C146.023 102.007 291.001 98.3493 294.734 98.0035C303.124 97.2263 304.861 111.552 304.022 142.654C303.391 166.019 302.346 204.511 301.865 222.212C301.722 227.483 297.95 231.664 293.334 231.679C258.447 231.789 124.733 232.226 115.831 232.529C105.588 232.878 101.32 231.847 101.407 227.591Z" fill="#2D6179"/>
</g>
<path d="M324.884 255.682H78.9723C75.9464 255.682 73.4707 252.854 73.4707 249.397C73.4707 245.94 75.9464 243.112 78.9723 243.112H324.884C327.91 243.112 330.385 245.94 330.385 249.397C330.385 252.854 327.909 255.682 324.884 255.682Z" fill="url(#paint2_linear_293_14115)"/>
<path d="M283.512 218.16H118.958C116.697 218.16 114.927 215.971 114.927 213.176V116.641C114.927 113.923 116.702 111.756 118.967 111.708L283.497 108.212C284.614 108.186 285.683 108.69 286.494 109.627C287.316 110.575 287.787 111.858 287.787 113.145V213.176C287.787 215.877 285.829 218.16 283.512 218.16ZM283.573 108.571C283.55 108.571 283.526 108.571 283.503 108.572L118.973 112.068C116.881 112.112 115.242 114.121 115.242 116.641V213.176C115.242 215.769 116.874 217.8 118.958 217.8H283.512C285.659 217.8 287.472 215.682 287.472 213.176V113.145C287.472 111.952 287.034 110.762 286.27 109.88C285.538 109.034 284.582 108.571 283.573 108.571Z" fill="white"/>
<path d="M224.757 128.715C224.757 126.719 223.34 125.1 221.592 125.1H125.182C123.434 125.1 122.018 126.718 122.018 128.715V194.205C122.018 196.201 123.435 197.82 125.182 197.82H221.592C223.34 197.82 224.757 196.202 224.757 194.205V128.715Z" fill="white"/>
<path d="M270.338 149.04H235.44C232.978 149.04 231.69 146.797 231.69 144.582V129.412C231.69 127.18 232.978 124.92 235.44 124.92H270.338C272.708 124.92 274.866 127.061 274.866 129.412V144.582C274.866 146.915 272.708 149.04 270.338 149.04ZM235.44 125.28C233.185 125.28 232.006 127.359 232.006 129.412V144.582C232.006 146.618 233.185 148.68 235.44 148.68H270.338C272.543 148.68 274.551 146.727 274.551 144.582V129.412C274.551 127.25 272.543 125.28 270.338 125.28H235.44Z" fill="white"/>
<path d="M270.338 179.46H235.44C233.232 179.46 231.69 177.691 231.69 175.157V159.988C231.69 157.735 233.004 155.34 235.44 155.34H270.338C272.666 155.34 274.866 157.599 274.866 159.988V175.157C274.866 177.449 272.75 179.46 270.338 179.46ZM235.44 155.7C233.209 155.7 232.006 157.909 232.006 159.988V175.157C232.006 177.479 233.418 179.1 235.44 179.1H270.338C272.583 179.1 274.551 177.258 274.551 175.157V159.988C274.551 157.784 272.504 155.7 270.338 155.7H235.44Z" fill="white"/>
<path d="M270.338 209.88H235.44C233.197 209.88 231.69 208.214 231.69 205.733V190.564C231.69 188.322 233.004 185.94 235.44 185.94H270.338C272.666 185.94 274.866 188.187 274.866 190.564V205.733C274.866 208.214 272.525 209.88 270.338 209.88ZM235.44 186.3C233.209 186.3 232.006 188.497 232.006 190.564V205.733C232.006 207.998 233.386 209.52 235.44 209.52H270.338C272.373 209.52 274.551 207.998 274.551 205.733V190.564C274.551 188.372 272.504 186.3 270.338 186.3H235.44Z" fill="white"/>
<path opacity="0.5" d="M188.096 202.678C178.274 202.651 133.8 202.534 123.957 202.639C122.898 202.65 122.018 203.633 122.018 204.843V206.073C122.018 207.271 122.769 208.25 123.818 208.277L187.863 209.958C188.382 209.972 189.09 209.746 189.462 209.331C189.833 208.916 190.248 208.347 190.248 207.754V204.882C190.248 203.667 189.16 202.681 188.096 202.678Z" fill="white"/>
<path d="M287.63 118.62H115.084C114.997 118.62 114.927 118.539 114.927 118.44C114.927 118.341 114.997 118.26 115.084 118.26H287.63C287.717 118.26 287.787 118.341 287.787 118.44C287.787 118.539 287.717 118.62 287.63 118.62Z" fill="white"/>
<path d="M266.917 115.74H266.586C265.591 115.74 264.782 114.815 264.782 113.679V113.301C264.782 112.165 265.591 111.24 266.586 111.24H266.917C267.912 111.24 268.721 112.165 268.721 113.301V113.679C268.721 114.815 267.912 115.74 266.917 115.74ZM266.586 111.6C265.765 111.6 265.097 112.363 265.097 113.301V113.679C265.097 114.617 265.765 115.38 266.586 115.38H266.917C267.738 115.38 268.406 114.617 268.406 113.679V113.301C268.406 112.363 267.738 111.6 266.917 111.6H266.586Z" fill="white"/>
<path d="M274.323 115.74H273.992C272.997 115.74 272.188 114.815 272.188 113.679V113.301C272.188 112.165 272.997 111.24 273.992 111.24H274.323C275.318 111.24 276.127 112.165 276.127 113.301V113.679C276.127 114.815 275.317 115.74 274.323 115.74ZM273.992 111.6C273.171 111.6 272.503 112.363 272.503 113.301V113.679C272.503 114.617 273.171 115.38 273.992 115.38H274.323C275.144 115.38 275.812 114.617 275.812 113.679V113.301C275.812 112.363 275.144 111.6 274.323 111.6H273.992Z" fill="white"/>
<path d="M282.202 115.74H281.871C280.876 115.74 280.066 114.815 280.066 113.679V113.301C280.066 112.165 280.876 111.24 281.871 111.24H282.202C283.196 111.24 284.006 112.165 284.006 113.301V113.679C284.006 114.815 283.196 115.74 282.202 115.74ZM281.871 111.6C281.05 111.6 280.382 112.363 280.382 113.301V113.679C280.382 114.617 281.05 115.38 281.871 115.38H282.202C283.023 115.38 283.691 114.617 283.691 113.679V113.301C283.691 112.363 283.023 111.6 282.202 111.6H281.871Z" fill="white"/>
<path d="M128.793 146.16C128.706 146.16 128.636 146.079 128.636 145.98V131.76C128.636 131.661 128.706 131.58 128.793 131.58H138.248C138.335 131.58 138.405 131.661 138.405 131.76C138.405 131.859 138.335 131.94 138.248 131.94H128.951V145.98C128.951 146.079 128.88 146.16 128.793 146.16Z" fill="#4692B6"/>
<path d="M217.824 146.16C217.736 146.16 217.666 146.079 217.666 145.98V131.94H208.369C208.282 131.94 208.211 131.859 208.211 131.76C208.211 131.661 208.282 131.58 208.369 131.58H217.824C217.911 131.58 217.981 131.661 217.981 131.76V145.98C217.981 146.079 217.911 146.16 217.824 146.16Z" fill="#4692B6"/>
<path d="M138.248 189.18H128.793C128.706 189.18 128.636 189.099 128.636 189V175.32C128.636 175.221 128.706 175.14 128.793 175.14C128.88 175.14 128.951 175.221 128.951 175.32V188.82H138.248C138.335 188.82 138.405 188.901 138.405 189C138.405 189.099 138.335 189.18 138.248 189.18Z" fill="#4692B6"/>
<path d="M217.824 189.18H208.369C208.282 189.18 208.211 189.099 208.211 189C208.211 188.901 208.282 188.82 208.369 188.82H217.666V175.32C217.666 175.221 217.736 175.14 217.824 175.14C217.911 175.14 217.981 175.221 217.981 175.32V189C217.981 189.099 217.911 189.18 217.824 189.18Z" fill="#4692B6"/>
<path d="M171.512 179.46H171.481C162.888 179.46 155.897 171.474 155.897 161.658V161.622C155.897 151.806 162.888 143.82 171.481 143.82H171.512C180.106 143.82 187.097 151.806 187.097 161.622V161.658C187.097 171.474 180.106 179.46 171.512 179.46ZM171.481 144.18C163.062 144.18 156.212 152.005 156.212 161.622V161.658C156.212 171.275 163.062 179.1 171.481 179.1H171.512C179.932 179.1 186.782 171.275 186.782 161.658V161.622C186.782 152.005 179.932 144.18 171.512 144.18H171.481Z" fill="#4692B6"/>
<path d="M167.007 170.843C166.563 170.843 166.196 170.438 166.184 169.928L165.808 153.888C165.796 153.359 166.02 152.87 166.407 152.581C166.794 152.291 167.275 152.251 167.695 152.475L181.566 159.886C182.024 160.13 182.317 160.641 182.33 161.218C182.343 161.795 182.074 162.323 181.628 162.594L169.384 170.05C168.982 170.295 168.484 170.121 168.271 169.663C168.056 169.205 168.208 168.635 168.61 168.391L180.287 161.279L167.468 154.43L167.83 169.877C167.843 170.397 167.484 170.829 167.029 170.843C167.022 170.843 167.014 170.843 167.007 170.843Z" fill="url(#paint3_linear_293_14115)"/>
<path d="M159.155 93.7688C158.984 93.7688 158.823 93.6626 158.739 93.4868L156.923 89.7005C155.13 89.5653 153.381 89.1117 151.72 88.3512L148.651 90.8667C148.487 91.0017 148.265 91.0026 148.1 90.8687L144.315 87.8069C144.15 87.673 144.077 87.4337 144.134 87.2116L145.193 83.0702C144.014 81.5323 143.059 79.7976 142.352 77.9114L138.623 77.211C138.423 77.1734 138.266 76.9948 138.232 76.7666L137.451 71.545C137.417 71.3165 137.514 71.0885 137.691 70.9774L141.006 68.9033C141.124 66.8556 141.521 64.8572 142.187 62.9599L139.985 59.4545C139.866 59.2666 139.866 59.0132 139.983 58.8244L142.663 54.5015C142.781 54.3123 142.99 54.2293 143.185 54.2943L146.81 55.5039C148.156 54.157 149.674 53.0662 151.326 52.2589L151.939 47.9988C151.972 47.7702 152.128 47.5907 152.328 47.5517L156.9 46.6601C157.1 46.6213 157.299 46.7314 157.396 46.9343L159.212 50.7206C161.004 50.8558 162.754 51.3094 164.415 52.0699L167.484 49.5544C167.648 49.4194 167.87 49.4186 168.036 49.5526L171.82 52.6144C171.985 52.7481 172.058 52.9873 172.001 53.2096L170.942 57.3509C172.121 58.8886 173.076 60.6231 173.783 62.5099L177.512 63.2102C177.712 63.2477 177.869 63.4262 177.903 63.6547L178.684 68.8763C178.718 69.1045 178.622 69.3326 178.444 69.4436L175.129 71.518C175.011 73.5656 174.614 75.5642 173.948 77.4614L176.15 80.9667C176.268 81.155 176.269 81.4082 176.152 81.5971L173.472 85.9199C173.354 86.1088 173.146 86.1925 172.95 86.1273L169.325 84.9175C167.979 86.2643 166.46 87.3553 164.809 88.1624L164.196 92.4226C164.163 92.651 164.007 92.8305 163.807 92.8696L159.235 93.7613C159.209 93.7663 159.182 93.7688 159.155 93.7688ZM151.677 87.9431L151.758 87.9806C153.438 88.7609 155.211 89.2208 157.029 89.3475L157.116 89.3536L159.015 93.3138C159.048 93.3822 159.116 93.4191 159.182 93.4061L163.754 92.5144C163.821 92.5013 163.874 92.4408 163.885 92.3639L164.526 87.908L164.606 87.8695C166.284 87.061 167.823 85.9549 169.181 84.582L169.247 84.5161L173.039 85.7815C173.104 85.8033 173.175 85.7752 173.214 85.7115L175.895 81.3888C175.934 81.3251 175.934 81.2398 175.894 81.1764L173.591 77.5102L173.623 77.4182C174.307 75.4992 174.709 73.4733 174.82 71.3968L174.825 71.2976L178.292 69.1281C178.352 69.0907 178.385 69.0138 178.373 68.9369L177.593 63.7153C177.581 63.6385 177.528 63.5783 177.461 63.5656L173.56 62.8331L173.526 62.7415C172.819 60.8249 171.85 59.0665 170.648 57.515L170.591 57.4407L171.698 53.1088C171.718 53.0339 171.693 52.9535 171.637 52.9085L167.853 49.8465C167.797 49.8015 167.723 49.8015 167.667 49.847L164.457 52.4783L164.377 52.4408C162.697 51.6605 160.923 51.2005 159.106 51.0739L159.019 51.0678L157.119 47.1076C157.086 47.0394 157.019 47.0023 156.952 47.0153L152.381 47.9068C152.313 47.92 152.261 47.9804 152.25 48.0575L151.608 52.5132L151.528 52.5517C149.85 53.3603 148.311 54.4664 146.953 55.8394L146.888 55.9053L143.096 54.6399C143.03 54.6178 142.96 54.646 142.92 54.7097L140.24 59.0326C140.2 59.0962 140.201 59.1815 140.24 59.2448L142.544 62.9114L142.511 63.0036C141.828 64.9224 141.425 66.9481 141.314 69.0248L141.309 69.124L137.842 71.2935C137.782 71.3309 137.75 71.4078 137.761 71.4848L138.542 76.7065C138.553 76.7833 138.606 76.8434 138.673 76.8562L142.574 77.5888L142.608 77.6803C143.316 79.5965 144.284 81.355 145.486 82.9067L145.544 82.9811L144.436 87.3128C144.417 87.3877 144.441 87.4683 144.497 87.5133L148.282 90.5751C148.337 90.6201 148.412 90.6199 148.467 90.5746L151.677 87.9431ZM158.15 83.1589C155.882 83.1591 153.594 82.3867 151.607 80.7788C149.928 79.4205 148.605 77.5717 147.782 75.4322C147.746 75.3412 147.783 75.235 147.862 75.195C147.942 75.1547 148.035 75.1964 148.07 75.2873C148.871 77.3672 150.157 79.1645 151.789 80.485C156.753 84.5014 163.652 83.1555 167.169 77.485C170.685 71.8144 169.506 63.9333 164.542 59.9168C159.578 55.9004 152.679 57.2463 149.163 62.9168C148.708 63.6503 148.322 64.438 148.015 65.2579C147.98 65.3494 147.888 65.3915 147.808 65.3526C147.728 65.3135 147.691 65.2077 147.725 65.1163C148.041 64.273 148.438 63.4628 148.906 62.7086C152.522 56.876 159.619 55.492 164.725 59.623C169.83 63.7542 171.042 71.8603 167.426 77.693C165.216 81.2554 161.709 83.1584 158.15 83.1589Z" fill="#91B3FA"/>
<path d="M158.071 75.0922C156.863 75.0922 155.662 74.5124 154.818 73.3838C153.286 71.3369 153.498 68.2481 155.289 66.4983C157.081 64.7489 159.786 64.9904 161.317 67.0376C162.059 68.0292 162.419 69.2915 162.33 70.592C162.24 71.8927 161.713 73.0757 160.845 73.9231C160.041 74.7081 159.053 75.0922 158.071 75.0922ZM155.494 66.7719C153.834 68.3926 153.638 71.2537 155.057 73.1498C156.476 75.046 158.98 75.2701 160.64 73.6493C162.3 72.0288 162.496 69.1675 161.078 67.2714C159.659 65.3751 157.154 65.1514 155.494 66.7719Z" fill="#91B3FA"/>
<path d="M193.742 79.4077C193.729 79.4077 193.716 79.4068 193.703 79.4048L191.491 79.0857C191.359 79.0668 191.253 78.9547 191.226 78.8069L190.862 76.8244C190.076 76.48 189.345 76.0043 188.687 75.4088L187.01 76.0604C186.884 76.1092 186.746 76.0617 186.665 75.942L185.298 73.9289C185.216 73.8095 185.21 73.6441 185.283 73.5176L186.252 71.8234C185.911 70.9475 185.689 70.0207 185.593 69.0653L184.002 68.1703C183.883 68.1037 183.815 67.9581 183.831 67.808L184.111 65.2801C184.127 65.1299 184.225 65.0084 184.355 64.9775L186.09 64.5624C186.392 63.6642 186.808 62.8294 187.33 62.0782L186.759 60.1619C186.716 60.0188 186.758 59.8604 186.863 59.7676L188.625 58.2059C188.729 58.1132 188.874 58.1063 188.985 58.1893L190.468 59.2967C191.234 58.9066 192.046 58.6534 192.883 58.543L193.666 56.7261C193.724 56.5904 193.852 56.5119 193.983 56.531L196.196 56.8501C196.328 56.869 196.434 56.9813 196.461 57.1297L196.824 59.1116C197.611 59.4562 198.342 59.9319 198.999 60.5272L200.677 59.8756C200.802 59.8268 200.94 59.8743 201.022 59.9938L202.389 62.0069C202.47 62.1266 202.476 62.2919 202.403 62.4182L201.434 64.1124C201.776 64.9881 201.997 65.9149 202.094 66.8704L203.684 67.7653C203.803 67.8321 203.872 67.9777 203.855 68.1277L203.576 70.6554C203.559 70.8055 203.461 70.9272 203.331 70.958L201.596 71.3732C201.295 72.2714 200.878 73.1061 200.357 73.8572L200.927 75.7735C200.97 75.9168 200.928 76.0752 200.824 76.1677L199.061 77.7292C198.957 77.8219 198.812 77.8288 198.701 77.746L197.218 76.6386C196.452 77.0288 195.64 77.2819 194.804 77.3921L194.021 79.209C193.968 79.3321 193.859 79.4077 193.742 79.4077ZM188.75 75.0042L188.818 75.0668C189.489 75.6877 190.241 76.1773 191.054 76.5221L191.135 76.5567L191.534 78.7329L193.743 79.0477L194.598 77.0562L194.685 77.0458C195.547 76.9426 196.382 76.682 197.167 76.271L197.246 76.2296L198.874 77.4454L200.631 75.8839L200.003 73.7861L200.058 73.7089C200.602 72.9425 201.03 72.0832 201.332 71.1551L201.362 71.062L203.268 70.6063L203.543 68.0832L201.8 67.1063L201.791 67.0075C201.7 66.0229 201.472 65.0689 201.112 64.172L201.076 64.0818L202.14 62.2217L200.773 60.215L198.937 60.9322L198.869 60.8695C198.199 60.2489 197.447 59.7591 196.633 59.414L196.552 59.3795L196.153 57.2035L193.944 56.8885L193.089 58.88L193.003 58.8904C192.14 58.9937 191.305 59.2544 190.52 59.6653L190.441 59.7067L188.816 58.493L187.056 60.0523L187.684 62.15L187.629 62.2273C187.086 62.9937 186.657 63.853 186.355 64.7811L186.325 64.8743L184.42 65.3301L184.144 67.8532L185.888 68.8298L185.897 68.9287C185.987 69.9133 186.215 70.8673 186.575 71.7642L186.611 71.8544L185.547 73.7143L186.914 75.721L188.75 75.0042ZM193.896 74.3047C192.241 74.3047 190.603 73.4638 189.513 71.8582C188.897 70.9517 188.509 69.8738 188.39 68.7411C188.379 68.6425 188.441 68.5528 188.527 68.5409C188.612 68.5289 188.692 68.5994 188.703 68.6981C188.815 69.7664 189.181 70.7827 189.762 71.6377C191.528 74.2374 194.816 74.7121 197.092 72.695C198.195 71.7179 198.898 70.3089 199.073 68.7274C199.248 67.1459 198.873 65.5812 198.018 64.3217C197.162 63.0623 195.929 62.2588 194.544 62.059C193.159 61.8592 191.79 62.2874 190.688 63.2646C190.393 63.5254 190.123 63.8215 189.885 64.1452C189.829 64.2211 189.73 64.2314 189.663 64.1671C189.596 64.1032 189.588 63.9896 189.644 63.9135C189.896 63.5704 190.182 63.2565 190.494 62.9802C191.663 61.9441 193.116 61.4902 194.584 61.7018C196.052 61.9135 197.36 62.7656 198.267 64.1011C199.174 65.4365 199.571 67.0955 199.386 68.7724C199.2 70.4493 198.454 71.9435 197.285 72.9794C196.278 73.8722 195.082 74.3047 193.896 74.3047Z" fill="#91B3FA"/>
<path d="M218.504 272.697C218.956 272.697 219.386 272.404 219.577 271.916L244.061 208.97C244.315 208.315 244.042 207.556 243.45 207.274C242.858 206.993 242.171 207.295 241.916 207.95L217.432 270.895C217.177 271.55 217.45 272.31 218.043 272.591C218.193 272.663 218.35 272.697 218.504 272.697Z" fill="#E8E0D0"/>
<path d="M268.846 272.697C268.394 272.697 267.963 272.404 267.773 271.916L243.289 208.97C243.034 208.315 243.308 207.556 243.9 207.274C244.492 206.993 245.179 207.295 245.434 207.95L269.918 270.895C270.173 271.55 269.899 272.31 269.307 272.591C269.157 272.663 269 272.697 268.846 272.697Z" fill="#E8E0D0"/>
<path d="M244.728 275.556C244.311 275.355 244.015 274.894 244.006 274.359L242.928 205.491C242.917 204.775 243.428 204.197 244.069 204.201C244.71 204.205 245.24 204.789 245.251 205.506L246.33 274.374C246.341 275.091 245.83 275.669 245.188 275.664C245.026 275.663 244.87 275.625 244.728 275.556Z" fill="#E8E0D0"/>
<path d="M246.345 206.306C246.345 207.503 245.268 208.26 244.162 208.26H244.149C243.043 208.26 242.563 207.503 242.563 206.306V187.872C242.563 186.675 243.043 185.58 244.149 185.58H244.162C245.268 185.58 246.345 186.675 246.345 187.872V206.306Z" fill="#E8E0D0"/>
<path d="M237.085 183.06L237.374 187.903C237.4 188.343 237.72 188.64 238.106 188.64H240.515V190.184C240.515 190.842 240.486 191.16 241.062 191.16H242.619L245.808 191.231L247.11 183.06H237.085Z" fill="url(#paint4_linear_293_14115)"/>
<path d="M240.906 183.06L242.56 191.267L247.775 191.368C248.305 191.379 248.758 190.928 248.828 190.328L249.06 188.341L250.845 188.369C252.105 188.391 253.198 187.409 253.445 185.998L253.964 183.06H240.906Z" fill="url(#paint5_linear_293_14115)"/>
<path d="M242.293 160.02H239.526C238.58 160.02 237.801 160.647 237.759 161.727L237.656 164.16H231.057C229.474 164.16 228.184 165.721 228.162 167.529L228.007 180.408C227.996 181.293 228.296 182.155 228.84 182.785C229.384 183.416 230.127 183.78 230.902 183.78H232.693H246.638L242.293 160.02Z" fill="url(#paint6_linear_293_14115)"/>
<path d="M261.831 180.324L261.207 167.392C261.122 165.639 259.853 164.16 258.316 164.16H250.285V161.398C250.285 160.84 249.796 160.307 249.439 159.925C249.083 159.543 248.461 159.346 247.974 159.381L242.976 159.733C242.47 159.769 241.966 160.052 241.655 160.51C241.343 160.967 241.201 161.447 241.295 162.017L241.648 164.16H236.533C234.934 164.16 234.054 165.857 234.054 167.684V180.508C234.054 182.334 234.934 183.78 236.533 183.78H258.939C259.735 183.78 260.496 183.424 261.043 182.763C261.59 182.103 261.875 181.232 261.831 180.324Z" fill="url(#paint7_linear_293_14115)"/>
<path d="M251.269 169.366C250.933 168.929 250.449 168.66 249.939 168.66H237.771C236.794 168.66 235.945 169.601 235.945 170.717V178.014C235.945 179.13 236.794 180 237.771 180H249.103C249.991 180 250.742 179.265 250.857 178.259L251.693 170.961C251.76 170.385 251.605 169.803 251.269 169.366Z" fill="url(#paint8_linear_293_14115)"/>
<g opacity="0.24">
<path d="M243.776 163.92C243.373 163.92 243.022 163.592 242.942 163.141L242.841 162.574C242.789 162.287 242.853 161.838 243.016 161.611C243.178 161.383 243.418 161.1 243.675 161.1H247.203C247.673 161.1 248.394 161.843 248.394 162.38V162.54C248.394 163.041 247.896 163.457 247.46 163.508L243.949 163.914C243.92 163.918 243.806 163.92 243.776 163.92ZM243.676 161.46C243.49 161.46 243.316 161.662 243.199 161.826C243.081 161.991 243.035 162.258 243.072 162.466L243.173 163.06C243.236 163.409 243.523 163.667 243.84 163.633L247.554 163.233C247.869 163.196 248.394 162.902 248.394 162.54V162.38C248.394 161.992 247.543 161.46 247.203 161.46L243.676 161.46Z" fill="#91B3FA"/>
</g>
<g filter="url(#filter0_d_293_14115)">
<path d="M249.474 170.833C249.474 171.318 249.13 171.711 248.706 171.711C248.281 171.711 247.938 171.318 247.938 170.833C247.938 170.349 248.281 169.956 248.706 169.956C249.13 169.956 249.474 170.349 249.474 170.833Z" fill="url(#paint9_linear_293_14115)"/>
</g>
<path d="M255.12 176.04C255.12 175.68 255.224 173.65 255.401 173.583C255.578 173.515 258.164 173.555 258.164 173.555V176.04H259.739V178.2H257.51L257.628 179.64H255.323L255.414 177.779L253.909 178.213V176.04H255.12Z" fill="url(#paint10_linear_293_14115)"/>
<path d="M256.604 171.89C257.517 171.89 258.258 171.044 258.258 170.001C258.258 168.957 257.517 168.111 256.604 168.111C255.69 168.111 254.949 168.957 254.949 170.001C254.949 171.044 255.69 171.89 256.604 171.89Z" fill="url(#paint11_linear_293_14115)"/>
<path d="M249.024 207.208C249.024 208.305 247.647 208.98 246.559 208.98H237.499C236.411 208.98 235.63 208.305 235.63 207.208V207.129C235.63 206.033 236.411 205.38 237.499 205.38H246.559C247.646 205.38 249.024 206.033 249.024 207.129V207.208Z" fill="url(#paint12_linear_293_14115)"/>
<path d="M251.231 207.26C251.231 208.384 250.247 208.98 249.159 208.98H240.099C239.011 208.98 238.625 208.384 238.625 207.26V207.179C238.625 206.055 239.011 205.38 240.099 205.38H249.159C250.247 205.38 251.231 206.055 251.231 207.179V207.26Z" fill="url(#paint13_linear_293_14115)"/>
<path d="M251.128 185.705C251.368 185.627 259.164 193.265 259.164 193.265L257.904 193.935L250.262 187.685C250.262 187.685 249.474 186.245 251.128 185.705Z" fill="#E8E0D0"/>
<path d="M259.007 192.226C258.633 191.945 258.143 191.967 257.791 192.283C257.173 192.836 256.459 193.761 257.421 194.54C258.902 195.738 265.177 201.552 266.046 200.793C266.899 200.049 268.357 199.266 259.007 192.226Z" fill="#E8E0D0"/>
<path d="M169.835 149.792C169.835 149.792 207.614 128.47 195.259 112.77C182.904 97.0706 159.869 103.346 158.703 119.869C157.536 136.393 185.571 132.517 169.835 149.792Z" fill="url(#paint14_linear_293_14115)"/>
<path d="M192.063 117.005H175.39C175.302 117.005 175.232 116.924 175.232 116.825C175.232 116.725 175.302 116.645 175.39 116.645H192.063C192.15 116.645 192.22 116.725 192.22 116.825C192.22 116.924 192.15 117.005 192.063 117.005Z" fill="#7D97F4"/>
<path d="M170.439 117.005H165.492C165.404 117.005 165.334 116.924 165.334 116.825C165.334 116.725 165.404 116.645 165.492 116.645H170.439C170.526 116.645 170.596 116.725 170.596 116.825C170.596 116.924 170.526 117.005 170.439 117.005Z" fill="#7D97F4"/>
<path d="M192.624 120.861H186.364C186.276 120.861 186.206 120.78 186.206 120.681C186.206 120.581 186.276 120.501 186.364 120.501H192.624C192.712 120.501 192.782 120.581 192.782 120.681C192.782 120.78 192.712 120.861 192.624 120.861Z" fill="#7D97F4"/>
<path d="M177.177 120.861H166.053C165.966 120.861 165.896 120.78 165.896 120.681C165.896 120.581 165.966 120.501 166.053 120.501H177.177C177.264 120.501 177.335 120.581 177.335 120.681C177.335 120.78 177.264 120.861 177.177 120.861Z" fill="#7D97F4"/>
<path d="M193.186 124.717H176.544C176.457 124.717 176.386 124.636 176.386 124.537C176.386 124.437 176.457 124.357 176.544 124.357H193.186C193.273 124.357 193.344 124.437 193.344 124.537C193.344 124.636 193.273 124.717 193.186 124.717Z" fill="#7D97F4"/>
<path d="M172.377 124.717H166.615C166.528 124.717 166.458 124.636 166.458 124.537C166.458 124.437 166.528 124.357 166.615 124.357H172.377C172.464 124.357 172.534 124.437 172.534 124.537C172.534 124.636 172.464 124.717 172.377 124.717Z" fill="#7D97F4"/>
<path d="M133.844 204.718L138.49 205.014L139.529 219.155C139.529 219.155 140.543 220.301 140.49 222.898C140.437 225.495 140.196 225.754 139.854 225.414C139.513 225.073 139.599 223.709 139.13 223.271C138.661 222.833 138.362 224.532 138.746 225.533C139.13 226.534 140.579 231.354 139.172 229.845C137.765 228.335 136.529 225.803 136.444 223.514C136.359 221.226 136.913 219.521 136.913 219.521L133.844 204.718Z" fill="url(#paint15_linear_293_14115)"/>
<path d="M150.969 272.586C152.986 272.521 154.029 272.25 154.568 271.998C154.57 272.227 154.569 272.46 154.562 272.702C154.555 272.96 154.388 273.166 154.182 273.164L143.109 273.083C142.756 273.08 142.549 272.612 142.703 272.242C144.154 272.379 147.852 272.685 150.969 272.586Z" fill="url(#paint16_linear_293_14115)"/>
<path d="M154.006 267.736C153.753 266.707 152.921 266.009 151.986 266.043L151.062 266.077C146.14 267.425 143.649 270.533 142.672 272.093C142.653 272.124 142.641 272.157 142.628 272.189C144.08 272.326 147.777 272.632 150.895 272.533C152.911 272.468 153.955 272.197 154.494 271.945C154.485 270.147 154.252 268.733 154.006 267.736Z" fill="black"/>
<path d="M149.597 262.448L150.37 266.7C150.427 267.012 150.636 267.245 150.89 267.273C151.201 267.306 151.643 267.326 152.088 267.251C152.487 267.184 152.765 266.721 152.694 266.224L152.157 262.448L149.597 262.448Z" fill="url(#paint17_linear_293_14115)"/>
<path d="M165.62 272.586C163.604 272.521 162.561 272.25 162.021 271.998C162.02 272.227 162.021 272.46 162.028 272.702C162.035 272.96 162.202 273.166 162.408 273.164L173.481 273.083C173.834 273.08 174.041 272.612 173.887 272.242C172.436 272.379 168.738 272.685 165.62 272.586Z" fill="url(#paint18_linear_293_14115)"/>
<path d="M173.888 272.242C173.875 272.209 173.863 272.177 173.844 272.146C172.866 270.585 170.376 267.477 165.454 266.129L163.093 266.044C163.093 266.044 162.042 268.131 162.022 271.998C162.561 272.25 163.604 272.521 165.621 272.585C168.738 272.685 172.436 272.379 173.888 272.242Z" fill="black"/>
<path d="M162.655 261.957C162.681 262.158 163.005 265.213 163.13 266.398C163.16 266.68 163.338 266.897 163.563 266.928C163.965 266.983 164.616 267.033 165.185 266.9C165.492 266.828 165.714 266.491 165.714 266.099V261.303L162.655 261.957Z" fill="url(#paint19_linear_293_14115)"/>
<path d="M160.761 206.198C160.761 206.198 166.455 230.919 166.352 262.028C166.35 262.595 166.002 263.084 165.516 263.201C164.8 263.373 163.747 263.578 162.876 263.55C162.411 263.535 162.022 263.141 161.944 262.617C161.145 257.268 156.563 227.136 153.952 222.244C153.952 222.244 152.235 249.081 152.784 263.004C152.798 263.351 152.576 263.651 152.274 263.691C151.817 263.751 151.086 263.797 150.155 263.684C149.802 263.641 149.517 263.336 149.466 262.934C148.897 258.408 145.624 231.462 145.763 212.052C145.771 210.957 148.297 206.198 148.297 206.198H160.761Z" fill="#37474F"/>
<path d="M150.697 160.134L149.957 168.773C149.957 168.773 154.211 170.236 157.305 167.743L155.13 159.891L150.697 160.134Z" fill="url(#paint20_linear_293_14115)"/>
<path d="M158.667 151.827C158.667 151.827 159.803 157.787 159.443 160.697C159.082 163.608 159.3 165.6 156.285 165.518C153.27 165.436 151.104 163.221 150.273 160.051C150.273 160.051 148.957 155.159 149.74 153.455C150.522 151.752 158.667 151.827 158.667 151.827Z" fill="url(#paint21_linear_293_14115)"/>
<path d="M151.627 158.215L151.807 158.169C152.037 158.111 152.177 157.844 152.112 157.586C151.859 156.586 151.419 154.325 152.538 154.075C153.981 153.753 159.478 153.722 160.991 151.839C162.444 150.029 161.936 147.152 160.608 146.066C160.52 145.993 160.397 146.007 160.329 146.104L160.161 146.339C160.047 146.5 159.819 146.42 159.803 146.213C159.789 146.015 159.576 145.929 159.457 146.074C158.995 146.635 157.868 147.459 155.246 147.418C151.519 147.36 148.853 148.483 148.3 151.307C148.265 151.487 148.08 151.549 147.961 151.424C147.728 151.179 147.318 150.996 146.656 151.413C145.503 152.137 145.48 154.689 147.292 157.204C147.378 157.323 147.345 157.506 147.22 157.564C146.776 157.767 146.071 158.328 147.425 159.598C148.827 160.911 150.011 161.098 150.476 161.115C150.592 161.12 150.686 161.012 150.684 160.88L150.636 158.276C150.634 158.129 150.751 158.016 150.878 158.045L151.627 158.215Z" fill="black"/>
<path d="M151.626 158.762C151.626 158.762 151.438 155.077 149.892 155.747C148.346 156.418 149.923 159.835 151.006 160.217L151.626 158.762Z" fill="url(#paint22_linear_293_14115)"/>
<path d="M149.216 167.939C149.216 167.939 139.121 166.274 141.863 180.871C144.605 195.468 146.396 203.135 146.912 209.181C148.719 210.508 160.302 209.171 160.749 208.921C161.196 208.67 161.365 209.231 161.336 206.626C161.307 204.021 165.072 182.95 165.376 181.707C165.681 180.463 174.648 195.817 173.357 186.722C172.066 177.627 165.497 166.023 158.326 166.738C151.156 167.453 149.216 167.939 149.216 167.939Z" fill="#24A4C0"/>
<path d="M165.376 181.707C165.376 181.707 173.099 192.151 174.132 192.151C175.164 192.151 176.025 188.233 176.025 188.233L170.701 177.82L165.376 181.707Z" fill="#24A4C0"/>
<path d="M146.083 168.286C145.742 167.931 134.309 170.215 134.309 195.429C134.309 204.718 134.309 204.718 134.309 204.718L138.723 205.014L144.015 183.777C144.015 183.777 149.182 171.517 146.083 168.286Z" fill="#24A4C0"/>
<path d="M182.604 167.526C182.476 164.991 181.462 163.483 180.432 162.594C180.242 162.43 180.052 162.284 179.863 162.16C178.964 161.563 178.194 161.404 178.194 161.404C177.562 160.298 177.508 167.897 177.508 167.897L177.512 167.906C177.45 167.995 177.392 168.087 177.338 168.18C177.322 168.012 177.322 167.827 177.342 167.627C177.473 166.225 176.536 165.96 176.536 166.291C176.536 166.623 176.149 168.746 176.025 169.596C175.909 170.392 177.942 173.36 178.19 173.718C178.19 173.723 178.194 173.727 178.194 173.727C178.205 173.78 178.213 173.811 178.213 173.811C178.213 173.811 173.303 191.819 173.826 192.151C174.093 192.323 177.582 195.468 178.987 193.774C180.269 192.221 181.241 176.483 181.4 173.754C181.4 173.754 182.306 173.046 182.554 170.1C182.558 170.091 182.558 170.087 182.558 170.078C182.589 169.932 182.604 169.812 182.604 169.719C182.604 169.671 182.6 169.618 182.593 169.565C182.627 168.972 182.631 168.291 182.604 167.526Z" fill="url(#paint23_linear_293_14115)"/>
<path d="M238.372 75.672C238.372 75.672 238.56 75.728 238.751 75.7778C238.942 75.8264 239.133 75.8749 239.133 75.8749L239.135 75.8754C239.2 75.8918 239.241 75.9652 239.227 76.0392C239.212 76.1132 239.148 76.16 239.083 76.1434C239.083 76.1434 238.89 76.0945 238.696 76.0457C238.503 75.9953 238.31 75.9377 238.31 75.9377C238.246 75.9186 238.207 75.8434 238.224 75.7699C238.24 75.6965 238.306 75.6524 238.37 75.6715L238.372 75.672Z" fill="#7D97F4"/>
<path d="M239.901 76.0489L240.678 76.2016C240.743 76.2143 240.787 76.2853 240.775 76.3598C240.764 76.4343 240.702 76.4843 240.637 76.4716L239.86 76.3193C239.795 76.3065 239.751 76.2356 239.762 76.1609C239.774 76.0862 239.836 76.0361 239.901 76.0489Z" fill="#7D97F4"/>
<path d="M241.452 76.333L242.233 76.446C242.299 76.4556 242.345 76.5238 242.337 76.5986C242.329 76.6735 242.269 76.7264 242.203 76.7169L241.422 76.6044C241.356 76.595 241.31 76.5266 241.318 76.4516C241.326 76.3765 241.386 76.3236 241.452 76.333Z" fill="#7D97F4"/>
<path d="M243.012 76.5392L243.797 76.6143C243.862 76.6206 243.911 76.6865 243.905 76.7614C243.9 76.8362 243.842 76.8919 243.777 76.8856L242.992 76.8109C242.926 76.8046 242.877 76.7387 242.883 76.6636C242.888 76.5887 242.946 76.5331 243.012 76.5392Z" fill="#7D97F4"/>
<path d="M244.578 76.6703L245.365 76.7075C245.431 76.7106 245.482 76.7738 245.479 76.8487C245.476 76.9235 245.421 76.9817 245.355 76.9786L244.568 76.9419C244.503 76.9388 244.452 76.8755 244.454 76.8006C244.457 76.7255 244.512 76.6672 244.578 76.6703Z" fill="#7D97F4"/>
<path d="M246.147 76.7252L246.935 76.7232C247 76.723 247.054 76.7835 247.054 76.8582C247.054 76.9329 247.001 76.9936 246.936 76.9937L246.148 76.9961C246.082 76.9963 246.029 76.9358 246.029 76.8609C246.029 76.7864 246.082 76.7255 246.147 76.7252Z" fill="#7D97F4"/>
<path d="M247.717 76.7014L248.504 76.6588C248.569 76.6552 248.625 76.7126 248.628 76.7871C248.631 76.8614 248.581 76.9248 248.515 76.9282L247.728 76.9714C247.663 76.975 247.608 76.9174 247.605 76.8429C247.602 76.7684 247.652 76.705 247.717 76.7014Z" fill="#7D97F4"/>
<path d="M249.284 76.5952L250.069 76.5096C250.133 76.5025 250.191 76.5567 250.197 76.6307C250.203 76.7047 250.156 76.7704 250.091 76.7774L249.307 76.8634C249.242 76.8706 249.184 76.8163 249.178 76.7423C249.172 76.6683 249.219 76.6024 249.284 76.5952Z" fill="#7D97F4"/>
<path d="M250.845 76.4025L251.624 76.2714C251.689 76.2606 251.748 76.3112 251.758 76.3844C251.767 76.4577 251.723 76.5257 251.659 76.5365L250.879 76.668C250.815 76.6788 250.755 76.6282 250.746 76.5547C250.736 76.4816 250.781 76.4133 250.845 76.4025Z" fill="#7D97F4"/>
<path d="M252.394 76.118L253.166 75.9393C253.23 75.9245 253.291 75.9713 253.304 76.0437C253.317 76.1161 253.276 76.1866 253.213 76.2012L252.441 76.3805C252.377 76.3952 252.316 76.3484 252.303 76.2759C252.29 76.2035 252.331 76.1328 252.394 76.118Z" fill="#7D97F4"/>
<path d="M253.927 75.7373L254.689 75.5082C254.751 75.4895 254.815 75.532 254.832 75.6031C254.848 75.6742 254.811 75.7471 254.749 75.766L253.987 75.9955C253.925 76.0144 253.861 75.9717 253.844 75.9004C253.828 75.8291 253.865 75.7562 253.927 75.7373Z" fill="#7D97F4"/>
<path d="M255.437 75.2553L256.186 74.9734C256.247 74.9504 256.312 74.9884 256.333 75.058C256.353 75.1277 256.319 75.2027 256.259 75.2258L255.51 75.508C255.449 75.5311 255.383 75.4933 255.363 75.4234C255.343 75.3536 255.376 75.2783 255.437 75.2553Z" fill="#7D97F4"/>
<path d="M256.919 74.6674L257.65 74.331C257.709 74.3036 257.777 74.3364 257.8 74.4043C257.824 74.4721 257.796 74.5492 257.736 74.5765L257.006 74.9133C256.946 74.9407 256.879 74.9079 256.855 74.84C256.831 74.7722 256.859 74.6948 256.919 74.6674Z" fill="#7D97F4"/>
<path d="M258.363 73.9703L259.072 73.5779C259.129 73.546 259.199 73.5736 259.226 73.6391C259.254 73.7048 259.23 73.7836 259.173 73.8155L258.464 74.2082C258.406 74.2401 258.337 74.2127 258.309 74.147C258.281 74.0812 258.305 74.0021 258.363 73.9703Z" fill="#7D97F4"/>
<path d="M259.761 73.1617L260.444 72.713C260.499 72.6768 260.57 72.6984 260.601 72.7614C260.633 72.8244 260.614 72.9049 260.559 72.941L259.876 73.39C259.821 73.4263 259.75 73.4045 259.719 73.3415C259.687 73.2787 259.706 73.1981 259.761 73.1617Z" fill="#7D97F4"/>
<path d="M261.107 72.2405C261.107 72.2405 261.148 72.2097 261.21 72.1634C261.271 72.1163 261.351 72.0537 261.432 71.9908C261.595 71.8643 261.758 71.7379 261.758 71.7379C261.811 71.6973 261.882 71.7127 261.918 71.7727C261.953 71.8326 261.94 71.9143 261.887 71.955C261.887 71.955 261.724 72.0816 261.561 72.2081C261.479 72.2718 261.397 72.3355 261.336 72.3832C261.274 72.4295 261.233 72.4603 261.233 72.4603C261.18 72.5001 261.109 72.4831 261.074 72.4223C261.039 72.3616 261.054 72.2803 261.107 72.2405Z" fill="#7D97F4"/>
<path d="M262.394 71.2174L263.025 70.6779C263.075 70.6345 263.147 70.6464 263.185 70.7042C263.223 70.762 263.213 70.844 263.162 70.8872L262.532 71.4271C262.481 71.4704 262.409 71.4587 262.371 71.4008C262.333 71.3428 262.343 71.2607 262.394 71.2174Z" fill="#7D97F4"/>
<path d="M263.643 70.128L264.257 69.5633C264.306 69.5182 264.378 69.527 264.417 69.5831C264.457 69.6393 264.449 69.7214 264.4 69.7666L263.787 70.3316C263.738 70.3768 263.666 70.3679 263.626 70.312C263.586 70.2554 263.594 70.1732 263.643 70.128Z" fill="#7D97F4"/>
<path d="M264.859 68.9901L265.457 68.4029C265.504 68.3561 265.576 68.3622 265.617 68.4166C265.658 68.4709 265.653 68.553 265.605 68.5998L265.008 69.1873C264.961 69.2343 264.889 69.2282 264.847 69.1736C264.806 69.1193 264.812 69.037 264.859 68.9901Z" fill="#7D97F4"/>
<path d="M266.042 67.8073L266.622 67.1974C266.668 67.1488 266.739 67.1522 266.782 67.205C266.824 67.2575 266.821 67.3396 266.775 67.388L266.196 67.9982C266.15 68.0468 266.078 68.0434 266.035 67.9909C265.993 67.9381 265.996 67.8559 266.042 67.8073Z" fill="#7D97F4"/>
<path d="M267.188 66.5791L267.748 65.9453C267.792 65.8951 267.864 65.8955 267.908 65.9461C267.952 65.9966 267.951 66.0785 267.907 66.1288L267.348 66.7629C267.303 66.8133 267.232 66.8129 267.188 66.7622C267.144 66.7114 267.144 66.6295 267.188 66.5791Z" fill="#7D97F4"/>
<path d="M268.293 65.3027L268.828 64.6425C268.871 64.5903 268.942 64.5872 268.988 64.6355C269.033 64.6837 269.036 64.7653 268.994 64.8175L268.459 65.4779C268.416 65.5301 268.345 65.5333 268.299 65.4849C268.253 65.4367 268.25 65.3551 268.293 65.3027Z" fill="#7D97F4"/>
<path d="M269.346 63.9729L269.852 63.2828C269.892 63.2284 269.963 63.2212 270.01 63.2666C270.058 63.3121 270.064 63.3929 270.024 63.4475L269.519 64.1378C269.479 64.1923 269.408 64.1995 269.36 64.154C269.313 64.1084 269.306 64.0274 269.346 63.9729Z" fill="#7D97F4"/>
<path d="M270.335 62.5822L270.802 61.8574C270.839 61.8005 270.909 61.7882 270.959 61.83C271.009 61.8718 271.019 61.952 270.983 62.0089L270.516 62.7341C270.479 62.7912 270.409 62.8034 270.359 62.7617C270.309 62.7197 270.299 62.6395 270.335 62.5822Z" fill="#7D97F4"/>
<path d="M271.242 61.1215L271.654 60.3554C271.687 60.2955 271.755 60.2768 271.807 60.3137C271.86 60.3506 271.876 60.4292 271.844 60.4892L271.43 61.2554C271.398 61.3156 271.33 61.3343 271.278 61.2974C271.225 61.2605 271.242 61.1818 271.242 61.1217V61.1215Z" fill="#7D97F4"/>
<path d="M272.028 59.5753C272.028 59.5753 272.117 59.3768 272.2 59.175C272.284 58.9736 272.361 58.7689 272.361 58.7689C272.385 58.7043 272.45 58.6744 272.507 58.7021C272.563 58.7299 272.589 58.8049 272.565 58.8694C272.565 58.8694 272.487 59.0783 272.401 59.2835C272.317 59.4889 272.226 59.6909 272.226 59.6909L272.226 59.6918C272.198 59.7544 272.13 59.7791 272.076 59.7469C272.021 59.7146 271.999 59.638 272.028 59.5753Z" fill="#7D97F4"/>
<path d="M272.641 57.9389C272.641 57.9389 272.704 57.7285 272.757 57.5149C272.811 57.3017 272.855 57.0857 272.855 57.0857C272.869 57.0175 272.928 56.975 272.988 56.9907C273.048 57.0064 273.085 57.0749 273.071 57.1432C273.071 57.1432 273.026 57.3658 272.97 57.5849C272.916 57.8041 272.851 58.0196 272.851 58.0196L272.851 58.021C272.831 58.0874 272.768 58.1227 272.71 58.1C272.652 58.0775 272.621 58.0054 272.641 57.9389Z" fill="#7D97F4"/>
<path d="M272.976 56.2145C272.976 56.2145 272.986 56.1595 272.993 56.0767C273 55.9942 273.01 55.8841 273.014 55.7739C273.023 55.5536 273.017 55.3334 273.017 55.3334C273.015 55.2638 273.063 55.2051 273.124 55.2026C273.185 55.2001 273.237 55.2553 273.239 55.325C273.239 55.325 273.247 55.5548 273.237 55.7843C273.233 55.899 273.226 56.0135 273.22 56.0992C273.212 56.1845 273.207 56.2412 273.207 56.2412C273.201 56.3107 273.147 56.3333 273.086 56.3265C273.025 56.3197 272.975 56.34 272.981 56.16H272.976V56.2145Z" fill="#7D97F4"/>
<path d="M272.931 54.4615C272.931 54.4615 272.921 54.4077 272.906 54.3267C272.89 54.2464 272.866 54.14 272.839 54.0347C272.786 53.8238 272.714 53.6198 272.714 53.6198C272.692 53.5552 272.719 53.482 272.776 53.4562C272.833 53.4305 272.897 53.4618 272.919 53.5264L272.919 53.5275C272.919 53.5275 272.995 53.7419 273.051 53.9636C273.079 54.0743 273.104 54.1861 273.121 54.2704C273.137 54.3544 273.147 54.4106 273.147 54.4106C273.16 54.4786 273.122 54.5458 273.063 54.5605C273.003 54.5753 272.944 54.5319 272.931 54.4639L272.931 54.4615Z" fill="#7D97F4"/>
<path d="M272.373 52.8388C272.373 52.8388 272.346 52.7918 272.305 52.7213C272.285 52.686 272.261 52.645 272.236 52.6009C272.224 52.5803 272.211 52.5591 272.198 52.5377L272.157 52.4752C272.044 52.3071 271.899 52.1694 271.899 52.1694C271.852 52.1249 271.846 52.0459 271.885 51.9926C271.924 51.9394 271.993 51.9322 272.04 51.9766L272.042 51.9788C272.042 51.9788 272.202 52.1305 272.33 52.3199L272.377 52.3915C272.392 52.4158 272.406 52.4398 272.42 52.4628C272.445 52.5069 272.469 52.5479 272.489 52.5832C272.53 52.6538 272.556 52.7008 272.556 52.7008C272.59 52.7587 272.576 52.8367 272.525 52.8748C272.474 52.913 272.406 52.897 272.373 52.8388Z" fill="#7D97F4"/>
<path d="M271.258 51.719C271.258 51.719 271.214 51.6978 271.148 51.6661C271.081 51.6355 270.992 51.5981 270.9 51.565C270.718 51.4975 270.529 51.451 270.529 51.451C270.47 51.4364 270.433 51.3698 270.445 51.3023C270.458 51.2348 270.516 51.1918 270.576 51.2064L270.577 51.2068C270.577 51.2068 270.774 51.2552 270.967 51.3265C271.063 51.3614 271.158 51.4012 271.229 51.4336C271.299 51.467 271.345 51.4892 271.345 51.4892C271.401 51.5158 271.428 51.5893 271.404 51.6532C271.381 51.7171 271.317 51.7471 271.261 51.7203L271.258 51.719Z" fill="#7D97F4"/>
<path d="M269.766 51.3C269.766 51.3 269.573 51.2955 269.379 51.2939C269.185 51.2908 268.992 51.3085 268.992 51.3085C268.932 51.3121 268.88 51.2622 268.877 51.1934C268.874 51.1247 268.921 51.0674 268.981 51.0638C268.981 51.0638 269.181 51.0527 269.382 51.0557C269.482 51.057 269.582 51.0615 269.657 51.0662C269.732 51.0716 269.782 51.0754 269.782 51.0754C269.842 51.0797 269.888 51.1267 269.884 51.1954C269.88 51.2644 269.828 51.3 269.768 51.3C269.768 51.3 269.767 51.3 269.766 51.3Z" fill="#7D97F4"/>
<path d="M268.222 51.4085C268.222 51.4085 268.03 51.444 267.842 51.4942C267.653 51.5428 267.467 51.6067 267.467 51.6067C267.41 51.6265 267.349 51.5894 267.332 51.5237C267.314 51.458 267.348 51.3884 267.405 51.3686C267.405 51.3686 267.597 51.3022 267.793 51.2518C267.988 51.1997 268.185 51.163 268.185 51.163L268.187 51.1627C268.246 51.1517 268.302 51.1978 268.312 51.2656C268.322 51.3335 268.281 51.3976 268.222 51.4085Z" fill="#7D97F4"/>
<path d="M266.748 51.9203C266.748 51.9203 266.705 51.9448 266.64 51.9817C266.576 52.0193 266.492 52.0717 266.411 52.1285C266.247 52.2409 266.099 52.3766 266.099 52.3766C266.052 52.4194 265.984 52.411 265.946 52.3575C265.909 52.3042 265.916 52.2261 265.963 52.1833L265.963 52.1827C265.963 52.1827 266.123 52.036 266.298 51.9167C266.384 51.8562 266.473 51.8006 266.541 51.761C266.608 51.7226 266.653 51.6969 266.653 51.6969C266.707 51.6663 266.772 51.6913 266.799 51.7525C266.826 51.8139 266.804 51.8884 266.75 51.9188L266.748 51.9203Z" fill="#7D97F4"/>
<path d="M265.604 53.0111C265.604 53.0111 265.58 53.0588 265.544 53.1302C265.51 53.2019 265.467 53.2989 265.429 53.3984C265.351 53.597 265.299 53.8058 265.299 53.8058C265.283 53.8715 265.223 53.9096 265.166 53.8911C265.108 53.8726 265.075 53.8043 265.091 53.7386L265.091 53.7372C265.091 53.7372 265.147 53.5118 265.23 53.2989C265.271 53.1922 265.317 53.0883 265.354 53.0118C265.391 52.9366 265.416 52.8863 265.416 52.8863C265.446 52.8269 265.512 52.8061 265.564 52.8397C265.616 52.8734 265.634 52.949 265.604 53.0084L265.604 53.0111Z" fill="#7D97F4"/>
<path d="M265.254 54.6595C265.254 54.6595 265.223 54.7142 265.224 54.7961C265.226 54.8775 265.217 54.986 265.229 55.094C265.25 55.3104 265.288 55.523 265.288 55.523C265.302 55.589 265.263 55.6556 265.205 55.6718C265.147 55.688 265.087 55.6477 265.073 55.5817L265.071 55.5799C265.071 55.5799 265.022 55.3547 264.999 55.1234C264.987 55.008 264.98 54.8917 264.977 54.8044C264.976 54.7177 264.976 54.6599 264.976 54.6599C264.975 54.5918 265.022 54.5677 265.082 54.5668C265.141 54.5659 265.222 54.5402 265.223 54.7202H265.254V54.6595Z" fill="#7D97F4"/>
<path d="M265.528 56.3519C265.528 56.3519 265.548 56.4023 265.578 56.4777C265.609 56.5526 265.652 56.6516 265.697 56.7491C265.787 56.9448 265.889 57.1336 265.889 57.1336C265.92 57.1912 265.904 57.2668 265.854 57.3025C265.803 57.3379 265.737 57.3201 265.706 57.2623L265.706 57.2614C265.706 57.2614 265.6 57.0668 265.507 56.8642C265.46 56.763 265.415 56.6602 265.383 56.5823C265.352 56.5043 265.331 56.4523 265.331 56.4523C265.307 56.3906 265.331 56.3177 265.385 56.2894C265.439 56.2612 265.502 56.2883 265.527 56.3501L265.528 56.3519Z" fill="#7D97F4"/>
<path d="M266.326 57.8671C266.326 57.8671 266.443 58.046 266.566 58.2192C266.689 58.3929 266.817 58.5608 266.817 58.5608C266.856 58.6118 266.851 58.689 266.807 58.7333C266.762 58.7776 266.694 58.772 266.655 58.721C266.655 58.721 266.524 58.5499 266.4 58.3727C266.274 58.1963 266.155 58.0147 266.155 58.0147L266.155 58.0135C266.119 57.9593 266.129 57.8826 266.176 57.8421C266.224 57.8018 266.291 57.8129 266.326 57.8671Z" fill="#7D97F4"/>
<path d="M267.348 59.2128C267.348 59.2128 267.486 59.3708 267.629 59.5228C267.772 59.6752 267.919 59.8214 267.919 59.8214C267.963 59.8655 267.968 59.9425 267.929 59.9933C267.891 60.044 267.823 60.0493 267.779 60.0052C267.779 60.0052 267.628 59.8563 267.483 59.7011C267.338 59.5467 267.197 59.3858 267.197 59.3858L267.197 59.3851C267.155 59.3374 267.155 59.26 267.197 59.2124C267.239 59.1649 267.307 59.1651 267.348 59.2128Z" fill="#7D97F4"/>
<path d="M268.524 60.3846C268.524 60.3846 268.679 60.5201 268.839 60.6494C268.998 60.7792 269.16 60.9026 269.16 60.9026C269.209 60.9397 269.223 61.0151 269.19 61.0709C269.158 61.1267 269.091 61.1419 269.042 61.1048C269.042 61.1048 268.877 60.9793 268.715 60.8474C268.554 60.7163 268.395 60.5785 268.395 60.5785C268.349 60.5381 268.339 60.4618 268.374 60.4082C268.41 60.3545 268.476 60.3437 268.524 60.3841L268.524 60.3846Z" fill="#7D97F4"/>
<path d="M269.823 61.3751C269.823 61.3751 269.992 61.488 270.164 61.5949C270.335 61.7024 270.509 61.8037 270.509 61.8037C270.561 61.8341 270.582 61.907 270.556 61.9666C270.529 62.0262 270.465 62.0498 270.413 62.0194C270.413 62.0194 270.236 61.9166 270.062 61.8075C269.888 61.6993 269.717 61.5847 269.717 61.5847C269.666 61.5512 269.648 61.477 269.678 61.4191C269.707 61.3611 269.772 61.3411 269.823 61.3746L269.823 61.3751Z" fill="#7D97F4"/>
<path d="M271.212 62.1889L271.939 62.5369C271.993 62.5626 272.018 62.6333 271.996 62.6947C271.973 62.7561 271.911 62.7851 271.858 62.7594L271.131 62.4118C271.077 62.386 271.052 62.3153 271.074 62.2536C271.097 62.1922 271.158 62.1632 271.212 62.1889Z" fill="#7D97F4"/>
<path d="M272.67 62.8421L273.421 63.1147C273.477 63.1348 273.507 63.2023 273.489 63.2657C273.472 63.3291 273.413 63.364 273.357 63.3438L272.606 63.0717C272.551 63.0515 272.52 62.9838 272.538 62.9205C272.555 62.8571 272.615 62.822 272.67 62.8421Z" fill="#7D97F4"/>
<path d="M274.173 63.3505L274.94 63.5567C274.997 63.5719 275.032 63.6365 275.018 63.7009C275.005 63.7654 274.948 63.8053 274.892 63.79L274.125 63.5841C274.068 63.569 274.034 63.5044 274.047 63.4397C274.06 63.3753 274.117 63.3353 274.173 63.3505Z" fill="#7D97F4"/>
<path d="M275.706 63.7317L276.483 63.8804C276.54 63.8914 276.579 63.9529 276.569 64.0179C276.559 64.0829 276.506 64.1268 276.449 64.116L275.671 63.9679C275.614 63.9571 275.576 63.8953 275.585 63.8302C275.595 63.765 275.649 63.7209 275.706 63.7317Z" fill="#7D97F4"/>
<path d="M277.258 64.0021L278.041 64.1005C278.098 64.1077 278.139 64.1666 278.133 64.2319C278.127 64.2973 278.075 64.3444 278.018 64.3372L277.235 64.2393C277.178 64.2321 277.136 64.1732 277.143 64.1079C277.149 64.0426 277.2 63.9949 277.258 64.0021Z" fill="#7D97F4"/>
<path d="M278.821 64.1758L279.607 64.2287C279.665 64.2325 279.708 64.2886 279.705 64.3542C279.701 64.4197 279.652 64.4695 279.595 64.4656L278.809 64.413C278.751 64.4092 278.708 64.3529 278.711 64.2876C278.714 64.2219 278.763 64.1718 278.821 64.1758Z" fill="#7D97F4"/>
<path d="M280.389 64.2575L281.177 64.2629C281.234 64.2632 281.28 64.3165 281.28 64.3819C281.28 64.4472 281.233 64.4998 281.176 64.4994L280.388 64.4944C280.331 64.494 280.285 64.4407 280.285 64.3754C280.285 64.3097 280.332 64.2571 280.389 64.2575Z" fill="#7D97F4"/>
<path d="M281.96 64.2454L282.747 64.2051C282.803 64.2022 282.852 64.2524 282.854 64.3174C282.857 64.3824 282.813 64.4375 282.756 64.4404L281.969 64.481C281.912 64.4839 281.864 64.4335 281.861 64.3685C281.859 64.3036 281.903 64.2483 281.96 64.2454Z" fill="#7D97F4"/>
<path d="M283.528 64.143L284.312 64.0589C284.368 64.0528 284.419 64.1003 284.424 64.1648C284.429 64.2294 284.388 64.2866 284.331 64.2926L283.547 64.377C283.49 64.3831 283.44 64.3356 283.435 64.271C283.429 64.2064 283.471 64.1491 283.528 64.143Z" fill="#7D97F4"/>
<path d="M285.09 63.9547L285.87 63.8298C285.926 63.8208 285.978 63.8654 285.986 63.9293C285.994 63.9932 285.954 64.0525 285.898 64.0615L285.118 64.1869C285.062 64.1959 285.01 64.1513 285.003 64.0872C284.994 64.0229 285.034 63.9637 285.09 63.9547Z" fill="#7D97F4"/>
<path d="M286.643 63.6862L287.418 63.5233C287.473 63.5116 287.526 63.5535 287.537 63.6169C287.547 63.6802 287.51 63.7409 287.455 63.7526L286.68 63.9159C286.624 63.9276 286.571 63.8856 286.561 63.8223C286.551 63.7589 286.587 63.6979 286.643 63.6862Z" fill="#7D97F4"/>
<path d="M288.186 63.3436L288.955 63.146C289.01 63.1319 289.064 63.1712 289.076 63.2338C289.089 63.2965 289.054 63.3586 288.999 63.3726L288.231 63.5706C288.176 63.5847 288.121 63.5454 288.109 63.4828C288.097 63.4201 288.131 63.3578 288.186 63.3436Z" fill="#7D97F4"/>
<path d="M289.716 62.9334L290.478 62.7046C290.533 62.6884 290.588 62.7253 290.602 62.7871C290.616 62.849 290.584 62.9122 290.53 62.9284L289.768 63.1575C289.714 63.1739 289.658 63.1368 289.644 63.0749C289.63 63.0131 289.662 62.9498 289.716 62.9334Z" fill="#7D97F4"/>
<path d="M291.234 62.4625L291.989 62.2058C292.043 62.1877 292.099 62.2224 292.115 62.2834C292.131 62.3444 292.1 62.4087 292.047 62.4269L291.292 62.6839C291.238 62.7021 291.182 62.6674 291.166 62.6062C291.15 62.5451 291.18 62.4807 291.234 62.4625Z" fill="#7D97F4"/>
<path d="M292.738 61.9375L293.486 61.6561C293.539 61.6363 293.596 61.6691 293.613 61.7294C293.63 61.7897 293.602 61.8547 293.549 61.8745L292.801 62.1562C292.748 62.1761 292.691 62.1432 292.674 62.0829C292.656 62.0224 292.685 61.9573 292.738 61.9375Z" fill="#7D97F4"/>
<path d="M294.229 61.3647L294.971 61.0621C295.023 61.0409 295.08 61.0718 295.099 61.1314C295.117 61.191 295.09 61.2565 295.038 61.2778L294.296 61.5809C294.244 61.6021 294.187 61.5712 294.168 61.5114C294.149 61.4518 294.177 61.3861 294.229 61.3647Z" fill="#7D97F4"/>
<path d="M295.708 60.7507L296.444 60.4298C296.495 60.4073 296.553 60.4368 296.572 60.4957C296.592 60.5545 296.566 60.6206 296.515 60.6429L295.779 60.9642C295.727 60.9867 295.669 60.9572 295.65 60.8983C295.63 60.8395 295.656 60.7734 295.708 60.7507Z" fill="#7D97F4"/>
<path d="M297.175 60.1015L297.906 59.7651C297.957 59.7417 298.015 59.7697 298.036 59.828C298.056 59.8864 298.031 59.9526 297.98 59.976L297.25 60.3128C297.199 60.3364 297.141 60.3081 297.12 60.2498C297.1 60.1915 297.124 60.125 297.175 60.1015Z" fill="#7D97F4"/>
<path d="M298.633 59.4227L299.359 59.0737C299.41 59.0494 299.468 59.0765 299.489 59.1341C299.511 59.1917 299.487 59.2582 299.436 59.2825L298.71 59.6318C298.66 59.6561 298.601 59.6291 298.58 59.5714C298.559 59.5136 298.582 59.447 298.633 59.4227Z" fill="#7D97F4"/>
<path d="M300.082 58.7196L300.805 58.3605C300.855 58.3357 300.913 58.3618 300.935 58.419C300.957 58.4762 300.934 58.5427 300.884 58.5675L300.162 58.927C300.111 58.952 300.053 58.9257 300.031 58.8685C300.009 58.8114 300.032 58.7446 300.082 58.7196Z" fill="#7D97F4"/>
<path d="M301.525 57.9978L302.244 57.6311C302.294 57.6058 302.352 57.6313 302.374 57.688C302.396 57.7447 302.374 57.8113 302.324 57.8365L301.605 58.2035C301.555 58.2289 301.497 58.2034 301.475 58.1467C301.453 58.09 301.475 58.0232 301.525 57.9978Z" fill="#7D97F4"/>
<path d="M302.963 57.2621L303.68 56.8904C303.729 56.8649 303.788 56.8899 303.81 56.9462C303.832 57.0026 303.81 57.069 303.761 57.0946L303.044 57.4666C302.994 57.4922 302.936 57.4673 302.914 57.4108C302.891 57.3543 302.913 57.2877 302.963 57.2621Z" fill="#7D97F4"/>
<path d="M304.397 56.5173L305.113 56.1431C305.162 56.1173 305.22 56.1422 305.243 56.1982C305.265 56.2543 305.243 56.3206 305.194 56.3461L304.478 56.7209C304.429 56.7466 304.371 56.722 304.348 56.6658C304.326 56.6095 304.347 56.543 304.397 56.5173Z" fill="#7D97F4"/>
<path d="M305.83 55.7683L306.546 55.3937C306.595 55.3682 306.653 55.3927 306.675 55.4486C306.697 55.5044 306.676 55.5705 306.627 55.5961L305.911 55.971C305.862 55.9967 305.804 55.9721 305.781 55.9161C305.759 55.8601 305.781 55.7941 305.83 55.7683Z" fill="#7D97F4"/>
<path d="M307.263 55.0197L307.98 54.6471C308.029 54.6217 308.086 54.6464 308.108 54.7022C308.131 54.758 308.109 54.8237 308.06 54.8489L307.343 55.2218C307.294 55.2472 307.237 55.2226 307.214 55.1668C307.192 55.111 307.214 55.0453 307.263 55.0197Z" fill="#7D97F4"/>
<path d="M308.698 54.2763L309.417 53.9082C309.466 53.8832 309.523 53.9082 309.545 53.9638C309.567 54.0194 309.545 54.0848 309.497 54.1098L308.778 54.4783C308.729 54.5033 308.672 54.4784 308.65 54.4226C308.628 54.3668 308.65 54.3013 308.698 54.2763Z" fill="#7D97F4"/>
<path d="M310.138 53.5428L310.86 53.1815C310.909 53.1572 310.966 53.1824 310.987 53.2382C311.008 53.2939 310.986 53.3588 310.937 53.3831L310.216 53.7448C310.167 53.7692 310.11 53.7439 310.089 53.6881C310.067 53.6323 310.09 53.5673 310.138 53.5428Z" fill="#7D97F4"/>
<path d="M311.584 52.8239L312.309 52.4718C312.358 52.448 312.414 52.4741 312.435 52.5298C312.456 52.5854 312.433 52.6498 312.384 52.6736L311.659 53.026C311.61 53.0498 311.554 53.0237 311.533 52.9679C311.512 52.9123 311.535 52.8476 311.584 52.8239Z" fill="#7D97F4"/>
<path d="M313.038 52.1249L313.767 51.7849C313.816 51.7621 313.872 51.7889 313.892 51.8449C313.912 51.9007 313.888 51.9644 313.839 51.9872L313.11 52.3278C313.061 52.3507 313.005 52.3238 312.985 52.2679C312.965 52.2117 312.989 52.1478 313.038 52.1249Z" fill="#7D97F4"/>
<path d="M314.5 51.451L315.235 51.1256C315.284 51.1038 315.339 51.1317 315.358 51.1877C315.377 51.2437 315.353 51.3067 315.304 51.3284L314.569 51.6542C314.52 51.676 314.465 51.6481 314.446 51.5921C314.427 51.536 314.451 51.4728 314.5 51.451Z" fill="#7D97F4"/>
<path d="M315.974 50.8077L316.715 50.4997C316.764 50.4792 316.818 50.5082 316.836 50.5645C316.854 50.6209 316.829 50.683 316.779 50.7035L316.039 51.0118C315.99 51.0323 315.935 51.0034 315.917 50.947C315.899 50.8907 315.925 50.8282 315.974 50.8077Z" fill="#7D97F4"/>
<path d="M317.46 50.2006L318.207 49.9129C318.256 49.8938 318.31 49.9243 318.326 49.9808C318.343 50.0373 318.316 50.0985 318.267 50.1176L317.521 50.4056C317.471 50.4247 317.417 50.3942 317.4 50.3377C317.384 50.2812 317.41 50.2198 317.46 50.2006Z" fill="#7D97F4"/>
<path d="M318.959 49.6359L319.712 49.3718C319.762 49.3544 319.815 49.3864 319.83 49.4431C319.845 49.5 319.818 49.5601 319.768 49.5776L319.015 49.842C318.965 49.8595 318.912 49.8276 318.897 49.7707C318.881 49.7137 318.909 49.6534 318.959 49.6359Z" fill="#7D97F4"/>
<path d="M320.472 49.1198L321.232 48.8826C321.282 48.8669 321.333 48.9006 321.347 48.9577C321.361 49.0147 321.331 49.0738 321.281 49.0894L320.521 49.327C320.471 49.3427 320.419 49.309 320.406 49.2518C320.392 49.1945 320.422 49.1355 320.472 49.1198Z" fill="#7D97F4"/>
<path d="M321.998 48.659L322.765 48.4519C322.815 48.4382 322.866 48.4738 322.878 48.5312C322.889 48.5887 322.858 48.6463 322.808 48.6598L322.042 48.8673C321.991 48.881 321.941 48.8453 321.929 48.7879C321.917 48.7303 321.948 48.6727 321.998 48.659Z" fill="#7D97F4"/>
<path d="M323.538 48.24L324.312 48.076C324.363 48.0647 324.411 48.1072 324.421 48.1648C324.431 48.2224 324.399 48.2807 324.348 48.292L324.347 48.2937L323.575 48.4684C323.524 48.48 323.475 48.4328 323.465 48.3752C323.455 48.3174 323.487 48.24 323.538 48.24H323.538Z" fill="#7D97F4"/>
<path d="M325.09 47.88L325.867 47.7572C325.917 47.7479 325.964 47.7981 325.972 47.855C325.98 47.9119 325.947 47.9713 325.897 47.9806L325.12 48.1315C325.07 48.141 325.022 48.0803 325.014 48.0231C325.006 47.9657 325.04 47.88 325.09 47.88Z" fill="#7D97F4"/>
<path d="M326.649 47.7L327.431 47.5575C327.48 47.5501 327.525 47.5767 327.531 47.6329C327.538 47.689 327.503 47.7338 327.454 47.7412L326.673 47.8564C326.623 47.864 326.578 47.8485 326.571 47.7918C326.565 47.7351 326.599 47.7 326.649 47.7H326.649Z" fill="#7D97F4"/>
<path d="M328.217 47.52L329.002 47.3933C329.05 47.3882 329.093 47.4066 329.097 47.462C329.102 47.5173 329.066 47.5551 329.018 47.5603L328.234 47.639C328.185 47.6442 328.141 47.6449 328.137 47.5891C328.132 47.5333 328.168 47.5202 328.217 47.5202L328.217 47.52Z" fill="#7D97F4"/>
<path d="M329.791 47.34L330.578 47.2698C330.626 47.2673 330.666 47.2956 330.669 47.3501C330.671 47.4046 330.634 47.4439 330.587 47.4466L329.8 47.4878C329.752 47.4905 329.711 47.4739 329.708 47.4188C329.706 47.3639 329.743 47.34 329.791 47.34H329.791Z" fill="#7D97F4"/>
<path d="M331.37 47.16L332.158 47.1931C332.205 47.1933 332.243 47.252 332.243 47.3056C332.243 47.3591 332.205 47.41 332.158 47.4098L331.37 47.4133C331.323 47.4133 331.285 47.3407 331.285 47.2867C331.285 47.2327 331.323 47.1602 331.37 47.1602V47.16Z" fill="#7D97F4"/>
<path d="M332.951 47.34L333.737 47.3488C333.783 47.3519 333.818 47.3746 333.815 47.4269C333.813 47.4793 333.774 47.5081 333.728 47.5051L332.941 47.4482C332.895 47.4451 332.859 47.4415 332.862 47.3886C332.865 47.3357 332.904 47.16 332.951 47.34H332.951Z" fill="#7D97F4"/>
<path d="M334.527 47.34L335.309 47.4728C335.354 47.4791 335.385 47.5369 335.38 47.588C335.374 47.6392 335.334 47.6811 335.289 47.6748L334.507 47.5695C334.462 47.5632 334.43 47.495 334.435 47.4435C334.441 47.392 334.482 47.34 334.527 47.34H334.527Z" fill="#7D97F4"/>
<path d="M336.093 47.7L336.866 47.8411C336.909 47.8508 336.938 47.8831 336.929 47.9324C336.921 47.9819 336.879 48.0064 336.836 47.9966L336.062 47.8222C336.018 47.8125 335.99 47.7936 335.998 47.7437C336.006 47.6937 336.049 47.7002 336.093 47.7002H336.093V47.7Z" fill="#7D97F4"/>
<path d="M337.638 48.0164L337.844 48.0779C337.887 48.0905 337.912 48.1398 337.901 48.188C337.89 48.2362 337.847 48.2653 337.805 48.2527L337.598 48.1918C337.556 48.1794 337.531 48.1299 337.542 48.0815C337.552 48.0331 337.596 48.0038 337.638 48.0164Z" fill="#7D97F4"/>
<path d="M237.443 67.5826L237.462 73.5098L233.939 70.9769L237.443 67.5826Z" fill="#7D97F4"/>
<path d="M214.098 64.2812L228.157 78.2613C228.426 78.529 228.779 78.66 229.135 78.6242C229.49 78.5884 229.818 78.3889 230.042 78.0716L241.798 61.4178C241.932 61.2272 241.952 60.9622 241.848 60.7482C241.744 60.5342 241.536 60.4136 241.323 60.4436L214.098 64.2812Z" fill="#91B3FA"/>
<path d="M237.441 67.5832L214.098 64.2812L235.551 70.2776L235.618 71.921L237.441 67.5832Z" fill="#7D97F4"/>
<path d="M234.42 71.8654L237.462 73.5098L235.551 70.2776L234.42 71.8654Z" fill="#7D97F4"/>
<defs>
<filter id="filter0_d_293_14115" x="243.938" y="169.956" width="9.53613" height="9.755" filterUnits="userSpaceOnUse" color-interpolation-filters="sRGB">
<feFlood flood-opacity="0" result="BackgroundImageFix"/>
<feColorMatrix in="SourceAlpha" type="matrix" values="0 0 0 0 0 0 0 0 0 0 0 0 0 0 0 0 0 0 127 0" result="hardAlpha"/>
<feOffset dy="4"/>
<feGaussianBlur stdDeviation="2"/>
<feComposite in2="hardAlpha" operator="out"/>
<feColorMatrix type="matrix" values="0 0 0 0 0 0 0 0 0 0 0 0 0 0 0 0 0 0 0.25 0"/>
<feBlend mode="normal" in2="BackgroundImageFix" result="effect1_dropShadow_293_14115"/>
<feBlend mode="normal" in="SourceGraphic" in2="effect1_dropShadow_293_14115" result="shape"/>
</filter>
<linearGradient id="paint0_linear_293_14115" x1="87.5396" y1="145.075" x2="392.84" y2="151.056" gradientUnits="userSpaceOnUse">
<stop stop-color="#DAE3FE"/>
<stop offset="1" stop-color="#E9EFFD"/>
</linearGradient>
<linearGradient id="paint1_linear_293_14115" x1="179.815" y1="232.809" x2="244.986" y2="61.6531" gradientUnits="userSpaceOnUse">
<stop stop-color="#4692B6"/>
<stop offset="1" stop-color="#99CCE3"/>
</linearGradient>
<linearGradient id="paint2_linear_293_14115" x1="216.134" y1="130.638" x2="198.141" y2="245.914" gradientUnits="userSpaceOnUse">
<stop stop-color="#4692B6"/>
<stop offset="1" stop-color="#5DAFD6"/>
</linearGradient>
<linearGradient id="paint3_linear_293_14115" x1="165.808" y1="161.587" x2="182.33" y2="161.587" gradientUnits="userSpaceOnUse">
<stop stop-color="#4692B6"/>
<stop offset="1" stop-color="#E9EFFD"/>
</linearGradient>
<linearGradient id="paint4_linear_293_14115" x1="237.085" y1="187.146" x2="247.11" y2="187.146" gradientUnits="userSpaceOnUse">
<stop stop-color="#4692B6"/>
<stop offset="1" stop-color="#0B171D"/>
</linearGradient>
<linearGradient id="paint5_linear_293_14115" x1="247.277" y1="185.167" x2="245.43" y2="204.025" gradientUnits="userSpaceOnUse">
<stop stop-color="#4692B6"/>
<stop offset="1" stop-color="#08141A"/>
</linearGradient>
<linearGradient id="paint6_linear_293_14115" x1="237.697" y1="171.9" x2="256.328" y2="171.9" gradientUnits="userSpaceOnUse">
<stop stop-color="#59A0C1"/>
<stop offset="1" stop-color="#32718E"/>
</linearGradient>
<linearGradient id="paint7_linear_293_14115" x1="250.085" y1="153.88" x2="245.172" y2="189.361" gradientUnits="userSpaceOnUse">
<stop stop-color="#4692B6"/>
<stop offset="1" stop-color="#3E82A3"/>
</linearGradient>
<linearGradient id="paint8_linear_293_14115" x1="250.839" y1="164.642" x2="221.804" y2="193.75" gradientUnits="userSpaceOnUse">
<stop stop-color="white"/>
<stop offset="1" stop-color="#FFDEA2"/>
</linearGradient>
<linearGradient id="paint9_linear_293_14115" x1="247.938" y1="170.833" x2="249.474" y2="170.833" gradientUnits="userSpaceOnUse">
<stop stop-color="#E24040"/>
<stop offset="1" stop-color="#DD3434"/>
</linearGradient>
<linearGradient id="paint10_linear_293_14115" x1="249.888" y1="143.319" x2="255.96" y2="165.999" gradientUnits="userSpaceOnUse">
<stop stop-color="#4692B6"/>
<stop offset="1" stop-color="#EFE0C3"/>
</linearGradient>
<linearGradient id="paint11_linear_293_14115" x1="251.064" y1="143.004" x2="257.137" y2="165.684" gradientUnits="userSpaceOnUse">
<stop stop-color="#E8E0D0"/>
<stop offset="1" stop-color="#FFE4B1"/>
</linearGradient>
<linearGradient id="paint12_linear_293_14115" x1="251.636" y1="186.642" x2="244.106" y2="199.319" gradientUnits="userSpaceOnUse">
<stop stop-color="#284756"/>
<stop offset="1" stop-color="#60B5DD"/>
</linearGradient>
<linearGradient id="paint13_linear_293_14115" x1="215.846" y1="213.405" x2="386.561" y2="185.146" gradientUnits="userSpaceOnUse">
<stop stop-color="#3483A8"/>
<stop offset="1" stop-color="#337D9F"/>
</linearGradient>
<linearGradient id="paint14_linear_293_14115" x1="158.667" y1="126.76" x2="197.741" y2="126.76" gradientUnits="userSpaceOnUse">
<stop stop-color="#DAE3FE"/>
<stop offset="1" stop-color="#E9EFFD"/>
</linearGradient>
<linearGradient id="paint15_linear_293_14115" x1="134.636" y1="189.375" x2="138.321" y2="216.257" gradientUnits="userSpaceOnUse">
<stop stop-color="#FF928E"/>
<stop offset="1" stop-color="#FEB3B1"/>
</linearGradient>
<linearGradient id="paint16_linear_293_14115" x1="141.157" y1="265.716" x2="174.08" y2="288.346" gradientUnits="userSpaceOnUse">
<stop stop-color="#4692B6"/>
<stop offset="1" stop-color="#4F52FF"/>
</linearGradient>
<linearGradient id="paint17_linear_293_14115" x1="151.762" y1="258.354" x2="149.715" y2="273.99" gradientUnits="userSpaceOnUse">
<stop stop-color="#FF928E"/>
<stop offset="1" stop-color="#FEB3B1"/>
</linearGradient>
<linearGradient id="paint18_linear_293_14115" x1="175.433" y1="265.716" x2="142.51" y2="288.346" gradientUnits="userSpaceOnUse">
<stop stop-color="#4692B6"/>
<stop offset="1" stop-color="#4F52FF"/>
</linearGradient>
<linearGradient id="paint19_linear_293_14115" x1="164.588" y1="260.033" x2="162.541" y2="275.669" gradientUnits="userSpaceOnUse">
<stop stop-color="#FF928E"/>
<stop offset="1" stop-color="#FEB3B1"/>
</linearGradient>
<linearGradient id="paint20_linear_293_14115" x1="155.24" y1="157.823" x2="147.515" y2="187.049" gradientUnits="userSpaceOnUse">
<stop stop-color="#FF928E"/>
<stop offset="1" stop-color="#FEB3B1"/>
</linearGradient>
<linearGradient id="paint21_linear_293_14115" x1="-162.787" y1="647.644" x2="-152.706" y2="635.735" gradientUnits="userSpaceOnUse">
<stop stop-color="#FF928E"/>
<stop offset="1" stop-color="#FEB3B1"/>
</linearGradient>
<linearGradient id="paint22_linear_293_14115" x1="-165.709" y1="645.17" x2="-155.628" y2="633.261" gradientUnits="userSpaceOnUse">
<stop stop-color="#FF928E"/>
<stop offset="1" stop-color="#FEB3B1"/>
</linearGradient>
<linearGradient id="paint23_linear_293_14115" x1="180.388" y1="148.517" x2="177.31" y2="183.282" gradientUnits="userSpaceOnUse">
<stop stop-color="#FF928E"/>
<stop offset="1" stop-color="#FEB3B1"/>
</linearGradient>
</defs>
</svg>
