<svg width="354" height="354" viewBox="0 0 354 354" fill="none" xmlns="http://www.w3.org/2000/svg">
<path d="M177 313.352C252.815 313.352 314.274 309.764 314.274 305.337C314.274 300.911 252.815 297.323 177 297.323C101.186 297.323 39.7261 300.911 39.7261 305.337C39.7261 309.764 101.186 313.352 177 313.352Z" fill="#E8E0D0"/>
<path d="M168.784 241.803H32.0761C29.8459 241.8 28.0405 239.991 28.0405 237.761V45.5883C28.0596 43.3723 29.8601 41.5846 32.0761 41.5811H168.784C171.016 41.5811 172.827 43.3907 172.827 45.6237V237.761C172.827 239.994 171.016 241.803 168.784 241.803ZM32.0761 41.7227C29.9436 41.7269 28.2175 43.4558 28.2175 45.5883V237.761C28.2175 239.893 29.9436 241.622 32.0761 241.626H168.784C170.917 241.623 172.645 239.894 172.65 237.761V45.5883C172.645 43.4551 170.917 41.7262 168.784 41.7227H32.0761Z" fill="#E6E6E6"/>
<path d="M321.931 241.803H185.217C182.986 241.8 181.177 239.992 181.174 237.761V45.5883C181.197 43.3709 182.999 41.5846 185.217 41.5811H321.931C324.144 41.5888 325.941 43.3751 325.96 45.5883V237.761C325.96 239.988 324.159 241.796 321.931 241.803ZM185.217 41.7227C183.083 41.7269 181.354 43.4551 181.351 45.5883V237.761C181.354 239.894 183.083 241.622 185.217 241.626H321.931C324.064 241.623 325.793 239.894 325.797 237.761V45.5883C325.793 43.4551 324.064 41.7262 321.931 41.7227H185.217Z" fill="#E6E6E6"/>
<path d="M60.8456 277.685H31.6689V277.862H60.8456V277.685Z" fill="#E0E0E0"/>
<path d="M120.318 276.269H91.0562V276.446H120.318V276.269Z" fill="#E0E0E0"/>
<path d="M158.394 276.269H151.314V276.446H158.394V276.269Z" fill="#E0E0E0"/>
<path d="M87.6293 282.315H54.8843V282.492H87.6293V282.315Z" fill="#E0E0E0"/>
<path d="M200.888 277.593H185.595V277.77H200.888V277.593Z" fill="#E0E0E0"/>
<path d="M226.964 277.593H207.189V277.77H226.964V277.593Z" fill="#E0E0E0"/>
<path d="M322.331 280.588H278.124V280.765H322.331V280.588Z" fill="#E0E0E0"/>
<path d="M354 270.738H0V270.915H354V270.738Z" fill="#EBEBEB"/>
<path opacity="0.8" d="M237.063 56.2718L235.299 80.5378C235.239 81.3832 234.875 82.1506 234.313 82.7255C233.665 83.4151 232.748 83.8463 231.759 83.8463H212.294C211.575 83.8463 210.925 83.6183 210.413 83.2225C209.615 82.6292 209.139 81.6458 209.216 80.5371L210.98 56.2711C211.109 54.443 212.692 52.9619 214.52 52.9619H233.984C235.814 52.9633 237.191 54.4438 237.063 56.2718Z" fill="#E8E0D0"/>
<path d="M228.621 67.2579C228.371 70.8375 225.783 73.7389 222.841 73.7389C219.899 73.7389 217.717 70.8375 217.967 67.2579C218.218 63.6782 220.806 60.7769 223.747 60.7769C226.689 60.7769 228.871 63.6789 228.621 67.2579Z" fill="white"/>
<path d="M231.075 82.1748H213.262C212.133 82.1748 211.351 81.6331 211.322 80.8727C211.281 79.7718 217.058 74.9935 222.538 75.4077C222.558 75.4091 222.578 75.4077 222.598 75.4077C222.62 75.4077 222.642 75.4077 222.663 75.4077C226.021 75.4219 229.182 76.8414 231.838 78.9413C234.481 81.0306 231.98 82.1748 231.075 82.1748Z" fill="white"/>
<path d="M136.659 82.9638C132.87 83.0112 129.533 79.964 129.22 76.172C128.908 72.3792 131.736 69.2555 135.525 69.2081C139.315 69.1606 142.652 72.2079 142.964 76.0006C143.277 79.7927 140.449 82.9164 136.659 82.9638ZM135.827 72.8628C134.051 72.8847 132.726 74.3489 132.872 76.1259C133.019 77.903 134.582 79.3303 136.358 79.3084C138.134 79.2864 139.459 77.8223 139.313 76.0452C139.167 74.2681 137.603 72.8408 135.827 72.8628Z" fill="#E8E0D0"/>
<path d="M137 72.3322L134.391 72.3647L133.008 55.5731L135.616 55.5405L137 72.3322Z" fill="#E8E0D0"/>
<path d="M138.088 56.294L133.19 56.3556L132.975 53.7445L137.872 53.6836L138.088 56.294Z" fill="#E8E0D0"/>
<path d="M138.368 59.6492L133.763 59.7065L133.548 57.0954L138.153 57.0381L138.368 59.6492Z" fill="#E8E0D0"/>
<path d="M138.765 64.3816L134.746 64.4319L134.531 61.8208L138.551 61.7705L138.765 64.3816Z" fill="#E8E0D0"/>
<path d="M56.1508 225.687C56.1657 225.9 56.1947 226.112 56.2301 226.318C56.4673 227.684 57.1767 228.916 58.1615 229.836C59.2979 230.898 60.8094 231.557 62.4308 231.557H122.25C125.28 231.557 127.611 229.263 127.718 226.318C127.725 226.112 127.724 225.9 127.709 225.687C127.596 224.073 126.835 222.601 125.699 221.546C124.563 220.484 123.051 219.825 121.43 219.825H61.6102C58.3675 219.825 55.9242 222.452 56.1508 225.687Z" fill="#F0F0F0"/>
<path d="M127.715 226.317C127.711 226.508 127.694 226.699 127.663 226.883C127.505 225.354 126.758 223.967 125.671 222.961C124.535 221.899 123.025 221.241 121.404 221.241L57.7886 221.34C58.7607 220.398 60.1016 219.825 61.6096 219.825H121.429C123.05 219.825 124.561 220.483 125.696 221.545C126.831 222.6 127.598 224.073 127.711 225.687C127.722 225.899 127.726 226.112 127.715 226.317Z" fill="#E8E0D0"/>
<path d="M117.478 222.655L117.679 225.517L120.361 224.523L120.969 225.936L118.23 226.839L120.143 229.24L118.907 230.144L117.045 227.649L115.558 230.144L114.234 229.24L115.786 226.839L112.946 225.936L113.355 224.532L116.2 225.489L116.002 222.655H117.478Z" fill="white"/>
<path d="M101.119 222.655L101.319 225.517L104.001 224.523L104.609 225.936L101.871 226.839L103.784 229.24L102.548 230.144L100.686 227.649L99.1982 230.144L97.8743 229.24L99.4262 226.839L96.5864 225.936L96.9956 224.532L99.8411 225.489L99.6429 222.655H101.119Z" fill="white"/>
<path d="M84.7592 222.655L84.9595 225.517L87.6414 224.523L88.2496 225.936L85.5111 226.839L87.4241 229.24L86.1879 230.144L84.3259 227.649L82.8384 230.144L81.5144 229.24L83.0663 226.839L80.2266 225.936L80.6358 224.532L83.4812 225.489L83.283 222.655H84.7592Z" fill="white"/>
<path d="M68.3993 222.655L68.5997 225.517L71.2816 224.523L71.8898 225.936L69.1512 226.839L71.0642 229.24L69.8281 230.144L67.966 227.649L66.4785 230.144L65.1546 229.24L66.7065 226.839L63.8667 225.936L64.2759 224.532L67.1214 225.489L66.9231 222.655H68.3993Z" fill="white"/>
<path d="M108.136 217.759H105.348L105.361 217.051H108.148L108.136 217.759Z" fill="#E8E0D0"/>
<path d="M120.128 217.759H111.028L111.04 217.051H120.141L120.128 217.759Z" fill="#E8E0D0"/>
<g opacity="0.8">
<path d="M190.725 214.189L202.006 231.558L239.217 194.346C239.544 194.019 239.093 193.51 238.729 193.796L203.267 221.591L196.57 210.793L190.725 214.189Z" fill="#E8E0D0"/>
</g>
<path opacity="0.1" d="M183.978 90.5923L157.259 190.527H166.247L192.672 90.5923H183.978Z" fill="white"/>
<path opacity="0.1" d="M197.85 90.5923L171.13 190.527H188.959L215.383 90.5923H197.85Z" fill="white"/>
<path d="M294.039 180.763L299.676 100.544C299.862 97.894 297.854 95.7467 295.191 95.7495L155.195 95.8713C152.531 95.8734 150.221 98.0243 150.035 100.674L144.399 180.894C144.212 183.544 146.22 185.691 148.884 185.688L288.88 185.566C291.543 185.564 293.853 183.413 294.039 180.763Z" fill="#263238"/>
<path d="M292.243 179.014L297.879 98.7946C298.066 96.1445 296.058 93.9972 293.394 94L153.399 94.1218C150.735 94.1239 148.425 96.2748 148.239 98.9248L142.602 179.144C142.416 181.795 144.424 183.941 147.087 183.939L287.083 183.817C289.747 183.815 292.057 181.664 292.243 179.014Z" fill="#4692B6"/>
<path opacity="0.6" d="M288.532 180.197C288.332 180.384 287.986 180.607 287.475 180.607L147.479 180.728C146.537 180.729 145.769 179.909 145.835 178.975L151.471 98.7562C151.507 98.2521 151.751 97.9257 151.951 97.7395C152.151 97.5533 152.497 97.331 153.008 97.3296L293.004 97.2085C293.946 97.2078 294.714 98.0269 294.648 98.9622L289.012 179.181C288.975 179.686 288.731 180.012 288.532 180.197Z" fill="white"/>
<path d="M241.965 136.098H192.826C191.948 136.098 191.162 136.806 191.071 137.679L190.319 144.865C190.228 145.738 190.865 146.446 191.742 146.446H240.882C241.759 146.446 242.545 145.738 242.636 144.865L243.388 137.679C243.479 136.806 242.842 136.098 241.965 136.098Z" fill="white"/>
<path d="M198.67 165.449H191.002C190.125 165.449 189.339 166.157 189.247 167.03L188.496 174.216C188.404 175.089 189.041 175.797 189.919 175.797H197.587C198.464 175.797 199.25 175.089 199.341 174.216L200.093 167.03C200.185 166.157 199.548 165.449 198.67 165.449Z" fill="white"/>
<path d="M211.91 165.449H204.242C203.365 165.449 202.579 166.157 202.488 167.03L201.736 174.216C201.644 175.089 202.282 175.797 203.159 175.797H210.827C211.704 175.797 212.49 175.089 212.582 174.216L213.334 167.03C213.426 166.157 212.788 165.449 211.91 165.449Z" fill="white"/>
<path d="M225.151 165.449H217.482C216.605 165.449 215.819 166.157 215.728 167.03L214.976 174.216C214.885 175.089 215.522 175.797 216.399 175.797H224.067C224.945 175.797 225.731 175.089 225.822 174.216L226.574 167.03C226.666 166.157 226.029 165.449 225.151 165.449Z" fill="white"/>
<path d="M238.391 165.449H230.723C229.845 165.449 229.059 166.157 228.968 167.03L228.216 174.216C228.125 175.089 228.762 175.797 229.639 175.797H237.308C238.185 175.797 238.971 175.089 239.062 174.216L239.814 167.03C239.906 166.157 239.269 165.449 238.391 165.449Z" fill="white"/>
<path d="M198.989 160.554H229.728C231.222 160.554 232.56 159.348 232.716 157.862L233.085 154.334C233.241 152.846 232.156 151.641 230.661 151.641H199.922C198.428 151.641 197.09 152.847 196.935 154.334L196.566 157.862C196.409 159.348 197.495 160.554 198.989 160.554Z" stroke="#4692B6" stroke-miterlimit="10" stroke-linecap="round" stroke-linejoin="round"/>
<path d="M243.736 121.135H194.597C193.719 121.135 192.933 121.843 192.842 122.716L192.09 129.901C191.999 130.774 192.636 131.482 193.513 131.482H242.653C243.53 131.482 244.316 130.774 244.407 129.901L245.159 122.716C245.251 121.843 244.613 121.135 243.736 121.135Z" fill="white"/>
<path d="M198.801 141.273C198.903 140.306 198.197 139.522 197.226 139.522C196.255 139.522 195.385 140.306 195.284 141.273C195.183 142.239 195.889 143.023 196.86 143.023C197.831 143.023 198.7 142.239 198.801 141.273Z" fill="#263238"/>
<path d="M204.206 141.273C204.307 140.306 203.601 139.522 202.63 139.522C201.659 139.522 200.789 140.306 200.688 141.273C200.587 142.239 201.293 143.023 202.263 143.023C203.235 143.023 204.105 142.239 204.206 141.273Z" fill="#263238"/>
<path d="M209.61 141.273C209.711 140.306 209.006 139.522 208.034 139.522C207.063 139.522 206.193 140.306 206.092 141.273C205.991 142.239 206.696 143.023 207.668 143.023C208.64 143.023 209.509 142.239 209.61 141.273Z" fill="#263238"/>
<path d="M215.015 141.273C215.117 140.306 214.411 139.522 213.44 139.522C212.469 139.522 211.599 140.306 211.498 141.273C211.397 142.239 212.103 143.023 213.074 143.023C214.045 143.023 214.914 142.239 215.015 141.273Z" fill="#263238"/>
<path d="M220.526 141.273C220.627 140.306 219.921 139.522 218.95 139.522C217.979 139.522 217.109 140.306 217.008 141.273C216.907 142.239 217.613 143.023 218.584 143.023C219.555 143.023 220.424 142.239 220.526 141.273Z" fill="#263238"/>
<path d="M200.572 126.309C200.673 125.342 199.967 124.559 198.996 124.559C198.024 124.559 197.155 125.342 197.054 126.309C196.952 127.275 197.658 128.059 198.629 128.059C199.601 128.06 200.47 127.276 200.572 126.309Z" fill="#263238"/>
<path d="M205.977 126.309C206.078 125.342 205.373 124.559 204.401 124.559C203.43 124.559 202.56 125.342 202.459 126.309C202.358 127.275 203.063 128.059 204.034 128.059C205.006 128.06 205.876 127.276 205.977 126.309Z" fill="#263238"/>
<path d="M211.381 126.309C211.482 125.342 210.776 124.559 209.806 124.559C208.834 124.559 207.965 125.342 207.864 126.309C207.762 127.275 208.468 128.059 209.439 128.059C210.41 128.06 211.28 127.276 211.381 126.309Z" fill="#263238"/>
<path d="M216.786 126.309C216.887 125.342 216.181 124.559 215.211 124.559C214.239 124.559 213.37 125.342 213.268 126.309C213.167 127.275 213.873 128.059 214.844 128.059C215.816 128.059 216.685 127.276 216.786 126.309Z" fill="#263238"/>
<path d="M222.19 126.309C222.291 125.342 221.585 124.559 220.615 124.559C219.643 124.559 218.774 125.342 218.673 126.309C218.572 127.275 219.277 128.059 220.249 128.059C221.219 128.06 222.089 127.276 222.19 126.309Z" fill="#263238"/>
<path d="M227.595 126.309C227.696 125.342 226.99 124.559 226.02 124.559C225.048 124.559 224.179 125.342 224.078 126.309C223.976 127.275 224.681 128.059 225.654 128.059C226.624 128.06 227.494 127.276 227.595 126.309Z" fill="#263238"/>
<path d="M223.004 105.288L222.621 108.917C222.587 109.244 222.292 109.509 221.964 109.509C221.635 109.509 221.397 109.244 221.431 108.917L221.814 105.288C221.938 104.116 221.081 103.162 219.903 103.162H218.598C217.42 103.162 216.361 104.116 216.238 105.288L215.906 108.659H214.716L215.048 105.288C215.24 103.463 216.889 101.978 218.723 101.978H220.028C221.861 101.978 223.197 103.462 223.004 105.288Z" fill="#4692B6"/>
<path d="M223.028 108.784L222.282 115.855C222.235 116.303 221.833 116.664 221.384 116.664H214.279C213.83 116.664 213.504 116.303 213.551 115.855L214.297 108.784C214.328 108.495 214.507 108.241 214.751 108.099C214.884 108.02 215.037 107.975 215.196 107.975H222.3C222.455 107.975 222.594 108.018 222.708 108.091C222.929 108.233 223.059 108.49 223.028 108.784Z" fill="#4692B6"/>
<path d="M278.463 93.5327L261.161 93.6354" stroke="#263238" stroke-miterlimit="10" stroke-linecap="round" stroke-linejoin="round"/>
<path d="M287.893 93.4858L281.778 93.5127" stroke="#263238" stroke-miterlimit="10" stroke-linecap="round" stroke-linejoin="round"/>
<g opacity="0.3">
<path d="M166.45 97.3091H186.257L166.121 180.729H150.179C150.165 180.729 150.15 180.729 150.136 180.729C148.164 180.719 146.772 178.831 147.234 176.915L166.45 97.3091Z" fill="white"/>
<path d="M195.051 97.3091H203.46L183.323 180.729H174.915L195.051 97.3091Z" fill="white"/>
</g>
<path d="M61.3515 71.269H65.3701C61.3253 71.269 58.2753 74.5478 58.5585 78.5933L67.0884 200.58C67.3709 204.625 70.8798 207.905 74.9246 207.905H70.906C66.8612 207.905 63.353 204.626 63.0698 200.58L54.5391 78.5926C54.2566 74.5478 57.306 71.269 61.3515 71.269Z" fill="#4692B6"/>
<path d="M61.3513 71.269H65.3699C61.3251 71.269 58.2751 74.5478 58.5583 78.5933L67.0883 200.58C67.3707 204.625 70.8796 207.905 74.9244 207.905H70.9058C66.861 207.905 62.7864 204.626 62.5032 200.58L53.9726 78.5926C53.6901 74.5478 57.3058 71.269 61.3513 71.269Z" fill="#263238"/>
<path d="M72.1036 207.904H121.307C125.352 207.904 128.402 204.625 128.119 200.58L119.589 78.5928C119.306 74.548 115.798 71.2686 111.753 71.2686H62.5491C58.5043 71.2686 55.4543 74.5473 55.7375 78.5928L64.2675 200.58C64.5507 204.625 68.0588 207.904 72.1036 207.904Z" fill="#4692B6"/>
<g opacity="0.6">
<path d="M111.621 73.6191C114.429 73.6191 116.875 75.906 117.071 78.716L125.601 200.702C125.692 202.011 125.275 203.233 124.426 204.144C123.58 205.053 122.396 205.553 121.093 205.553H71.8892C69.0806 205.553 66.6359 203.267 66.439 200.456L57.9084 78.4704C57.817 77.1627 58.234 75.94 59.0829 75.0288C59.929 74.1204 61.1135 73.6198 62.4162 73.6198L111.621 73.6191Z" fill="white"/>
</g>
<g opacity="0.3">
<path d="M97.7279 205.554H78.1035L94.2877 73.6191H110.082C111.521 73.6191 112.81 74.2224 113.72 75.1859L97.7279 205.554Z" fill="white"/>
<path d="M74.5811 205.554H70.166L86.3502 73.6191H90.7646L74.5811 205.554Z" fill="white"/>
</g>
<path d="M73.0488 131.266H108.69" stroke="white" stroke-miterlimit="10" stroke-linecap="round" stroke-linejoin="round"/>
<path d="M77.6465 136.537H105.564" stroke="white" stroke-miterlimit="10" stroke-linecap="round" stroke-linejoin="round"/>
<path d="M74.1124 106.963L74.1613 108.363H73.248L73.1991 106.952L71.582 104.411H72.552L73.6678 106.166L74.6604 104.411H75.5575L74.1124 106.963Z" fill="#4692B6"/>
<path d="M75.5952 106.387C75.5534 105.213 76.4363 104.343 77.6831 104.343C78.9235 104.343 79.8736 105.208 79.9147 106.387C79.9564 107.567 79.0672 108.431 77.8268 108.431C76.5807 108.431 75.6369 107.561 75.5952 106.387ZM78.99 106.387C78.9638 105.636 78.4151 105.123 77.7107 105.123C77.0055 105.123 76.4936 105.637 76.5198 106.387C76.546 107.138 77.094 107.652 77.7992 107.652C78.5043 107.652 79.0162 107.138 78.99 106.387Z" fill="#4692B6"/>
<path d="M80.5806 106.624L80.5034 104.411H81.4167L81.4925 106.591C81.5187 107.342 81.8571 107.652 82.4101 107.652C82.968 107.652 83.2788 107.342 83.2526 106.591L83.1768 104.411H84.0788L84.156 106.624C84.1971 107.788 83.5542 108.431 82.432 108.431C81.3098 108.431 80.6217 107.788 80.5806 106.624Z" fill="#4692B6"/>
<path d="M87.6382 108.363L86.8382 107.262H86.7929H85.9978L86.0367 108.363H85.1234L84.9854 104.411H86.6938C87.7487 104.411 88.4269 104.959 88.4581 105.845C88.4793 106.438 88.1961 106.873 87.6899 107.093L88.6202 108.363H87.6382ZM86.669 105.156H85.9234L85.9716 106.534H86.7164C87.2743 106.534 87.5476 106.274 87.532 105.845C87.5172 105.41 87.2262 105.156 86.669 105.156Z" fill="#4692B6"/>
<path d="M90.5502 106.387C90.5085 105.196 91.3921 104.343 92.6212 104.343C93.3037 104.343 93.8821 104.592 94.2701 105.043L93.7023 105.586C93.4269 105.281 93.0891 105.123 92.6941 105.123C91.9549 105.123 91.4487 105.642 91.4749 106.387C91.5011 107.133 92.0434 107.652 92.7826 107.652C93.1776 107.652 93.5047 107.494 93.7582 107.184L94.3635 107.726C94.0074 108.183 93.4467 108.432 92.7585 108.432C91.5358 108.431 90.592 107.578 90.5502 106.387Z" fill="#4692B6"/>
<path d="M94.6025 106.387C94.5607 105.213 95.4443 104.343 96.6904 104.343C97.9308 104.343 98.8809 105.208 98.922 106.387C98.9638 107.567 98.0745 108.431 96.8341 108.431C95.588 108.431 94.6443 107.561 94.6025 106.387ZM97.9974 106.387C97.9712 105.636 97.4225 105.123 96.718 105.123C96.0128 105.123 95.5009 105.637 95.5271 106.387C95.5533 107.138 96.1013 107.652 96.8065 107.652C97.511 107.652 98.0235 107.138 97.9974 106.387Z" fill="#4692B6"/>
<path d="M99.5454 104.411H101.339C102.629 104.411 103.542 105.19 103.585 106.387C103.627 107.585 102.768 108.364 101.477 108.364H99.6835L99.5454 104.411ZM101.405 107.612C102.189 107.612 102.686 107.144 102.659 106.387C102.633 105.631 102.103 105.163 101.319 105.163H100.484L100.57 107.613H101.405V107.612Z" fill="#4692B6"/>
<path d="M107.376 107.629L107.401 108.363H104.345L104.207 104.411H107.19L107.216 105.145H105.14L105.169 106.003H107.002L107.028 106.714H105.195L105.227 107.629H107.376Z" fill="#4692B6"/>
<path d="M80.9801 123.054L81.0085 124.643H73.5553L73.5334 123.387L77.4819 119.574C78.4476 118.636 78.6112 118.043 78.6005 117.481C78.585 116.556 77.9393 116.022 76.6974 116.022C75.7155 116.022 74.8984 116.354 74.3476 117.076L73.0151 116.065C73.7769 115.011 75.1675 114.39 76.8284 114.39C79.0239 114.39 80.459 115.501 80.4902 117.292C80.5072 118.274 80.2488 119.17 78.8703 120.484L76.2146 123.055H80.9801V123.054Z" fill="#263238"/>
<path d="M89.2168 121.611C89.2465 123.315 87.987 124.787 85.2711 124.787C83.8409 124.787 82.4037 124.354 81.4521 123.618L82.2352 122.159C82.9673 122.765 84.0725 123.155 85.213 123.155C86.5561 123.155 87.3406 122.563 87.3236 121.625C87.308 120.714 86.6326 120.122 85.1019 120.122H84.1772L84.1553 118.837L86.4032 116.108H81.8104L81.7835 114.534H88.673L88.6943 115.79L86.2899 118.708C88.2022 118.953 89.1899 120.093 89.2168 121.611Z" fill="#263238"/>
<path d="M98.6503 121.74C98.6836 123.618 97.0715 124.788 94.5581 124.788C92.0447 124.788 90.4219 123.618 90.3887 121.74C90.3695 120.628 90.9324 119.805 91.964 119.329C91.1476 118.881 90.6867 118.159 90.6704 117.206C90.64 115.472 92.1374 114.389 94.3761 114.389C96.6297 114.389 98.1795 115.472 98.2099 117.206C98.2262 118.159 97.7773 118.881 96.9617 119.329C98.0244 119.805 98.6312 120.628 98.6503 121.74ZM96.7571 121.683C96.7394 120.686 95.8622 120.065 94.4752 120.065C93.089 120.065 92.2613 120.686 92.279 121.683C92.2967 122.708 93.1456 123.315 94.5319 123.315C95.9188 123.314 96.7748 122.707 96.7571 121.683ZM92.5204 117.292C92.5353 118.159 93.2674 118.707 94.4519 118.707C95.6505 118.707 96.3783 118.159 96.3628 117.292C96.3472 116.382 95.5578 115.862 94.4023 115.862C93.2461 115.863 92.5042 116.382 92.5204 117.292Z" fill="#263238"/>
<path d="M108.067 121.74C108.101 123.618 106.488 124.788 103.975 124.788C101.462 124.788 99.8389 123.618 99.8056 121.74C99.7865 120.628 100.349 119.805 101.381 119.329C100.565 118.881 100.104 118.159 100.087 117.206C100.057 115.472 101.554 114.389 103.793 114.389C106.047 114.389 107.596 115.472 107.627 117.206C107.644 118.159 107.194 118.881 106.379 119.329C107.441 119.805 108.047 120.628 108.067 121.74ZM106.174 121.683C106.156 120.686 105.279 120.065 103.892 120.065C102.506 120.065 101.678 120.686 101.696 121.683C101.714 122.708 102.563 123.315 103.949 123.315C105.336 123.314 106.192 122.707 106.174 121.683ZM101.937 117.292C101.952 118.159 102.684 118.707 103.868 118.707C105.067 118.707 105.795 118.159 105.779 117.292C105.763 116.382 104.974 115.862 103.818 115.862C102.663 115.863 101.921 116.382 101.937 117.292Z" fill="#263238"/>
<path d="M54.3174 88.9502L55.5727 106.063" stroke="#4692B6" stroke-miterlimit="10" stroke-linecap="round" stroke-linejoin="round"/>
<path d="M53.7451 81.1543L54.0765 85.6706" stroke="#4692B6" stroke-miterlimit="10" stroke-linecap="round" stroke-linejoin="round"/>
<path d="M87.3462 64.1396V53.7207" stroke="#4692B6" stroke-miterlimit="10" stroke-linecap="round" stroke-linejoin="round"/>
<path d="M79.0985 66.3437L73.8911 57.3267" stroke="#4692B6" stroke-miterlimit="10" stroke-linecap="round" stroke-linejoin="round"/>
<path d="M100.801 57.3267L95.5933 66.348" stroke="#4692B6" stroke-miterlimit="10" stroke-linecap="round" stroke-linejoin="round"/>
<path d="M222.235 249.045C218.657 263.382 217.204 278.247 217.939 293.004" stroke="#4692B6" stroke-miterlimit="10"/>
<path d="M218.928 248.435C218.96 249.757 220.145 254.43 221.468 254.398C222.79 254.367 223.748 249.641 223.716 248.319C223.684 246.997 222.587 245.951 221.265 245.983C219.942 246.016 218.897 247.114 218.928 248.435Z" fill="#4692B6"/>
<path d="M224.078 263.297C224.046 261.975 222.861 257.301 221.539 257.333C220.217 257.365 219.258 262.09 219.291 263.413C219.323 264.735 220.42 265.78 221.742 265.748C223.064 265.716 224.109 264.618 224.078 263.297Z" fill="#4692B6"/>
<path d="M214.072 258.441C215.394 258.409 220.067 257.224 220.036 255.901C220.004 254.579 215.279 253.621 213.956 253.653C212.634 253.686 211.588 254.783 211.62 256.105C211.653 257.427 212.75 258.472 214.072 258.441Z" fill="#4692B6"/>
<path d="M228.933 253.291C227.611 253.323 222.938 254.508 222.969 255.83C223.001 257.152 227.726 258.11 229.049 258.078C230.371 258.046 231.417 256.949 231.385 255.627C231.353 254.305 230.255 253.259 228.933 253.291Z" fill="#4692B6"/>
<path d="M214.427 252.432C215.385 253.344 219.528 255.811 220.44 254.853C221.352 253.896 218.688 249.877 217.731 248.965C216.774 248.053 215.258 248.089 214.346 249.047C213.434 250.004 213.47 251.519 214.427 252.432Z" fill="#4692B6"/>
<path d="M228.578 259.299C227.62 258.388 223.478 255.921 222.565 256.878C221.653 257.835 224.317 261.854 225.274 262.767C226.231 263.678 227.747 263.642 228.659 262.684C229.572 261.727 229.535 260.212 228.578 259.299Z" fill="#4692B6"/>
<path d="M218.07 262.94C218.982 261.983 221.448 257.84 220.49 256.928C219.533 256.016 215.515 258.68 214.602 259.637C213.69 260.594 213.727 262.11 214.684 263.022C215.642 263.934 217.157 263.898 218.07 262.94Z" fill="#4692B6"/>
<path d="M224.937 248.791C224.025 249.748 221.558 253.891 222.515 254.803C223.472 255.715 227.492 253.052 228.404 252.094C229.316 251.137 229.28 249.621 228.322 248.709C227.364 247.797 225.849 247.834 224.937 248.791Z" fill="#4692B6"/>
<path d="M218.668 255.935C218.706 257.5 220.006 258.739 221.571 258.701C223.137 258.664 224.376 257.364 224.337 255.798C224.299 254.233 222.999 252.994 221.434 253.032C219.868 253.069 218.63 254.369 218.668 255.935Z" fill="white"/>
<path d="M218.262 277.008C218.262 277.008 218.751 269.777 222.72 268.633C226.688 267.489 228.145 265.939 228.145 265.939C228.145 265.939 227.743 277.147 218.262 277.008Z" fill="#4692B6"/>
<path opacity="0.5" d="M218.262 277.008C218.262 277.008 218.751 269.777 222.72 268.633C226.688 267.489 228.145 265.939 228.145 265.939C228.145 265.939 227.743 277.147 218.262 277.008Z" fill="white"/>
<path d="M217.737 282.543C217.737 282.543 217.248 275.312 213.28 274.168C209.312 273.025 207.854 271.474 207.854 271.474C207.854 271.474 208.257 282.682 217.737 282.543Z" fill="#4692B6"/>
<path opacity="0.5" d="M217.737 282.543C217.737 282.543 217.248 275.312 213.28 274.168C209.312 273.025 207.854 271.474 207.854 271.474C207.854 271.474 208.257 282.682 217.737 282.543Z" fill="white"/>
<path d="M232.719 297.602C232.719 303.245 226 307.812 217.716 307.812C209.426 307.812 202.714 303.245 202.714 297.602C202.714 294.749 204.434 292.165 207.217 290.317C208.824 289.241 210.785 288.412 212.966 287.924H222.467C224.711 288.434 226.722 289.29 228.351 290.409C231.055 292.257 232.719 294.791 232.719 297.602Z" fill="#4692B6"/>
<path opacity="0.8" d="M222.467 287.924C224.711 288.434 226.722 289.29 228.351 290.409C231.055 292.257 232.719 294.791 232.719 297.602C232.719 303.245 226 307.812 217.716 307.812C209.426 307.812 202.714 303.245 202.714 297.602C202.714 294.749 204.434 292.165 207.217 290.317C208.824 289.241 210.785 288.412 212.966 287.924H222.467Z" fill="white"/>
<path d="M217.76 288.843C217.76 290.525 217.76 292.208 217.76 293.89" stroke="#4692B6" stroke-miterlimit="10"/>
<path d="M229.011 287.767L228.215 290.247L228.202 290.273H207.224L207.18 290.141L206.422 287.767H229.011Z" fill="#4692B6"/>
<path d="M230.947 299.653C229.501 301.742 227.442 303.409 225.185 304.607C221.581 306.519 206.422 307.013 204.692 298.412C204.668 298.292 204.628 298.176 204.606 298.055C204.192 295.805 206.195 293.804 208.471 294.032C209.886 294.173 211.363 294.005 212.769 293.791C218.192 292.965 223.783 293.268 229.088 294.666C231.254 295.237 232.222 297.81 230.947 299.653Z" fill="#263238"/>
<path d="M122.138 296.793C122.403 296.698 122.579 296.488 122.662 296.17C122.724 295.93 122.635 295.773 122.548 295.683C122.002 295.113 119.788 295.518 119.537 295.566C119.479 295.577 119.434 295.62 119.421 295.678C119.408 295.734 119.432 295.793 119.479 295.826C119.846 296.086 120.383 296.43 120.916 296.645C121.359 296.823 121.8 296.914 122.138 296.793ZM122.333 295.882C122.369 295.92 122.407 295.979 122.375 296.098C122.318 296.321 122.207 296.458 122.036 296.519C121.635 296.664 120.867 296.393 119.946 295.79C120.836 295.654 122.046 295.579 122.333 295.882Z" fill="#4692B6"/>
<path d="M119.583 295.852C120.261 295.768 121.82 294.968 121.957 294.276C121.983 294.144 121.978 293.894 121.654 293.716C121.448 293.602 121.228 293.584 121.001 293.662C120.146 293.955 119.457 295.584 119.428 295.654C119.408 295.701 119.415 295.756 119.447 295.797C119.463 295.818 119.484 295.834 119.508 295.843C119.532 295.851 119.557 295.855 119.583 295.852ZM121.509 293.968C121.675 294.059 121.68 294.151 121.666 294.219C121.583 294.641 120.545 295.296 119.818 295.505C120.076 294.974 120.587 294.11 121.097 293.935C121.221 293.892 121.336 293.894 121.448 293.939C121.469 293.947 121.489 293.957 121.509 293.968Z" fill="#4692B6"/>
<path d="M112.862 292.999L118.626 295.328L123.656 282.01L117.892 279.681L112.862 292.999Z" fill="#FFB573"/>
<path d="M119.356 294.856L112.881 292.239C112.645 292.143 112.387 292.227 112.259 292.441L109.417 297.184C109.123 297.676 109.373 298.355 109.92 298.566C112.193 299.44 113.336 299.749 116.184 300.9C117.935 301.608 120.42 302.821 122.84 303.799C125.206 304.756 126.37 302.475 125.452 301.855C121.334 299.073 121.171 297.467 120.175 295.594C119.994 295.256 119.701 294.995 119.356 294.856Z" fill="#263238"/>
<path d="M123.582 288.545L113.572 284.498L114.489 280.83L125.229 284.759L123.582 288.545Z" fill="#4692B6"/>
<path d="M133.605 134.403C131.574 140.282 125.561 154.13 120.929 148.362C120.102 147.333 119.397 146.218 118.905 144.992C116.938 140.14 116.455 132.281 116.206 130.563L114.628 125.176C114.6 125.083 114.586 124.986 114.585 124.89L114.56 121.814C114.56 120.567 115.564 119.826 116.925 119.94C116.925 119.94 119.12 119.683 119.12 120.995L119.547 125.611H119.533C119.754 127.222 119.113 129.459 119.491 130.934C120.902 136.478 122.853 136.727 124.079 142.448C125.781 138.323 128.839 131.176 128.839 131.176C130.897 131.432 134.275 132.465 133.605 134.403Z" fill="#E4897B"/>
<path d="M126.345 150.474C124.961 152.608 121.849 152.732 120.348 150.679C119.432 149.424 118.705 148.042 118.389 147.001C116.551 140.966 115.411 137.225 115.254 130.919C116.537 129.586 118.624 129.088 120.37 129.707L123.384 139.925C123.384 139.925 129.526 124.668 132.006 124.119C134.934 123.478 136.152 126.087 137.385 129.301C138.274 131.614 130.345 144.303 126.345 150.474Z" fill="#4692B6"/>
<path d="M151.145 108.852C150.45 112.393 148.89 120.119 151.368 122.482C151.368 122.482 150.4 126.074 143.82 126.074C136.584 126.074 140.362 122.482 140.362 122.482C144.311 121.539 144.209 118.609 143.522 115.857L151.145 108.852Z" fill="#E4897B"/>
<path d="M140.076 100.499C140.119 100.499 140.162 100.489 140.203 100.469C140.342 100.399 140.399 100.229 140.329 100.09C139.628 98.6916 138.333 98.5295 138.278 98.5231C138.124 98.504 137.983 98.6173 137.965 98.7723C137.948 98.9267 138.059 99.0668 138.213 99.0845C138.256 99.0895 139.264 99.2269 139.823 100.343C139.873 100.442 139.973 100.498 140.076 100.499Z" fill="#263238"/>
<path d="M137.919 103.594C137.919 103.594 136.854 105.551 135.838 106.433C136.396 107.1 137.502 106.963 137.502 106.963L137.919 103.594Z" fill="#ED893E"/>
<path d="M138.488 102.558C138.59 103.029 138.423 103.465 138.116 103.531C137.808 103.598 137.476 103.271 137.374 102.8C137.272 102.329 137.439 101.893 137.746 101.827C138.053 101.76 138.385 102.088 138.488 102.558Z" fill="#263238"/>
<path d="M137.887 101.824L136.687 101.743C136.687 101.743 137.458 102.5 137.887 101.824Z" fill="#263238"/>
<path d="M113.265 119.689V119.703C113.265 119.696 113.258 119.696 113.258 119.689H113.265Z" fill="#E4897B"/>
<path opacity="0.2" d="M133.35 131.381C134.604 130.233 135.452 130.576 136.029 131.488C136.599 134.138 133.222 139.689 131.861 141.791L133.35 131.381Z" fill="black"/>
<path d="M162.348 134.872C162.185 137.789 161.909 141.463 161.463 146.087C160.995 150.965 160.33 156.891 159.417 164.091C149.795 164.091 139.72 163.943 135.04 163.943C135.432 154.379 135.576 144.688 131.286 125.653C131.06 124.653 131.715 123.663 132.725 123.483C134.668 123.137 137.888 122.642 141.165 122.482C145.243 122.284 148.585 122.156 152.174 122.482C156.897 122.914 162.263 124.011 162.263 124.011C162.263 124.011 162.857 125.767 162.348 134.872Z" fill="#4692B6"/>
<path opacity="0.2" d="M162.348 134.872C162.185 137.789 161.909 141.464 161.463 146.087C158.871 143.085 156.422 132.748 157.201 129.215C159.112 130.518 160.882 132.522 162.234 134.313C162.277 134.483 162.319 134.666 162.348 134.872Z" fill="black"/>
<path d="M187.332 147.83L192.263 145.058L193.184 150.106C193.184 150.106 189.005 151.706 186.793 150.585L187.332 147.83Z" fill="#E4897B"/>
<path d="M195.566 145.631L195.908 147.279C196.016 147.797 195.801 148.329 195.363 148.626L193.185 150.106L192.264 145.058L193.969 144.63C194.689 144.449 195.415 144.904 195.566 145.631Z" fill="#E4897B"/>
<path d="M157.599 129.862C159.179 133.078 164.975 145.217 167.522 148.024L168.021 148.547L168.27 148.807C168.355 148.895 168.423 148.973 168.559 149.092C169.037 149.542 169.546 149.919 170.061 150.228C171.095 150.847 172.142 151.21 173.149 151.474C175.165 151.978 177.081 152.06 178.94 152.024C182.664 151.878 186.149 151.253 189.63 150.208L188.998 147.252C187.366 147.391 185.651 147.491 183.991 147.519C182.325 147.565 180.669 147.518 179.071 147.363C177.478 147.225 175.926 146.946 174.613 146.496C173.965 146.266 173.394 145.973 172.967 145.665C172.752 145.512 172.58 145.35 172.44 145.195C172.412 145.173 172.34 145.085 172.28 145.013L172.095 144.792L171.726 144.351C169.77 141.902 164.608 130.094 163.059 127.143L157.599 129.862Z" fill="#E4897B"/>
<path d="M187.254 152.854C183.236 155.019 178.341 155.497 173.98 154.144C169.833 152.854 166.143 149.847 164.004 146.063C161.446 142.301 154.643 131.667 155.497 128.917C156.509 125.632 158.661 123.594 162.259 124.478C164.789 125.091 169.612 137.363 171.942 142.273C172.861 143.64 174.614 145.807 176.574 146.477C180.036 147.674 182.587 147.153 186.214 146.641C186.877 147.04 186.827 147.653 187.162 148.344C187.846 149.74 187.96 151.472 187.254 152.854Z" fill="#4692B6"/>
<path d="M154.715 103.174C153.629 108.997 153.293 111.484 149.957 114.129C144.939 118.108 138.024 115.5 137.349 109.47C136.741 104.042 138.62 95.4316 144.652 93.8068C150.595 92.2074 155.802 97.351 154.715 103.174Z" fill="#E4897B"/>
<path d="M175.372 135.398C174.26 136.665 173.91 137.399 172.366 138.086C170.823 138.772 167.454 138.174 166.385 136.864C166.731 137.884 168.759 139.717 169.821 139.858C167.471 141.232 164.164 140.651 162.415 138.556C162.585 139.795 163.754 140.906 164.936 141.324C151.369 141.674 157.081 135.29 148.591 126.211C139.185 116.154 141.225 107.843 141.225 107.843C141.218 106.405 140.899 104.02 139.377 102.08C138.018 100.338 138.414 97.9873 138.846 96.6705C139.476 94.7376 141.395 94.0579 143.236 93.9447C143.56 92.0373 147.457 92.3885 147.955 92.7071C148.383 92.9804 148.492 92.9577 148.919 92.6837C149.877 92.0699 152.283 91.4291 154.86 93.5128C156.434 94.7851 158.114 97.067 158.17 101.924C158.229 106.975 155.819 112.967 164.168 120.64C169.088 125.162 166.736 134.868 175.372 135.398Z" fill="#263238"/>
<path d="M140.106 103.613C139.39 104.604 139.185 105.836 139.343 106.83C139.58 108.325 141.037 108.424 142.092 107.466C143.042 106.604 144.062 104.787 143.284 103.548C142.518 102.328 140.925 102.48 140.106 103.613Z" fill="#E4897B"/>
<path d="M153.246 164.088C153.246 164.088 150.355 204.732 147.092 231.541C146.114 239.573 143.666 247.36 139.859 254.532L123.868 284.663L115.683 281.444C115.683 281.444 121.321 252.802 132.379 237.186C132.379 237.186 124.126 190.507 134.928 163.945L153.246 164.088Z" fill="#263238"/>
<path opacity="0.2" d="M142.116 173.931C142.116 173.931 144.549 192.368 145.887 203.293C140.866 196.708 137.021 187.522 142.116 173.931Z" fill="black"/>
<path d="M173.914 300.61C174.103 300.403 174.16 300.137 174.081 299.818C174.023 299.578 173.867 299.48 173.749 299.44C172.995 299.188 171.231 300.566 171.032 300.724C170.986 300.76 170.967 300.82 170.982 300.876C170.998 300.931 171.046 300.973 171.105 300.981C171.553 301.041 172.191 301.097 172.764 301.041C173.242 300.995 173.673 300.871 173.914 300.61ZM173.654 299.715C173.703 299.731 173.765 299.766 173.794 299.886C173.848 300.109 173.817 300.282 173.695 300.414C173.409 300.726 172.601 300.841 171.5 300.733C172.222 300.202 173.256 299.579 173.654 299.715Z" fill="#4692B6"/>
<path d="M171.209 300.955C171.768 300.568 172.765 299.143 172.557 298.468C172.517 298.339 172.395 298.121 172.022 298.113C171.786 298.106 171.583 298.192 171.42 298.365C170.804 299.017 170.97 300.775 170.978 300.85C170.983 300.901 171.015 300.946 171.064 300.967C171.088 300.978 171.114 300.982 171.139 300.979C171.164 300.978 171.188 300.97 171.209 300.955ZM172.015 298.403C172.205 298.407 172.253 298.485 172.274 298.552C172.401 298.964 171.796 300.02 171.253 300.54C171.228 299.952 171.268 298.953 171.636 298.564C171.725 298.469 171.827 298.417 171.948 298.406C171.97 298.404 171.992 298.403 172.015 298.403Z" fill="#4692B6"/>
<path d="M163.913 301.531L170.115 300.933L168.222 286.848L162.021 287.446L163.913 301.531Z" fill="#E4897B"/>
<path d="M170.535 300.18L163.569 300.851C163.315 300.876 163.127 301.068 163.115 301.315L162.861 306.816C162.835 307.387 163.379 307.872 163.963 307.806C166.388 307.53 167.544 307.278 170.608 306.982C172.493 306.8 175.266 306.728 177.869 306.477C180.415 306.232 180.358 303.68 179.252 303.556C174.29 302.996 173.381 301.651 171.609 300.455C171.29 300.239 170.906 300.144 170.535 300.18Z" fill="#263238"/>
<path d="M159.379 164.078C159.379 164.078 167.312 212.583 168.841 241.317L169.126 292.785L162.707 294.037C162.707 294.037 153.407 261.202 152.337 242.223C149.498 191.864 133.096 191.782 142.964 163.988L159.379 164.078Z" fill="#263238"/>
<path d="M171.258 292.997L160.629 294.452L159.552 290.371L170.912 288.893L171.258 292.997Z" fill="#4692B6"/>
<path d="M113.28 119.74H113.258L113.266 119.704C113.266 119.718 113.273 119.725 113.28 119.74Z" fill="#E4897B"/>
<path d="M113.96 112.043H114.367C113.958 112.043 113.644 112.375 113.665 112.784L114.312 125.113C114.333 125.522 114.682 125.854 115.09 125.854H114.684C114.276 125.854 113.926 125.522 113.905 125.113L113.259 112.784C113.238 112.375 113.552 112.043 113.96 112.043Z" fill="#4692B6"/>
<path opacity="0.1" d="M113.96 112.043H114.367C113.958 112.043 113.644 112.375 113.665 112.784L114.312 125.113C114.333 125.522 114.682 125.854 115.09 125.854H114.684C114.276 125.854 113.926 125.522 113.905 125.113L113.259 112.784C113.238 112.375 113.552 112.043 113.96 112.043Z" fill="white"/>
<path d="M114.805 125.854H119.778C120.187 125.854 120.501 125.522 120.48 125.113L119.833 112.784C119.812 112.376 119.463 112.043 119.055 112.043H114.082C113.673 112.043 113.359 112.375 113.38 112.784L114.026 125.113C114.048 125.522 114.397 125.854 114.805 125.854Z" fill="#4692B6"/>
<path opacity="0.4" d="M114.805 125.854H119.778C120.187 125.854 120.501 125.522 120.48 125.113L119.833 112.784C119.812 112.376 119.463 112.043 119.055 112.043H114.082C113.673 112.043 113.359 112.375 113.38 112.784L114.026 125.113C114.048 125.522 114.397 125.854 114.805 125.854Z" fill="white"/>
<path d="M120.169 124.856C120.176 124.984 120.134 125.104 120.049 125.196C119.964 125.281 119.843 125.331 119.716 125.331H114.895C114.618 125.331 114.385 125.104 114.371 124.828L113.741 112.87C113.733 112.742 113.776 112.622 113.861 112.537C113.946 112.445 114.066 112.396 114.194 112.396H119.015C119.291 112.396 119.525 112.622 119.539 112.898L119.582 113.755L120.169 124.856Z" fill="#263238"/>
<g opacity="0.1">
<path d="M119.581 113.755L117.981 125.331H116.062L117.875 112.396H119.015C119.291 112.396 119.525 112.622 119.539 112.898L119.581 113.755Z" fill="white"/>
<path d="M115.369 125.33H114.936L116.749 112.396H117.183L115.369 125.33Z" fill="white"/>
</g>
<path d="M133.473 165.461C129.868 172.529 127.906 180.429 127.787 188.363C139.838 197.7 151.031 186.765 164.807 188.612C164.326 182.39 162.213 170.877 159.703 165.164C150.599 165.548 142.073 164.64 133.473 165.461Z" fill="#4692B6"/>
<path d="M134.727 162.934C134.727 162.934 133.755 165.428 134.033 165.428H159.292C159.51 165.428 159.689 165.322 159.703 165.185L159.92 163.029C159.935 162.88 159.747 162.753 159.51 162.753H135.119C134.939 162.754 134.781 162.827 134.727 162.934Z" fill="white"/>
<path d="M138.285 165.64H137.632C137.502 165.64 137.403 165.573 137.412 165.492L137.718 162.691C137.727 162.609 137.841 162.542 137.971 162.542H138.625C138.755 162.542 138.854 162.609 138.845 162.691L138.538 165.492C138.53 165.573 138.416 165.64 138.285 165.64Z" fill="#4692B6"/>
<path d="M154.119 165.64H153.465C153.335 165.64 153.236 165.573 153.245 165.492L153.552 162.691C153.561 162.609 153.674 162.542 153.805 162.542H154.458C154.588 162.542 154.687 162.609 154.678 162.691L154.372 165.492C154.363 165.573 154.249 165.64 154.119 165.64Z" fill="#4692B6"/>
</svg>
