<svg width="301" height="301" viewBox="0 0 301 301" fill="none" xmlns="http://www.w3.org/2000/svg">
<path d="M281.068 190.355H182.422V133.258H281.068V190.355ZM183.024 189.753H280.466V133.86H183.024V189.753Z" fill="#E0E0E0"/>
<path d="M260.72 163.701H195.623V165.61H260.72V163.701Z" fill="#F0F0F0"/>
<path d="M265.204 170.818H195.623V172.901H265.204V170.818Z" fill="#F0F0F0"/>
<path d="M265.204 178.018H195.623V180.101H265.204V178.018Z" fill="#F0F0F0"/>
<path d="M218.374 153.365H195.623V158.319H218.374V153.365Z" fill="#F0F0F0"/>
<path d="M280.767 133.558H182.723V142.648H280.767V133.558Z" fill="#E0E0E0"/>
<path d="M273.223 141.29C273.098 141.17 274.361 139.646 276.044 137.887C277.728 136.126 279.194 134.797 279.319 134.917C279.444 135.037 278.18 136.56 276.497 138.32C274.814 140.08 273.348 141.41 273.223 141.29Z" fill="white"/>
<path d="M279.319 141.29C279.194 141.41 277.728 140.08 276.045 138.32C274.361 136.56 273.098 135.036 273.223 134.917C273.348 134.798 274.813 136.127 276.497 137.887C278.181 139.646 279.445 141.17 279.319 141.29Z" fill="white"/>
<path d="M159.667 20.5005H61.623V76.9953H159.667V20.5005Z" fill="#E6E6E6"/>
<path d="M139.62 50.6433H74.5229V52.5529H139.62V50.6433Z" fill="#F0F0F0"/>
<path d="M144.103 57.7603H74.5229V59.8432H144.103V57.7603Z" fill="#F0F0F0"/>
<path d="M144.103 64.9595H74.5229V67.0424H144.103V64.9595Z" fill="#F0F0F0"/>
<path d="M97.2738 40.3076H74.5229V45.2615H97.2738V40.3076Z" fill="#F0F0F0"/>
<path d="M159.667 20.5005H61.623V29.5895H159.667V20.5005Z" fill="#E0E0E0"/>
<path d="M151.786 28.1887C151.661 28.0689 152.925 26.5452 154.607 24.7856C156.291 23.0253 157.757 21.6961 157.882 21.8153C158.007 21.9351 156.744 23.4582 155.06 25.2184C153.378 26.9781 151.912 28.3079 151.786 28.1887Z" fill="white"/>
<path d="M157.883 28.1889C157.758 28.3087 156.292 26.9789 154.609 25.2192C152.924 23.459 151.662 21.9353 151.786 21.8161C151.912 21.6963 153.377 23.0261 155.061 24.7864C156.745 26.5454 158.008 28.0691 157.883 28.1889Z" fill="white"/>
<path d="M122.534 125.451H23.8882V68.3542H122.534V125.451ZM24.4902 124.849H121.932V68.9562H24.4902V124.849Z" fill="#E0E0E0"/>
<path d="M102.186 98.7974H37.0884V100.707H102.186V98.7974Z" fill="#F0F0F0"/>
<path d="M106.669 105.915H37.0884V107.998H106.669V105.915Z" fill="#F0F0F0"/>
<path d="M106.669 113.114H37.0884V115.197H106.669V113.114Z" fill="#F0F0F0"/>
<path d="M59.8392 88.4617H37.0884V93.4161H59.8392V88.4617Z" fill="#F0F0F0"/>
<path d="M122.233 68.6553H24.189V77.7449H122.233V68.6553Z" fill="#E0E0E0"/>
<path d="M236.38 138.535H120.612V242.173H236.38V138.535Z" fill="#E6E6E6"/>
<path d="M126.432 105.887H35.7476V200.106H126.432V105.887Z" fill="#F0F0F0"/>
<path d="M126.432 105.887H35.7476V116.153H126.432V105.887Z" fill="#E0E0E0"/>
<path d="M43.2365 110.915C43.2365 112.014 42.384 112.905 41.3323 112.905C40.2807 112.905 39.4282 112.014 39.4282 110.915C39.4282 109.816 40.2807 108.925 41.3323 108.925C42.384 108.925 43.2365 109.816 43.2365 110.915Z" fill="white"/>
<path d="M50.9591 110.915C50.9591 112.014 50.1067 112.905 49.055 112.905C48.0033 112.905 47.1509 112.014 47.1509 110.915C47.1509 109.816 48.0033 108.925 49.055 108.925C50.1067 108.925 50.9591 109.816 50.9591 110.915Z" fill="white"/>
<path d="M58.6818 110.915C58.6818 112.014 57.8294 112.905 56.7777 112.905C55.726 112.905 54.8735 112.014 54.8735 110.915C54.8735 109.816 55.726 108.925 56.7777 108.925C57.8294 108.925 58.6818 109.816 58.6818 110.915Z" fill="white"/>
<path d="M268.123 41.1077H152.355V156.488H268.123V41.1077Z" fill="#F0F0F0"/>
<path d="M268.123 41.1077H152.355V54.6226H268.123V41.1077Z" fill="#E0E0E0"/>
<path d="M162.215 47.7261C162.215 49.1733 161.092 50.3466 159.708 50.3466C158.324 50.3466 157.202 49.1733 157.202 47.7261C157.202 46.2789 158.324 45.1062 159.708 45.1062C161.092 45.1062 162.215 46.2795 162.215 47.7261Z" fill="white"/>
<path d="M171.648 45.9544C172.671 46.9778 172.707 48.6008 171.728 49.5791C170.749 50.5579 169.126 50.5218 168.103 49.499C167.08 48.4756 167.044 46.8526 168.022 45.8737C169.001 44.8949 170.624 44.931 171.648 45.9544Z" fill="white"/>
<path d="M182.549 47.7261C182.549 49.1733 181.427 50.3466 180.042 50.3466C178.658 50.3466 177.536 49.1733 177.536 47.7261C177.536 46.2789 178.658 45.1062 180.042 45.1062C181.427 45.1062 182.549 46.2795 182.549 47.7261Z" fill="white"/>
<path d="M243.113 272.786C243.113 272.872 201.311 272.943 149.757 272.943C98.1851 272.943 56.3911 272.872 56.3911 272.786C56.3911 272.699 98.1845 272.628 149.757 272.628C201.311 272.629 243.113 272.699 243.113 272.786Z" fill="#263238"/>
<path d="M202.38 199.089C193.08 192.592 190.97 180.532 191.338 169.691C191.399 167.881 191.2 165.974 192.061 164.385C192.922 162.798 194.931 161.713 196.551 162.475C197.894 163.108 198.48 164.671 199.232 165.964C200.232 167.684 201.723 169.108 203.476 170.017C204.628 170.615 206.054 170.981 207.192 170.354C208.753 169.492 208.936 167.336 208.925 165.536C208.904 162.182 208.884 158.827 208.863 155.473C208.851 153.673 208.847 151.836 209.406 150.128C209.966 148.42 211.202 146.833 212.914 146.353C214.627 145.874 216.744 146.861 217.105 148.623C217.256 149.356 217.107 150.117 217.157 150.864C217.207 151.611 217.555 152.438 218.264 152.646C218.983 152.857 219.703 152.347 220.241 151.82C222.098 150.003 223.359 147.662 224.537 145.334C225.715 143.006 226.859 140.623 228.544 138.64C230.23 136.658 232.561 135.088 235.138 134.942C237.716 134.796 240.463 136.386 241.114 138.917C241.767 141.455 240.287 144.029 238.676 146.083C236.286 149.13 233.459 151.825 230.311 154.056C229.744 154.459 229.129 154.894 228.912 155.561C228.521 156.761 229.658 157.952 230.843 158.347C232.184 158.793 233.639 158.654 235.043 158.819C236.446 158.984 237.967 159.604 238.497 160.93C239.234 162.77 237.696 164.698 236.182 165.96C233.151 168.489 229.689 170.487 225.996 171.84C224.673 172.325 223.279 172.75 222.212 173.68C221.144 174.61 220.5 176.227 221.145 177.495C221.79 178.764 223.446 179.17 224.833 178.912C226.219 178.655 227.46 177.902 228.782 177.404C231.256 176.47 234.45 176.64 236.034 178.778C237.075 180.183 237.167 182.14 236.64 183.814C236.114 185.489 235.046 186.932 233.912 188.263C229.948 192.914 224.873 196.658 219.135 198.647C213.398 200.636 208.082 201.174 202.38 199.089Z" fill="#4692B6"/>
<path d="M238.514 136.448C238.518 136.453 238.459 136.511 238.339 136.619C238.206 136.738 238.029 136.896 237.805 137.096C237.333 137.513 236.638 138.127 235.765 138.943C234.016 140.569 231.559 143.016 228.89 146.363C227.551 148.031 226.16 149.919 224.702 151.974C223.248 154.032 221.708 156.241 220.177 158.624C218.645 161.005 217.112 163.558 215.737 166.315C215.043 167.691 214.424 169.131 213.793 170.599C213.165 172.066 212.528 173.555 211.883 175.062C209.326 181.097 207.077 186.932 205.469 192.381C203.853 197.827 202.891 202.873 202.47 207.149C202.039 211.427 202.127 214.919 202.302 217.315C202.396 218.513 202.488 219.443 202.572 220.07C202.607 220.371 202.634 220.607 202.655 220.786C202.672 220.947 202.678 221.031 202.673 221.032C202.667 221.033 202.65 220.951 202.621 220.791C202.593 220.615 202.555 220.379 202.506 220.08C202.4 219.454 202.287 218.525 202.173 217.325C201.959 214.928 201.834 211.423 202.237 207.127C202.63 202.832 203.572 197.76 205.178 192.294C206.773 186.823 209.02 180.971 211.58 174.931C212.225 173.423 212.863 171.933 213.492 170.466C214.123 169.002 214.748 167.55 215.448 166.167C216.835 163.396 218.38 160.837 219.923 158.455C221.465 156.071 223.015 153.864 224.479 151.812C225.949 149.762 227.355 147.877 228.709 146.213C231.408 142.875 233.9 140.445 235.678 138.847C236.566 138.045 237.275 137.445 237.761 137.045C237.996 136.855 238.179 136.706 238.317 136.593C238.443 136.493 238.51 136.444 238.514 136.448Z" fill="#263238"/>
<path d="M215.542 166.154C215.52 166.158 215.459 165.884 215.367 165.387C215.272 164.889 215.159 164.166 215.032 163.269C214.778 161.477 214.511 158.99 214.227 156.248C213.943 153.503 213.641 151.028 213.361 149.245C213.223 148.353 213.104 147.632 213.015 147.134C212.929 146.637 212.892 146.359 212.915 146.353C212.937 146.348 213.016 146.617 213.141 147.107C213.269 147.597 213.423 148.314 213.591 149.204C213.932 150.983 214.272 153.465 214.556 156.211C214.829 158.919 215.076 161.368 215.265 163.239C215.355 164.084 215.432 164.796 215.494 165.367C215.547 165.871 215.566 166.151 215.542 166.154Z" fill="#263238"/>
<path d="M238.682 161.83C238.682 161.853 238.353 161.891 237.759 161.941C237.165 161.994 236.306 162.065 235.247 162.188C233.127 162.417 230.211 162.835 227.013 163.438C223.816 164.047 220.946 164.72 218.884 165.267C217.85 165.534 217.02 165.772 216.445 165.933C215.871 166.096 215.55 166.176 215.542 166.155C215.535 166.132 215.843 166.011 216.407 165.809C216.971 165.609 217.794 165.336 218.822 165.039C220.873 164.432 223.746 163.72 226.952 163.109C230.159 162.505 233.092 162.121 235.224 161.953C236.289 161.86 237.154 161.823 237.752 161.811C238.35 161.801 238.681 161.807 238.682 161.83Z" fill="#263238"/>
<path d="M205.463 191.867C205.452 191.872 205.398 191.775 205.304 191.585C205.197 191.359 205.066 191.082 204.908 190.748C204.568 190.019 204.103 188.953 203.545 187.626C202.429 184.976 201.002 181.266 199.483 177.15C197.963 173.033 196.572 169.315 195.513 166.645C194.994 165.347 194.566 164.279 194.249 163.485C194.113 163.141 194.001 162.857 193.909 162.623C193.835 162.425 193.801 162.319 193.812 162.313C193.822 162.309 193.876 162.406 193.97 162.596C194.078 162.823 194.208 163.098 194.366 163.433C194.706 164.162 195.171 165.228 195.729 166.554C196.846 169.205 198.272 172.915 199.792 177.032C201.311 181.148 202.702 184.866 203.761 187.537C204.281 188.834 204.708 189.902 205.026 190.695C205.162 191.04 205.273 191.324 205.365 191.557C205.439 191.757 205.473 191.863 205.463 191.867Z" fill="#263238"/>
<path d="M236.212 181.957C236.215 181.969 236.11 182.012 235.907 182.083C235.666 182.164 235.371 182.263 235.014 182.382C234.189 182.65 233.075 183.011 231.721 183.449C228.941 184.351 225.115 185.64 220.89 187.071C216.664 188.502 212.823 189.757 210.023 190.602C208.623 191.024 207.487 191.355 206.698 191.567C206.333 191.662 206.032 191.741 205.787 191.806C205.578 191.857 205.466 191.878 205.463 191.868C205.46 191.857 205.566 191.813 205.769 191.741C206.008 191.661 206.304 191.562 206.661 191.443C207.486 191.175 208.599 190.815 209.954 190.375C212.734 189.474 216.56 188.184 220.786 186.753C225.012 185.322 228.852 184.067 231.652 183.223C233.051 182.8 234.187 182.47 234.977 182.257C235.342 182.161 235.642 182.082 235.888 182.018C236.097 181.968 236.208 181.947 236.212 181.957Z" fill="#263238"/>
<path d="M223.668 35.9269L220.566 37.0364L219.24 32.9855C216.793 25.5135 208.985 21.5156 201.844 24.0705C194.698 26.6266 190.878 34.7843 193.324 42.2563L194.651 46.3072L191.538 47.4203C189.118 48.286 187.808 51.0756 188.637 53.6083L197.267 79.9705C198.109 82.5417 200.781 83.9124 203.201 83.0467L235.333 71.5527C237.792 70.6732 239.103 67.8769 238.261 65.3064L229.63 38.9441C228.8 36.4115 226.127 35.0468 223.668 35.9269ZM199.178 40.1614C197.838 36.0665 199.93 31.5949 203.848 30.1934C207.762 28.7932 212.039 30.9863 213.379 35.0811L214.706 39.1325L200.504 44.2122L199.178 40.1614ZM217.244 63.5509L219.448 70.2831C219.54 70.5678 219.378 70.8586 219.103 70.9573L216.019 72.0602C215.783 72.1445 215.481 72.0199 215.388 71.7351L213.184 65.0029C210.796 64.9018 208.58 63.3191 207.75 60.7865C206.685 57.5303 208.352 53.9701 211.477 52.8521C214.6 51.7348 218.003 53.4806 219.07 56.7375C219.899 59.2701 219.074 61.9412 217.244 63.5509Z" fill="#4692B6"/>
<path d="M220.431 36.9635C220.46 37.0448 214.682 39.2084 207.525 41.7946C200.367 44.382 194.542 46.4131 194.512 46.3319C194.483 46.2506 200.26 44.0876 207.419 41.5002C214.575 38.914 220.401 36.8823 220.431 36.9635Z" fill="#263238"/>
<path d="M227.254 38.073C227.259 38.0712 227.283 38.1248 227.323 38.2308C227.369 38.3536 227.427 38.5089 227.498 38.7027C227.653 39.1416 227.868 39.752 228.141 40.5274C228.694 42.139 229.482 44.432 230.451 47.2566C231.417 50.1083 232.565 53.4927 233.839 57.2498C234.468 59.1359 235.155 61.0954 235.814 63.1651C236.118 64.2053 236.371 65.3172 236.265 66.4688C236.212 67.0401 236.056 67.6151 235.778 68.1352C235.495 68.6517 235.099 69.1062 234.64 69.4764C233.715 70.2163 232.632 70.6485 231.585 71.0362C230.535 71.4137 229.499 71.7857 228.482 72.1511C226.447 72.8789 224.485 73.5815 222.614 74.2515C218.877 75.5819 215.509 76.7811 212.673 77.7913C209.855 78.7822 207.568 79.5864 205.962 80.1517C205.185 80.4178 204.572 80.6279 204.132 80.7784C203.936 80.8422 203.778 80.8934 203.654 80.9337C203.545 80.9674 203.489 80.9819 203.487 80.9765C203.485 80.9717 203.538 80.947 203.643 80.9036C203.765 80.8555 203.919 80.7947 204.111 80.7188C204.546 80.5551 205.152 80.3263 205.921 80.0368C207.52 79.4486 209.795 78.6124 212.599 77.5824C215.428 76.5542 218.788 75.3339 222.517 73.98C224.385 73.3046 226.346 72.5966 228.378 71.8622C229.395 71.4956 230.429 71.1223 231.478 70.7437C232.517 70.359 233.571 69.9322 234.444 69.2326C234.876 68.8835 235.241 68.4621 235.504 67.9865C235.76 67.5073 235.905 66.9769 235.956 66.4393C236.058 65.3575 235.819 64.277 235.52 63.2523C234.872 61.2031 234.185 59.2262 233.565 57.3425C232.316 53.5782 231.19 50.1853 230.242 47.3276C229.312 44.4898 228.557 42.1859 228.026 40.5671C227.776 39.7839 227.58 39.1669 227.439 38.7238C227.379 38.5257 227.332 38.3674 227.294 38.2416C227.262 38.1314 227.248 38.0748 227.254 38.073Z" fill="#263238"/>
<path d="M210.305 29.7714C210.289 29.7979 209.985 29.6094 209.393 29.371C208.8 29.1447 207.903 28.8804 206.765 28.8443C205.635 28.8027 204.26 28.9773 202.888 29.5769C201.52 30.1693 200.173 31.221 199.209 32.6519C198.225 34.0775 197.794 35.727 197.794 37.2229C197.781 38.7255 198.1 40.0638 198.407 41.1618C198.724 42.2611 199.048 43.1334 199.262 43.739C199.478 44.3446 199.595 44.6811 199.574 44.6896C199.555 44.6968 199.4 44.3759 199.148 43.7836C198.9 43.19 198.543 42.3279 198.195 41.2256C197.858 40.1246 197.508 38.7695 197.505 37.2211C197.489 35.6812 197.929 33.9511 198.948 32.4756C199.949 30.9922 201.351 29.9104 202.774 29.3114C204.201 28.7064 205.619 28.5511 206.776 28.6221C207.942 28.6878 208.853 28.993 209.441 29.2585C209.733 29.4011 209.955 29.5179 210.096 29.616C210.239 29.7094 210.311 29.7617 210.305 29.7714Z" fill="#263238"/>
<path d="M210.578 53.3278C210.574 53.32 210.678 53.2682 210.883 53.1761C211.086 53.0816 211.397 52.9606 211.812 52.842C212.224 52.7126 212.753 52.6187 213.377 52.5819C213.998 52.5512 214.731 52.6156 215.488 52.8968C217.026 53.4374 218.444 55.0098 219.14 57.0933C219.475 58.1456 219.504 59.3677 219.168 60.5494C218.809 61.7263 218.15 62.8551 217.199 63.8038L217.239 63.6443C218.038 65.8386 218.909 68.2267 219.816 70.7112L219.87 70.8623L219.718 70.9135C219.282 71.0598 218.813 71.2169 218.342 71.3746C217.327 71.7141 216.328 72.0489 215.346 72.3775L215.198 72.4269L215.149 72.2782C214.325 69.7823 213.421 67.4291 212.765 65.18L212.895 65.2824C211.663 65.1999 210.555 64.6828 209.673 64.0085C208.787 63.3277 208.109 62.4825 207.651 61.5933C207.202 60.7011 206.975 59.7542 207.013 58.8819C207.036 58.0102 207.237 57.221 207.518 56.5557C208.08 55.2139 208.917 54.3699 209.537 53.9094C210.168 53.4476 210.578 53.3278 210.578 53.3278C210.592 53.3549 210.196 53.506 209.593 53.9822C209.002 54.4578 208.204 55.303 207.679 56.6214C207.155 57.9078 206.927 59.7572 207.865 61.4831C208.315 62.3362 208.978 63.1471 209.834 63.7966C210.687 64.4396 211.752 64.9242 212.91 64.9952L213.012 65.0012L213.04 65.0975C213.704 67.331 214.612 69.6746 215.444 72.1807L215.247 72.082C216.228 71.7533 217.228 71.4174 218.242 71.0772C218.713 70.9195 219.181 70.7624 219.618 70.6161L219.521 70.8178C218.621 68.3309 217.755 65.9403 216.961 63.7448L216.928 63.6564L217 63.5853C217.901 62.695 218.557 61.5909 218.902 60.4712C219.231 59.3412 219.212 58.1799 218.9 57.1662C218.242 55.1441 216.889 53.6065 215.422 53.0665C214.698 52.7836 213.989 52.7066 213.38 52.7228C212.769 52.7445 212.247 52.8221 211.835 52.9353C211.009 53.1484 210.589 53.3543 210.578 53.3278Z" fill="#263238"/>
<path d="M191.973 227.146L131.844 226.868C124.612 226.835 118.776 220.947 118.807 213.715L119.444 62.9712C119.475 55.7352 125.367 49.8951 132.602 49.9289L192.731 50.2064C199.963 50.2401 205.798 56.1283 205.768 63.3595L205.13 214.103C205.101 221.339 199.209 227.18 191.973 227.146Z" fill="#455A64"/>
<path d="M192.645 55.409L180.987 55.3554C179.424 55.3482 178.151 56.6678 178.144 58.3016L178.134 60.4164C178.128 62.0509 176.855 63.3698 175.291 63.3626L152.567 63.2579C151.004 63.2506 149.742 61.9196 149.749 60.2852L149.758 58.1703C149.764 56.5359 148.503 55.2049 146.939 55.1977L142.839 55.1784L132.636 55.1314C127.569 55.108 123.442 59.198 123.42 64.2656L122.798 211.402C122.777 216.467 126.864 220.591 131.929 220.614L191.938 220.891C197.005 220.915 201.131 216.825 201.153 211.757L201.775 64.6202C201.797 59.5562 197.71 55.4331 192.645 55.409Z" fill="white"/>
<path d="M184.569 201.264L139.947 201.058C139.485 201.056 139.112 200.553 139.115 199.935L139.165 188.261C139.167 187.643 139.544 187.144 140.006 187.146L184.628 187.352C185.091 187.354 185.463 187.857 185.46 188.475L185.411 200.149C185.409 200.767 185.032 201.267 184.569 201.264Z" fill="#4692B6"/>
<path d="M148.678 192.354C148.663 192.161 148.592 192.011 148.464 191.903C148.337 191.795 148.144 191.74 147.885 191.739C147.72 191.738 147.584 191.758 147.478 191.798C147.374 191.835 147.297 191.888 147.247 191.955C147.197 192.022 147.171 192.099 147.168 192.185C147.164 192.256 147.176 192.321 147.205 192.379C147.235 192.434 147.283 192.486 147.348 192.532C147.414 192.576 147.497 192.617 147.599 192.654C147.7 192.691 147.821 192.724 147.961 192.754L148.445 192.86C148.772 192.931 149.051 193.023 149.283 193.138C149.515 193.252 149.705 193.386 149.852 193.541C149.999 193.693 150.107 193.865 150.175 194.055C150.246 194.246 150.281 194.454 150.282 194.679C150.279 195.067 150.18 195.395 149.987 195.663C149.794 195.931 149.518 196.134 149.16 196.273C148.804 196.412 148.376 196.48 147.877 196.478C147.364 196.475 146.916 196.397 146.534 196.244C146.155 196.09 145.86 195.855 145.65 195.539C145.441 195.221 145.337 194.815 145.338 194.321L146.859 194.328C146.868 194.509 146.913 194.661 146.993 194.784C147.073 194.908 147.186 195.002 147.332 195.066C147.48 195.13 147.655 195.162 147.859 195.163C148.03 195.164 148.173 195.143 148.289 195.102C148.404 195.06 148.492 195.002 148.552 194.927C148.612 194.852 148.643 194.767 148.645 194.671C148.644 194.581 148.614 194.502 148.557 194.434C148.501 194.365 148.409 194.303 148.281 194.248C148.152 194.192 147.979 194.139 147.76 194.09L147.172 193.961C146.65 193.845 146.239 193.654 145.938 193.387C145.639 193.119 145.492 192.754 145.496 192.293C145.496 191.918 145.597 191.591 145.8 191.311C146.005 191.03 146.287 190.811 146.647 190.655C147.009 190.499 147.424 190.422 147.89 190.424C148.367 190.427 148.779 190.508 149.126 190.669C149.473 190.831 149.74 191.057 149.927 191.348C150.116 191.637 150.211 191.974 150.211 192.361L148.678 192.354ZM152.512 190.526L152.487 196.43L150.885 196.422L150.909 190.519L152.512 190.526ZM157.097 192.496C157.073 192.394 157.034 192.305 156.98 192.227C156.927 192.148 156.86 192.082 156.779 192.028C156.701 191.972 156.608 191.93 156.503 191.902C156.399 191.873 156.285 191.858 156.16 191.858C155.891 191.856 155.661 191.92 155.47 192.048C155.282 192.175 155.137 192.36 155.036 192.602C154.937 192.844 154.886 193.135 154.885 193.478C154.884 193.823 154.929 194.12 155.022 194.366C155.116 194.612 155.255 194.801 155.441 194.933C155.627 195.064 155.858 195.131 156.135 195.132C156.379 195.133 156.582 195.099 156.743 195.028C156.907 194.958 157.03 194.858 157.111 194.727C157.192 194.597 157.233 194.443 157.234 194.267L157.51 194.297L156.161 194.29L156.166 193.149L158.783 193.161L158.78 193.98C158.778 194.518 158.661 194.977 158.431 195.359C158.203 195.738 157.888 196.029 157.488 196.231C157.089 196.431 156.632 196.529 156.117 196.527C155.543 196.524 155.039 196.4 154.606 196.154C154.172 195.908 153.835 195.559 153.593 195.106C153.352 194.653 153.234 194.116 153.236 193.493C153.238 193.005 153.314 192.573 153.464 192.197C153.615 191.821 153.824 191.504 154.09 191.246C154.356 190.986 154.664 190.79 155.012 190.659C155.36 190.526 155.734 190.461 156.131 190.462C156.481 190.464 156.806 190.515 157.105 190.617C157.406 190.716 157.672 190.858 157.902 191.041C158.133 191.223 158.32 191.438 158.461 191.687C158.602 191.935 158.688 192.207 158.717 192.504L157.097 192.496ZM164.649 190.582L164.625 196.485L163.287 196.479L161.167 193.368L161.132 193.368L161.119 196.469L159.517 196.462L159.542 190.559L160.902 190.565L162.988 193.665L163.034 193.665L163.047 190.575L164.649 190.582ZM170.518 190.609L172.121 190.617L172.105 194.398C172.103 194.848 171.994 195.237 171.777 195.564C171.562 195.89 171.263 196.141 170.88 196.318C170.497 196.493 170.053 196.58 169.547 196.577C169.038 196.575 168.593 196.485 168.211 196.306C167.829 196.126 167.533 195.871 167.321 195.544C167.111 195.214 167.007 194.825 167.009 194.375L167.024 190.593L168.627 190.601L168.612 194.244C168.611 194.427 168.651 194.59 168.731 194.735C168.811 194.877 168.922 194.989 169.064 195.07C169.207 195.152 169.371 195.193 169.553 195.194C169.738 195.195 169.901 195.155 170.044 195.075C170.186 194.995 170.298 194.884 170.379 194.742C170.461 194.598 170.502 194.435 170.503 194.253L170.518 190.609ZM172.857 196.523L172.882 190.62L175.43 190.632C175.868 190.634 176.251 190.722 176.579 190.897C176.907 191.071 177.162 191.315 177.343 191.629C177.524 191.943 177.614 192.31 177.612 192.729C177.61 193.152 177.515 193.517 177.325 193.826C177.137 194.134 176.874 194.371 176.535 194.537C176.198 194.703 175.805 194.784 175.355 194.782L173.833 194.775L173.839 193.53L175.038 193.536C175.226 193.536 175.387 193.505 175.519 193.44C175.654 193.373 175.757 193.279 175.829 193.156C175.903 193.033 175.94 192.888 175.94 192.721C175.941 192.552 175.905 192.408 175.833 192.288C175.762 192.167 175.66 192.074 175.525 192.01C175.393 191.944 175.233 191.911 175.044 191.91L174.479 191.907L174.46 196.531L172.857 196.523Z" fill="#E8E8E3"/>
<path d="M148.839 98.6489L133.357 98.5776L133.344 101.418L148.826 101.49L148.839 98.6489Z" fill="#4692B6"/>
<path opacity="0.1" d="M148.839 98.6489L133.357 98.5776L133.344 101.418L148.826 101.49L148.839 98.6489Z" fill="black"/>
<path d="M194.238 116.081C194.236 116.069 194.368 116.089 194.592 115.998C194.803 115.917 195.137 115.659 195.175 115.188C195.173 114.228 195.17 112.832 195.167 111.041C195.167 110.139 195.166 109.137 195.166 108.042C195.166 107.767 195.166 107.488 195.166 107.202C195.174 106.909 195.173 106.638 194.998 106.413C194.839 106.19 194.568 106.047 194.285 106.046C193.977 106.046 193.662 106.045 193.343 106.044C190.781 106.039 187.867 106.033 184.647 106.027C171.751 105.979 153.953 105.914 134.295 105.841C134.036 105.839 133.783 105.966 133.632 106.176C133.465 106.389 133.472 106.64 133.475 106.963C133.473 107.574 133.47 108.183 133.468 108.79C133.462 110.004 133.457 111.21 133.452 112.407C133.45 113.006 133.447 113.602 133.444 114.196C133.453 114.481 133.416 114.821 133.469 115.042C133.528 115.284 133.711 115.489 133.939 115.585C134.058 115.633 134.168 115.65 134.312 115.649L134.752 115.651L135.631 115.655C136.215 115.658 136.797 115.661 137.377 115.664C142.013 115.689 146.485 115.713 150.746 115.735C159.264 115.787 166.936 115.834 173.383 115.873C179.818 115.924 185.029 115.965 188.643 115.994C190.436 116.015 191.832 116.031 192.792 116.042C193.258 116.051 193.617 116.058 193.871 116.063C194.114 116.07 194.238 116.081 194.238 116.081C194.238 116.081 194.114 116.092 193.871 116.095C193.616 116.098 193.258 116.101 192.792 116.106C191.831 116.109 190.435 116.112 188.642 116.116C185.027 116.112 179.816 116.104 173.381 116.096C166.934 116.075 159.262 116.051 150.744 116.025C146.484 116.008 142.011 115.991 137.375 115.973C136.796 115.97 136.213 115.968 135.629 115.965L134.75 115.962L134.309 115.96C134.159 115.963 133.972 115.939 133.818 115.872C133.503 115.74 133.252 115.458 133.168 115.122C133.12 114.952 133.131 114.78 133.131 114.641L133.132 114.196C133.135 113.602 133.137 113.005 133.14 112.407C133.144 111.209 133.149 110.004 133.154 108.79C133.156 108.183 133.159 107.574 133.161 106.963C133.166 106.806 133.152 106.669 133.177 106.482C133.203 106.306 133.271 106.136 133.378 105.993C133.584 105.702 133.94 105.524 134.296 105.528C153.953 105.637 171.751 105.735 184.647 105.807C187.867 105.83 190.781 105.851 193.343 105.87C193.662 105.872 193.977 105.875 194.285 105.878C194.623 105.881 194.943 106.054 195.128 106.319C195.334 106.578 195.332 106.933 195.32 107.203C195.318 107.489 195.316 107.769 195.314 108.043C195.303 109.139 195.295 110.14 195.287 111.042C195.265 112.835 195.248 114.233 195.236 115.194C195.184 115.696 194.823 115.953 194.601 116.029C194.368 116.112 194.238 116.081 194.238 116.081Z" fill="#E0E0E0"/>
<path d="M165.833 109.634L137.513 109.504L137.5 112.159L165.82 112.29L165.833 109.634Z" fill="#4692B6"/>
<path opacity="0.2" d="M165.833 109.634L137.513 109.504L137.5 112.159L165.82 112.29L165.833 109.634Z" fill="white"/>
<path d="M148.73 124.573L133.249 124.502L133.235 127.343L148.717 127.414L148.73 124.573Z" fill="#4692B6"/>
<path opacity="0.1" d="M148.73 124.573L133.249 124.502L133.235 127.343L148.717 127.414L148.73 124.573Z" fill="black"/>
<path d="M193.841 142.004C193.84 141.993 193.968 142.005 194.198 141.937C194.417 141.865 194.769 141.685 194.961 141.255C195.064 141.043 195.074 140.786 195.065 140.491C195.064 140.199 195.063 139.88 195.061 139.535C195.06 138.842 195.058 138.044 195.057 137.149C195.057 136.25 195.056 135.252 195.056 134.16C195.056 133.887 195.056 133.608 195.056 133.323C195.069 133.036 195.034 132.769 194.88 132.529C194.736 132.293 194.5 132.106 194.226 132.022C193.957 131.936 193.635 131.983 193.316 131.97C190.764 131.965 187.86 131.959 184.65 131.953C171.798 131.906 154.062 131.84 134.473 131.767C133.929 131.754 133.426 132.198 133.374 132.736C133.356 133.308 133.364 133.941 133.358 134.538C133.353 135.748 133.347 136.95 133.342 138.142C133.34 138.739 133.337 139.334 133.335 139.926C133.345 140.221 133.303 140.53 133.373 140.766C133.441 141.015 133.6 141.237 133.812 141.383C134.033 141.532 134.272 141.587 134.561 141.576L135.437 141.58C136.02 141.583 136.599 141.586 137.177 141.589C141.798 141.613 146.254 141.637 150.5 141.659C158.988 141.711 166.633 141.758 173.058 141.797C179.47 141.848 184.663 141.889 188.265 141.917C190.052 141.938 191.443 141.954 192.4 141.966C192.864 141.975 193.221 141.981 193.475 141.986C193.717 141.993 193.841 142.004 193.841 142.004C193.841 142.004 193.717 142.015 193.475 142.018C193.221 142.021 192.864 142.024 192.399 142.029C191.443 142.031 190.052 142.035 188.265 142.04C184.663 142.035 179.47 142.028 173.057 142.019C166.632 141.999 158.987 141.975 150.498 141.949C146.252 141.932 141.796 141.915 137.176 141.897C136.598 141.894 136.018 141.892 135.436 141.889L134.56 141.886C134.265 141.901 133.904 141.83 133.637 141.64C133.365 141.453 133.161 141.169 133.073 140.848C132.984 140.511 133.037 140.218 133.024 139.924C133.026 139.333 133.028 138.738 133.031 138.141C133.035 136.948 133.041 135.746 133.045 134.536C133.052 133.924 133.04 133.342 133.063 132.699C133.129 132.006 133.776 131.436 134.474 131.453C154.063 131.561 171.799 131.66 184.65 131.731C187.86 131.754 190.763 131.775 193.316 131.794C193.631 131.811 193.95 131.76 194.275 131.86C194.59 131.958 194.856 132.174 195.018 132.443C195.191 132.708 195.228 133.045 195.211 133.323C195.208 133.608 195.207 133.887 195.204 134.161C195.194 135.252 195.185 136.25 195.178 137.149C195.168 138.046 195.16 138.843 195.153 139.535C195.149 139.88 195.145 140.199 195.142 140.491C195.148 140.779 195.13 141.063 195.018 141.281C194.806 141.728 194.434 141.904 194.206 141.968C193.968 142.027 193.841 142.004 193.841 142.004Z" fill="#E0E0E0"/>
<path d="M148.614 151.614L133.132 151.543L133.119 154.384L148.601 154.455L148.614 151.614Z" fill="#4692B6"/>
<path opacity="0.1" d="M148.614 151.614L133.132 151.543L133.119 154.384L148.601 154.455L148.614 151.614Z" fill="black"/>
<path d="M193.726 169.042C193.726 169.031 193.853 169.042 194.083 168.975C194.302 168.903 194.654 168.722 194.846 168.292C194.949 168.08 194.959 167.823 194.95 167.529C194.949 167.236 194.948 166.917 194.946 166.572C194.945 165.88 194.944 165.082 194.942 164.186C194.942 163.287 194.942 162.289 194.941 161.197C194.941 160.924 194.942 160.645 194.942 160.36C194.954 160.072 194.92 159.806 194.766 159.566C194.621 159.33 194.386 159.143 194.112 159.058C193.842 158.973 193.52 159.02 193.201 159.006C190.649 159.001 187.745 158.996 184.535 158.99C171.683 158.942 153.948 158.876 134.359 158.804C133.814 158.79 133.312 159.234 133.259 159.772C133.241 160.345 133.25 160.977 133.244 161.575C133.239 162.784 133.234 163.986 133.229 165.179C133.226 165.775 133.223 166.369 133.221 166.962C133.231 167.257 133.188 167.566 133.258 167.802C133.326 168.052 133.485 168.274 133.698 168.419C133.919 168.568 134.158 168.623 134.447 168.612L135.322 168.616C135.905 168.619 136.485 168.622 137.063 168.625C141.683 168.65 146.139 168.673 150.385 168.696C158.874 168.748 166.519 168.794 172.943 168.834C179.356 168.884 184.549 168.925 188.151 168.953C189.938 168.974 191.329 168.991 192.286 169.002C192.75 169.011 193.107 169.017 193.361 169.023C193.602 169.031 193.726 169.042 193.726 169.042C193.726 169.042 193.602 169.052 193.36 169.056C193.106 169.058 192.749 169.062 192.285 169.067C191.328 169.069 189.937 169.073 188.15 169.077C184.548 169.072 179.355 169.065 172.942 169.057C166.517 169.037 158.872 169.013 150.383 168.986C146.137 168.97 141.681 168.952 137.061 168.934C136.483 168.932 135.903 168.929 135.321 168.926L134.445 168.923C134.15 168.938 133.789 168.867 133.522 168.677C133.25 168.49 133.046 168.206 132.958 167.885C132.869 167.548 132.922 167.254 132.909 166.961C132.911 166.37 132.914 165.775 132.916 165.179C132.921 163.986 132.926 162.783 132.931 161.574C132.938 160.962 132.926 160.38 132.948 159.736C133.015 159.043 133.662 158.473 134.36 158.491C153.949 158.6 171.684 158.698 184.536 158.769C187.745 158.792 190.649 158.813 193.202 158.832C193.517 158.848 193.835 158.798 194.161 158.898C194.475 158.996 194.741 159.211 194.904 159.481C195.077 159.746 195.114 160.083 195.096 160.362C195.094 160.646 195.092 160.925 195.089 161.198C195.08 162.29 195.071 163.288 195.063 164.187C195.054 165.083 195.046 165.881 195.039 166.574C195.034 166.918 195.03 167.238 195.027 167.53C195.032 167.817 195.015 168.101 194.902 168.319C194.69 168.766 194.318 168.942 194.091 169.006C193.853 169.064 193.726 169.042 193.726 169.042Z" fill="#E0E0E0"/>
<path d="M165.724 135.558L137.404 135.428L137.392 138.084L165.712 138.214L165.724 135.558Z" fill="#4692B6"/>
<path opacity="0.2" d="M165.724 135.558L137.404 135.428L137.392 138.084L165.712 138.214L165.724 135.558Z" fill="white"/>
<path d="M139.972 164.128C139.969 164.857 139.412 165.446 138.728 165.443C138.044 165.439 137.493 164.845 137.496 164.116C137.499 163.387 138.055 162.798 138.739 162.802C139.423 162.805 139.975 163.398 139.972 164.128Z" fill="#4692B6"/>
<path d="M143.808 164.146C143.805 164.875 143.248 165.464 142.564 165.461C141.88 165.458 141.329 164.864 141.332 164.134C141.335 163.405 141.892 162.817 142.576 162.82C143.26 162.822 143.811 163.416 143.808 164.146Z" fill="#4692B6"/>
<path d="M147.645 164.163C147.642 164.892 147.085 165.482 146.401 165.478C145.717 165.475 145.166 164.882 145.169 164.152C145.172 163.423 145.729 162.834 146.413 162.837C147.096 162.84 147.648 163.434 147.645 164.163Z" fill="#4692B6"/>
<path d="M151.481 164.181C151.478 164.91 150.921 165.499 150.238 165.495C149.554 165.492 149.002 164.899 149.005 164.169C149.008 163.44 149.565 162.851 150.249 162.855C150.932 162.858 151.484 163.452 151.481 164.181Z" fill="#4692B6"/>
<path d="M155.318 164.198C155.315 164.928 154.758 165.517 154.074 165.513C153.39 165.51 152.838 164.916 152.841 164.187C152.845 163.458 153.402 162.869 154.085 162.872C154.769 162.876 155.32 163.469 155.318 164.198Z" fill="#4692B6"/>
<path d="M159.154 164.216C159.151 164.946 158.594 165.535 157.91 165.531C157.226 165.528 156.675 164.935 156.678 164.206C156.681 163.476 157.238 162.888 157.921 162.89C158.605 162.893 159.157 163.487 159.154 164.216Z" fill="#4692B6"/>
<path d="M162.991 164.234C162.988 164.963 162.431 165.552 161.747 165.549C161.064 165.545 160.512 164.952 160.515 164.223C160.518 163.493 161.075 162.905 161.758 162.908C162.442 162.911 162.994 163.505 162.991 164.234Z" fill="#4692B6"/>
<path d="M166.827 164.251C166.824 164.981 166.267 165.57 165.584 165.567C164.9 165.563 164.348 164.97 164.352 164.24C164.355 163.511 164.911 162.923 165.595 162.926C166.279 162.929 166.83 163.522 166.827 164.251Z" fill="#4692B6"/>
<path d="M170.664 164.27C170.661 164.999 170.104 165.588 169.42 165.585C168.737 165.582 168.185 164.988 168.188 164.258C168.191 163.529 168.748 162.941 169.431 162.944C170.115 162.946 170.667 163.54 170.664 164.27Z" fill="#4692B6"/>
<g opacity="0.2">
<path d="M139.972 164.128C139.969 164.857 139.412 165.446 138.728 165.443C138.044 165.439 137.493 164.845 137.496 164.116C137.499 163.387 138.055 162.798 138.739 162.802C139.423 162.805 139.975 163.398 139.972 164.128Z" fill="white"/>
<path d="M143.808 164.146C143.805 164.875 143.248 165.464 142.564 165.461C141.88 165.458 141.329 164.864 141.332 164.134C141.335 163.405 141.892 162.817 142.576 162.82C143.26 162.822 143.811 163.416 143.808 164.146Z" fill="white"/>
<path d="M147.645 164.163C147.642 164.892 147.085 165.482 146.401 165.478C145.717 165.475 145.166 164.882 145.169 164.152C145.172 163.423 145.729 162.834 146.413 162.837C147.096 162.84 147.648 163.434 147.645 164.163Z" fill="white"/>
<path d="M151.481 164.181C151.478 164.91 150.921 165.499 150.238 165.495C149.554 165.492 149.002 164.899 149.005 164.169C149.008 163.44 149.565 162.851 150.249 162.855C150.932 162.858 151.484 163.452 151.481 164.181Z" fill="white"/>
<path d="M155.318 164.198C155.315 164.928 154.758 165.517 154.074 165.513C153.39 165.51 152.838 164.916 152.841 164.187C152.845 163.458 153.402 162.869 154.085 162.872C154.769 162.876 155.32 163.469 155.318 164.198Z" fill="white"/>
<path d="M159.154 164.216C159.151 164.946 158.594 165.535 157.91 165.531C157.226 165.528 156.675 164.935 156.678 164.206C156.681 163.476 157.238 162.888 157.921 162.89C158.605 162.893 159.157 163.487 159.154 164.216Z" fill="white"/>
<path d="M162.991 164.234C162.988 164.963 162.431 165.552 161.747 165.549C161.064 165.545 160.512 164.952 160.515 164.223C160.518 163.493 161.075 162.905 161.758 162.908C162.442 162.911 162.994 163.505 162.991 164.234Z" fill="white"/>
<path d="M166.827 164.251C166.824 164.981 166.267 165.57 165.584 165.567C164.9 165.563 164.348 164.97 164.352 164.24C164.355 163.511 164.911 162.923 165.595 162.926C166.279 162.929 166.83 163.522 166.827 164.251Z" fill="white"/>
<path d="M170.664 164.27C170.661 164.999 170.104 165.588 169.42 165.585C168.737 165.582 168.185 164.988 168.188 164.258C168.191 163.529 168.748 162.941 169.431 162.944C170.115 162.946 170.667 163.54 170.664 164.27Z" fill="white"/>
</g>
<path d="M165.215 77.3607C166.025 77.0206 166.601 76.1856 166.606 75.2014C166.611 73.9119 165.635 72.862 164.426 72.856C163.217 72.8506 162.232 73.8914 162.228 75.1809C162.223 76.1742 162.804 77.02 163.622 77.3607C160.253 77.8682 160.406 81.5302 160.406 81.5302L168.373 81.5669C168.373 81.5669 168.555 77.8652 165.215 77.3607Z" fill="#4692B6"/>
<path opacity="0.1" d="M165.215 77.3607C166.025 77.0206 166.601 76.1856 166.606 75.2014C166.611 73.9119 165.635 72.862 164.426 72.856C163.217 72.8506 162.232 73.8914 162.228 75.1809C162.223 76.1742 162.804 77.02 163.622 77.3607C160.253 77.8682 160.406 81.5302 160.406 81.5302L168.373 81.5669C168.373 81.5669 168.555 77.8652 165.215 77.3607Z" fill="black"/>
<path d="M178.165 83.9622L149.755 83.8315L149.739 87.2286L178.15 87.3593L178.165 83.9622Z" fill="#4692B6"/>
<path opacity="0.2" d="M178.165 83.9622L149.755 83.8315L149.739 87.2286L178.15 87.3593L178.165 83.9622Z" fill="white"/>
<path d="M73.7243 101.544C73.7243 101.55 73.6292 101.56 73.445 101.575C73.2457 101.589 72.9742 101.609 72.6257 101.635C72.2638 101.641 71.8238 101.72 71.3049 101.811C71.0466 101.863 70.7613 101.884 70.4699 101.971C70.1773 102.052 69.8661 102.138 69.5368 102.229C68.2377 102.639 66.6731 103.291 65.0976 104.432C63.5264 105.563 61.9546 107.182 60.7295 109.294C60.0854 110.332 59.6182 111.53 59.1986 112.79C58.8573 114.073 58.5551 115.435 58.5322 116.871C58.4684 117.586 58.5406 118.314 58.5707 119.053C58.59 119.423 58.6695 119.789 58.717 120.161C58.7676 120.534 58.8224 120.908 58.9283 121.276C59.2329 122.773 59.8428 124.24 60.6139 125.645C62.1556 128.468 64.7467 130.899 67.9463 132.308C69.547 133.015 71.3169 133.396 73.1169 133.47C74.9187 133.584 76.7644 133.294 78.5138 132.693L79.043 132.499L79.1128 132.473L79.176 132.505C81.7664 133.821 84.3069 135.11 86.7685 136.36L86.5427 136.553C85.7318 134.036 84.9462 131.597 84.1919 129.256L84.163 129.165L84.2298 129.099C86.1436 127.182 87.477 124.854 88.2163 122.471C88.9573 120.081 89.0838 117.646 88.7948 115.415C88.5058 113.179 87.775 111.146 86.8004 109.435C85.8263 107.72 84.6151 106.326 83.372 105.238C82.1144 104.157 80.8105 103.425 79.642 102.865C78.4452 102.364 77.3784 102.043 76.4917 101.872C76.0486 101.796 75.6543 101.729 75.3106 101.671C74.9698 101.647 74.6797 101.627 74.4395 101.61C74.2155 101.593 74.0391 101.579 73.9055 101.569C73.7857 101.556 73.7243 101.549 73.7243 101.544C73.7243 101.54 73.7857 101.538 73.9061 101.54C74.0398 101.544 74.2167 101.549 74.4419 101.555C74.6833 101.565 74.9759 101.577 75.319 101.591C75.6658 101.642 76.0637 101.701 76.511 101.768C77.4067 101.925 78.4873 102.232 79.7028 102.725C80.8887 103.277 82.2155 104.005 83.4978 105.089C84.7656 106.18 86.0027 107.584 87.0014 109.319C88.0002 111.048 88.7539 113.109 89.0573 115.379C89.3607 117.644 89.2415 120.119 88.495 122.554C87.7503 124.982 86.3982 127.358 84.4502 129.316L84.4881 129.159C85.2454 131.498 86.0352 133.937 86.8497 136.452L86.9689 136.82L86.624 136.645C84.1612 135.397 81.6207 134.109 79.0291 132.795L79.1622 132.801L78.6216 133C76.833 133.615 74.9452 133.91 73.1036 133.793C71.2645 133.716 69.4549 133.325 67.8205 132.601C64.5522 131.158 61.916 128.671 60.3526 125.792C59.57 124.358 58.9554 122.862 58.649 121.338C58.543 120.964 58.4889 120.583 58.4383 120.203C58.3913 119.825 58.3125 119.451 58.2938 119.076C58.2655 118.325 58.1951 117.585 58.2631 116.858C58.2926 115.399 58.605 114.016 58.959 112.716C59.3913 111.439 59.8729 110.226 60.532 109.177C61.7872 107.042 63.3922 105.414 64.9929 104.283C66.5972 103.143 68.1859 102.502 69.5019 102.107C69.8348 102.021 70.1502 101.938 70.4464 101.861C70.7408 101.779 71.0291 101.762 71.2898 101.715C71.8142 101.633 72.2572 101.564 72.6214 101.569C72.9718 101.557 73.2451 101.549 73.4456 101.541C73.6298 101.538 73.7243 101.538 73.7243 101.544Z" fill="#4692B6"/>
<path d="M77.1576 115.6H76.0451L73.6172 112.216V109.995C73.6172 109.995 71.8979 109.889 72.0996 112.798C72.3018 115.706 72.0833 114.965 72.0833 114.965C72.0833 114.965 68.4322 114.979 68.1288 115.297C67.9078 115.527 67.8085 119.154 67.77 121.121C67.7507 122.111 68.3581 123.032 69.2792 123.266C69.4098 123.3 69.5423 123.319 69.6723 123.319C70.5831 123.319 75.236 122.579 75.236 122.579H77.1576V115.6Z" fill="#4692B6"/>
<path d="M80.3421 114.99L79.6583 122.6H77.7529V115.144L80.3421 114.99Z" fill="#4692B6"/>
<path d="M103.032 269.902V264.751L93.803 264.689L93.7266 272.47L94.2985 272.513C96.8443 272.677 107.254 272.917 108.96 272.389C110.863 271.801 103.032 269.902 103.032 269.902Z" fill="#4692B6"/>
<path d="M109.178 271.906C109.178 271.993 105.726 272.063 101.468 272.063C97.2091 272.063 93.7578 271.993 93.7578 271.906C93.7578 271.819 97.2091 271.75 101.468 271.75C105.726 271.75 109.178 271.82 109.178 271.906Z" fill="#263238"/>
<path d="M103.194 270.953C103.119 270.913 103.184 270.641 103.382 270.373C103.579 270.104 103.82 269.96 103.881 270.021C103.943 270.083 103.816 270.31 103.634 270.559C103.451 270.806 103.272 270.995 103.194 270.953Z" fill="#263238"/>
<path d="M103.783 271.293C103.703 271.262 103.745 270.957 103.926 270.636C104.106 270.314 104.347 270.122 104.413 270.174C104.483 270.228 104.366 270.491 104.198 270.79C104.03 271.089 103.866 271.324 103.783 271.293Z" fill="#263238"/>
<path d="M96.5386 271.883C96.5025 271.908 96.3652 271.773 96.1654 271.547C95.9643 271.322 95.7012 271.004 95.3557 270.736C95.0131 270.468 94.6357 270.334 94.3569 270.299C94.0764 270.261 93.8922 270.305 93.8765 270.26C93.8603 270.226 94.0319 270.098 94.3648 270.078C94.6923 270.055 95.1552 270.18 95.5471 270.487C95.9366 270.791 96.1858 271.153 96.3441 271.416C96.5019 271.681 96.5729 271.859 96.5386 271.883Z" fill="#263238"/>
<path d="M103.222 269.985C103.268 270.058 103.109 270.237 102.846 270.333C102.582 270.43 102.345 270.396 102.333 270.312C102.319 270.225 102.507 270.125 102.737 270.039C102.968 269.954 103.177 269.91 103.222 269.985Z" fill="#263238"/>
<path d="M103.078 269.487C103.086 269.574 102.84 269.648 102.529 269.651C102.217 269.656 101.969 269.589 101.976 269.502C101.982 269.415 102.227 269.342 102.525 269.338C102.822 269.334 103.07 269.401 103.078 269.487Z" fill="#263238"/>
<path d="M125.759 269.902L125.759 264.751L116.53 264.689L116.454 272.391L117.026 272.433C119.571 272.598 129.981 272.917 131.687 272.389C133.59 271.801 125.759 269.902 125.759 269.902Z" fill="#4692B6"/>
<path d="M131.905 271.918C131.905 272.004 128.453 272.075 124.195 272.075C119.936 272.075 116.485 272.005 116.485 271.918C116.485 271.831 119.936 271.761 124.195 271.761C128.453 271.761 131.905 271.831 131.905 271.918Z" fill="#263238"/>
<path d="M125.921 270.953C125.846 270.913 125.911 270.641 126.109 270.373C126.307 270.104 126.548 269.96 126.608 270.021C126.67 270.083 126.544 270.31 126.361 270.559C126.178 270.806 125.998 270.995 125.921 270.953Z" fill="#263238"/>
<path d="M126.51 271.293C126.43 271.262 126.472 270.957 126.653 270.636C126.833 270.314 127.074 270.122 127.14 270.174C127.21 270.228 127.093 270.491 126.926 270.79C126.758 271.089 126.592 271.324 126.51 271.293Z" fill="#263238"/>
<path d="M119.265 271.883C119.229 271.908 119.092 271.773 118.892 271.547C118.691 271.322 118.428 271.004 118.082 270.736C117.74 270.468 117.363 270.334 117.084 270.299C116.803 270.261 116.619 270.305 116.603 270.26C116.587 270.226 116.758 270.098 117.091 270.078C117.418 270.055 117.882 270.18 118.273 270.487C118.663 270.791 118.911 271.153 119.07 271.416C119.229 271.681 119.3 271.859 119.265 271.883Z" fill="#263238"/>
<path d="M125.949 269.985C125.995 270.058 125.836 270.237 125.573 270.333C125.31 270.43 125.073 270.396 125.06 270.312C125.046 270.225 125.234 270.125 125.464 270.039C125.695 269.954 125.904 269.91 125.949 269.985Z" fill="#263238"/>
<path d="M125.805 269.487C125.813 269.574 125.567 269.648 125.255 269.651C124.944 269.656 124.696 269.589 124.702 269.502C124.708 269.415 124.955 269.342 125.252 269.338C125.549 269.334 125.796 269.401 125.805 269.487Z" fill="#263238"/>
<path d="M159.758 117.056C159.517 116.808 158.925 116.925 158.925 116.925C158.925 116.925 159.028 116.221 158.919 115.881C158.81 115.541 158.051 115.607 158.051 115.607C158.051 115.607 158.004 115.279 158.07 114.751C158.087 114.618 158.014 114.521 157.894 114.448C157.535 114.23 156.76 114.241 156.76 114.241C156.295 113.908 158.176 111.279 158.873 110.437C159.562 109.606 159.446 108.939 158.824 108.941C158.4 108.941 156.205 111.469 155.535 112.318C154.865 113.166 153.069 115.527 153.008 113.643C152.947 111.759 152.19 110.334 151.717 110.092C151.244 109.849 150.733 110.419 150.995 110.942C151.207 111.364 151.341 112.179 151.416 112.795C151.479 113.303 151.458 113.818 151.347 114.317C151.033 115.728 150.695 116.644 150.537 117.036L150.491 117.011C150.491 117.011 137.351 129.61 136.404 130.509C135.551 131.318 118.477 129.552 115.057 129.189C114.122 129.084 112.737 128.896 111.537 128.949C110.054 129.014 109.79 129.225 108.305 129.245C103.757 129.306 99.9676 129.748 97.1472 130.226C93.7375 130.802 90.9418 133.23 89.8865 136.523C86.434 147.297 78.6237 172.805 77.2318 187.135C76.1356 189.196 74.9105 191.603 74.4127 192.958C73.4452 195.592 73.68 195.681 74.0063 195.742C74.8816 195.904 75.8833 191.174 76.2572 192.315C76.6316 193.457 74.3597 197.958 75.2813 198.09C76.4829 198.261 77.4407 193.291 77.5527 192.876C77.6617 192.473 78.2679 192.609 78.1469 192.978C77.9723 193.509 76.2783 199.125 77.457 199.305C78.1101 199.405 78.1806 198.215 78.1806 198.215C78.1806 198.215 79.3786 192.843 79.9318 192.947C80.4941 193.052 79.8969 196.23 79.6194 197.287C79.3455 198.331 79.7313 198.886 80.2948 198.624C80.6789 198.444 81.6042 195.226 81.8534 194.174C82.1032 193.123 82.7359 190.225 83.586 191.907C84.436 193.589 85.7225 194.562 86.254 194.583C86.785 194.604 87.0077 193.872 86.5496 193.508C86.1794 193.214 85.7146 192.532 85.3859 192.005C85.115 191.571 84.9164 191.095 84.8068 190.596C84.3836 188.669 84.3872 187.549 84.3872 187.549L84.2891 186.93C85.637 180.252 89.5229 160.66 95.1046 148.143L97.4031 152.873L98.4006 156.374L92.2752 171.508L118.41 171.164L114.514 156.15L119.247 140.495H119.247C124.37 140.61 137.528 140.8 139.739 139.812C142.495 138.58 156.762 120.596 156.762 120.596H156.762C157.725 119.828 158.705 119.003 159.428 118.283C159.43 118.281 160.28 117.593 159.758 117.056Z" fill="#FFBE9D"/>
<path d="M91.1382 160.365C91.8949 157.777 95.7911 144.98 95.7911 144.98C95.7911 144.98 97.703 155.413 97.2004 156.67C96.6213 158.117 95.5569 159.774 95.5569 159.774C91.1382 166.504 91.7179 169.867 91.7179 169.867L118.411 169.053C118.476 165.32 116.266 156.641 115.804 155.258C115.342 153.876 116.874 149.337 116.874 149.337C116.874 149.337 119.891 146.274 119.774 144.697C119.539 141.521 119.248 140.495 119.248 140.495L135.49 141.093L134.98 130.072L111.632 127.736C110.824 130.035 103.472 128.908 103.472 128.908C95.5346 129.169 95.0542 130.629 91.7438 133.192C88.434 135.754 82.9829 157.765 82.9829 157.765L91.1382 160.365Z" fill="#4692B6"/>
<path d="M106.925 157.762C106.924 157.804 106.387 157.839 105.518 157.833C104.649 157.828 103.448 157.774 102.128 157.642C100.808 157.508 99.6211 157.322 98.768 157.154C97.9156 156.987 97.3961 156.845 97.4039 156.804C97.4123 156.761 97.9451 156.825 98.8035 156.936C99.662 157.047 100.847 157.198 102.16 157.329C103.472 157.461 104.663 157.55 105.526 157.612C106.39 157.674 106.925 157.717 106.925 157.762Z" fill="#263238"/>
<path d="M108.752 155.492C108.763 155.53 108.212 155.739 107.294 155.989C106.377 156.237 105.088 156.512 103.645 156.685C102.202 156.855 100.885 156.89 99.9341 156.863C98.9829 156.836 98.399 156.76 98.4014 156.721C98.4032 156.675 98.9895 156.671 99.9335 156.641C100.877 156.612 102.179 156.542 103.608 156.373C105.036 156.203 106.318 155.965 107.243 155.773C108.168 155.58 108.739 155.447 108.752 155.492Z" fill="#263238"/>
<path d="M117.73 145.366C117.772 145.375 117.703 145.895 117.548 146.728C117.393 147.56 117.149 148.704 116.841 149.959C116.533 151.214 116.221 152.341 115.973 153.151C115.726 153.961 115.546 154.454 115.505 154.443C115.463 154.431 115.567 153.917 115.759 153.094C115.986 152.154 116.248 151.075 116.537 149.884C116.832 148.696 117.099 147.619 117.332 146.68C117.542 145.86 117.688 145.357 117.73 145.366Z" fill="#263238"/>
<path d="M91.4179 158.832C91.3951 158.916 89.5541 158.486 87.3063 157.873C85.0578 157.259 83.2542 156.695 83.2771 156.611C83.2999 156.527 85.1403 156.957 87.3887 157.57C89.6366 158.184 91.4408 158.749 91.4179 158.832Z" fill="#263238"/>
<path d="M119.543 140.353C119.543 140.368 119.295 140.394 118.851 140.35C118.41 140.305 117.764 140.202 117.016 139.912C116.267 139.632 115.416 139.163 114.621 138.454C113.825 137.747 113.114 136.776 112.661 135.633C112.201 134.49 112.049 133.299 112.122 132.239C112.192 131.181 112.472 130.224 112.946 129.554C113.415 128.875 114.037 128.546 114.469 128.433C114.689 128.374 114.866 128.36 114.984 128.363C115.102 128.366 115.163 128.38 115.163 128.389C115.164 128.419 114.913 128.405 114.506 128.549C114.106 128.692 113.544 129.03 113.13 129.678C112.311 130.966 112.082 133.318 112.953 135.517C113.389 136.616 114.061 137.549 114.816 138.24C115.57 138.935 116.381 139.408 117.099 139.707C118.545 140.307 119.553 140.287 119.543 140.353Z" fill="#263238"/>
<path d="M133.574 140.872C133.488 140.872 133.423 138.389 133.429 135.325C133.435 132.26 133.51 129.778 133.596 129.778C133.683 129.778 133.748 132.261 133.742 135.326C133.736 138.389 133.661 140.873 133.574 140.872Z" fill="#263238"/>
<path d="M111.489 128.407C111.555 127.063 111.696 125.546 111.696 125.546C111.696 125.546 115.017 125.18 115.219 121.748C115.421 118.316 115.219 110.402 115.219 110.402L109.168 107.321L102.513 112.574L103.521 129.731L109.645 130.121C110.611 130.182 111.44 129.413 111.489 128.407Z" fill="#FFBE9D"/>
<path d="M112.088 119.033C112.097 119.036 112.098 119.098 112.035 119.181C111.974 119.261 111.84 119.353 111.653 119.349C111.267 119.331 110.896 118.904 110.76 118.384C110.691 118.12 110.691 117.852 110.743 117.621C110.784 117.395 110.915 117.166 111.104 117.104C111.195 117.071 111.289 117.074 111.36 117.11C111.431 117.146 111.474 117.199 111.496 117.249C111.542 117.351 111.507 117.413 111.498 117.408C111.484 117.408 111.487 117.351 111.437 117.287C111.389 117.221 111.276 117.162 111.151 117.227C111.023 117.284 110.936 117.447 110.903 117.656C110.865 117.863 110.87 118.101 110.931 118.337C111.051 118.803 111.375 119.184 111.662 119.219C111.804 119.237 111.922 119.182 111.986 119.13C112.052 119.076 112.075 119.027 112.088 119.033Z" fill="#EB996E"/>
<path d="M117.282 108.55C116.82 106.97 115.14 106.185 113.61 105.752C111.282 105.092 108.76 104.8 106.486 105.637C104.212 106.475 101.476 107.948 101.477 110.461C100.134 110.35 99.3674 111.526 98.8347 112.984C98.5198 113.844 98.3127 114.803 98.264 115.752L98.2417 115.745C98.0689 119.034 97.1527 123.565 95.0204 125.998C93.8429 127.341 92.1476 128.268 91.4614 129.941C90.8648 131.395 91.1736 133.113 90.6095 134.581C90.1117 135.877 89.0094 136.796 88.219 137.923C86.4979 140.378 86.3805 143.846 87.6453 146.586C88.9101 149.326 91.4162 151.331 94.1981 152.249C96.9799 153.168 100.01 153.067 102.842 152.33C104.932 151.786 106.965 150.885 108.631 149.461C110.297 148.038 111.575 146.059 111.956 143.849C112.38 141.39 111.692 138.893 111.185 136.451C109.584 128.724 110.042 128.323 112.062 121.155C112.108 121.029 112.136 120.897 112.171 120.767C112.198 120.672 112.224 120.581 112.251 120.483L112.247 120.482C112.303 120.202 112.34 119.916 112.341 119.625C111.756 119.855 111.049 119.702 110.6 119.248C110.152 118.794 109.984 118.062 110.188 117.446C110.423 116.738 111.073 116.265 111.741 115.983C112.409 115.702 113.127 115.563 113.782 115.252C115.172 114.59 116.136 113.218 116.792 111.78C117.252 110.771 117.595 109.617 117.282 108.55Z" fill="#263238"/>
<path d="M112.325 119.179C112.346 119.17 112.463 119.394 112.642 119.774C112.821 120.154 113.06 120.69 113.327 121.307L113.377 121.424L113.249 121.435C113.049 121.452 112.846 121.469 112.637 121.488C112.216 121.515 111.866 121.565 111.459 121.561C111.395 121.55 111.323 121.491 111.304 121.424C111.282 121.359 111.288 121.305 111.295 121.257C111.312 121.162 111.333 121.093 111.351 121.013L111.458 120.586C111.591 120.066 111.686 119.747 111.711 119.753C111.737 119.759 111.687 120.088 111.587 120.615L111.504 121.046C111.473 121.191 111.42 121.409 111.498 121.392C111.798 121.379 112.225 121.329 112.621 121.3C112.83 121.283 113.033 121.267 113.234 121.251L113.157 121.379C112.899 120.759 112.681 120.213 112.531 119.821C112.384 119.429 112.304 119.188 112.325 119.179Z" fill="#4692B6"/>
<path d="M91.7178 169.867L118.411 169.053L130.02 214.408L127.882 266.432H113.753L115.504 215.515L105.179 183.943L106.77 268.449L92.5059 268.66L91.0033 189.227C90.9407 187.02 90.214 182.039 90.4843 179.849L91.7178 169.867Z" fill="#263238"/>
<path d="M108.734 184.584C108.729 184.625 108.228 184.601 107.425 184.506C106.622 184.412 105.517 184.242 104.307 183.999C103.097 183.755 102.013 183.485 101.235 183.261C100.458 183.037 99.9869 182.867 99.9977 182.826C100.022 182.739 101.96 183.209 104.369 183.692C106.776 184.179 108.745 184.494 108.734 184.584Z" fill="#455A64"/>
<path d="M127.754 263.578C127.754 263.666 124.555 263.736 120.61 263.736C116.664 263.736 113.466 263.666 113.466 263.578C113.466 263.492 116.664 263.422 120.61 263.422C124.555 263.422 127.754 263.492 127.754 263.578Z" fill="#455A64"/>
<path d="M106.642 266.254C106.642 266.341 103.539 266.411 99.7116 266.411C95.8835 266.411 92.7808 266.341 92.7808 266.254C92.7808 266.167 95.8835 266.097 99.7116 266.097C103.539 266.097 106.642 266.167 106.642 266.254Z" fill="#455A64"/>
<path d="M104.805 266.037C104.718 266.038 104.343 247.572 103.967 224.798C103.59 202.015 103.356 183.551 103.442 183.55C103.529 183.548 103.904 202.01 104.28 224.793C104.657 247.568 104.891 266.035 104.805 266.037Z" fill="#455A64"/>
<path d="M125.856 263.578C125.851 263.578 125.849 263.495 125.85 263.333C125.853 263.155 125.857 262.917 125.863 262.612C125.881 261.961 125.909 261.03 125.943 259.84C126.027 257.417 126.148 253.939 126.297 249.648C126.626 241.029 127.081 229.148 127.583 216.026C127.588 215.905 127.592 215.784 127.597 215.672L127.601 215.716C124.438 203.048 121.578 191.598 119.505 183.297C118.488 179.162 117.664 175.811 117.089 173.476C116.814 172.329 116.599 171.431 116.448 170.804C116.381 170.51 116.328 170.279 116.289 170.108C116.255 169.95 116.24 169.869 116.245 169.868C116.25 169.867 116.275 169.946 116.32 170.1C116.366 170.269 116.429 170.498 116.509 170.79C116.673 171.414 116.907 172.307 117.207 173.448C117.804 175.776 118.661 179.118 119.719 183.244C121.815 191.539 124.706 202.982 127.905 215.64L127.91 215.662L127.91 215.685C127.905 215.796 127.9 215.917 127.896 216.039C127.358 229.16 126.871 241.038 126.518 249.657C126.327 253.946 126.172 257.422 126.064 259.845C126.004 261.034 125.958 261.964 125.925 262.615C125.907 262.919 125.892 263.158 125.881 263.335C125.87 263.497 125.862 263.579 125.856 263.578Z" fill="#455A64"/>
<path d="M121.251 214.613C121.266 214.699 119.868 215.009 118.13 215.308C116.832 215.531 115.711 215.684 115.222 215.712L115.221 215.59C115.384 215.634 115.471 215.669 115.467 215.691C115.464 215.713 115.37 215.719 115.202 215.712L114.837 215.696L115.201 215.59C115.672 215.452 116.78 215.223 118.077 215C119.815 214.701 121.236 214.527 121.251 214.613Z" fill="#455A64"/>
<path d="M120.981 216.344C120.969 216.431 119.715 216.334 118.171 216.216C116.627 216.094 115.373 215.996 115.375 215.907C115.376 215.822 116.641 215.781 118.195 215.903C119.749 216.023 120.992 216.26 120.981 216.344Z" fill="#455A64"/>
<path opacity="0.2" d="M91.5991 170.826C92.2445 171.734 93.1649 172.053 94.2347 172.228C95.3038 172.403 96.3953 172.286 97.4716 172.166C104.362 171.402 111.663 170.697 118.41 169.053C109.676 169.542 100.452 169.377 91.7177 169.867C91.7177 169.867 91.6431 170.467 91.6256 170.612" fill="black"/>
<g opacity="0.2">
<path d="M100.603 183.137L105.523 202.241L105.179 183.942L100.603 183.137Z" fill="black"/>
</g>
</svg>
