<svg width="20" height="20" viewBox="0 0 20 20" fill="none" xmlns="http://www.w3.org/2000/svg">
<path d="M8.008 4.88325C6.8705 5.33741 6.30217 5.56491 6.23301 6.03575C6.16467 6.50658 6.64134 6.90991 7.5955 7.71575L7.84217 7.92408C8.11301 8.15325 8.24801 8.26825 8.32551 8.42408C8.40384 8.57991 8.41467 8.75991 8.43717 9.11991L8.45717 9.44741C8.53467 10.7141 8.57384 11.3474 8.98551 11.5657C9.39717 11.7841 9.90884 11.4432 10.9322 10.7607L11.1972 10.5841C11.488 10.3899 11.633 10.2924 11.7997 10.2666C11.9663 10.2399 12.1347 10.2866 12.4713 10.3799L12.778 10.4649C13.963 10.7932 14.5555 10.9574 14.878 10.6216C15.2013 10.2857 15.0405 9.67158 14.7197 8.44408M14.9997 6.52908C15.6547 5.46575 15.9813 4.93408 15.7697 4.50741C15.558 4.08241 14.9463 4.04325 13.7247 3.96741L13.408 3.94741C13.0613 3.92575 12.888 3.91491 12.7372 3.83491C12.5863 3.75491 12.4755 3.61491 12.2538 3.33491L12.0513 3.07991C11.2713 2.09408 10.8805 1.60075 10.4263 1.67325C9.973 1.74658 9.7555 2.33658 9.32134 3.51741" stroke="#545454" stroke-width="1.5" stroke-linecap="round"/>
<path d="M6.20482 6.03418C4.25898 7.45751 2.76982 10.18 3.53982 15.0008C4.22232 12.9908 6.27815 11.3817 8.57565 10.6067" stroke="#545454" stroke-width="1.5" stroke-linecap="round" stroke-linejoin="round"/>
<path d="M8.56602 13.3333C8.56602 13.3333 9.09435 14.4917 9.74435 14.8917C10.3943 15.2892 11.666 15.2333 11.666 15.2333C11.666 15.2333 10.5077 15.7608 10.1077 16.4108C9.70935 17.0608 9.76602 18.3333 9.76602 18.3333C9.76602 18.3333 9.23768 17.175 8.58768 16.775C7.93852 16.3783 6.66602 16.4333 6.66602 16.4333C6.66602 16.4333 7.82435 15.9058 8.22435 15.2558C8.62268 14.6058 8.56602 13.3333 8.56602 13.3333ZM15.3993 12.5C15.3993 12.5 15.0477 13.2725 14.6143 13.5383C14.181 13.8042 13.3327 13.7667 13.3327 13.7667C13.3327 13.7667 14.1052 14.1183 14.371 14.5517C14.6368 14.985 14.5993 15.8333 14.5993 15.8333C14.5993 15.8333 14.951 15.0608 15.3843 14.795C15.8177 14.5292 16.666 14.5667 16.666 14.5667C16.666 14.5667 15.8935 14.215 15.6277 13.7817C15.3618 13.3483 15.3993 12.5 15.3993 12.5Z" stroke="#545454" stroke-linejoin="round"/>
</svg>
