<svg width="20" height="20" viewBox="0 0 20 20" fill="none" xmlns="http://www.w3.org/2000/svg">
<path d="M10 0.7752L9.99919 3.203e-08L0.7752 10C0.773937 8.78823 1.01168 7.5881 1.47482 6.46833C1.93797 5.34855 2.61741 4.33112 3.47426 3.47426C4.33112 2.61741 5.34855 1.93797 6.46833 1.47482C7.5881 1.01168 8.78823 0.773937 10 0.7752ZM10 0.7752L10.0008 3.203e-08M10 0.7752L10.0008 3.203e-08M10.0008 3.203e-08C11.3558 0.000107457 12.6484 0.27043 13.8273 0.759963C15.0488 1.26713 16.1484 2.00958 17.0694 2.9306C17.9904 3.85162 18.7329 4.95121 19.24 6.17266C19.7297 7.35188 20 8.64467 20 10H19.2248L10.0008 3.203e-08Z" fill="#DBDBDB" stroke="#DBDBDB" stroke-width="2"/>
</svg>
