<svg width="75" height="75" viewBox="0 0 75 75" fill="none" xmlns="http://www.w3.org/2000/svg">
<path d="M37.5 68.75C54.7594 68.75 68.75 54.7594 68.75 37.5C68.75 20.2406 54.7594 6.25 37.5 6.25C20.2406 6.25 6.25 20.2406 6.25 37.5C6.25 54.7594 20.2406 68.75 37.5 68.75Z" stroke="#4692B6" stroke-width="5" stroke-linejoin="round"/>
<g clip-path="url(#clip0_293_14931)">
<path fill-rule="evenodd" clip-rule="evenodd" d="M52.0168 27.7179C52.4325 28.1338 52.6661 28.6978 52.6661 29.2858C52.6661 29.8739 52.4325 30.4379 52.0168 30.8538L35.3941 47.4765C35.1744 47.6962 34.9136 47.8705 34.6265 47.9894C34.3395 48.1083 34.0318 48.1695 33.7211 48.1695C33.4104 48.1695 33.1028 48.1083 32.8157 47.9894C32.5287 47.8705 32.2679 47.6962 32.0482 47.4765L23.7894 39.2191C23.5775 39.0145 23.4086 38.7698 23.2924 38.4992C23.1761 38.2286 23.1149 37.9376 23.1124 37.6432C23.1098 37.3487 23.1659 37.0567 23.2775 36.7841C23.389 36.5116 23.5536 36.2639 23.7619 36.0557C23.9701 35.8475 24.2177 35.6828 24.4903 35.5713C24.7628 35.4598 25.0548 35.4037 25.3493 35.4062C25.6438 35.4088 25.9348 35.47 26.2054 35.5862C26.4759 35.7024 26.7207 35.8714 26.9252 36.0832L33.7204 42.8784L48.8794 27.7179C49.0854 27.5118 49.3299 27.3483 49.5991 27.2368C49.8682 27.1252 50.1567 27.0678 50.4481 27.0678C50.7394 27.0678 51.028 27.1252 51.2971 27.2368C51.5663 27.3483 51.8108 27.5118 52.0168 27.7179Z" fill="#4692B6"/>
</g>
<defs>
<clipPath id="clip0_293_14931">
<rect width="35.4839" height="35.4839" fill="white" transform="translate(20.1611 20.1613)"/>
</clipPath>
</defs>
</svg>
