<svg width="248" height="20" viewBox="0 0 248 20" fill="none" xmlns="http://www.w3.org/2000/svg">
<path d="M7.52 5.12C7.57333 4.85333 7.6 4.58 7.6 4.3C7.6 3.00667 6.96667 2.36 5.7 2.36C5.12667 2.36 4.64 2.48 4.24 2.72C3.86667 3.16 3.68 3.68667 3.68 4.3C3.68 4.7 3.85333 5.04667 4.2 5.34C4.54667 5.62 4.97333 5.84 5.48 6C6 6.16 6.56 6.36 7.16 6.6C7.76 6.84 8.31333 7.1 8.82 7.38C9.34 7.64667 9.77333 8.05333 10.12 8.6C10.4667 9.13333 10.64 9.76667 10.64 10.5C10.64 11.9 10.1 13.04 9.02 13.92C7.95333 14.8 6.66667 15.24 5.16 15.24C3.94667 15.24 2.91333 14.94 2.06 14.34C1.22 13.7267 0.8 12.8733 0.8 11.78C0.8 11.22 0.966667 10.7533 1.3 10.38C1.64667 9.99333 2.05333 9.8 2.52 9.8C3 9.8 3.35333 9.86 3.58 9.98C3.47333 10.38 3.42 10.74 3.42 11.06C3.42 11.78 3.62 12.3533 4.02 12.78C4.43333 13.1933 5 13.4 5.72 13.4C6.44 13.4 7.02 13.2133 7.46 12.84C7.9 12.4667 8.12 11.9733 8.12 11.36C8.12 10.7333 7.87333 10.22 7.38 9.82C6.9 9.42 6.31333 9.1 5.62 8.86C4.92667 8.62 4.23333 8.36667 3.54 8.1C2.84667 7.83333 2.25333 7.44 1.76 6.92C1.28 6.38667 1.04 5.72 1.04 4.92C1.04 3.66667 1.58 2.62667 2.66 1.8C3.75333 0.973332 4.98667 0.559999 6.36 0.559999C7.37333 0.559999 8.24667 0.766666 8.98 1.18C9.72667 1.58 10.1 2.19333 10.1 3.02C10.1 3.62 9.90667 4.13333 9.52 4.56C9.13333 4.97333 8.64667 5.18 8.06 5.18C7.9 5.18 7.72 5.16 7.52 5.12ZM14.8505 13.04C15.3971 13.24 16.0305 13.34 16.7505 13.34C17.4705 13.34 18.1038 13.2 18.6505 12.92C19.3038 11.8 19.6305 10.46 19.6305 8.9C19.6305 7.32667 19.3571 6.54 18.8105 6.54C18.1305 6.54 17.3638 7.22667 16.5105 8.6C15.6705 9.97333 15.1171 11.4533 14.8505 13.04ZM14.8505 8.94C16.2638 6.15333 17.8305 4.76 19.5505 4.76C20.4571 4.76 21.1038 5.13333 21.4905 5.88C21.8905 6.61333 22.0905 7.54667 22.0905 8.68C22.0905 10.3067 21.6105 11.7867 20.6505 13.12C19.6905 14.4533 18.4838 15.12 17.0305 15.12C16.2038 15.12 15.4505 14.9867 14.7705 14.72C14.7971 16.5467 14.9105 18.22 15.1105 19.74C14.6838 19.9 14.2438 19.98 13.7905 19.98C13.3371 19.98 12.9638 19.8267 12.6705 19.52C12.3771 19.2267 12.2305 18.7733 12.2305 18.16C12.2305 17.5467 12.3105 16.5 12.4705 15.02C12.6305 13.54 12.7105 12.38 12.7105 11.54C12.7105 8.76667 12.5638 6.62667 12.2705 5.12C12.6971 4.96 13.1438 4.88 13.6105 4.88C14.0905 4.88 14.4571 5.02 14.7105 5.3C14.9771 5.56667 15.1105 5.99333 15.1105 6.58C15.1105 7.15333 15.0238 7.94 14.8505 8.94ZM25.5353 10.46C25.5353 11.42 25.6886 12.18 25.9953 12.74C26.302 13.2867 26.8153 13.56 27.5353 13.56C28.2553 13.56 28.8153 13.32 29.2153 12.84C29.6286 12.3467 29.8353 11.7533 29.8353 11.06C30.2886 11.06 30.682 11.1733 31.0153 11.4C31.3486 11.6267 31.5153 11.94 31.5153 12.34C31.5153 13.1667 31.0753 13.86 30.1953 14.42C29.3153 14.9667 28.3886 15.24 27.4153 15.24C25.8953 15.24 24.7953 14.8333 24.1153 14.02C23.4353 13.1933 23.0953 11.9733 23.0953 10.36C23.0953 8.74667 23.5486 7.39333 24.4553 6.3C25.3753 5.19333 26.5953 4.64 28.1153 4.64C29.1553 4.64 29.9886 4.88 30.6153 5.36C31.2553 5.82667 31.5753 6.56 31.5753 7.56C31.5753 8.54667 31.122 9.29333 30.2153 9.8C29.322 10.2933 28.2286 10.54 26.9353 10.54C26.482 10.54 26.0153 10.5133 25.5353 10.46ZM25.5553 8.88C25.9553 8.96 26.3753 9 26.8153 9C27.7753 9 28.582 8.82 29.2353 8.46C29.3153 8.14 29.3553 7.88667 29.3553 7.7C29.3553 7.23333 29.1886 6.88 28.8553 6.64C28.522 6.4 28.062 6.28 27.4753 6.28C26.902 6.28 26.382 6.46667 25.9153 6.84C25.6753 7.53333 25.5553 8.21333 25.5553 8.88ZM42.6019 5.58C42.2419 7.11333 42.0619 8.65333 42.0619 10.2C42.0619 11.7333 42.2352 13.2533 42.5819 14.76C42.1019 14.92 41.6085 15 41.1019 15C40.5952 15 40.2419 14.8533 40.0419 14.56C39.8419 14.2533 39.7419 13.82 39.7419 13.26C39.7419 12.6867 39.8285 11.9067 40.0019 10.92C39.0552 12.9467 38.1419 14.2267 37.2619 14.76C36.8619 15 36.4485 15.12 36.0219 15.12C35.0085 15.12 34.2219 14.7467 33.6619 14C33.1019 13.24 32.8219 12.3 32.8219 11.18C32.8219 9.47333 33.2952 7.98 34.2419 6.7C35.1885 5.40667 36.4152 4.76 37.9219 4.76C39.4419 4.76 41.0019 5.03333 42.6019 5.58ZM39.9819 6.78C39.2752 6.56667 38.6752 6.46 38.1819 6.46C37.1819 6.46 36.4352 6.68 35.9419 7.12C35.4885 8.24 35.2619 9.38 35.2619 10.54C35.2619 11.1533 35.3552 11.7733 35.5419 12.4C35.7419 13.0267 36.0419 13.34 36.4419 13.34C36.9085 13.34 37.5085 12.6533 38.2419 11.28C38.9752 9.90667 39.5552 8.40667 39.9819 6.78ZM46.8403 8.7C47.307 7.71333 48.0003 6.81333 48.9203 6C49.8536 5.17333 50.7936 4.76 51.7403 4.76C53.0736 4.76 53.7403 5.46667 53.7403 6.88C53.7403 7.6 53.407 8.37333 52.7403 9.2C52.087 10.0133 51.3536 10.66 50.5403 11.14C50.9136 11.7933 51.3736 12.2933 51.9203 12.64C52.4803 12.9733 53.2136 13.24 54.1203 13.44C54.1203 13.96 53.9936 14.3733 53.7403 14.68C53.5003 14.9733 53.1536 15.12 52.7003 15.12C51.7936 15.12 50.907 14.6867 50.0403 13.82C49.1736 12.94 48.5203 11.96 48.0803 10.88C48.9336 10.4533 49.667 9.94667 50.2803 9.36C50.907 8.77333 51.2203 8.18667 51.2203 7.6C51.2203 7.01333 51.0403 6.72 50.6803 6.72C49.987 6.72 49.2136 7.35333 48.3603 8.62C47.5203 9.88667 47.0336 10.94 46.9003 11.78C46.927 12.1667 47.0603 13.16 47.3003 14.76C46.887 14.92 46.4336 15 45.9403 15C44.9136 15 44.4003 14.5 44.4003 13.5C44.4003 13.02 44.4736 12.08 44.6203 10.68C44.767 9.26667 44.8403 8.13333 44.8403 7.28C44.8403 4.44 44.6803 2.09333 44.3603 0.239999C44.787 0.079999 45.227 -1.19209e-06 45.6803 -1.19209e-06C46.1336 -1.19209e-06 46.507 0.153332 46.8003 0.459999C47.107 0.753332 47.2603 1.16 47.2603 1.68C47.2603 2.2 47.187 3.27333 47.0403 4.9C46.907 6.52667 46.8403 7.79333 46.8403 8.7ZM61.2809 1.44C63.2009 0.933333 64.8743 0.68 66.3009 0.68C69.3543 0.68 70.8809 1.74 70.8809 3.86C70.8809 5.15333 70.2743 6.14 69.0609 6.82C69.8743 7.02 70.5476 7.40667 71.0809 7.98C71.6143 8.54 71.8809 9.24667 71.8809 10.1C71.8809 11.7 71.2876 12.94 70.1009 13.82C68.9143 14.6867 67.4476 15.12 65.7009 15.12C63.9543 15.12 62.4409 14.7733 61.1609 14.08C61.5743 12.64 61.7809 10.7 61.7809 8.26C61.7809 5.80667 61.6143 3.53333 61.2809 1.44ZM64.3009 12.96C64.8876 13.1467 65.4743 13.24 66.0609 13.24C66.9809 13.24 67.7409 13.0133 68.3409 12.56C68.9409 12.0933 69.2409 11.44 69.2409 10.6C69.2409 9 68.3743 8.2 66.6409 8.2C65.8143 8.2 64.9743 8.37333 64.1209 8.72C64.1209 10.0667 64.1809 11.48 64.3009 12.96ZM64.1009 6.96C64.2876 6.92 64.5609 6.87333 64.9209 6.82C65.2943 6.76667 65.5809 6.72 65.7809 6.68C65.9809 6.64 66.2276 6.58 66.5209 6.5C66.8276 6.42 67.0609 6.32667 67.2209 6.22C67.3943 6.1 67.5676 5.95333 67.7409 5.78C68.0743 5.44667 68.2409 4.96 68.2409 4.32C68.2409 3.08 67.5009 2.46 66.0209 2.46C65.5409 2.46 64.9543 2.54 64.2609 2.7C64.1543 5.43333 64.1009 6.85333 64.1009 6.96ZM77.3558 15.24C75.8891 15.24 74.8091 14.8133 74.1158 13.96C73.4224 13.0933 73.0758 11.8933 73.0758 10.36C73.0758 8.81333 73.5358 7.47333 74.4558 6.34C75.3758 5.20667 76.5558 4.64 77.9958 4.64C80.9558 4.64 82.4358 6.30667 82.4358 9.64C82.4358 11.2 81.9558 12.5267 80.9958 13.62C80.0358 14.7 78.8224 15.24 77.3558 15.24ZM75.9158 6.84C75.6758 7.61333 75.5558 8.38667 75.5558 9.16C75.5558 9.93333 75.5824 10.5333 75.6358 10.96C75.6891 11.3867 75.7891 11.8133 75.9358 12.24C76.2424 13.1067 76.8424 13.54 77.7358 13.54C78.6424 13.54 79.2358 13.3 79.5158 12.82C79.8091 12.34 79.9558 11.6 79.9558 10.6C79.9558 7.76 79.2824 6.34 77.9358 6.34C77.1624 6.34 76.4891 6.50667 75.9158 6.84ZM84.2288 0.239999C84.6554 0.079999 85.0954 -1.19209e-06 85.5488 -1.19209e-06C86.0021 -1.19209e-06 86.3754 0.153332 86.6688 0.459999C86.9754 0.753332 87.1288 1.16 87.1288 1.68C87.1288 2.18667 87.0554 3.21333 86.9088 4.76C86.7754 6.29333 86.7088 7.5 86.7088 8.38C86.7088 10.5533 86.8621 12.68 87.1688 14.76C86.7421 14.92 86.2888 15 85.8088 15C84.7821 15 84.2688 14.5 84.2688 13.5C84.2688 13.02 84.3421 12.08 84.4888 10.68C84.6354 9.26667 84.7088 8.13333 84.7088 7.28C84.7088 4.44 84.5488 2.09333 84.2288 0.239999ZM95.7198 0.239999C96.1465 0.079999 96.5865 -1.19209e-06 97.0398 -1.19209e-06C97.4932 -1.19209e-06 97.8665 0.153332 98.1598 0.459999C98.4532 0.753332 98.5998 1.12667 98.5998 1.58C98.5998 2.02 98.5332 3.07333 98.3998 4.74C98.2665 6.39333 98.1998 8.02667 98.1998 9.64C98.1998 11.24 98.3598 12.9467 98.6798 14.76C98.1998 14.92 97.6998 15 97.1798 15C96.2998 15 95.8598 14.38 95.8598 13.14C95.8598 12.7267 95.9465 11.9867 96.1198 10.92C95.5598 12.1067 95.0598 12.9867 94.6198 13.56C94.1932 14.1333 93.7732 14.54 93.3598 14.78C92.9598 15.0067 92.5332 15.12 92.0798 15.12C91.0665 15.12 90.2865 14.7467 89.7398 14C89.2065 13.2533 88.9398 12.3333 88.9398 11.24C88.9398 10.1467 89.1332 9.12 89.5198 8.16C89.9198 7.18667 90.5132 6.38 91.2998 5.74C92.0998 5.08667 92.9465 4.76 93.8398 4.76C94.7332 4.76 95.5065 4.88 96.1598 5.12C96.1332 3.4 95.9865 1.77333 95.7198 0.239999ZM96.1598 6.82C95.5065 6.58 94.7998 6.46 94.0398 6.46C93.2798 6.46 92.6265 6.68 92.0798 7.12C91.6265 8.2 91.3998 9.40667 91.3998 10.74C91.3998 11.3533 91.4865 11.94 91.6598 12.5C91.8332 13.06 92.1198 13.34 92.5198 13.34C93.1332 13.34 93.8265 12.6533 94.5998 11.28C95.3865 9.90667 95.9065 8.42 96.1598 6.82ZM100.752 0.239999C101.179 0.079999 101.619 -1.19209e-06 102.072 -1.19209e-06C102.526 -1.19209e-06 102.899 0.153332 103.192 0.459999C103.499 0.753332 103.652 1.16 103.652 1.68C103.652 2.18667 103.579 3.21333 103.432 4.76C103.299 6.29333 103.232 7.5 103.232 8.38C103.232 10.5533 103.386 12.68 103.692 14.76C103.266 14.92 102.812 15 102.332 15C101.306 15 100.792 14.5 100.792 13.5C100.792 13.02 100.866 12.08 101.012 10.68C101.159 9.26667 101.232 8.13333 101.232 7.28C101.232 4.44 101.072 2.09333 100.752 0.239999ZM106.123 11.68L106.323 8.8C106.323 7.50667 106.137 6.28 105.763 5.12C106.137 4.96 106.597 4.88 107.143 4.88C108.21 4.88 108.743 5.47333 108.743 6.66C108.743 7.19333 108.67 7.94667 108.523 8.92C108.377 9.89333 108.303 10.5667 108.303 10.94C108.303 11.3 108.31 11.5667 108.323 11.74C108.337 11.9 108.37 12.0933 108.423 12.32C108.503 12.7733 108.763 13 109.203 13C109.657 13 110.137 12.6467 110.643 11.94C111.163 11.22 111.577 10.4267 111.883 9.56C112.203 8.69333 112.363 8.00667 112.363 7.5C112.297 6.44667 112.183 5.65333 112.023 5.12C112.45 4.96 112.883 4.88 113.323 4.88C113.777 4.88 114.15 5.02 114.443 5.3C114.75 5.58 114.903 5.95333 114.903 6.42C114.903 13.7 113.57 18.0667 110.903 19.52C110.303 19.84 109.623 20 108.863 20C108.103 20 107.437 19.8 106.863 19.4C106.303 19 106.023 18.44 106.023 17.72C106.023 17.24 106.203 16.8333 106.563 16.5C106.923 16.18 107.35 16.02 107.843 16.02C107.95 16.02 108.083 16.0333 108.243 16.06C108.203 16.2333 108.183 16.3867 108.183 16.52C108.183 17.6933 108.59 18.28 109.403 18.28C109.897 18.28 110.343 18.0133 110.743 17.48C111.143 16.9467 111.463 16.2933 111.703 15.52C112.17 13.9467 112.403 12.52 112.403 11.24C112.003 12.32 111.457 13.1933 110.763 13.86C110.083 14.5133 109.343 14.84 108.543 14.84C106.93 14.84 106.123 13.7867 106.123 11.68ZM116.198 17.76C117.225 16.8133 117.738 15.68 117.738 14.36C117.738 13.7067 117.592 13.0933 117.298 12.52C117.805 12.16 118.305 11.98 118.798 11.98C119.785 11.98 120.278 12.6067 120.278 13.86C120.278 14.74 119.932 15.6667 119.238 16.64C118.545 17.6267 117.812 18.12 117.038 18.12C116.732 18.12 116.452 18 116.198 17.76ZM134.194 0.559999C135.354 0.559999 136.367 0.899999 137.234 1.58C138.101 2.26 138.534 3.14 138.534 4.22C138.534 4.79333 138.374 5.26667 138.054 5.64C137.734 6.01333 137.341 6.2 136.874 6.2C136.407 6.2 136.034 6.14 135.754 6.02C135.794 5.80667 135.814 5.58 135.814 5.34C135.801 4.5 135.594 3.82 135.194 3.3C134.794 2.76667 134.207 2.5 133.434 2.5C132.674 2.5 131.967 2.74667 131.314 3.24C130.927 3.8 130.627 4.53333 130.414 5.44C130.201 6.34667 130.094 7.24 130.094 8.12C130.094 9.58667 130.374 10.82 130.934 11.82C131.507 12.8067 132.394 13.3 133.594 13.3C134.701 13.3 135.447 12.88 135.834 12.04C136.194 11.3067 136.374 10.3333 136.374 9.12C137.054 9.12 137.621 9.24667 138.074 9.5C138.527 9.74 138.754 10.14 138.754 10.7C138.754 12.0067 138.181 13.0933 137.034 13.96C135.887 14.8133 134.594 15.24 133.154 15.24C131.274 15.24 129.847 14.62 128.874 13.38C127.901 12.1267 127.414 10.4333 127.414 8.3C127.414 6.16667 128.021 4.34667 129.234 2.84C130.461 1.32 132.114 0.559999 134.194 0.559999ZM143.84 15.24C142.373 15.24 141.293 14.8133 140.6 13.96C139.907 13.0933 139.56 11.8933 139.56 10.36C139.56 8.81333 140.02 7.47333 140.94 6.34C141.86 5.20667 143.04 4.64 144.48 4.64C147.44 4.64 148.92 6.30667 148.92 9.64C148.92 11.2 148.44 12.5267 147.48 13.62C146.52 14.7 145.307 15.24 143.84 15.24ZM142.4 6.84C142.16 7.61333 142.04 8.38667 142.04 9.16C142.04 9.93333 142.067 10.5333 142.12 10.96C142.173 11.3867 142.273 11.8133 142.42 12.24C142.727 13.1067 143.327 13.54 144.22 13.54C145.127 13.54 145.72 13.3 146 12.82C146.293 12.34 146.44 11.6 146.44 10.6C146.44 7.76 145.767 6.34 144.42 6.34C143.647 6.34 142.973 6.50667 142.4 6.84ZM159.813 6.92L159.613 11.32C159.613 12.5333 159.8 13.72 160.173 14.88C159.8 15.04 159.373 15.12 158.893 15.12C157.76 15.12 157.193 14.4867 157.193 13.22C157.193 12.6467 157.266 11.6867 157.413 10.34C157.56 8.98 157.633 8.12667 157.633 7.78C157.633 7.11333 157.333 6.78 156.733 6.78C156.293 6.78 155.793 7.1 155.233 7.74C154.686 8.36667 154.213 9.07333 153.813 9.86C153.426 10.6333 153.2 11.2733 153.133 11.78C153.186 12.82 153.32 13.8133 153.533 14.76C153.106 14.92 152.66 15 152.193 15C151.74 15 151.366 14.8933 151.073 14.68C150.793 14.4533 150.653 14.1467 150.653 13.76C150.653 13.36 150.713 12.6533 150.833 11.64C150.953 10.6133 151.013 9.6 151.013 8.6C151.013 7.58667 150.86 6.42667 150.553 5.12C150.98 4.96 151.433 4.88 151.913 4.88C152.393 4.88 152.78 5.02 153.073 5.3C153.38 5.58 153.533 5.92667 153.533 6.34C153.533 6.75333 153.48 7.41333 153.373 8.32C153.88 7.37333 154.54 6.54667 155.353 5.84C156.166 5.12 156.98 4.76 157.793 4.76C159.14 4.76 159.813 5.48 159.813 6.92ZM171.412 5.52C171.105 8.17333 170.952 10.06 170.952 11.18C170.952 13.9933 171.132 16.8533 171.492 19.76C171.092 19.92 170.665 20 170.212 20C169.759 20 169.372 19.8467 169.052 19.54C168.732 19.2333 168.572 18.8467 168.572 18.38C168.572 17.58 168.619 16.3067 168.712 14.56C168.819 12.8133 168.885 11.64 168.912 11.04C168.019 13.0133 167.112 14.26 166.192 14.78C165.792 15.0067 165.365 15.12 164.912 15.12C163.899 15.12 163.119 14.7467 162.572 14C162.039 13.2533 161.772 12.32 161.772 11.2C161.772 9.46667 162.252 7.96 163.212 6.68C164.172 5.4 165.459 4.76 167.072 4.76C168.685 4.76 170.132 5.01333 171.412 5.52ZM169.012 6.78C168.305 6.56667 167.705 6.46 167.212 6.46C166.212 6.46 165.452 6.67333 164.932 7.1C164.465 8.16667 164.232 9.38667 164.232 10.76C164.232 11.3733 164.319 11.96 164.492 12.52C164.665 13.0667 164.952 13.34 165.352 13.34C165.819 13.34 166.432 12.6533 167.192 11.28C167.952 9.90667 168.559 8.40667 169.012 6.78ZM173.506 12.96L173.706 8.8C173.706 7.50667 173.519 6.28 173.146 5.12C173.519 4.96 173.979 4.88 174.526 4.88C175.593 4.88 176.126 5.47333 176.126 6.66C176.126 7.32667 176.053 8.26667 175.906 9.48C175.759 10.68 175.686 11.5533 175.686 12.1C175.686 12.7667 175.986 13.1 176.586 13.1C176.946 13.1 177.366 12.8 177.846 12.2C178.339 11.5867 178.759 10.9067 179.106 10.16C179.466 9.4 179.679 8.78 179.746 8.3C179.666 6.83333 179.553 5.77333 179.406 5.12C179.833 4.96 180.266 4.88 180.706 4.88C181.159 4.88 181.533 5.02 181.826 5.3C182.133 5.58 182.286 5.92667 182.286 6.34C182.286 6.75333 182.226 7.44 182.106 8.4C181.986 9.36 181.926 10.3667 181.926 11.42C181.926 12.46 182.046 13.5733 182.286 14.76C181.766 14.92 181.299 15 180.886 15C180.059 15 179.646 14.4533 179.646 13.36C179.646 12.88 179.699 12.2133 179.806 11.36C179.273 12.4933 178.619 13.4067 177.846 14.1C177.086 14.78 176.313 15.12 175.526 15.12C174.179 15.12 173.506 14.4 173.506 12.96ZM186.121 10.46C186.121 11.42 186.275 12.18 186.581 12.74C186.888 13.2867 187.401 13.56 188.121 13.56C188.841 13.56 189.401 13.32 189.801 12.84C190.215 12.3467 190.421 11.7533 190.421 11.06C190.875 11.06 191.268 11.1733 191.601 11.4C191.935 11.6267 192.101 11.94 192.101 12.34C192.101 13.1667 191.661 13.86 190.781 14.42C189.901 14.9667 188.975 15.24 188.001 15.24C186.481 15.24 185.381 14.8333 184.701 14.02C184.021 13.1933 183.681 11.9733 183.681 10.36C183.681 8.74667 184.135 7.39333 185.041 6.3C185.961 5.19333 187.181 4.64 188.701 4.64C189.741 4.64 190.575 4.88 191.201 5.36C191.841 5.82667 192.161 6.56 192.161 7.56C192.161 8.54667 191.708 9.29333 190.801 9.8C189.908 10.2933 188.815 10.54 187.521 10.54C187.068 10.54 186.601 10.5133 186.121 10.46ZM186.141 8.88C186.541 8.96 186.961 9 187.401 9C188.361 9 189.168 8.82 189.821 8.46C189.901 8.14 189.941 7.88667 189.941 7.7C189.941 7.23333 189.775 6.88 189.441 6.64C189.108 6.4 188.648 6.28 188.061 6.28C187.488 6.28 186.968 6.46667 186.501 6.84C186.261 7.53333 186.141 8.21333 186.141 8.88ZM196.988 14.76C196.574 14.92 196.134 15 195.668 15C195.201 15 194.821 14.8933 194.528 14.68C194.248 14.4533 194.108 14.1467 194.108 13.76C194.108 13.36 194.168 12.64 194.288 11.6C194.408 10.56 194.468 9.55333 194.468 8.58C194.468 7.59333 194.314 6.44 194.008 5.12C194.434 4.96 194.854 4.88 195.268 4.88C195.681 4.88 196.034 5.02 196.328 5.3C196.634 5.58 196.788 5.95333 196.788 6.42C196.788 6.66 196.748 7.02 196.668 7.5C196.588 7.96667 196.541 8.32 196.528 8.56C197.048 7.37333 197.661 6.44667 198.368 5.78C199.088 5.1 199.801 4.76 200.508 4.76C201.001 4.76 201.394 4.93333 201.688 5.28C201.981 5.62667 202.128 6.06667 202.128 6.6C202.128 7.12 201.994 7.54667 201.728 7.88C201.461 8.2 201.128 8.36 200.728 8.36C200.341 8.36 200.028 8.32 199.788 8.24C199.828 8.08 199.848 7.93333 199.848 7.8C199.848 7.25333 199.654 6.98 199.268 6.98C198.681 6.98 198.128 7.57333 197.608 8.76C197.101 9.93333 196.761 11.0333 196.588 12.06C196.654 13.06 196.788 13.96 196.988 14.76ZM211.733 8.6C211.733 11.1733 211.873 13.2267 212.153 14.76C211.726 14.92 211.273 15 210.793 15C210.313 15 209.893 14.8467 209.533 14.54C209.186 14.2333 209.013 13.8133 209.013 13.28C209.013 12.7333 209.08 11.7067 209.213 10.2C209.346 8.69333 209.413 7.52667 209.413 6.7C209.413 4.66 209.273 2.69333 208.993 0.799999C209.98 0.879999 211.306 0.919999 212.973 0.919999C214.64 0.919999 216.233 0.799999 217.753 0.559999C217.913 0.853332 217.993 1.20667 217.993 1.62C217.993 2.02 217.833 2.38 217.513 2.7C217.206 3.00667 216.82 3.16 216.353 3.16C215.9 3.16 215.166 3.09333 214.153 2.96C213.153 2.82667 212.413 2.76 211.933 2.76C211.826 4.21333 211.76 5.54667 211.733 6.76C212.506 6.84 213.36 6.88 214.293 6.88C215.24 6.88 216.06 6.74 216.753 6.46C216.913 6.75333 216.993 7.10667 216.993 7.52C216.993 7.92 216.833 8.28667 216.513 8.62C216.206 8.94 215.84 9.1 215.413 9.1C214.986 9.1 214.373 9.02 213.573 8.86C212.773 8.68667 212.16 8.6 211.733 8.6ZM220.633 10.46C220.633 11.42 220.786 12.18 221.093 12.74C221.4 13.2867 221.913 13.56 222.633 13.56C223.353 13.56 223.913 13.32 224.313 12.84C224.726 12.3467 224.933 11.7533 224.933 11.06C225.386 11.06 225.78 11.1733 226.113 11.4C226.446 11.6267 226.613 11.94 226.613 12.34C226.613 13.1667 226.173 13.86 225.293 14.42C224.413 14.9667 223.486 15.24 222.513 15.24C220.993 15.24 219.893 14.8333 219.213 14.02C218.533 13.1933 218.193 11.9733 218.193 10.36C218.193 8.74667 218.646 7.39333 219.553 6.3C220.473 5.19333 221.693 4.64 223.213 4.64C224.253 4.64 225.086 4.88 225.713 5.36C226.353 5.82667 226.673 6.56 226.673 7.56C226.673 8.54667 226.22 9.29333 225.313 9.8C224.42 10.2933 223.326 10.54 222.033 10.54C221.58 10.54 221.113 10.5133 220.633 10.46ZM220.653 8.88C221.053 8.96 221.473 9 221.913 9C222.873 9 223.68 8.82 224.333 8.46C224.413 8.14 224.453 7.88667 224.453 7.7C224.453 7.23333 224.286 6.88 223.953 6.64C223.62 6.4 223.16 6.28 222.573 6.28C222 6.28 221.48 6.46667 221.013 6.84C220.773 7.53333 220.653 8.21333 220.653 8.88ZM237.7 5.58C237.34 7.11333 237.16 8.65333 237.16 10.2C237.16 11.7333 237.333 13.2533 237.68 14.76C237.2 14.92 236.706 15 236.2 15C235.693 15 235.34 14.8533 235.14 14.56C234.94 14.2533 234.84 13.82 234.84 13.26C234.84 12.6867 234.926 11.9067 235.1 10.92C234.153 12.9467 233.24 14.2267 232.36 14.76C231.96 15 231.546 15.12 231.12 15.12C230.106 15.12 229.32 14.7467 228.76 14C228.2 13.24 227.92 12.3 227.92 11.18C227.92 9.47333 228.393 7.98 229.34 6.7C230.286 5.40667 231.513 4.76 233.02 4.76C234.54 4.76 236.1 5.03333 237.7 5.58ZM235.08 6.78C234.373 6.56667 233.773 6.46 233.28 6.46C232.28 6.46 231.533 6.68 231.04 7.12C230.586 8.24 230.36 9.38 230.36 10.54C230.36 11.1533 230.453 11.7733 230.64 12.4C230.84 13.0267 231.14 13.34 231.54 13.34C232.006 13.34 232.606 12.6533 233.34 11.28C234.073 9.90667 234.653 8.40667 235.08 6.78ZM242.398 14.76C241.985 14.92 241.545 15 241.078 15C240.611 15 240.231 14.8933 239.938 14.68C239.658 14.4533 239.518 14.1467 239.518 13.76C239.518 13.36 239.578 12.64 239.698 11.6C239.818 10.56 239.878 9.55333 239.878 8.58C239.878 7.59333 239.725 6.44 239.418 5.12C239.845 4.96 240.265 4.88 240.678 4.88C241.091 4.88 241.445 5.02 241.738 5.3C242.045 5.58 242.198 5.95333 242.198 6.42C242.198 6.66 242.158 7.02 242.078 7.5C241.998 7.96667 241.951 8.32 241.938 8.56C242.458 7.37333 243.071 6.44667 243.778 5.78C244.498 5.1 245.211 4.76 245.918 4.76C246.411 4.76 246.805 4.93333 247.098 5.28C247.391 5.62667 247.538 6.06667 247.538 6.6C247.538 7.12 247.405 7.54667 247.138 7.88C246.871 8.2 246.538 8.36 246.138 8.36C245.751 8.36 245.438 8.32 245.198 8.24C245.238 8.08 245.258 7.93333 245.258 7.8C245.258 7.25333 245.065 6.98 244.678 6.98C244.091 6.98 243.538 7.57333 243.018 8.76C242.511 9.93333 242.171 11.0333 241.998 12.06C242.065 13.06 242.198 13.96 242.398 14.76Z" fill="#8A8A8A"/>
</svg>
