<svg width="100" height="20" viewBox="0 0 100 20" fill="none" xmlns="http://www.w3.org/2000/svg">
<path d="M11.9023 8.88672V11.6289H2.99609V8.88672H11.9023ZM4.03906 1.9375V19H0.523438V1.9375H4.03906ZM14.4102 1.9375V19H10.9062V1.9375H14.4102ZM24.1016 16.1406V10.4922C24.1016 10.0859 24.0352 9.73828 23.9023 9.44922C23.7695 9.15234 23.5625 8.92188 23.2812 8.75781C23.0078 8.59375 22.6523 8.51172 22.2148 8.51172C21.8398 8.51172 21.5156 8.57812 21.2422 8.71094C20.9688 8.83594 20.7578 9.01953 20.6094 9.26172C20.4609 9.49609 20.3867 9.77344 20.3867 10.0938H17.0117C17.0117 9.55469 17.1367 9.04297 17.3867 8.55859C17.6367 8.07422 18 7.64844 18.4766 7.28125C18.9531 6.90625 19.5195 6.61328 20.1758 6.40234C20.8398 6.19141 21.582 6.08594 22.4023 6.08594C23.3867 6.08594 24.2617 6.25 25.0273 6.57812C25.793 6.90625 26.3945 7.39844 26.832 8.05469C27.2773 8.71094 27.5 9.53125 27.5 10.5156V15.9414C27.5 16.6367 27.543 17.207 27.6289 17.6523C27.7148 18.0898 27.8398 18.4727 28.0039 18.8008V19H24.5938C24.4297 18.6562 24.3047 18.2266 24.2188 17.7109C24.1406 17.1875 24.1016 16.6641 24.1016 16.1406ZM24.5469 11.2773L24.5703 13.1875H22.6836C22.2383 13.1875 21.8516 13.2383 21.5234 13.3398C21.1953 13.4414 20.9258 13.5859 20.7148 13.7734C20.5039 13.9531 20.3477 14.1641 20.2461 14.4062C20.1523 14.6484 20.1055 14.9141 20.1055 15.2031C20.1055 15.4922 20.1719 15.7539 20.3047 15.9883C20.4375 16.2148 20.6289 16.3945 20.8789 16.5273C21.1289 16.6523 21.4219 16.7148 21.7578 16.7148C22.2656 16.7148 22.707 16.6133 23.082 16.4102C23.457 16.207 23.7461 15.957 23.9492 15.6602C24.1602 15.3633 24.2695 15.082 24.2773 14.8164L25.168 16.2461C25.043 16.5664 24.8711 16.8984 24.6523 17.2422C24.4414 17.5859 24.1719 17.9102 23.8438 18.2148C23.5156 18.5117 23.1211 18.7578 22.6602 18.9531C22.1992 19.1406 21.6523 19.2344 21.0195 19.2344C20.2148 19.2344 19.4844 19.0742 18.8281 18.7539C18.1797 18.4258 17.6641 17.9766 17.2812 17.4062C16.9062 16.8281 16.7188 16.1719 16.7188 15.4375C16.7188 14.7734 16.8438 14.1836 17.0938 13.668C17.3438 13.1523 17.7109 12.7188 18.1953 12.3672C18.6875 12.0078 19.3008 11.7383 20.0352 11.5586C20.7695 11.3711 21.6211 11.2773 22.5898 11.2773H24.5469ZM35.3398 16.5977C35.7539 16.5977 36.1211 16.5195 36.4414 16.3633C36.7617 16.1992 37.0117 15.9727 37.1914 15.6836C37.3789 15.3867 37.4766 15.0391 37.4844 14.6406H40.6602C40.6523 15.5312 40.4141 16.3242 39.9453 17.0195C39.4766 17.707 38.8477 18.25 38.0586 18.6484C37.2695 19.0391 36.3867 19.2344 35.4102 19.2344C34.4258 19.2344 33.5664 19.0703 32.832 18.7422C32.1055 18.4141 31.5 17.9609 31.0156 17.3828C30.5312 16.7969 30.168 16.1172 29.9258 15.3438C29.6836 14.5625 29.5625 13.7266 29.5625 12.8359V12.4961C29.5625 11.5977 29.6836 10.7617 29.9258 9.98828C30.168 9.20703 30.5312 8.52734 31.0156 7.94922C31.5 7.36328 32.1055 6.90625 32.832 6.57812C33.5586 6.25 34.4102 6.08594 35.3867 6.08594C36.4258 6.08594 37.3359 6.28516 38.1172 6.68359C38.9062 7.08203 39.5234 7.65234 39.9688 8.39453C40.4219 9.12891 40.6523 10 40.6602 11.0078H37.4844C37.4766 10.5859 37.3867 10.2031 37.2148 9.85938C37.0508 9.51562 36.8086 9.24219 36.4883 9.03906C36.1758 8.82812 35.7891 8.72266 35.3281 8.72266C34.8359 8.72266 34.4336 8.82812 34.1211 9.03906C33.8086 9.24219 33.5664 9.52344 33.3945 9.88281C33.2227 10.2344 33.1016 10.6367 33.0312 11.0898C32.9688 11.5352 32.9375 12.0039 32.9375 12.4961V12.8359C32.9375 13.3281 32.9688 13.8008 33.0312 14.2539C33.0938 14.707 33.2109 15.1094 33.3828 15.4609C33.5625 15.8125 33.8086 16.0898 34.1211 16.293C34.4336 16.4961 34.8398 16.5977 35.3398 16.5977ZM45.9922 0.988281V19H42.6172V0.988281H45.9922ZM53.9844 6.32031L48.4766 12.6016L45.5234 15.5898L44.293 13.1523L46.6367 10.1758L49.9297 6.32031H53.9844ZM50.4805 19L46.7305 13.1406L49.0625 11.1016L54.3711 19H50.4805ZM63.2773 1.9375V19H59.7734V1.9375H63.2773ZM68.5273 1.9375V4.69141H54.6055V1.9375H68.5273ZM75.3828 16.1406V10.4922C75.3828 10.0859 75.3164 9.73828 75.1836 9.44922C75.0508 9.15234 74.8438 8.92188 74.5625 8.75781C74.2891 8.59375 73.9336 8.51172 73.4961 8.51172C73.1211 8.51172 72.7969 8.57812 72.5234 8.71094C72.25 8.83594 72.0391 9.01953 71.8906 9.26172C71.7422 9.49609 71.668 9.77344 71.668 10.0938H68.293C68.293 9.55469 68.418 9.04297 68.668 8.55859C68.918 8.07422 69.2812 7.64844 69.7578 7.28125C70.2344 6.90625 70.8008 6.61328 71.457 6.40234C72.1211 6.19141 72.8633 6.08594 73.6836 6.08594C74.668 6.08594 75.543 6.25 76.3086 6.57812C77.0742 6.90625 77.6758 7.39844 78.1133 8.05469C78.5586 8.71094 78.7812 9.53125 78.7812 10.5156V15.9414C78.7812 16.6367 78.8242 17.207 78.9102 17.6523C78.9961 18.0898 79.1211 18.4727 79.2852 18.8008V19H75.875C75.7109 18.6562 75.5859 18.2266 75.5 17.7109C75.4219 17.1875 75.3828 16.6641 75.3828 16.1406ZM75.8281 11.2773L75.8516 13.1875H73.9648C73.5195 13.1875 73.1328 13.2383 72.8047 13.3398C72.4766 13.4414 72.207 13.5859 71.9961 13.7734C71.7852 13.9531 71.6289 14.1641 71.5273 14.4062C71.4336 14.6484 71.3867 14.9141 71.3867 15.2031C71.3867 15.4922 71.4531 15.7539 71.5859 15.9883C71.7188 16.2148 71.9102 16.3945 72.1602 16.5273C72.4102 16.6523 72.7031 16.7148 73.0391 16.7148C73.5469 16.7148 73.9883 16.6133 74.3633 16.4102C74.7383 16.207 75.0273 15.957 75.2305 15.6602C75.4414 15.3633 75.5508 15.082 75.5586 14.8164L76.4492 16.2461C76.3242 16.5664 76.1523 16.8984 75.9336 17.2422C75.7227 17.5859 75.4531 17.9102 75.125 18.2148C74.7969 18.5117 74.4023 18.7578 73.9414 18.9531C73.4805 19.1406 72.9336 19.2344 72.3008 19.2344C71.4961 19.2344 70.7656 19.0742 70.1094 18.7539C69.4609 18.4258 68.9453 17.9766 68.5625 17.4062C68.1875 16.8281 68 16.1719 68 15.4375C68 14.7734 68.125 14.1836 68.375 13.668C68.625 13.1523 68.9922 12.7188 69.4766 12.3672C69.9688 12.0078 70.582 11.7383 71.3164 11.5586C72.0508 11.3711 72.9023 11.2773 73.8711 11.2773H75.8281ZM84.9453 1V19H81.5586V1H84.9453ZM91.1094 0.988281V19H87.7344V0.988281H91.1094ZM99.1016 6.32031L93.5938 12.6016L90.6406 15.5898L89.4102 13.1523L91.7539 10.1758L95.0469 6.32031H99.1016ZM95.5977 19L91.8477 13.1406L94.1797 11.1016L99.4883 19H95.5977Z" fill="url(#paint0_linear_587_18214)"/>
<defs>
<linearGradient id="paint0_linear_587_18214" x1="49.5" y1="-3" x2="139.844" y2="-3" gradientUnits="userSpaceOnUse">
<stop stop-color="#3B95BF"/>
<stop offset="1" stop-color="#162E39"/>
</linearGradient>
</defs>
</svg>
