<svg width="390" height="130" viewBox="0 0 390 130" fill="none" xmlns="http://www.w3.org/2000/svg">
<g filter="url(#filter0_dd_1_5491)">
<path d="M110.716 97.5193C69.6215 75.0001 19.7826 93.4039 0 105.421V37C4 11 24.6667 1.49986 34.5 -0.000204325C128 -1.33354 322.1 -3.2002 350.5 -0.000204325C378.9 3.1998 388.667 25.9998 390 36.9998V97.5193C384.514 122.211 350.102 105.421 339.629 97.5193C329.156 89.6178 259.834 73.815 223.427 97.5193C187.02 121.223 162.084 125.668 110.716 97.5193Z" fill="#D9D9D9"/>
<path d="M110.716 97.5193C69.6215 75.0001 19.7826 93.4039 0 105.421V37C4 11 24.6667 1.49986 34.5 -0.000204325C128 -1.33354 322.1 -3.2002 350.5 -0.000204325C378.9 3.1998 388.667 25.9998 390 36.9998V97.5193C384.514 122.211 350.102 105.421 339.629 97.5193C329.156 89.6178 259.834 73.815 223.427 97.5193C187.02 121.223 162.084 125.668 110.716 97.5193Z" stroke="#D0C4B1" stroke-width="3"/>
</g>
<path d="M0 116.421C19.7826 104.404 69.6215 86.0003 110.716 108.519C162.084 136.668 187.02 132.224 223.427 108.519C259.834 84.8152 329.156 100.618 339.629 108.519C350.102 116.421 384.514 133.211 390 108.519" stroke="#96B6C5" stroke-width="3"/>
<defs>
<filter id="filter0_dd_1_5491" x="-5.5" y="-11.2671" width="401" height="137.767" filterUnits="userSpaceOnUse" color-interpolation-filters="sRGB">
<feFlood flood-opacity="0" result="BackgroundImageFix"/>
<feColorMatrix in="SourceAlpha" type="matrix" values="0 0 0 0 0 0 0 0 0 0 0 0 0 0 0 0 0 0 127 0" result="hardAlpha"/>
<feOffset dy="-4"/>
<feGaussianBlur stdDeviation="2"/>
<feComposite in2="hardAlpha" operator="out"/>
<feColorMatrix type="matrix" values="0 0 0 0 0.732292 0 0 0 0 0.863497 0 0 0 0 0.925 0 0 0 1 0"/>
<feBlend mode="normal" in2="BackgroundImageFix" result="effect1_dropShadow_1_5491"/>
<feColorMatrix in="SourceAlpha" type="matrix" values="0 0 0 0 0 0 0 0 0 0 0 0 0 0 0 0 0 0 127 0" result="hardAlpha"/>
<feOffset dy="4"/>
<feGaussianBlur stdDeviation="2"/>
<feComposite in2="hardAlpha" operator="out"/>
<feColorMatrix type="matrix" values="0 0 0 0 0 0 0 0 0 0 0 0 0 0 0 0 0 0 0.25 0"/>
<feBlend mode="normal" in2="effect1_dropShadow_1_5491" result="effect2_dropShadow_1_5491"/>
<feBlend mode="normal" in="SourceGraphic" in2="effect2_dropShadow_1_5491" result="shape"/>
</filter>
</defs>
</svg>
