<svg width="325" height="325" viewBox="0 0 325 325" fill="none" xmlns="http://www.w3.org/2000/svg">
<path d="M239.485 109.066C212.71 80.5097 172.111 63.7156 133.774 77.0946C101.885 88.2239 75.5149 115.792 61.1765 146.513C51.0879 168.128 45.5018 196.136 51.6417 219.675C56.973 240.113 74.0004 249.196 93.4737 250.656C124.271 252.963 155.18 249.62 185.999 250.21C207.872 250.628 241.235 258.72 260.741 245.729C279.165 233.461 278.015 206.747 275.994 187.122C272.987 157.894 259.171 130.063 239.485 109.066Z" fill="#E8E0D0"/>
<path opacity="0.7" d="M239.485 109.066C212.71 80.5097 172.111 63.7156 133.774 77.0946C101.885 88.2239 75.5149 115.792 61.1765 146.513C51.0879 168.128 45.5018 196.136 51.6417 219.675C56.973 240.113 74.0004 249.196 93.4737 250.656C124.271 252.963 155.18 249.62 185.999 250.21C207.872 250.628 241.235 258.72 260.741 245.729C279.165 233.461 278.015 206.747 275.994 187.122C272.987 157.894 259.171 130.063 239.485 109.066Z" fill="white"/>
<path d="M82.1125 181.292L70.3832 166.526L58.6533 181.292H63.2417V203.521H77.5248V181.292H82.1125Z" stroke="#4692B6" stroke-miterlimit="10" stroke-linecap="round" stroke-linejoin="round"/>
<path d="M225.657 181.292L213.928 166.526L202.198 181.292H206.786V203.521H221.07V181.292H225.657Z" stroke="#4692B6" stroke-miterlimit="10" stroke-linecap="round" stroke-linejoin="round"/>
<path d="M261.877 217.66L250.148 202.895L238.418 217.66H243.006V239.89H257.289V217.66H261.877Z" stroke="#4692B6" stroke-miterlimit="10" stroke-linecap="round" stroke-linejoin="round"/>
<path d="M247.02 132.714L235.291 117.949L223.561 132.714H228.149V154.944H242.432V132.714H247.02Z" stroke="#4692B6" stroke-miterlimit="10" stroke-linecap="round" stroke-linejoin="round"/>
<path d="M111.941 135.271L100.211 120.505L88.4819 135.271H93.0696V157.501H107.353V135.271H111.941Z" stroke="#4692B6" stroke-miterlimit="10" stroke-linecap="round" stroke-linejoin="round"/>
<path d="M134.689 217.66L122.96 202.895L111.23 217.66H115.818V239.89H130.101V217.66H134.689Z" stroke="#4692B6" stroke-miterlimit="10" stroke-linecap="round" stroke-linejoin="round"/>
<path d="M165.1 279.929C201.716 279.929 231.4 276.486 231.4 272.24C231.4 267.993 201.716 264.55 165.1 264.55C128.483 264.55 98.7998 267.993 98.7998 272.24C98.7998 276.486 128.483 279.929 165.1 279.929Z" fill="#E8E0D0"/>
<path opacity="0.5" d="M165.1 279.929C201.716 279.929 231.4 276.486 231.4 272.24C231.4 267.993 201.716 264.55 165.1 264.55C128.483 264.55 98.7998 267.993 98.7998 272.24C98.7998 276.486 128.483 279.929 165.1 279.929Z" fill="white"/>
<path d="M207.527 87.6922C207.799 86.2303 207.958 84.7282 207.958 83.187C207.958 69.6638 196.996 58.7009 183.472 58.7009C178.435 58.7009 173.755 60.2258 169.862 62.8336C164.919 50.8294 153.11 42.3768 139.323 42.3768C121.087 42.3768 106.304 57.1597 106.304 75.3961C106.304 75.8024 106.32 76.2047 106.334 76.6077C97.3252 79.1765 90.7212 87.4517 90.7212 97.2849C90.7212 108.159 98.7955 117.125 109.271 118.575V118.803H206.473C215.079 118.803 222.055 111.827 222.055 103.221C222.057 94.9702 215.639 88.2355 207.527 87.6922Z" fill="#263238" stroke="#263238" stroke-miterlimit="10" stroke-linecap="round" stroke-linejoin="round"/>
<path d="M207.527 84.7671C207.799 83.3053 207.958 81.8032 207.958 80.262C207.958 66.7388 196.996 55.7759 183.472 55.7759C178.435 55.7759 173.755 57.3008 169.862 59.9086C164.919 47.9044 153.11 39.4518 139.323 39.4518C121.087 39.4518 106.304 54.2347 106.304 72.4711C106.304 72.8774 106.32 73.2797 106.334 73.6827C97.3252 76.2515 90.7212 84.5267 90.7212 94.3599C90.7212 105.234 98.7955 114.2 109.271 115.65V115.878H206.473C215.079 115.878 222.055 108.902 222.055 100.296C222.057 92.0452 215.639 85.3105 207.527 84.7671Z" fill="#4692B6" stroke="#263238" stroke-miterlimit="10" stroke-linecap="round" stroke-linejoin="round"/>
<path d="M173.81 171.9L169.72 174.043C169.72 174.043 165.24 175.991 162.318 177.549C159.397 179.107 144.983 190.209 144.983 190.209L142.061 190.404L140.308 191.573C140.308 191.573 137.386 192.158 137.386 192.742C137.386 193.326 137.971 193.521 138.555 193.521C139.139 193.521 141.087 192.548 141.087 192.548C141.087 192.548 139.11 195.448 139.889 195.448C140.668 195.448 143.249 195.985 143.249 195.985C143.249 195.985 146.151 195.469 147.125 195.469C148.099 195.469 150.436 190.209 150.436 190.209C150.436 190.209 167.187 183.587 169.33 182.029C171.472 180.471 177.705 176.574 177.705 176.574L173.81 171.9Z" fill="white" stroke="#263238" stroke-miterlimit="10" stroke-linecap="round" stroke-linejoin="round"/>
<path d="M189.536 155.895L171.278 172.485L176.537 178.718L186.666 174.822L190.172 156.123L189.536 155.895Z" fill="#C6FF00" stroke="#263238" stroke-miterlimit="10" stroke-linecap="round" stroke-linejoin="round"/>
<path d="M173.713 170.273L171.278 172.485L176.537 178.718L179.682 177.508L173.713 170.273Z" fill="#263238" stroke="#263238" stroke-miterlimit="10" stroke-linecap="round" stroke-linejoin="round"/>
<path d="M221.404 259.696C221.404 259.696 227.2 265.729 227.792 268.687C228.383 271.644 226.964 274.246 224.598 273.536C222.232 272.826 220.104 265.492 219.512 264.191C218.921 262.89 218.211 261.47 218.211 261.47C218.211 261.47 219.985 259.105 221.404 259.696Z" fill="#4692B6" stroke="#263238" stroke-miterlimit="10" stroke-linecap="round" stroke-linejoin="round"/>
<path d="M227.842 269.003C228.275 271.825 226.879 274.22 224.598 273.536C223.777 273.29 222.986 272.246 222.276 270.934C223.813 268.421 226.301 268.586 227.842 269.003Z" fill="white" stroke="#263238" stroke-miterlimit="10" stroke-linecap="round" stroke-linejoin="round"/>
<path d="M221.459 269.244C222.746 271.019 224.41 272.924 225.663 272.59C226.969 272.241 227.568 269.911 227.795 268.703C228.378 271.653 226.96 274.245 224.599 273.536C223.445 273.19 222.349 271.272 221.459 269.244Z" fill="white" stroke="#263238" stroke-miterlimit="10" stroke-linecap="round" stroke-linejoin="round"/>
<path d="M220.221 263.009C220.221 263.009 222.824 261.589 222.942 262.062C223.06 262.536 220.458 263.837 220.104 263.837C219.748 263.836 219.511 263.718 220.221 263.009Z" fill="white" stroke="#263238" stroke-width="0.5" stroke-miterlimit="10" stroke-linecap="round" stroke-linejoin="round"/>
<path d="M220.813 263.836C220.813 263.836 223.415 262.417 223.534 262.89C223.652 263.363 221.049 264.664 220.694 264.664C220.339 264.664 220.103 264.546 220.813 263.836Z" fill="white" stroke="#263238" stroke-width="0.5" stroke-miterlimit="10" stroke-linecap="round" stroke-linejoin="round"/>
<path d="M221.404 264.664C221.404 264.664 224.007 263.245 224.125 263.718C224.244 264.191 221.641 265.493 221.286 265.493C220.931 265.493 220.695 265.374 221.404 264.664Z" fill="white" stroke="#263238" stroke-width="0.5" stroke-miterlimit="10" stroke-linecap="round" stroke-linejoin="round"/>
<path d="M221.996 265.493C221.996 265.493 224.598 264.073 224.717 264.546C224.835 265.019 222.232 266.321 221.877 266.321C221.523 266.321 221.286 266.202 221.996 265.493Z" fill="white" stroke="#263238" stroke-width="0.5" stroke-miterlimit="10" stroke-linecap="round" stroke-linejoin="round"/>
<path d="M174.684 265.121C174.684 265.121 176.947 268.272 177.15 270.063C177.353 271.853 175.857 271.897 173.942 271.692C172.028 271.486 169.749 272.901 167.053 272.831C164.357 272.761 161.253 271.58 162.749 270.301C164.246 269.022 168.144 267.972 168.983 267.236C169.822 266.5 170.401 265.809 170.401 265.809L174.684 265.121Z" fill="#4692B6" stroke="#263238" stroke-miterlimit="10" stroke-linecap="round" stroke-linejoin="round"/>
<path d="M162.75 270.301C163.17 269.942 163.782 269.601 164.46 269.28C166.261 270.189 166.997 271.864 167.281 272.829C167.205 272.83 167.13 272.833 167.053 272.831C164.357 272.761 161.253 271.58 162.75 270.301Z" fill="white" stroke="#263238" stroke-miterlimit="10" stroke-linecap="round" stroke-linejoin="round"/>
<path d="M169.233 266.816C169.233 266.816 172.008 268.268 171.305 268.551C170.603 268.833 168.497 267.212 169.233 266.816Z" fill="white" stroke="#263238" stroke-width="0.5" stroke-miterlimit="10" stroke-linecap="round" stroke-linejoin="round"/>
<path d="M168.157 267.11C168.157 267.11 170.932 268.562 170.229 268.845C169.526 269.127 167.42 267.506 168.157 267.11Z" fill="white" stroke="#263238" stroke-width="0.5" stroke-miterlimit="10" stroke-linecap="round" stroke-linejoin="round"/>
<path d="M167.534 267.54C167.534 267.54 170.309 268.992 169.606 269.275C168.903 269.558 166.797 267.936 167.534 267.54Z" fill="white" stroke="#263238" stroke-width="0.5" stroke-miterlimit="10" stroke-linecap="round" stroke-linejoin="round"/>
<path d="M166.389 268.06C166.389 268.06 169.163 269.512 168.461 269.795C167.758 270.078 165.652 268.456 166.389 268.06Z" fill="white" stroke="#263238" stroke-width="0.5" stroke-miterlimit="10" stroke-linecap="round" stroke-linejoin="round"/>
<path d="M162.436 270.698C164.469 271.945 166.642 272.091 168.89 271.654C171.383 271.168 172.686 270.943 175.077 270.797C176.082 270.736 176.738 270.592 177.165 270.446C177.115 271.854 175.709 271.881 173.943 271.691C172.028 271.485 169.75 272.9 167.054 272.83C164.64 272.768 161.91 271.815 162.436 270.698Z" fill="white" stroke="#263238" stroke-miterlimit="10" stroke-linecap="round" stroke-linejoin="round"/>
<path d="M203.114 195.631C203.114 195.631 201.746 214.634 202.574 219.247C203.402 223.86 205.435 237.576 205.435 237.576C205.435 237.576 208.511 239.824 211.586 244.792C214.662 249.76 221.404 259.696 221.404 259.696C221.404 259.696 221.641 261.471 219.511 262.062C219.511 262.062 218.447 262.536 217.855 262.062C217.264 261.589 197.036 242.9 194.671 238.996C192.305 235.093 189.109 211.104 189.109 211.104L186.033 210.512L173.037 235.355L175.295 265.552C175.295 265.552 175.476 266.594 173.991 267.012C172.507 267.43 171.328 267.587 170.445 266.827C169.561 266.067 162.712 232.99 163.277 231.811C163.842 230.633 176.971 198.115 176.971 198.115L178.036 195.394C178.036 195.394 190.456 196.813 196.016 195.749C201.576 194.685 202.641 193.857 203.114 195.631Z" fill="#263238" stroke="#263238" stroke-miterlimit="10" stroke-linecap="round" stroke-linejoin="round"/>
<path d="M186.033 210.512L179.291 208.501" stroke="white" stroke-miterlimit="10" stroke-linecap="round" stroke-linejoin="round"/>
<path d="M185.324 210.867L176.098 209.802" stroke="white" stroke-miterlimit="10" stroke-linecap="round" stroke-linejoin="round"/>
<path d="M200.992 199.332C200.992 199.332 196 202.513 201.024 204.639" stroke="white" stroke-miterlimit="10" stroke-linecap="round" stroke-linejoin="round"/>
<path d="M186.86 200.628L186.092 203.7L184.044 205.748L186.604 208.051" stroke="white" stroke-miterlimit="10" stroke-linecap="round" stroke-linejoin="round"/>
<path d="M216.104 164.27C211.555 160.576 205.906 156.115 205.906 156.115C205.906 156.115 193.925 155.845 189.536 155.895L183.362 175.601C183.362 175.601 177.684 195.237 177.921 196.065C178.157 196.893 182.179 198.786 191.169 199.85C200.159 200.915 203.944 197.129 204.181 195.947C204.417 194.764 203.944 192.753 203.944 192.753L207.019 187.312L217.192 170.583C218.459 168.501 217.995 165.805 216.104 164.27Z" fill="#4692B6" stroke="#263238" stroke-miterlimit="10" stroke-linecap="round" stroke-linejoin="round"/>
<path d="M212.53 161.389C209.047 158.595 205.906 156.115 205.906 156.115C205.906 156.115 201.93 156.025 197.721 155.959C196.656 158.39 194.818 163.359 196.33 165.816C198.195 168.846 204.304 169.75 212.53 161.389Z" fill="#263238" stroke="#263238" stroke-miterlimit="10" stroke-linecap="round" stroke-linejoin="round"/>
<path d="M207.138 135.856C207.138 135.856 203.707 136.803 202.288 138.932C200.868 141.061 196.728 153.481 196.847 154.546C196.965 155.611 202.288 154.546 202.288 154.546C202.288 154.546 198.621 162.235 198.621 163.536C198.621 164.837 200.277 165.547 202.406 165.074C204.536 164.601 211.789 152.112 211.789 152.112C211.789 152.112 213.938 154.611 215.3 153.754C216.856 152.773 216.364 150.797 215.181 150.797C213.998 150.797 218.493 145.947 216.956 142.753C215.418 139.558 208.557 134.792 207.138 135.856Z" fill="#E4897B" stroke="#263238" stroke-miterlimit="10" stroke-linecap="round" stroke-linejoin="round"/>
<path d="M205.837 132.071C205.837 132.071 199.213 132.071 198.858 135.265C198.503 138.458 201.934 139.878 205.719 139.287C209.504 138.695 212.934 138.932 213.407 139.523C213.881 140.115 208.794 141.298 209.977 142.126C211.16 142.954 212.343 142.836 212.343 142.836C212.343 142.836 210.687 143.309 210.805 144.492C210.924 145.675 211.953 150.9 212.781 150.9C213.61 150.9 215.183 150.796 215.183 150.796C215.183 150.796 217.43 149.731 219.204 147.839C220.979 145.946 221.452 141.924 219.204 139.558C216.956 137.192 215.183 134.91 213.408 133.017C211.634 131.124 209.978 129.114 206.429 128.641C202.879 128.168 200.987 129.587 205.837 132.071Z" fill="#263238" stroke="#263238" stroke-miterlimit="10" stroke-linecap="round" stroke-linejoin="round"/>
<path d="M219.65 144.284C219.846 145.489 219.721 146.383 219.721 146.383" stroke="white" stroke-miterlimit="10" stroke-linecap="round" stroke-linejoin="round"/>
<path d="M207.492 135.807C207.492 135.807 200.233 136.514 202.976 137.9C205.719 139.287 209.916 136.688 215.204 138.781C217.437 139.665 218.591 141.159 219.177 142.59" stroke="white" stroke-miterlimit="10" stroke-linecap="round" stroke-linejoin="round"/>
<path d="M211.899 141.315C211.899 141.315 216.857 143.739 217.518 147.264" stroke="white" stroke-miterlimit="10" stroke-linecap="round" stroke-linejoin="round"/>
<path d="M202.288 154.546C202.288 154.546 207.966 154.191 209.504 152.89" stroke="#263238" stroke-miterlimit="10" stroke-linecap="round" stroke-linejoin="round"/>
<path d="M200.513 149.815C200.513 149.815 204.653 150.998 205.836 148.513L200.513 149.815Z" fill="#E4897B"/>
<path d="M200.513 149.815C200.513 149.815 204.653 150.998 205.836 148.513" stroke="#263238" stroke-miterlimit="10" stroke-linecap="round" stroke-linejoin="round"/>
<path d="M205.127 148.04L206.901 148.75" stroke="#263238" stroke-miterlimit="10" stroke-linecap="round" stroke-linejoin="round"/>
<path d="M201.815 144.373C201.815 144.373 198.148 144.847 198.148 145.438C198.148 146.03 200.514 147.686 200.514 147.686" fill="#E4897B"/>
<path d="M201.815 144.373C201.815 144.373 198.148 144.847 198.148 145.438C198.148 146.03 200.514 147.686 200.514 147.686" stroke="#263238" stroke-miterlimit="10" stroke-linecap="round" stroke-linejoin="round"/>
<path d="M202.282 143.237C202.111 143.749 201.765 144.095 201.509 144.009C201.254 143.924 201.184 143.439 201.355 142.928C201.526 142.416 201.872 142.071 202.128 142.156C202.384 142.241 202.453 142.726 202.282 143.237Z" fill="#263238"/>
<path d="M205.391 144.815C205.22 145.326 204.874 145.672 204.618 145.586C204.362 145.501 204.294 145.017 204.464 144.505C204.635 143.994 204.981 143.648 205.237 143.734C205.493 143.819 205.562 144.303 205.391 144.815Z" fill="#263238"/>
<path d="M205.562 141.454C205.562 141.454 207.353 141.617 207.19 144.059L205.562 141.454Z" fill="#263238" stroke="#263238" stroke-miterlimit="10" stroke-linecap="round" stroke-linejoin="round"/>
<path d="M203.935 140.315C203.935 140.315 202.958 139.012 201.656 140.803L203.935 140.315Z" fill="#263238" stroke="#263238" stroke-miterlimit="10" stroke-linecap="round" stroke-linejoin="round"/>
<path d="M171.294 97.0528L154.177 75.5047L137.059 97.0528H143.755V129.494H164.599V97.0528H171.294Z" fill="#263238" stroke="#263238" stroke-miterlimit="10" stroke-linecap="round" stroke-linejoin="round"/>
<path d="M171.294 95.6572L154.177 74.1091L137.059 95.6572H143.755V128.099H164.599V95.6572H171.294Z" fill="white" stroke="#198DC5" stroke-miterlimit="10" stroke-linecap="round" stroke-linejoin="round"/>
<path d="M187.566 124.435H117.942V194.059H187.566V124.435Z" fill="#F8F6F1" stroke="#198DC5" stroke-width="2" stroke-miterlimit="10" stroke-linecap="round" stroke-linejoin="round"/>
<path d="M207.407 167.277L190.005 185.167L163.488 192.471C163.488 192.471 161.124 189.719 159.418 189.704C157.712 189.688 152.232 191.686 152.232 191.686C152.232 191.686 151.534 193.386 152.899 193.398C154.264 193.411 157 192.754 157 192.754L149.48 194.05C149.666 195.233 150.681 196.109 151.878 196.119L155.263 196.15L161.058 196.886L166.535 195.23C166.535 195.23 192.5 192.397 193.868 192.068C195.237 191.739 217.254 172.828 217.254 172.828C217.254 172.828 219.747 170.636 218.796 168.095C217.846 165.554 212.992 163.756 212.992 163.756" fill="#E4897B"/>
<path d="M207.407 167.277L190.005 185.167L163.488 192.471C163.488 192.471 161.124 189.719 159.418 189.704C157.712 189.688 152.232 191.686 152.232 191.686C152.232 191.686 151.534 193.386 152.899 193.398C154.264 193.411 157 192.754 157 192.754L149.48 194.05C149.666 195.233 150.681 196.109 151.878 196.119L155.263 196.15L161.058 196.886L166.535 195.23C166.535 195.23 192.5 192.397 193.868 192.068C195.237 191.739 217.254 172.828 217.254 172.828C217.254 172.828 219.747 170.636 218.796 168.095C217.846 165.554 212.992 163.756 212.992 163.756" stroke="#263238" stroke-miterlimit="10" stroke-linecap="round" stroke-linejoin="round"/>
<path d="M204.266 169.144L191.004 182.449L200.873 189.552L217.986 173.437C219.699 171.823 220.078 169.23 218.862 167.215C218.843 167.184 218.824 167.153 218.805 167.121C216.886 163.987 213.782 162.596 213.782 162.596" fill="#4692B6"/>
<path d="M204.266 169.144L191.004 182.449L200.873 189.552L217.986 173.437C219.699 171.823 220.078 169.23 218.862 167.215C218.843 167.184 218.824 167.153 218.805 167.121C216.886 163.987 213.782 162.596 213.782 162.596" stroke="#263238" stroke-miterlimit="10" stroke-linecap="round" stroke-linejoin="round"/>
<path d="M200.873 189.552L203.192 187.368L193.293 180.153L191.004 182.449L200.873 189.552Z" fill="#263238" stroke="#263238" stroke-miterlimit="10" stroke-linecap="round" stroke-linejoin="round"/>
<path d="M137.387 192.742L139.889 195.448L142.309 195.716L138.544 192.49L137.387 192.742Z" fill="#E4897B" stroke="#263238" stroke-miterlimit="10" stroke-linecap="round" stroke-linejoin="round"/>
<path d="M142.091 192.742L144.594 195.448L147.013 195.716L143.25 192.49L142.091 192.742Z" fill="#E4897B" stroke="#263238" stroke-miterlimit="10" stroke-linecap="round" stroke-linejoin="round"/>
<path d="M142.309 195.716L139.486 192.087H141.233L144.729 195.716L143.25 195.985L142.309 195.716Z" fill="#E4897B" stroke="#263238" stroke-miterlimit="10" stroke-linecap="round" stroke-linejoin="round"/>
<path d="M136.394 193.028L137.604 195.313L139.889 195.448L137.387 192.742L136.394 193.028Z" fill="#E4897B" stroke="#263238" stroke-miterlimit="10" stroke-linecap="round" stroke-linejoin="round"/>
<path d="M141.104 175.841L141.173 175.8L141.104 175.841ZM141.104 175.841L141.076 175.857L141.104 175.841ZM141.198 175.786L141.23 175.767L141.198 175.786Z" fill="#4692B6" stroke="#4692B6" stroke-width="5"/>
</svg>
