<svg width="20" height="20" viewBox="0 0 20 20" fill="none" xmlns="http://www.w3.org/2000/svg">
<path d="M11.6966 8.28516C11.6966 8.19964 11.6756 8.1156 11.6359 8.0413C11.5961 7.967 11.5388 7.90499 11.4697 7.86138M11.6966 8.28516L5.04175 4.09354C5.11135 4.05049 5.19055 4.02817 5.27105 4.0289C5.35155 4.02964 5.43038 4.05341 5.49928 4.09772L6.25389 4.57342L10.8527 7.47246L11.4697 7.86138M11.6966 8.28516C11.6968 8.37064 11.676 8.4547 11.6364 8.52904M11.6966 8.28516L11.6364 8.52904M11.4697 7.86138L11.2135 8.26744M11.4697 7.86138L11.1975 8.27602M11.1975 8.27602L11.2135 8.26744M11.1975 8.27602L11.2135 8.26744M11.1975 8.27602L11.2135 8.26744M11.6364 8.52904C11.5967 8.60338 11.5395 8.66544 11.4705 8.70909L10.8531 9.09835L6.25437 11.9976L11.6364 8.52904Z" fill="#DBDBDB" stroke="white" stroke-width="2"/>
<mask id="path-2-inside-1_293_14435" fill="white">
<path d="M15.4238 12.1583C15.3374 12.0692 15.2219 12.0194 15.1016 12.0194C14.9813 12.0194 14.8657 12.0692 14.7793 12.1583L13.0128 13.9804C12.9247 14.0709 12.8739 14.195 12.8717 14.3253C12.8694 14.4557 12.916 14.5817 13.001 14.6755C13.0861 14.7693 13.2027 14.8234 13.3252 14.8257C13.4477 14.8281 13.566 14.7786 13.6542 14.6881L14.632 13.6761V17.0672C14.632 17.1979 14.6808 17.3233 14.7677 17.4157C14.8545 17.5081 14.9723 17.56 15.0951 17.56C15.2179 17.56 15.3357 17.5081 15.4225 17.4157C15.5093 17.3233 15.5581 17.1979 15.5581 17.0672V13.6761L16.5424 14.6881C16.6307 14.779 16.7492 14.829 16.8721 14.827C16.9949 14.8251 17.112 14.7714 17.1977 14.6777C17.2834 14.5841 17.3306 14.458 17.3292 14.3273C17.3277 14.1966 17.2776 14.0718 17.1898 13.9804L15.4238 12.1583Z"/>
</mask>
<path d="M15.4238 12.1583C15.3374 12.0692 15.2219 12.0194 15.1016 12.0194C14.9813 12.0194 14.8657 12.0692 14.7793 12.1583L13.0128 13.9804C12.9247 14.0709 12.8739 14.195 12.8717 14.3253C12.8694 14.4557 12.916 14.5817 13.001 14.6755C13.0861 14.7693 13.2027 14.8234 13.3252 14.8257C13.4477 14.8281 13.566 14.7786 13.6542 14.6881L14.632 13.6761V17.0672C14.632 17.1979 14.6808 17.3233 14.7677 17.4157C14.8545 17.5081 14.9723 17.56 15.0951 17.56C15.2179 17.56 15.3357 17.5081 15.4225 17.4157C15.5093 17.3233 15.5581 17.1979 15.5581 17.0672V13.6761L16.5424 14.6881C16.6307 14.779 16.7492 14.829 16.8721 14.827C16.9949 14.8251 17.112 14.7714 17.1977 14.6777C17.2834 14.5841 17.3306 14.458 17.3292 14.3273C17.3277 14.1966 17.2776 14.0718 17.1898 13.9804L15.4238 12.1583Z" fill="#DBDBDB"/>
<path d="M15.4238 12.1583L16.86 10.7664L16.8598 10.7662L15.4238 12.1583ZM14.7793 12.1583L16.2152 13.5505L16.2153 13.5504L14.7793 12.1583ZM13.0128 13.9804L14.4454 15.3761L14.4488 15.3725L13.0128 13.9804ZM13.6542 14.6881L15.0867 16.0837L15.0925 16.0778L13.6542 14.6881ZM14.632 13.6761H16.632V8.72797L13.1938 12.2863L14.632 13.6761ZM15.0951 17.56V19.56V17.56ZM15.5581 17.0672H17.5581H15.5581ZM15.5581 13.6761L16.9918 12.2816L13.5581 8.75139V13.6761H15.5581ZM16.5424 14.6881L17.9776 13.2951L17.9761 13.2936L16.5424 14.6881ZM17.1898 13.9804L18.6326 12.5953L18.6259 12.5885L17.1898 13.9804ZM16.8598 10.7662C16.4101 10.3024 15.782 10.0194 15.1016 10.0194V14.0194C14.6617 14.0194 14.2648 13.8361 13.9878 13.5504L16.8598 10.7662ZM15.1016 10.0194C14.4211 10.0194 13.793 10.3024 13.3433 10.7662L16.2153 13.5504C15.9383 13.8361 15.5414 14.0194 15.1016 14.0194V10.0194ZM13.3433 10.7662L11.5769 12.5883L14.4488 15.3725L16.2152 13.5505L13.3433 10.7662ZM11.5803 12.5847C11.1242 13.0529 10.8825 13.6693 10.8719 14.2914L14.8714 14.3593C14.8652 14.7206 14.7251 15.0889 14.4454 15.3761L11.5803 12.5847ZM10.8719 14.2914C10.8614 14.9133 11.0818 15.5361 11.5191 16.0186L14.483 13.3324C14.7502 13.6272 14.8775 13.9981 14.8714 14.3593L10.8719 14.2914ZM11.5191 16.0186C11.9602 16.5053 12.5925 16.812 13.2867 16.8254L13.3636 12.8261C13.8128 12.8347 14.212 13.0334 14.483 13.3324L11.5191 16.0186ZM13.2867 16.8254C13.9812 16.8387 14.6264 16.5561 15.0867 16.0837L12.2217 13.2924C12.5056 13.001 12.9141 12.8175 13.3636 12.8261L13.2867 16.8254ZM15.0925 16.0778L16.0703 15.0658L13.1938 12.2863L12.2159 13.2983L15.0925 16.0778ZM12.632 13.6761V17.0672H16.632V13.6761H12.632ZM12.632 17.0672C12.632 17.6896 12.8632 18.3096 13.3102 18.7852L16.2252 16.0461C16.4985 16.337 16.632 16.7063 16.632 17.0672H12.632ZM13.3102 18.7852C13.7611 19.2651 14.4003 19.56 15.0951 19.56V15.56C15.5443 15.56 15.9479 15.751 16.2252 16.0461L13.3102 18.7852ZM15.0951 19.56C15.7899 19.56 16.429 19.2651 16.88 18.7852L13.965 16.0461C14.2423 15.751 14.6459 15.56 15.0951 15.56V19.56ZM16.88 18.7852C17.327 18.3096 17.5581 17.6896 17.5581 17.0672H13.5581C13.5581 16.7063 13.6917 16.337 13.965 16.0461L16.88 18.7852ZM17.5581 17.0672V13.6761H13.5581V17.0672H17.5581ZM14.1244 15.0705L15.1088 16.0825L17.9761 13.2936L16.9918 12.2816L14.1244 15.0705ZM15.1073 16.081C15.5661 16.5538 16.2098 16.8377 16.9036 16.8268L16.8405 12.8273C17.2887 12.8202 17.6953 13.0042 17.9776 13.2951L15.1073 16.081ZM16.9036 16.8268C17.5972 16.8158 18.2303 16.5121 18.6734 16.0276L15.722 13.3278C15.9937 13.0307 16.3926 12.8343 16.8405 12.8273L16.9036 16.8268ZM18.6734 16.0276C19.1127 15.5474 19.3361 14.9261 19.329 14.3046L15.3293 14.35C15.3252 13.99 15.454 13.6207 15.722 13.3278L18.6734 16.0276ZM19.329 14.3046C19.322 13.6831 19.0845 13.0661 18.6326 12.5953L15.747 15.3654C15.4706 15.0776 15.3334 14.7101 15.3293 14.35L19.329 14.3046ZM18.6259 12.5885L16.86 10.7664L13.9877 13.5503L15.7536 15.3723L18.6259 12.5885Z" fill="white" mask="url(#path-2-inside-1_293_14435)"/>
<mask id="path-4-inside-2_293_14435" fill="white">
<path d="M15.5581 9.59127V1.96456C15.5598 1.7072 15.5136 1.45202 15.4223 1.21373C15.3309 0.975441 15.1961 0.758745 15.0257 0.576132C14.8553 0.393519 14.6526 0.248598 14.4293 0.149718C14.206 0.0508388 13.9666 -4.40171e-05 13.7247 1.42744e-06H1.84604C1.60354 -0.000309854 1.36335 0.0502926 1.13925 0.148911C0.915144 0.247529 0.711521 0.392226 0.540042 0.574714C0.368563 0.757203 0.232596 0.973899 0.139927 1.21239C0.0472584 1.45088 -0.00029116 1.70649 1.34132e-06 1.96456V14.6059C-4.13616e-05 14.8633 0.0477718 15.1181 0.140686 15.3557C0.2336 15.5933 0.369778 15.809 0.541374 15.9904C0.712971 16.1718 0.916593 16.3152 1.14051 16.4124C1.36442 16.5097 1.60421 16.5588 1.84604 16.557H10.4894C10.7877 17.4353 11.3021 18.2123 11.9789 18.8068C12.6558 19.4013 13.4701 19.7915 14.3371 19.9366C15.204 20.0818 16.0916 19.9766 16.9072 19.632C17.7229 19.2874 18.4366 18.716 18.974 17.9776C19.5113 17.2392 19.8524 16.3608 19.9618 15.4342C20.0712 14.5076 19.9447 13.5667 19.5957 12.7098C19.2467 11.8529 18.6879 11.1115 17.9777 10.5629C17.2674 10.0143 16.4318 9.67878 15.5581 9.59127ZM1.84604 15.5714C1.72579 15.5734 1.60637 15.5499 1.49474 15.5022C1.38312 15.4546 1.28153 15.3838 1.1959 15.2939C1.11026 15.204 1.0423 15.0969 0.995979 14.9788C0.949654 14.8607 0.925892 14.7339 0.926079 14.6059V1.96456C0.925663 1.83587 0.949174 1.70836 0.995259 1.58938C1.04134 1.4704 1.10909 1.3623 1.1946 1.2713C1.28011 1.1803 1.38169 1.1082 1.4935 1.05916C1.6053 1.01011 1.72512 0.985093 1.84604 0.985535H13.7247C13.845 0.985344 13.9641 1.01064 14.0751 1.05994C14.1861 1.10924 14.2867 1.18156 14.3712 1.27269C14.4556 1.36382 14.5222 1.47193 14.567 1.59072C14.6118 1.7095 14.6339 1.83659 14.632 1.96456V9.5889C12.1779 9.83179 10.184 12.0614 10.184 14.7798C10.1864 15.0451 10.2089 15.3099 10.2512 15.5714H1.84604ZM15.1014 19.0273C14.0474 19.026 13.0369 18.58 12.2914 17.787C11.5459 16.9941 11.1262 15.919 11.1244 14.7973C11.1225 13.6756 11.5387 12.5989 12.2816 11.8032C13.0245 11.0076 14.0335 10.5578 15.0875 10.5526C15.0963 10.5531 15.1049 10.554 15.1137 10.554C15.1198 10.554 15.1256 10.5532 15.1316 10.553C16.1855 10.5606 17.1936 11.0126 17.9349 11.8098C18.6762 12.6071 19.0902 13.6846 19.0862 14.8062C19.0822 15.9278 18.6605 17.002 17.9135 17.7932C17.1665 18.5845 16.1553 19.0283 15.1014 19.0273Z"/>
</mask>
<path d="M15.5581 9.59127V1.96456C15.5598 1.7072 15.5136 1.45202 15.4223 1.21373C15.3309 0.975441 15.1961 0.758745 15.0257 0.576132C14.8553 0.393519 14.6526 0.248598 14.4293 0.149718C14.206 0.0508388 13.9666 -4.40171e-05 13.7247 1.42744e-06H1.84604C1.60354 -0.000309854 1.36335 0.0502926 1.13925 0.148911C0.915144 0.247529 0.711521 0.392226 0.540042 0.574714C0.368563 0.757203 0.232596 0.973899 0.139927 1.21239C0.0472584 1.45088 -0.00029116 1.70649 1.34132e-06 1.96456V14.6059C-4.13616e-05 14.8633 0.0477718 15.1181 0.140686 15.3557C0.2336 15.5933 0.369778 15.809 0.541374 15.9904C0.712971 16.1718 0.916593 16.3152 1.14051 16.4124C1.36442 16.5097 1.60421 16.5588 1.84604 16.557H10.4894C10.7877 17.4353 11.3021 18.2123 11.9789 18.8068C12.6558 19.4013 13.4701 19.7915 14.3371 19.9366C15.204 20.0818 16.0916 19.9766 16.9072 19.632C17.7229 19.2874 18.4366 18.716 18.974 17.9776C19.5113 17.2392 19.8524 16.3608 19.9618 15.4342C20.0712 14.5076 19.9447 13.5667 19.5957 12.7098C19.2467 11.8529 18.6879 11.1115 17.9777 10.5629C17.2674 10.0143 16.4318 9.67878 15.5581 9.59127ZM1.84604 15.5714C1.72579 15.5734 1.60637 15.5499 1.49474 15.5022C1.38312 15.4546 1.28153 15.3838 1.1959 15.2939C1.11026 15.204 1.0423 15.0969 0.995979 14.9788C0.949654 14.8607 0.925892 14.7339 0.926079 14.6059V1.96456C0.925663 1.83587 0.949174 1.70836 0.995259 1.58938C1.04134 1.4704 1.10909 1.3623 1.1946 1.2713C1.28011 1.1803 1.38169 1.1082 1.4935 1.05916C1.6053 1.01011 1.72512 0.985093 1.84604 0.985535H13.7247C13.845 0.985344 13.9641 1.01064 14.0751 1.05994C14.1861 1.10924 14.2867 1.18156 14.3712 1.27269C14.4556 1.36382 14.5222 1.47193 14.567 1.59072C14.6118 1.7095 14.6339 1.83659 14.632 1.96456V9.5889C12.1779 9.83179 10.184 12.0614 10.184 14.7798C10.1864 15.0451 10.2089 15.3099 10.2512 15.5714H1.84604ZM15.1014 19.0273C14.0474 19.026 13.0369 18.58 12.2914 17.787C11.5459 16.9941 11.1262 15.919 11.1244 14.7973C11.1225 13.6756 11.5387 12.5989 12.2816 11.8032C13.0245 11.0076 14.0335 10.5578 15.0875 10.5526C15.0963 10.5531 15.1049 10.554 15.1137 10.554C15.1198 10.554 15.1256 10.5532 15.1316 10.553C16.1855 10.5606 17.1936 11.0126 17.9349 11.8098C18.6762 12.6071 19.0902 13.6846 19.0862 14.8062C19.0822 15.9278 18.6605 17.002 17.9135 17.7932C17.1665 18.5845 16.1553 19.0283 15.1014 19.0273Z" fill="#DBDBDB"/>
<path d="M15.5581 9.59127H13.5581V11.4009L15.3588 11.5813L15.5581 9.59127ZM15.5581 1.96456L13.5581 1.95127V1.96456H15.5581ZM13.7247 1.42744e-06V2H13.7251L13.7247 1.42744e-06ZM1.84604 1.42744e-06L1.84348 2H1.84604V1.42744e-06ZM1.34132e-06 1.96456H2L2 1.9623L1.34132e-06 1.96456ZM1.34132e-06 14.6059L2 14.6062V14.6059H1.34132e-06ZM0.541374 15.9904L1.99415 14.6158L0.541374 15.9904ZM1.84604 16.557V14.557H1.83852L1.83099 14.557L1.84604 16.557ZM10.4894 16.557L12.3832 15.9138L11.9224 14.557H10.4894V16.557ZM1.84604 15.5714V13.5714H1.82962L1.81319 13.5717L1.84604 15.5714ZM0.926079 14.6059L2.92608 14.6088V14.6059H0.926079ZM0.926079 1.96456H2.92609L2.92607 1.9581L0.926079 1.96456ZM1.84604 0.985535L1.83872 2.98554H1.84604V0.985535ZM13.7247 0.985535V2.98554L13.7279 2.98553L13.7247 0.985535ZM14.632 1.96456L12.6322 1.93565L12.632 1.95011V1.96456H14.632ZM14.632 9.5889L14.829 11.5792L16.632 11.4007V9.5889H14.632ZM10.184 14.7798H8.18403V14.7888L8.18411 14.7978L10.184 14.7798ZM10.2512 15.5714V17.5714H12.6009L12.2255 15.252L10.2512 15.5714ZM15.1014 19.0273L15.0989 21.0273H15.0996L15.1014 19.0273ZM15.0875 10.5526L15.2112 8.55638L15.1444 8.55225L15.0776 8.55258L15.0875 10.5526ZM15.1316 10.553L15.146 8.55305L15.0976 8.5527L15.0492 8.5547L15.1316 10.553ZM17.5581 9.59127V1.96456H13.5581V9.59127H17.5581ZM17.5581 1.97786C17.5614 1.4734 17.4711 0.970711 17.2897 0.497678L13.5549 1.92979C13.5562 1.93334 13.5582 1.941 13.5581 1.95127L17.5581 1.97786ZM17.2897 0.497678C17.1083 0.0245121 16.8377 -0.413573 16.4879 -0.78841L13.5635 1.94067C13.5545 1.93106 13.5535 1.92637 13.5549 1.92979L17.2897 0.497678ZM16.4879 -0.78841C16.1379 -1.16351 15.7147 -1.46841 15.2392 -1.67899L13.6195 1.97842C13.5905 1.9656 13.5727 1.95055 13.5635 1.94067L16.4879 -0.78841ZM15.2392 -1.67899C14.7633 -1.88973 14.2481 -2.0001 13.7244 -2L13.7251 2C13.6851 2.00001 13.6488 1.99141 13.6195 1.97842L15.2392 -1.67899ZM13.7247 -2H1.84604V2H13.7247V-2ZM1.84861 -2C1.32513 -2.00067 0.809923 -1.89125 0.333686 -1.68168L1.94481 1.9795C1.91678 1.99184 1.88194 2.00005 1.84348 2L1.84861 -2ZM0.333686 -1.68168C-0.142184 -1.47227 -0.566154 -1.1687 -0.917453 -0.794851L1.99754 1.94428C1.9892 1.95315 1.97247 1.96733 1.94481 1.9795L0.333686 -1.68168ZM-0.917453 -0.794851C-1.26851 -0.421258 -1.54076 0.0156935 -1.72429 0.48803L2.00414 1.93675C2.00595 1.9321 2.00563 1.93566 1.99754 1.94428L-0.917453 -0.794851ZM-1.72429 0.48803C-1.90777 0.960235 -2.00057 1.46241 -2 1.96683L2 1.9623C1.99999 1.95056 2.00229 1.94153 2.00414 1.93675L-1.72429 0.48803ZM-2 1.96456V14.6059H2V1.96456H-2ZM-2 14.6056C-2.00008 15.11 -1.9065 15.6122 -1.72198 16.0841L2.00335 14.6274C2.00204 14.624 2 14.6165 2 14.6062L-2 14.6056ZM-1.72198 16.0841C-1.5374 16.5561 -1.26386 16.9925 -0.911398 17.365L1.99415 14.6158C2.00342 14.6256 2.0046 14.6306 2.00335 14.6274L-1.72198 16.0841ZM-0.911398 17.365C-0.558682 17.7378 -0.133257 18.0397 0.343859 18.2469L1.93716 14.5779C1.96644 14.5907 1.98462 14.6058 1.99415 14.6158L-0.911398 17.365ZM0.343859 18.2469C0.82134 18.4543 1.33741 18.5609 1.8611 18.5569L1.83099 14.557C1.87101 14.5567 1.90751 14.5651 1.93716 14.5779L0.343859 18.2469ZM1.84604 18.557H10.4894V14.557H1.84604V18.557ZM8.59567 17.2001C9.00315 18.4 9.7109 19.4766 10.6591 20.3094L13.2988 17.3041C12.8934 16.948 12.5723 16.4706 12.3832 15.9138L8.59567 17.2001ZM10.6591 20.3094C11.6083 21.1431 12.7632 21.7009 14.0068 21.9092L14.6673 17.9641C14.1771 17.882 13.7033 17.6594 13.2988 17.3041L10.6591 20.3094ZM14.0068 21.9092C15.251 22.1175 16.523 21.9655 17.6856 21.4743L16.1289 17.7896C15.6602 17.9876 15.1569 18.046 14.6673 17.9641L14.0068 21.9092ZM17.6856 21.4743C18.847 20.9836 19.8469 20.1771 20.5911 19.1544L17.3568 16.8009C17.0264 17.255 16.5988 17.5911 16.1289 17.7896L17.6856 21.4743ZM20.5911 19.1544C21.3347 18.1325 21.7993 16.9281 21.948 15.6686L17.9756 15.1998C17.9055 15.7936 17.6878 16.346 17.3568 16.8009L20.5911 19.1544ZM21.948 15.6686C22.0966 14.4093 21.9256 13.128 21.448 11.9553L17.7435 13.4642C17.9639 14.0053 18.0457 14.6058 17.9756 15.1998L21.948 15.6686ZM21.448 11.9553C20.9701 10.7822 20.1987 9.75124 19.2002 8.98006L16.7551 12.1458C17.1771 12.4717 17.5233 12.9236 17.7435 13.4642L21.448 11.9553ZM19.2002 8.98006C18.2006 8.208 17.0122 7.7269 15.7574 7.60123L15.3588 11.5813C15.8515 11.6307 16.3342 11.8207 16.7551 12.1458L19.2002 8.98006ZM1.81319 13.5717C1.97651 13.569 2.13565 13.6012 2.28001 13.6628L0.709472 17.3416C1.07708 17.4986 1.47507 17.5778 1.8789 17.5712L1.81319 13.5717ZM2.28001 13.6628C2.42399 13.7243 2.54649 13.812 2.64386 13.9142L-0.252068 16.6735C0.016568 16.9555 0.342247 17.1848 0.709472 17.3416L2.28001 13.6628ZM2.64386 13.9142C2.74097 14.0162 2.81175 14.1309 2.8579 14.2485L-0.865942 15.709C-0.727141 16.0629 -0.520446 16.3918 -0.252068 16.6735L2.64386 13.9142ZM2.8579 14.2485C2.904 14.3661 2.92625 14.4882 2.92608 14.6088L-1.07392 14.603C-1.07447 14.9796 -1.00469 15.3552 -0.865942 15.709L2.8579 14.2485ZM2.92608 14.6059V1.96456H-1.07392V14.6059H2.92608ZM2.92607 1.9581C2.92645 2.07644 2.90497 2.19628 2.86025 2.31175L-0.869729 0.867014C-1.00662 1.22045 -1.07513 1.5953 -1.07391 1.97103L2.92607 1.9581ZM2.86025 2.31175C2.81547 2.42736 2.74667 2.54022 2.6521 2.64086L-0.262892 -0.0982657C-0.528487 0.184381 -0.732781 0.513447 -0.869729 0.867014L2.86025 2.31175ZM2.6521 2.64086C2.55727 2.74178 2.43777 2.82891 2.29692 2.89069L0.69007 -0.772373C0.325621 -0.612502 0.00295009 -0.381176 -0.262892 -0.0982657L2.6521 2.64086ZM2.29692 2.89069C2.15571 2.95263 1.99958 2.98611 1.83872 2.98552L1.85337 -1.01445C1.45065 -1.01593 1.05489 -0.932405 0.69007 -0.772373L2.29692 2.89069ZM1.84604 2.98554H13.7247V-1.01446H1.84604V2.98554ZM13.7279 2.98553C13.5646 2.98579 13.4062 2.95125 13.2632 2.88772L14.887 -0.767848C14.522 -0.929982 14.1254 -1.01511 13.7216 -1.01446L13.7279 2.98553ZM13.2632 2.88772C13.1205 2.82436 12.9998 2.73521 12.9042 2.63213L15.8381 -0.0867453C15.5737 -0.372087 15.2516 -0.605883 14.887 -0.767848L13.2632 2.88772ZM12.9042 2.63213C12.809 2.52932 12.74 2.41414 12.6955 2.29623L16.4384 0.885206C16.3044 0.529718 16.1023 0.19832 15.8381 -0.0867453L12.9042 2.63213ZM12.6955 2.29623C12.6511 2.17845 12.6305 2.05626 12.6322 1.93565L16.6318 1.99348C16.6373 1.61692 16.5724 1.24056 16.4384 0.885206L12.6955 2.29623ZM12.632 1.96456V9.5889H16.632V1.96456H12.632ZM14.435 7.59863C10.8828 7.95019 8.18403 11.1101 8.18403 14.7798H12.184C12.184 13.0127 13.473 11.7134 14.829 11.5792L14.435 7.59863ZM8.18411 14.7978C8.18741 15.164 8.21842 15.5295 8.2769 15.8909L12.2255 15.252C12.1994 15.0903 12.1854 14.9263 12.1839 14.7617L8.18411 14.7978ZM10.2512 13.5714H1.84604V17.5714H10.2512V13.5714ZM15.1039 17.0273C14.6208 17.0267 14.1305 16.8234 13.7485 16.4171L10.8343 19.157C11.9433 20.3366 13.474 21.0253 15.0989 21.0273L15.1039 17.0273ZM13.7485 16.4171C13.3626 16.0066 13.1254 15.4249 13.1244 14.794L9.12437 14.8006C9.12702 16.413 9.72919 17.9816 10.8343 19.157L13.7485 16.4171ZM13.1244 14.794C13.1233 14.1631 13.3586 13.5803 13.7434 13.1681L10.8197 10.4384C9.71874 11.6176 9.12173 13.1882 9.12437 14.8006L13.1244 14.794ZM13.7434 13.1681C14.1244 12.7601 14.6143 12.5549 15.0975 12.5525L15.0776 8.55258C13.4527 8.56066 11.9246 9.25498 10.8197 10.4384L13.7434 13.1681ZM14.9639 12.5487C14.9538 12.5481 14.9461 12.5475 14.9479 12.5477C14.9502 12.5478 14.9463 12.5475 14.9494 12.5478C14.9503 12.5478 14.9517 12.5479 14.9533 12.5481C14.9564 12.5483 14.9615 12.5486 14.9677 12.5491C14.9902 12.5506 15.0449 12.554 15.1137 12.554V8.55399C15.1737 8.55399 15.2197 8.55698 15.2335 8.5579C15.2397 8.55831 15.246 8.55878 15.2403 8.55836C15.2377 8.55817 15.2256 8.55728 15.2112 8.55638L14.9639 12.5487ZM15.1137 12.554C15.1556 12.554 15.1908 12.5527 15.2163 12.5515C15.241 12.5502 15.2607 12.5488 15.2681 12.5483C15.2714 12.548 15.2753 12.5478 15.2743 12.5478C15.2743 12.5478 15.2741 12.5479 15.2738 12.5479C15.2735 12.5479 15.273 12.5479 15.2724 12.548C15.2713 12.5481 15.2695 12.5482 15.2673 12.5483C15.2592 12.5489 15.2395 12.5503 15.214 12.5513L15.0492 8.5547C15.0207 8.55587 14.9981 8.55739 14.987 8.55818C14.9814 8.55857 14.9768 8.55892 14.9755 8.55901C14.973 8.5592 14.9754 8.55901 14.9773 8.55888C14.9817 8.55855 14.9984 8.55734 15.0202 8.55627C15.0427 8.55517 15.0749 8.55399 15.1137 8.55399V12.554ZM15.1172 12.5529C15.6003 12.5564 16.0899 12.7627 16.4702 13.1717L19.3996 10.448C18.2973 9.2624 16.7707 8.56475 15.146 8.55305L15.1172 12.5529ZM16.4702 13.1717C16.8543 13.5848 17.0885 14.1682 17.0862 14.7991L21.0862 14.8134C21.092 13.2011 20.498 11.6294 19.3996 10.448L16.4702 13.1717ZM17.0862 14.7991C17.084 15.4299 16.8457 16.0109 16.4592 16.4203L19.3678 19.1662C20.4752 17.9931 21.0804 16.4257 21.0862 14.8134L17.0862 14.7991ZM16.4592 16.4203C16.0766 16.8256 15.5862 17.0277 15.1032 17.0273L15.0996 21.0273C16.7245 21.0288 18.2564 20.3434 19.3678 19.1662L16.4592 16.4203Z" fill="white" mask="url(#path-4-inside-2_293_14435)"/>
</svg>
