<svg width="362" height="362" viewBox="0 0 362 362" fill="none" xmlns="http://www.w3.org/2000/svg">
<path d="M362 276.856H0V277.037H362V276.856Z" fill="#E8E0D0"/>
<path d="M273.431 284.524H248.522V284.705H273.431V284.524Z" fill="#E8E0D0"/>
<path d="M80.393 284.615H66.3771V284.796H80.393V284.615Z" fill="#E8E0D0"/>
<path d="M181.724 284.19H153.315V284.371H181.724V284.19Z" fill="#E8E0D0"/>
<path d="M152.591 281.616H139.891V281.797H152.591V281.616Z" fill="#E8E0D0"/>
<path d="M307.378 281.706H269.017V281.887H307.378V281.706Z" fill="#E8E0D0"/>
<path d="M171.598 244.567H31.7945C29.516 244.567 27.6619 242.713 27.6619 240.435V43.9179C27.6619 41.6394 29.516 39.7853 31.7945 39.7853H171.598C173.876 39.7853 175.73 41.6394 175.73 43.9179V240.435C175.73 242.713 173.876 244.567 171.598 244.567ZM31.7945 39.967C29.6152 39.967 27.8429 41.7394 27.8429 43.9186V240.435C27.8429 242.615 29.6152 244.387 31.7945 244.387H171.598C173.777 244.387 175.549 242.615 175.549 240.435V43.9179C175.549 41.7394 173.777 39.9663 171.598 39.9663L31.7945 39.967Z" fill="#E8E0D0"/>
<path d="M328.196 244.567H188.393C186.116 244.567 184.262 242.713 184.262 240.435V43.9179C184.262 41.6394 186.116 39.7853 188.393 39.7853H328.196C330.476 39.7853 332.329 41.6394 332.329 43.9179V240.435C332.33 242.713 330.476 244.567 328.196 244.567ZM188.393 39.967C186.215 39.967 184.443 41.7394 184.443 43.9186V240.435C184.443 242.615 186.215 244.387 188.393 244.387H328.196C330.376 244.387 332.148 242.615 332.148 240.435V43.9179C332.148 41.7394 330.376 39.9663 328.196 39.9663L188.393 39.967Z" fill="#E8E0D0"/>
<path d="M318.063 186.233C309.153 172.675 317.288 158.096 315.932 143.014C314.576 127.932 300.243 124.639 302.955 111.855C306.099 97.0327 297.726 82.8018 288.235 82.8018C278.744 82.8018 270.37 97.0327 273.514 111.855C276.226 124.639 261.893 127.932 260.537 143.014C259.18 158.096 267.316 172.674 258.406 186.233C249.496 199.791 251.834 217.751 256.856 226.663C258.24 229.119 259.868 231.293 261.644 233.216C275.893 248.647 300.577 248.647 314.826 233.216C316.601 231.293 318.23 229.119 319.613 226.663C324.634 217.751 326.973 199.791 318.063 186.233Z" fill="#E8E0D0"/>
<path d="M292.737 276.856H283.731V201.029C283.731 198.552 285.757 196.526 288.234 196.526C290.711 196.526 292.737 198.552 292.737 201.029V276.856Z" fill="#E8E0D0"/>
<path d="M231.614 276.856H219.352V201.035C219.352 197.662 222.112 194.904 225.483 194.904C228.856 194.904 231.614 197.663 231.614 201.035V276.856Z" fill="#E8E0D0"/>
<path d="M225.483 256.402C246.343 256.402 263.253 239.492 263.253 218.633C263.253 197.773 246.343 180.863 225.483 180.863C204.624 180.863 187.714 197.773 187.714 218.633C187.714 239.492 204.624 256.402 225.483 256.402Z" fill="#E8E0D0"/>
<path d="M269.868 207.308C271.849 199.331 266.989 191.257 259.011 189.275C251.033 187.293 242.96 192.154 240.978 200.131C238.996 208.109 243.856 216.183 251.834 218.165C259.812 220.147 267.886 215.286 269.868 207.308Z" fill="#E8E0D0"/>
<path d="M203.642 196.32C204.425 191.516 201.165 186.988 196.361 186.205C191.557 185.422 187.028 188.682 186.245 193.486C185.462 198.29 188.722 202.818 193.527 203.601C198.331 204.384 202.86 201.124 203.642 196.32Z" fill="#E8E0D0"/>
<path d="M204.518 196.525C207.934 196.525 210.704 193.756 210.704 190.34C210.704 186.924 207.934 184.155 204.518 184.155C201.102 184.155 198.333 186.924 198.333 190.34C198.333 193.756 201.102 196.525 204.518 196.525Z" fill="#E8E0D0"/>
<path d="M147.674 231.602C141.386 232.536 135.935 234.816 131.228 237.877C131.183 232.147 130.134 226.704 127.441 222.309C123.341 226.304 120.02 231.471 117.337 237.03C116.332 226.58 113.589 216.456 107.514 210.058C98.412 215.783 93.7204 225.326 91.4891 235.432C87.8625 228.956 82.859 222.979 75.9499 218.633C70.3808 224.499 68.6027 232.609 68.7504 240.915C62.4241 233.55 55.3977 227.799 48.5494 227.124C46.8632 238.791 50.4542 249.791 55.0176 258.464C61.0036 269.841 72.9119 276.857 85.7673 276.857H115.513C128.191 276.857 140.077 270.093 146.025 258.897C149.792 251.806 151.584 242.675 147.674 231.602Z" fill="#E8E0D0"/>
<path d="M139.193 81.1887C142.869 70.4221 139.951 62.7571 130.966 62.7571C125.331 62.7571 118.344 65.774 111.539 70.6863C110.771 67.8859 108.606 66.2077 105.123 66.2077C98.9933 66.2077 90.5442 71.393 83.916 78.709C82.3123 77.0778 79.9912 76.0787 77.009 75.918C71.1432 75.5878 64.0378 78.5671 57.8607 83.4135C57.3256 82.6026 56.4083 82.0937 55.1421 82.0184C51.7617 81.8301 47.186 84.8376 44.9127 88.7313C44.7708 88.9767 44.6455 89.212 44.5195 89.4481H51.5409H57.1273H76.5326H86.0822H93.5075H104.945H107.02H135.391H140.977C141.266 86.0532 140.666 83.2151 139.193 81.1887Z" fill="#E8E0D0"/>
<path d="M139.492 146.561C141.287 141.302 139.862 137.557 135.473 137.557C132.72 137.557 129.307 139.031 125.984 141.431C125.609 140.063 124.551 139.243 122.85 139.243C119.855 139.243 115.729 141.776 112.491 145.35C111.707 144.554 110.574 144.065 109.117 143.987C106.251 143.826 102.781 145.281 99.7637 147.648C99.5023 147.252 99.0541 147.003 98.4359 146.967C96.7844 146.875 94.5494 148.344 93.4388 150.246C93.3693 150.365 93.3085 150.481 93.2469 150.596H96.6765H99.4053H108.885H113.549H117.177H122.764H123.777H137.635H140.364C140.504 148.937 140.211 147.551 139.492 146.561Z" fill="#E8E0D0"/>
<path d="M248.163 106.785C247.796 106.731 247.423 106.704 247.046 106.704C247.392 101.45 245.384 98.0962 241.094 98.0962C237.999 98.0962 234.202 99.8476 230.331 102.811C231.438 92.6141 227.891 85.9866 219.86 85.9866C213.381 85.9866 205.18 90.2973 197.078 97.3288C196.368 93.3279 193.981 90.93 189.97 90.93C182.925 90.93 172.913 98.3387 164.885 108.792C164.885 108.792 164.882 108.806 164.875 108.792C163.141 106.461 160.535 105.02 157.11 104.791C150.401 104.32 142.071 108.576 134.685 115.513C134.123 114.341 133.1 113.614 131.637 113.52C127.969 113.263 122.913 117.089 119.976 122.208H128.535H134.337H156.649H167.099H176.403H189.619H214.589H224.321H227.785H241.638H254.068C257.216 114.45 254.708 107.661 248.163 106.785Z" fill="#E8E0D0"/>
<path d="M181 309.554C258.527 309.554 321.376 305.884 321.376 301.356C321.376 296.829 258.527 293.158 181 293.158C103.473 293.158 40.6244 296.829 40.6244 301.356C40.6244 305.884 103.473 309.554 181 309.554Z" fill="#E8E0D0"/>
<path d="M35.3717 109.007L200.423 132.765L222.574 155.118L35.3717 109.007Z" fill="#90BACE"/>
<path opacity="0.6" d="M35.3717 109.007L200.423 132.765L222.574 155.118L35.3717 109.007Z" fill="white"/>
<path d="M35.3717 109.007L200.423 132.765L192.763 165.088L35.3717 109.007Z" fill="#90BACE"/>
<path opacity="0.2" d="M35.3717 109.007L200.423 132.765L192.763 165.088L35.3717 109.007Z" fill="black"/>
<path d="M189.374 71.5862L198.957 116.494C199.476 118.926 197.911 121.34 195.479 121.859L109.99 140.103C107.558 140.622 105.144 139.057 104.625 136.625L95.0409 91.7177C94.7694 90.4464 95.0685 89.1765 95.762 88.181C96.3977 87.2789 97.3585 86.5998 98.519 86.3522L184.008 68.1081C185.169 67.8605 186.324 68.0878 187.272 68.6518C188.311 69.2773 189.103 70.3148 189.374 71.5862Z" fill="#90BACE"/>
<path opacity="0.4" d="M189.374 71.5862L198.957 116.494C199.476 118.926 197.911 121.34 195.479 121.859L109.99 140.103C107.558 140.622 105.144 139.057 104.625 136.625L95.0409 91.7177C94.7694 90.4464 95.0685 89.1765 95.762 88.181C96.3977 87.2789 97.3585 86.5998 98.519 86.3522L184.008 68.1081C185.169 67.8605 186.324 68.0878 187.272 68.6518C188.311 69.2773 189.103 70.3148 189.374 71.5862Z" fill="black"/>
<path d="M187.272 68.6518L158.705 103.717C153.25 110.414 143.868 112.415 136.153 108.529L95.7614 88.1802C96.397 87.2781 97.3578 86.599 98.5183 86.3514L184.008 68.1073C185.17 67.8597 186.324 68.0878 187.272 68.6518Z" fill="#90BACE"/>
<path d="M35.3717 109.007L171.508 141.359L192.764 165.088L35.3717 109.007Z" fill="#90BACE"/>
<path opacity="0.6" d="M35.3717 109.007L171.508 141.359L192.764 165.088L35.3717 109.007Z" fill="white"/>
<path d="M85.0283 140.204L84.662 140.83L99.8083 149.704L100.175 149.078L85.0283 140.204Z" fill="#90BACE"/>
<path d="M106.866 152.995L106.5 153.62L111.949 156.812L112.315 156.187L106.866 152.995Z" fill="#90BACE"/>
<path d="M35.3717 109.007L171.508 141.359L145.046 173.255L35.3717 109.007Z" fill="#90BACE"/>
<path d="M217.46 184.81C217.283 184.81 217.103 184.776 216.928 184.707L194.749 175.926C194.005 175.632 193.641 174.791 193.936 174.047C194.23 173.304 195.067 172.937 195.815 173.234L217.994 182.014C218.738 182.308 219.102 183.149 218.807 183.894C218.582 184.462 218.037 184.81 217.46 184.81Z" fill="#90BACE"/>
<path opacity="0.3" d="M217.46 184.81C217.283 184.81 217.103 184.776 216.928 184.707L194.749 175.926C194.005 175.632 193.641 174.791 193.936 174.047C194.23 173.304 195.067 172.937 195.815 173.234L217.994 182.014C218.738 182.308 219.102 183.149 218.807 183.894C218.582 184.462 218.037 184.81 217.46 184.81Z" fill="black"/>
<path d="M216.154 172.091C215.977 172.091 215.797 172.059 215.622 171.989L203.71 167.273C202.967 166.979 202.603 166.138 202.897 165.393C203.19 164.651 204.03 164.284 204.777 164.58L216.688 169.297C217.432 169.59 217.796 170.432 217.501 171.176C217.275 171.744 216.731 172.091 216.154 172.091Z" fill="#90BACE"/>
<path opacity="0.5" d="M216.154 172.091C215.977 172.091 215.797 172.059 215.622 171.989L203.71 167.273C202.967 166.979 202.603 166.138 202.897 165.393C203.19 164.651 204.03 164.284 204.777 164.58L216.688 169.297C217.432 169.59 217.796 170.432 217.501 171.176C217.275 171.744 216.731 172.091 216.154 172.091Z" fill="white"/>
<path d="M191.252 184.59C191.076 184.59 190.896 184.557 190.72 184.488L169.095 175.926C168.352 175.632 167.987 174.79 168.282 174.046C168.576 173.302 169.417 172.938 170.162 173.233L191.787 181.795C192.53 182.089 192.895 182.93 192.6 183.674C192.375 184.244 191.83 184.59 191.252 184.59Z" fill="#90BACE"/>
<path opacity="0.3" d="M191.252 184.59C191.076 184.59 190.896 184.557 190.72 184.488L169.095 175.926C168.352 175.632 167.987 174.79 168.282 174.046C168.576 173.302 169.417 172.938 170.162 173.233L191.787 181.795C192.53 182.089 192.895 182.93 192.6 183.674C192.375 184.244 191.83 184.59 191.252 184.59Z" fill="black"/>
<path d="M269.546 119.33C271.463 123.076 273.223 126.823 274.894 130.664C276.553 134.505 278.127 138.385 279.484 142.459L279.979 144.003C280.062 144.277 280.191 144.728 280.258 145.049C280.326 145.384 280.399 145.729 280.438 146.035C280.63 147.296 280.663 148.436 280.685 149.557C280.72 151.79 280.57 153.919 280.383 156.037C279.978 160.265 279.318 164.38 278.412 168.506L274.443 168.066C274.392 163.987 274.353 159.869 274.212 155.852C274.14 153.847 274.026 151.847 273.823 149.961C273.72 149.024 273.568 148.105 273.393 147.336C273.351 147.133 273.297 146.978 273.251 146.81C273.194 146.63 273.169 146.588 273.091 146.373L272.545 145.004C271.032 141.341 269.329 137.645 267.593 133.968L262.338 122.939L269.546 119.33Z" fill="#E4897B"/>
<path d="M274.5 166.824L272.646 170.291L278.566 171.942C278.566 171.942 279.693 169.153 278.351 166.954L274.5 166.824Z" fill="#E4897B"/>
<path d="M270.376 175.288L275.819 175.718L278.566 171.943L272.646 170.291L270.376 175.288Z" fill="#E4897B"/>
<path d="M244.62 94.3112C244.535 94.7318 244.243 95.0272 243.968 94.9715C243.693 94.9157 243.539 94.5298 243.625 94.1092C243.71 93.6885 244.002 93.3931 244.277 93.4489C244.552 93.5054 244.706 93.8913 244.62 94.3112Z" fill="#263238"/>
<path d="M244.281 95.0352C244.281 95.0352 242.833 97.2665 241.542 98.2222C242.145 99.0678 243.474 99.0077 243.474 99.0077L244.281 95.0352Z" fill="#DE5753"/>
<path d="M246.633 92.2897C246.565 92.2897 246.498 92.2622 246.448 92.2087C245.694 91.392 244.799 91.5252 244.759 91.5295C244.626 91.5534 244.493 91.4593 244.47 91.3218C244.448 91.1849 244.54 91.0553 244.676 91.0322C244.724 91.0235 245.872 90.8418 246.819 91.8655C246.913 91.9676 246.906 92.1268 246.804 92.2217C246.756 92.2673 246.695 92.2897 246.633 92.2897Z" fill="#263238"/>
<path d="M256.596 100.225C255.833 104.116 255.072 111.246 257.794 113.842C257.794 113.842 256.73 117.789 249.501 117.789C241.55 117.789 245.701 113.843 245.701 113.843C250.04 112.807 249.928 109.587 249.172 106.564L256.596 100.225Z" fill="#E4897B"/>
<path d="M258.886 116.299C259.46 114.392 260.092 112.21 258.784 111.526C257.346 110.774 249.472 110.007 246.757 111.419C244.042 112.831 244.813 116.699 244.813 116.699L258.886 116.299Z" fill="#263238"/>
<path d="M275.586 296.855C275.04 296.855 274.514 296.772 274.308 296.504C274.222 296.392 274.153 296.196 274.313 295.906C274.396 295.754 274.53 295.655 274.708 295.613C275.489 295.433 276.954 296.437 277.016 296.479C277.057 296.507 277.078 296.556 277.068 296.606C277.059 296.655 277.023 296.694 276.974 296.705C276.701 296.77 276.134 296.855 275.586 296.855ZM274.921 295.841C274.866 295.841 274.814 295.846 274.766 295.858C274.659 295.883 274.582 295.939 274.534 296.027C274.42 296.234 274.487 296.322 274.509 296.351C274.736 296.649 275.824 296.654 276.617 296.519C276.159 296.238 275.405 295.841 274.921 295.841Z" fill="#407BFF"/>
<path d="M276.945 296.708C276.924 296.708 276.903 296.702 276.884 296.692C276.334 296.394 275.27 295.229 275.382 294.635C275.402 294.528 275.482 294.342 275.783 294.305C275.974 294.283 276.159 294.335 276.32 294.467C276.938 294.971 277.065 296.506 277.07 296.571C277.074 296.617 277.052 296.662 277.013 296.687C276.992 296.702 276.968 296.708 276.945 296.708ZM275.87 294.552C275.852 294.552 275.832 294.553 275.814 294.556C275.649 294.575 275.636 294.651 275.629 294.683C275.563 295.034 276.241 295.915 276.788 296.329C276.726 295.881 276.556 294.987 276.16 294.662C276.068 294.588 275.974 294.552 275.87 294.552Z" fill="#407BFF"/>
<path d="M243.646 296.856C242.964 296.856 242.305 296.762 242.085 296.455C242.007 296.348 241.946 296.164 242.095 295.904C242.178 295.758 242.313 295.658 242.495 295.609C243.375 295.374 245.239 296.428 245.317 296.473C245.363 296.498 245.387 296.55 245.379 296.602C245.37 296.654 245.331 296.695 245.279 296.706C244.939 296.773 244.283 296.856 243.646 296.856ZM242.804 295.823C242.715 295.823 242.633 295.833 242.56 295.852C242.444 295.884 242.363 295.941 242.313 296.028C242.224 296.185 242.256 296.262 242.289 296.307C242.528 296.639 243.871 296.657 244.869 296.519C244.376 296.266 243.425 295.823 242.804 295.823Z" fill="#407BFF"/>
<path d="M245.254 296.708C245.237 296.708 245.219 296.704 245.203 296.697C244.561 296.409 243.29 295.26 243.386 294.657C243.41 294.516 243.509 294.34 243.856 294.305C244.113 294.281 244.348 294.352 244.554 294.521C245.231 295.077 245.374 296.509 245.38 296.57C245.384 296.614 245.364 296.658 245.328 296.684C245.306 296.7 245.28 296.708 245.254 296.708ZM243.957 294.552C243.932 294.552 243.907 294.554 243.881 294.556C243.654 294.579 243.64 294.668 243.635 294.698C243.577 295.059 244.441 295.963 245.096 296.356C245.028 295.938 244.838 295.08 244.393 294.715C244.26 294.606 244.117 294.552 243.957 294.552Z" fill="#407BFF"/>
<path d="M251.103 296.582H245.784L245.254 284.266H250.573L251.103 296.582Z" fill="#E4897B"/>
<path d="M283.038 296.582H277.718L275.045 284.266H280.364L283.038 296.582Z" fill="#E4897B"/>
<path d="M277.341 295.966H283.316C283.533 295.966 283.721 296.118 283.769 296.33L284.819 301.057C284.929 301.548 284.543 302.012 284.04 302.003C281.955 301.967 280.941 301.844 278.313 301.844C276.696 301.844 273.366 302.012 271.133 302.012C268.949 302.012 268.609 299.805 269.523 299.605C273.621 298.709 275.165 297.472 276.477 296.293C276.714 296.081 277.023 295.966 277.341 295.966Z" fill="#263238"/>
<path d="M245.819 295.966H251.628C251.845 295.966 252.033 296.118 252.081 296.33L253.131 301.057C253.24 301.548 252.868 302.012 252.366 302.004C250.271 301.968 247.243 301.845 244.61 301.845C241.531 301.845 238.872 302.013 235.26 302.013C233.077 302.013 232.471 299.806 233.385 299.606C237.546 298.696 240.943 298.598 244.539 296.381C244.928 296.14 245.36 295.966 245.819 295.966Z" fill="#263238"/>
<path d="M243.251 123.184C238.741 122.832 234.406 122.248 229.997 121.422C227.802 121.001 225.603 120.529 223.406 119.938C221.205 119.348 219.001 118.679 216.772 117.749C216.215 117.52 215.653 117.263 215.091 116.996C214.386 116.647 213.801 116.285 213.285 115.942C212.239 115.251 211.344 114.539 210.453 113.829C208.682 112.41 207.034 110.936 205.407 109.446C202.17 106.452 199.098 103.353 196.14 100.092L198.803 97.116L209.308 104.665C211.042 105.915 212.792 107.136 214.513 108.288C215.371 108.858 216.248 109.399 217.046 109.849C217.45 110.078 217.81 110.25 218.088 110.36C218.519 110.529 218.955 110.695 219.413 110.848C223.09 112.075 227.248 112.862 231.377 113.528C235.512 114.182 239.784 114.721 243.91 115.149L243.251 123.184Z" fill="#E4897B"/>
<path d="M267.317 115.044C272.302 116.188 277.343 130.762 277.343 130.762L267.081 138.123C267.081 138.123 264.215 131.334 261.395 125.398C258.44 119.177 262.221 113.876 267.317 115.044Z" fill="#407BFF"/>
<path opacity="0.4" d="M267.317 115.044C272.302 116.188 277.343 130.762 277.343 130.762L267.081 138.123C267.081 138.123 264.215 131.334 261.395 125.398C258.44 119.177 262.221 113.876 267.317 115.044Z" fill="black"/>
<path d="M264.441 123.008L262.407 127.562C264.513 132.108 266.439 136.612 266.953 137.813C266.881 132.434 265.86 125.759 264.441 123.008Z" fill="#407BFF"/>
<path opacity="0.6" d="M264.441 123.008L262.407 127.562C264.513 132.108 266.439 136.612 266.953 137.813C266.881 132.434 265.86 125.759 264.441 123.008Z" fill="black"/>
<path d="M237.52 115.318C237.52 115.318 231.859 121.712 237.205 161.29C245.776 161.29 261.482 161.29 265.653 161.29C265.849 156.923 263.105 135.62 267.317 115.044C267.317 115.044 262.441 114.065 257.793 113.841C254.158 113.666 248.896 113.55 245.7 113.842C241.488 114.226 237.52 115.318 237.52 115.318Z" fill="#407BFF"/>
<path opacity="0.4" d="M237.52 115.318C237.52 115.318 231.859 121.712 237.205 161.29C245.776 161.29 261.482 161.29 265.653 161.29C265.849 156.923 263.105 135.62 267.317 115.044C267.317 115.044 262.441 114.065 257.793 113.841C254.158 113.666 248.896 113.55 245.7 113.842C241.488 114.226 237.52 115.318 237.52 115.318Z" fill="black"/>
<path d="M235.416 123.008C235.228 124.506 235.083 126.28 234.989 128.372C237.342 127.641 240.267 126.468 242.909 124.651L235.416 123.008Z" fill="#407BFF"/>
<path opacity="0.6" d="M235.416 123.008C235.228 124.506 235.083 126.28 234.989 128.372C237.342 127.641 240.267 126.468 242.909 124.651L235.416 123.008Z" fill="black"/>
<path d="M247.585 123.784C243.779 127.156 229.239 126.819 229.239 126.819L228.76 112.763C228.76 112.763 237.003 113.971 243.58 113.837C251.704 113.673 251.762 120.083 247.585 123.784Z" fill="#407BFF"/>
<path opacity="0.4" d="M247.585 123.784C243.779 127.156 229.239 126.819 229.239 126.819L228.76 112.763C228.76 112.763 237.003 113.971 243.58 113.837C251.704 113.673 251.762 120.083 247.585 123.784Z" fill="black"/>
<path d="M198.933 97.1883L195.282 92.9261L191.384 97.2426C191.384 97.2426 193.784 101.279 197.605 100.642L198.933 97.1883Z" fill="#E4897B"/>
<path d="M190.127 87.9552L188.723 93.517L191.384 97.2434L195.282 92.9262L190.127 87.9552Z" fill="#E4897B"/>
<path d="M245.256 284.269L245.528 290.617H250.849L250.576 284.269H245.256Z" fill="#CE6F64"/>
<path d="M280.366 284.269H275.045L276.425 290.617H281.747L280.366 284.269Z" fill="#CE6F64"/>
<path d="M248.457 89.0245C243.686 86.8199 242.178 77.1965 255.904 79.5799C255.904 79.5799 253.835 81.8729 258.037 83.3209C262.239 84.7681 258.721 93.7682 248.457 89.0245Z" fill="#263238"/>
<path d="M258.823 96.2703C257.457 101.369 256.916 104.423 253.77 106.543C249.037 109.732 243.144 106.073 242.96 100.668C242.794 95.8034 245.057 88.2824 250.528 87.2551C255.919 86.2429 260.19 91.1719 258.823 96.2703Z" fill="#E4897B"/>
<path d="M255.717 82.1704C258.965 83.987 263.368 85.0701 262.926 87.6453C262.385 90.7933 265.588 88.824 264.842 93.5141C264.355 96.5766 258.706 105.857 254.73 105.404C248.753 104.722 249.51 95.592 249.49 90.794C249.478 87.9661 249.346 78.6076 255.717 82.1704Z" fill="#263238"/>
<path d="M248.774 86.2365C247.326 86.5782 245.406 94.9245 251.015 95.689C257.471 96.5687 248.774 86.2365 248.774 86.2365Z" fill="#263238"/>
<path d="M248.921 89.199C247.146 89.3554 243.144 87.2196 243.622 84.0072C243.622 84.0072 246.172 87.7662 248.921 89.199Z" fill="#263238"/>
<path d="M251.551 96.3557C250.996 97.622 249.944 98.6182 248.927 99.1482C247.397 99.9446 246.537 98.7797 246.883 97.2491C247.195 95.8714 248.367 93.7964 249.94 93.6262C251.492 93.4583 252.186 94.9077 251.551 96.3557Z" fill="#E4897B"/>
<path d="M259.515 90.4631C260.589 89.9165 263.036 88.677 263.703 85.1605C263.703 85.1605 266.093 91.8322 259.515 90.4631Z" fill="#263238"/>
<path d="M265.558 90.3929C265.022 90.0786 263.804 89.3626 262.093 90.0511C262.093 90.0511 264.322 87.1588 265.558 90.3929Z" fill="#263238"/>
<path d="M247.297 161.291C247.297 161.291 253.333 201.937 256.646 217.165C260.275 233.841 273.946 289.388 273.946 289.388H283.688C283.688 289.388 274.673 235.187 272.603 218.677C270.355 200.758 265.653 161.291 265.653 161.291H247.297Z" fill="#407BFF"/>
<path opacity="0.5" d="M247.297 161.291C247.297 161.291 253.333 201.937 256.646 217.165C260.275 233.841 273.946 289.388 273.946 289.388H283.688C283.688 289.388 274.673 235.187 272.603 218.677C270.355 200.758 265.653 161.291 265.653 161.291H247.297Z" fill="white"/>
<path d="M272.39 285.799C272.349 285.799 273.396 289.54 273.396 289.54H284.356L284.155 286.202L272.39 285.799Z" fill="#407BFF"/>
<path opacity="0.1" d="M272.39 285.799C272.349 285.799 273.396 289.54 273.396 289.54H284.356L284.155 286.202L272.39 285.799Z" fill="black"/>
<path d="M251.111 175.773C258.091 177.141 257.352 203.169 256.513 216.556C254.5 207.093 251.553 188.884 249.54 175.961C250.004 175.729 250.525 175.657 251.111 175.773Z" fill="#407BFF"/>
<path opacity="0.4" d="M251.111 175.773C258.091 177.141 257.352 203.169 256.513 216.556C254.5 207.093 251.553 188.884 249.54 175.961C250.004 175.729 250.525 175.657 251.111 175.773Z" fill="white"/>
<path d="M237.206 161.291C237.206 161.291 236.473 201.058 237.051 217.277C237.653 234.148 243.546 289.389 243.546 289.389H252.556C252.556 289.389 252.887 235.134 253.287 218.565C253.724 200.502 255.905 161.291 255.905 161.291H237.206V161.291Z" fill="#407BFF"/>
<path opacity="0.5" d="M237.206 161.291C237.206 161.291 236.473 201.058 237.051 217.277C237.653 234.148 243.546 289.389 243.546 289.389H252.556C252.556 289.389 252.887 235.134 253.287 218.565C253.724 200.502 255.905 161.291 255.905 161.291H237.206V161.291Z" fill="white"/>
<path d="M245.422 282.916C245.377 282.916 245.338 282.881 245.332 282.835C243.745 267.546 239.999 230.553 239.525 217.281C239.042 203.734 239.481 173.342 239.627 164.349C239.628 164.3 239.669 164.26 239.718 164.26H239.719C239.769 164.26 239.809 164.302 239.808 164.352C239.662 173.343 239.223 203.732 239.706 217.274C240.18 230.541 243.924 267.529 245.512 282.816C245.518 282.865 245.482 282.91 245.432 282.915C245.429 282.916 245.425 282.916 245.422 282.916Z" fill="#407BFF"/>
<path opacity="0.4" d="M245.422 282.916C245.377 282.916 245.338 282.881 245.332 282.835C243.745 267.546 239.999 230.553 239.525 217.281C239.042 203.734 239.481 173.342 239.627 164.349C239.628 164.3 239.669 164.26 239.718 164.26H239.719C239.769 164.26 239.809 164.302 239.808 164.352C239.662 173.343 239.223 203.732 239.706 217.274C240.18 230.541 243.924 267.529 245.512 282.816C245.518 282.865 245.482 282.91 245.432 282.915C245.429 282.916 245.425 282.916 245.422 282.916Z" fill="white"/>
<path d="M241.812 285.799C241.77 285.799 242.32 289.54 242.32 289.54H253.281L253.577 286.202L241.812 285.799Z" fill="#407BFF"/>
<path opacity="0.1" d="M241.812 285.799C241.77 285.799 242.32 289.54 242.32 289.54H253.281L253.577 286.202L241.812 285.799Z" fill="black"/>
</svg>
