<svg width="73" height="72" viewBox="0 0 73 72" fill="none" xmlns="http://www.w3.org/2000/svg">
<path d="M42.6932 29.5844C42.6931 29.2791 42.6168 28.979 42.4716 28.7137C42.3264 28.4484 42.1173 28.227 41.865 28.0712L20.073 14.6322C19.8215 14.4739 19.5338 14.389 19.24 14.3864C18.9462 14.3838 18.6571 14.4635 18.403 14.6172C18.1473 14.7725 17.936 14.996 17.7908 15.2646C17.6457 15.5332 17.572 15.8372 17.5773 16.1454V43.0235C17.5718 43.3317 17.6453 43.6358 17.7904 43.9045C17.9354 44.1732 18.1467 44.3968 18.4024 44.5522C18.6522 44.7034 18.9361 44.783 19.2251 44.7831C19.526 44.7829 19.8213 44.6978 20.0794 44.5367L41.8679 31.0982C42.12 30.9423 42.3287 30.7207 42.4734 30.4553C42.6181 30.1898 42.6939 29.8897 42.6932 29.5844ZM20.9574 39.9362V19.2327L37.7432 29.5844L20.9574 39.9362Z" fill="#4692B6"/>
<path d="M56.2969 43.4146C55.9815 43.0964 55.5597 42.9185 55.1206 42.9185C54.6814 42.9185 54.2595 43.0964 53.9442 43.4146L47.4967 49.9207C47.1749 50.2439 46.9895 50.6869 46.9814 51.1524C46.9733 51.6179 47.1432 52.0676 47.4536 52.4027C47.764 52.7378 48.1896 52.9308 48.6367 52.9392C49.0838 52.9476 49.5158 52.7707 49.8377 52.4476L53.4068 48.834V60.943C53.4068 61.4097 53.5849 61.8572 53.9018 62.1872C54.2188 62.5172 54.6486 62.7025 55.0969 62.7025C55.5451 62.7025 55.975 62.5172 56.292 62.1872C56.6089 61.8572 56.787 61.4097 56.787 60.943V48.834L60.3798 52.4476C60.7019 52.7723 61.1346 52.9507 61.5829 52.9438C62.0312 52.9369 62.4586 52.7451 62.7714 52.4107C63.0841 52.0762 63.2567 51.6262 63.2513 51.1595C63.2459 50.6927 63.0629 50.2472 62.7425 49.9207L56.2969 43.4146Z" fill="#4692B6"/>
<path d="M56.7871 34.248V7.01497C56.7933 6.09599 56.6248 5.18481 56.2913 4.33393C55.9578 3.48305 55.4659 2.70929 54.8438 2.05722C54.2218 1.40516 53.482 0.887679 52.667 0.534606C51.8521 0.181533 50.978 -0.000157174 50.0953 5.09702e-06H6.73806C5.85291 -0.00110641 4.97624 0.179582 4.15826 0.531723C3.34027 0.883864 2.59705 1.40054 1.97115 2.05216C1.34526 2.70378 0.848975 3.47755 0.510734 4.32914C0.172493 5.18074 -0.00106274 6.09344 4.89582e-06 7.01497V52.154C-0.00015097 53.073 0.174367 53.983 0.513503 54.8314C0.85264 55.6799 1.34969 56.4501 1.97602 57.0977C2.60234 57.7453 3.34556 58.2574 4.16286 58.6047C4.98015 58.9519 5.85536 59.1273 6.73806 59.1208H38.2865C39.3752 62.257 41.2528 65.0314 43.7231 67.1542C46.1935 69.277 49.166 70.6703 52.3302 71.1886C55.4945 71.7069 58.7343 71.3312 61.7115 70.1008C64.6886 68.8703 67.2938 66.8302 69.2549 64.1936C71.2161 61.5569 72.4613 58.4204 72.8605 55.1116C73.2597 51.8028 72.7983 48.4431 71.5244 45.3834C70.2504 42.3237 68.2108 39.6762 65.6184 37.7175C63.0261 35.7587 59.9761 34.5605 56.7871 34.248ZM6.73806 55.6017C6.29913 55.6087 5.86324 55.5247 5.45581 55.3546C5.04839 55.1844 4.67758 54.9315 4.36502 54.6106C4.05246 54.2897 3.80441 53.9072 3.63532 53.4854C3.46624 53.0636 3.37951 52.6111 3.38019 52.154V7.01497C3.37867 6.55544 3.46449 6.10014 3.6327 5.67529C3.80091 5.25044 4.04819 4.86443 4.3603 4.53949C4.67241 4.21455 5.04318 3.95711 5.45126 3.78199C5.85934 3.60686 6.29667 3.51752 6.73806 3.5191H50.0953C50.5343 3.51841 50.969 3.60873 51.3741 3.78477C51.7792 3.96081 52.1466 4.21906 52.4549 4.54446C52.7631 4.86986 53.006 5.25589 53.1695 5.68005C53.3329 6.10421 53.4136 6.558 53.4069 7.01497V34.2396C44.4494 35.1068 37.1717 43.0681 37.1717 52.7748C37.1804 53.7224 37.2625 54.6678 37.4169 55.6017H6.73806ZM55.1201 67.9417C51.273 67.937 47.5846 66.3444 44.8635 63.5131C42.1425 60.6817 40.6107 56.8427 40.604 52.8374C40.5972 48.8322 42.1162 44.9876 44.8277 42.1464C47.5393 39.3052 51.2223 37.6992 55.0694 37.6805C55.1014 37.6825 55.1328 37.6856 55.1651 37.6856C55.1872 37.6856 55.2085 37.683 55.2303 37.6821C59.0771 37.7092 62.7566 39.3231 65.4624 42.17C68.1681 45.0168 69.6793 48.8644 69.6646 52.8694C69.65 56.8743 68.1107 60.7098 65.3842 63.5352C62.6577 66.3605 58.967 67.9451 55.1201 67.9417Z" fill="#4692B6"/>
</svg>
