<svg width="73" height="73" viewBox="0 0 73 73" fill="none" xmlns="http://www.w3.org/2000/svg">
<path d="M36.5 0C16.3578 0 0 16.3578 0 36.5C0 56.6422 16.3578 73 36.5 73C56.6422 73 73 56.6422 73 36.5C73 16.3578 56.6422 0 36.5 0ZM36.5 2.82948C40.923 2.82487 45.3034 3.69264 49.3906 5.38311C53.4778 7.07358 57.1914 9.55355 60.3189 12.6811C63.4464 15.8086 65.9264 19.5222 67.6169 23.6094C69.3074 27.6966 70.1751 32.077 70.1705 36.5C70.1705 55.1238 55.1238 70.264 36.5 70.264C17.8762 70.264 2.82948 55.1238 2.82948 36.5C2.82487 32.077 3.69264 27.6966 5.38311 23.6094C7.07358 19.5222 9.55355 15.8086 12.6811 12.6811C15.8086 9.55355 19.5222 7.07358 23.6094 5.38311C27.6966 3.69264 32.077 2.82487 36.5 2.82948ZM17.52 26.28V49.64H49.64V44.895L58.4 49.094V26.829L49.64 31.025V26.28H17.52ZM20.44 29.2H46.72V46.72H20.44V29.2ZM55.48 31.4805V44.4395L49.64 41.61V34.2195L55.48 31.4805Z" fill="#4692B6"/>
</svg>
